<svg viewBox="0 0 17 20" xmlns="http://www.w3.org/2000/svg" fill-rule="evenodd" clip-rule="evenodd" stroke-linejoin="round" stroke-miterlimit="2"><path d="M5.069 4.846c.166 0 .335-.021.496.005.239.039.47.114.707.168.331.076.642.21.96.324.29.104.593.179.884.285.177.065.352.08.532.058.115-.015.227-.051.337-.086.305-.098.61-.197.913-.303.224-.078.44-.176.667-.248.19-.06.389-.1.584-.143.165-.036.332-.065.498-.097.047-.009.094-.025.14-.025.295-.001.592-.023.883.011.185.022.38.02.562.095.101.042.217.048.326.071.561.116 1.066.358 1.54.662.369.236.666.551.96.867.044.049.073.112.111.167.064.092.068.108-.022.178-.121.096-.252.181-.379.271a3.298 3.298 0 00-.638.57c-.098.119-.206.23-.304.349a2.55 2.55 0 00-.352.562c-.09.192-.175.386-.256.583a1.2 1.2 0 00-.075.252 7.576 7.576 0 00-.08.458c-.017.118-.02.238-.041.355-.05.27-.02.537.028.804a.7.7 0 01.011.092c.009.219.064.427.12.638.124.466.334.891.612 1.287.164.234.35.452.56.645.29.266.588.524.95.7.128.061.252.131.375.199.064.035.106.077.071.162-.065.157-.112.322-.18.478-.162.373-.32.747-.501 1.111a7.66 7.66 0 01-.432.734c-.175.273-.36.54-.549.803a7.017 7.017 0 01-.67.829c-.12.122-.23.254-.352.375-.337.331-.721.6-1.18.744-.184.057-.373.123-.577.103-.101-.01-.204-.002-.305-.001-.233.003-.45-.068-.672-.122-.082-.02-.162-.048-.242-.072a4.836 4.836 0 01-.675-.25c-.146-.067-.31-.097-.467-.144-.081-.024-.16-.054-.244-.07-.214-.041-.429-.09-.646-.108-.19-.016-.383.002-.575.01-.08.003-.158.023-.238.029a2.129 2.129 0 00-.574.124c-.163.058-.336.089-.5.145-.183.062-.358.144-.54.207-.19.065-.383.118-.575.174-.141.041-.284.08-.425.117a.756.756 0 01-.125.019c-.265.018-.511-.041-.763-.123-.42-.136-.767-.369-1.092-.651a6.958 6.958 0 01-.896-.952c-.25-.316-.47-.653-.711-.976-.266-.357-.472-.748-.69-1.132-.134-.24-.236-.498-.345-.751a15.826 15.826 0 01-.298-.743c-.072-.193-.127-.392-.192-.588-.057-.175-.117-.349-.172-.524a2.244 2.244 0 01-.06-.24c-.032-.157-.057-.315-.087-.472-.028-.151-.06-.302-.09-.453-.005-.02-.018-.039-.02-.059-.03-.257-.074-.514-.081-.771-.013-.494-.006-.989-.002-1.483.001-.102.026-.205.04-.307.005-.036.017-.071.019-.107.008-.229.057-.449.126-.668.058-.186.086-.381.146-.567.061-.186.134-.367.22-.539.116-.235.24-.468.381-.689.143-.224.306-.436.471-.645a4.38 4.38 0 01.627-.613c.175-.147.367-.268.559-.391.333-.212.7-.357 1.064-.504a1.33 1.33 0 01.243-.07c.14-.028.282-.05.424-.074.135-.023.27-.052.406-.065.112-.01.225-.002.337-.002v.008m3.331-.27c-.002-.199 0-.39-.009-.581-.012-.245.041-.484.096-.717.094-.39.261-.755.475-1.097.15-.242.32-.471.507-.689.168-.197.355-.374.555-.537.251-.203.52-.371.8-.502.249-.115.5-.227.755-.323.125-.047.264-.06.397-.083.113-.02.227-.043.341-.046.157-.006.183.026.184.181 0 .145.028.297-.007.434-.053.211-.018.433-.105.639-.06.145-.087.304-.13.456a3.42 3.42 0 01-.372.805 5.21 5.21 0 01-.658.872 3.889 3.889 0 01-.962.769 3.128 3.128 0 01-.807.326 3.795 3.795 0 01-.966.108c-.02 0-.04-.006-.094-.015" fill="#fff"/></svg>