<svg width="40" height="41" viewBox="0 0 40 41" fill="none" xmlns="http://www.w3.org/2000/svg"><path fill-rule="evenodd" clip-rule="evenodd" d="M28.857 29.167L21.534 17.52v-6.348l13.112 21.854-5.789-3.859zM12.775 31.74h14.392l4.672 3.115H7.324l5.45-3.115zm5.681-14.22l-7.29 11.593-5.288 3.023 12.578-20.964v6.348zm1.539 3.336l4.91 7.806h-9.82l4.91-7.806zM39.78 35.6L21.315 4.824c-.05-.08-.114-.144-.175-.212a1.516 1.516 0 00-1.145-.534c-.462 0-.862.212-1.145.534-.062.068-.126.13-.174.212L.21 35.601a1.58 1.58 0 00-.163.383c-.003.01-.003.019-.005.028a1.523 1.523 0 00-.02.63 1.494 1.494 0 00.17.512l.001.003c.026.044.062.077.09.118.052.07.098.145.158.205.058.058.126.101.192.15.045.031.082.068.126.094.073.042.15.067.227.096.049.018.093.045.144.058.116.031.234.044.353.048.017 0 .03.006.046.006H38.46a1.538 1.538 0 001.32-2.331z" fill="#495057"/></svg>