<svg xmlns="http://www.w3.org/2000/svg" width="16" height="16" fill="none"><path fill="#687485" fill-rule="evenodd" d="M1.675 7.712c0-3.128 2.782-5.749 6.325-5.749 3.542 0 6.325 2.621 6.325 5.749 0 3.128-2.783 5.749-6.325 5.749-.63 0-1.237-.084-1.809-.239a.588.588 0 0 0-.491.087c-.6.421-1.32.683-2.1.723.117-.25.21-.515.274-.79.163-.702-.201-1.308-.571-1.68-1.018-1.026-1.628-2.376-1.628-3.85Zm.796 7.419a5.254 5.254 0 0 0 .92.081c1.011 0 1.956-.29 2.755-.79.593.14 1.215.214 1.854.214 4.093 0 7.5-3.053 7.5-6.924C15.5 3.841 12.093.788 8 .788S.5 3.841.5 7.712c0 1.81.752 3.451 1.969 4.677.236.238.292.45.26.586a2.855 2.855 0 0 1-.603 1.197.587.587 0 0 0 .345.959Zm8.786-5.54a.743.743 0 0 1-1.088.244L8.546 8.66l.179 2.02a.728.728 0 1 1-1.45 0l.178-2.02L5.83 9.836a.743.743 0 1 1-.752-1.274l1.839-.866-1.842-.867a.742.742 0 1 1 .759-1.268l1.62 1.201-.18-2.06a.729.729 0 1 1 1.452 0l-.18 2.06 1.62-1.2a.743.743 0 1 1 .76 1.268l-1.833.866 1.83.865c.387.183.54.654.334 1.03Z" clip-rule="evenodd"/></svg>