<svg viewBox="0 0 18 18" fill="none" xmlns="http://www.w3.org/2000/svg"><path opacity=".15" d="M13.702 8.22a.9.9 0 0 1 0 1.56L4.95 14.833a.9.9 0 0 1-1.35-.78V3.947a.9.9 0 0 1 1.35-.78l8.752 5.054Z" fill="url(#paint0_linear_954_1279)"/><path fill-rule="evenodd" clip-rule="evenodd" d="M12.697 6.165a.592.592 0 1 0 .78-.89L8.582 2.071a.593.593 0 0 0-.634-.094c-.212.096-.308.291-.308.524v9.402a3.407 3.407 0 0 0-1.814-.512c-1.631 0-2.959 1.063-2.959 2.371 0 1.302 1.328 2.362 2.959 2.362 1.63 0 2.958-1.06 2.958-2.362a.204.204 0 0 0-.004-.036l-.005-.031.005-.019a.079.079 0 0 0 .004-.023V3.821l3.913 2.344Zm.803 9.96a.572.572 0 0 1-.572-.572v-1.447h-1.447a.572.572 0 0 1 0-1.144h1.447v-1.447a.572.572 0 0 1 1.144 0v1.447h1.447a.572.572 0 0 1 0 1.144h-1.447v1.447a.572.572 0 0 1-.572.572Z" fill="url(#paint1_linear_954_1279)"/><defs><linearGradient id="paint0_linear_954_1279" x1="13.604" y1="14.132" x2="2.412" y2="4.414" gradientUnits="userSpaceOnUse"><stop offset=".026" stop-color="#FA7250"/><stop offset=".401" stop-color="#FF1893"/><stop offset=".995" stop-color="#A78AFF"/></linearGradient><linearGradient id="paint1_linear_954_1279" x1="15.404" y1="15.144" x2="1.982" y2="2.895" gradientUnits="userSpaceOnUse"><stop offset=".026" stop-color="#FA7250"/><stop offset=".401" stop-color="#FF1893"/><stop offset=".995" stop-color="#A78AFF"/></linearGradient></defs></svg>