<svg width="40" height="41" viewBox="0 0 40 41" fill="none" xmlns="http://www.w3.org/2000/svg"><path fill-rule="evenodd" clip-rule="evenodd" d="M31.667 40.135H8.333c-2.756 0-5-2.241-5-5V18.47c0-2.757 2.244-5 5-5H10v-3.334c0-5.513 4.485-10 10-10s10 4.487 10 10v3.334h1.667c2.756 0 5 2.243 5 5v16.666c0 2.759-2.244 5-5 5zM20 3.47a6.673 6.673 0 00-6.667 6.666v3.334h13.334v-3.334A6.673 6.673 0 0020 3.47zm13.333 15c0-.92-.748-1.667-1.666-1.667H8.333c-.918 0-1.666.747-1.666 1.667v16.666a1.67 1.67 0 001.666 1.667h23.334a1.67 1.67 0 001.666-1.667V18.47zm-11.666 7.87v3.796a1.667 1.667 0 01-3.334 0V26.34a3.322 3.322 0 01-1.666-2.87A3.337 3.337 0 0120 20.135a3.337 3.337 0 013.333 3.334 3.322 3.322 0 01-1.666 2.87z" fill="#495057"/></svg>