<svg xmlns="http://www.w3.org/2000/svg" width="44" height="44" fill="none"><path fill="#3F4355" fill-rule="evenodd" d="M26.667 15.333a2 2 0 0 1 2 2v9.334a2 2 0 0 1-2 2h-9.334a2 2 0 0 1-2-2v-9.334a2 2 0 0 1 2-2h9.334Zm-.112 1.213a1 1 0 0 1 1 1v8.91a1 1 0 0 1-1 1h-5.428v-10.91h5.428Zm-9.11 10.91h2.549v-10.91h-2.55a1 1 0 0 0-1 1v8.91a1 1 0 0 0 1 1Zm.987-8.59a.567.567 0 0 0 0-1.134h-.537a.567.567 0 1 0 0 1.133h.537Zm.567 1.689a.567.567 0 0 1-.567.566h-.537a.567.567 0 1 1 0-1.133h.537c.313 0 .567.254.567.567Zm-.567 2.822a.567.567 0 0 0 0-1.133h-.537a.567.567 0 1 0 0 1.133h.537Z" clip-rule="evenodd"/></svg>