<svg width="40" height="41" viewBox="0 0 40 41" fill="none" xmlns="http://www.w3.org/2000/svg"><path fill-rule="evenodd" clip-rule="evenodd" d="M28.333 32.411H11.667C5.233 32.411 0 27.178 0 20.744 0 14.311 5.233 9.078 11.667 9.078h16.666C34.767 9.078 40 14.31 40 20.744s-5.233 11.667-11.667 11.667zm-25-11.667c0 4.596 3.739 8.334 8.334 8.334s8.335-3.738 8.335-8.334c0-4.595-3.74-8.333-8.335-8.333-4.595 0-8.334 3.739-8.334 8.333zm25-8.333h-8.515a11.627 11.627 0 013.517 8.333c0 3.264-1.35 6.214-3.517 8.334h8.515c4.595 0 8.334-3.738 8.334-8.334 0-4.595-3.739-8.333-8.334-8.333z" fill="#495057"/></svg>