<svg width="40" height="41" viewBox="0 0 40 41" fill="none" xmlns="http://www.w3.org/2000/svg"><path fill-rule="evenodd" clip-rule="evenodd" d="M33.333 40.135H6.667A1.666 1.666 0 015 38.47V5.135c0-.92.745-1.666 1.667-1.666h5V1.802c0-.92.745-1.667 1.666-1.667h13.334c.921 0 1.666.747 1.666 1.667v1.667h5c.922 0 1.667.746 1.667 1.666V38.47c0 .92-.745 1.666-1.667 1.666zM25 3.47H15v.833c0 .452.453.833.993.833h8.014c.538 0 .993-.381.993-.833V3.47zm6.667 3.333h-4.22a4.367 4.367 0 01-3.44 1.667h-8.014a4.367 4.367 0 01-3.44-1.667h-4.22v30h23.334v-30zm-18.789 5.033l.789.835 1.755-1.975a1.662 1.662 0 012.351-.138c.689.61.75 1.663.139 2.352l-2.962 3.333c-.31.35-.752.552-1.22.56h-.025c-.458 0-.897-.188-1.212-.522l-2.038-2.155a1.67 1.67 0 01.065-2.356 1.669 1.669 0 012.358.066zm0 8.334l.789.833 1.755-1.973a1.665 1.665 0 112.49 2.213l-2.962 3.333a1.66 1.66 0 01-1.22.56h-.025c-.458 0-.897-.188-1.212-.521l-2.038-2.155a1.668 1.668 0 012.423-2.29zm0 8.333l.789.835 1.755-1.975a1.662 1.662 0 012.351-.138c.689.61.75 1.663.139 2.351L14.95 32.91a1.66 1.66 0 01-1.22.56h-.025a1.67 1.67 0 01-1.212-.522l-2.038-2.155a1.67 1.67 0 01.065-2.357 1.669 1.669 0 012.358.067zm8.789-16.7h6.666a1.666 1.666 0 110 3.333h-6.666a1.666 1.666 0 110-3.333zm0 8.333h6.666a1.666 1.666 0 110 3.334h-6.666a1.666 1.666 0 110-3.334zm0 8.334h6.666a1.666 1.666 0 110 3.333h-6.666a1.666 1.666 0 110-3.333z" fill="#495057"/></svg>