<svg width="18" height="15" fill="none" xmlns="http://www.w3.org/2000/svg"><path fill-rule="evenodd" clip-rule="evenodd" d="M.3 2.048C.3 1.083 1.083.3 2.048.3h10.993c1.248 0 2.278.932 2.432 2.138A2.7 2.7 0 0117.7 5.097V12a2.7 2.7 0 01-2.7 2.7H3A2.7 2.7 0 01.3 12V2.048zm1.4 1.714V12A1.3 1.3 0 003 13.3h12a1.3 1.3 0 001.3-1.3v-.48h-4.472a2.7 2.7 0 01-2.7-2.7v-.445a2.7 2.7 0 012.7-2.7H16.3v-.578a1.3 1.3 0 00-1.3-1.3H2.048a1.74 1.74 0 01-.348-.035zm14.6 3.313h-4.472a1.3 1.3 0 00-1.3 1.3v.445a1.3 1.3 0 001.3 1.3H16.3V7.075zM1.7 2.048c0 .193.156.349.348.349h11.984a1.052 1.052 0 00-.991-.697H2.048a.348.348 0 00-.348.348z" fill="#495057"/></svg>