<svg width="286" height="311" viewBox="0 0 286 311" fill="none" xmlns="http://www.w3.org/2000/svg"><path d="M318.35 255.029c-18.587-2.716-37.795-6.106-56.534-6.627-16.461-.461-34.5-2.203-47.455-13.472-8.435-7.34-13.437-17.782-17.856-28.042-12.724-29.742-22.068-60.823-30.381-92.09-4.606-17.366-9.421-34.549-20.807-48.837-10.313-12.92-29.742-20.33-43.114-30.25-13.55-10.074-26.03-22.355-32.927-37.769-4.229-9.443-6.219-20.125-4.168-30.242 1.912-9.387 7.192-17.822 13.659-24.896 12.442-13.633 29.272-22.71 46.859-28.339 18.817-6.058 39.342-8.33 58.333-2.89 17.852 5.111 33.171 16.658 46.681 29.395 37.078 35.06 71.261 70.348 114.357 98.39 5.919 3.851 13.637 8.71 23.402 17.118 10.617 9.14 54.704 47.099 62.031 107.026 3.967 32.432 3.172 96.718-40.107 101.564-10.534 1.182-21.09-1.1-31.502-3.142a781.609 781.609 0 00-40.471-6.897z" fill="url(#paint0_linear)"/><defs><linearGradient id="paint0_linear" x1="167.181" y1="-145.731" x2="92.521" y2="298.711" gradientUnits="userSpaceOnUse"><stop stop-color="#BF14A2"/><stop offset="1" stop-color="#F73A1C"/></linearGradient></defs></svg>