<svg width="237" height="304" viewBox="0 0 237 304" fill="none" xmlns="http://www.w3.org/2000/svg"><path d="M154.571-19.85c7.021 16.21 13.723 33.107 22.91 48.902 8.068 13.876 15.732 29.389 11.708 43.006-2.623 8.867-9.972 15.631-17.447 21.864-21.716 17.994-46.452 33.492-71.899 48.175-14.138 8.146-27.994 16.421-35.702 29.474-6.96 11.816-3.968 29.893-6.496 43.526-2.58 13.819-7.812 27.291-18.91 36.869-6.798 5.87-15.93 10.176-26.613 10.963-9.917.723-20.67-1.605-30.74-5.261-19.397-7.03-36.73-18.856-51.171-32.168-15.487-14.233-28.255-30.83-32.893-48.053-4.364-16.189-1.297-31.851 3.838-46.297 14.19-39.67 30.092-76.975 34.496-119.94.604-5.9 1.238-13.555 4.19-23.798 3.207-11.136 16.533-57.383 69.75-78.33 28.8-11.337 90.362-26.572 117.335 8.413 6.568 8.514 9.853 17.903 13.29 27.113a689.543 689.543 0 0014.354 35.541z" fill="url(#paint0_linear)"/><defs><linearGradient id="paint0_linear" x1="465" y1="-183" x2="-279.312" y2="176.827" gradientUnits="userSpaceOnUse"><stop stop-color="#4C54D2"/><stop offset=".563" stop-color="#BF14A2"/><stop offset="1" stop-color="#F73A1C"/></linearGradient></defs></svg>