<svg xmlns="http://www.w3.org/2000/svg" width="235" height="212" fill="none" viewBox="0 0 235 212"><g fill-rule="evenodd" clip-rule="evenodd" filter="url(#filter0_d)"><path fill="#FF4724" d="M23.867 168.104l55.5-32.289 38.263-66.407V5.381c-1.009 0-2.018.667-2.784 1.992L69.523 86.035l-45.32 78.663c-.763 1.327-.836 2.531-.336 3.406z"/><path fill="#9E1F63" d="M117.631 5.381v64.027l38.261 66.407 55.5 32.289c.502-.875.429-2.079-.335-3.406l-45.321-78.663-45.323-78.662c-.765-1.327-1.775-1.992-2.782-1.992z"/><path fill="#662D91" d="M211.391 168.104l-55.5-32.288H79.368l-55.5 32.288c.5.88 1.576 1.425 3.107 1.425h181.307c1.532 0 2.608-.545 3.109-1.425z"/><path fill="#fff" d="M79.368 135.816h76.523L117.63 69.409l-38.262 66.407z"/></g><defs><filter id="filter0_d" width="234.451" height="210.435" x=".405" y=".753" color-interpolation-filters="sRGB" filterUnits="userSpaceOnUse"><feFlood flood-opacity="0" result="BackgroundImageFix"/><feColorMatrix in="SourceAlpha" values="0 0 0 0 0 0 0 0 0 0 0 0 0 0 0 0 0 0 127 0"/><feOffset dy="18.515"/><feGaussianBlur stdDeviation="11.572"/><feColorMatrix values="0 0 0 0 0 0 0 0 0 0 0 0 0 0 0 0 0 0 0.2 0"/><feBlend in2="BackgroundImageFix" result="effect1_dropShadow"/><feBlend in="SourceGraphic" in2="effect1_dropShadow" result="shape"/></filter></defs></svg>