<svg xmlns="http://www.w3.org/2000/svg" xmlns:xlink="http://www.w3.org/1999/xlink" viewBox="0,0,256,256" width="64px" height="64px"><defs><linearGradient x1="29.399" y1="21.083" x2="29.399" y2="44.334" gradientUnits="userSpaceOnUse" id="color-1"><stop offset="0" stop-color="#8ab4ff"></stop><stop offset="1" stop-color="#e492ff"></stop></linearGradient><linearGradient x1="41.474" y1="21.083" x2="41.474" y2="44.334" gradientUnits="userSpaceOnUse" id="color-2"><stop offset="0" stop-color="#8ab4ff"></stop><stop offset="1" stop-color="#e492ff"></stop></linearGradient><linearGradient x1="29.976" y1="21.083" x2="29.976" y2="44.334" gradientUnits="userSpaceOnUse" id="color-3"><stop offset="0" stop-color="#8ab4ff"></stop><stop offset="1" stop-color="#e492ff"></stop></linearGradient><linearGradient x1="29.834" y1="7.965" x2="30.211" y2="57.379" gradientUnits="userSpaceOnUse" id="color-4"><stop offset="0" stop-color="#1a6dff"></stop><stop offset="1" stop-color="#c822ff"></stop></linearGradient></defs><g transform="translate(-47.36,-47.36) scale(1.37,1.37)"><g fill="none" fill-rule="nonzero" stroke="none" stroke-width="1" stroke-linecap="butt" stroke-linejoin="miter" stroke-miterlimit="10" stroke-dasharray="" stroke-dashoffset="0" font-family="none" font-weight="none" font-size="none" text-anchor="none" style="mix-blend-mode: normal"><g transform="translate(7.99236,-0.0087) scale(4,4)"><path d="M33,31l5.706,-11.218l-10.787,1.976l-7.826,9.242z" fill="url(#color-1)"></path><path d="M42.467,22.128l-5.467,10.872l6.193,9.524l2.755,-10.211z" fill="url(#color-2)"></path><path d="M20.422,35l8.313,8.181l10.795,1.644l-6.53,-9.825z" fill="url(#color-3)"></path><path d="M47.458,55.001c-0.115,0 -0.233,-0.01 -0.354,-0.032l-17.443,-2.998c-0.681,-0.116 -1.262,-0.587 -1.519,-1.228l-1.496,-3.743h-5.063c-0.514,0 -1.003,-0.195 -1.377,-0.551l-12.586,-12.002c-0.785,-0.747 -0.826,-2.005 -0.09,-2.804l12.001,-13.001c0.377,-0.408 0.912,-0.642 1.469,-0.642h4.646l1.496,-3.743c0.239,-0.598 0.756,-1.047 1.383,-1.201l16.417,-4c0.984,-0.234 2.029,0.333 2.361,1.284l5.585,16.001c0.174,0.503 0.145,1.041 -0.082,1.518l-2.539,4.31l2.411,3.518c0.298,0.486 0.385,1.007 0.275,1.512l-3.543,16.229c-0.197,0.911 -1.018,1.573 -1.952,1.573zM47.457,53.001l0.001,1l-0.001,-1c0.001,0 0.001,0 0,0zM28.898,47.248l1.102,2.753l17.457,2.999l3.543,-16.229l-1.517,-2.211l-3.715,13.758l-9.92,-15.255l8.657,-17.216l4.816,13.986l1.72,-2.913l-5.627,-15.922l-16.415,4l-1.076,2.69l14.301,-2.62l-8.611,16.932h-19.602l10.156,-12h-3.167l-12,13l12.584,12h3.301l-11.156,-11h19.808l10.293,15.49zM28.038,45.096l11.632,1.748l-7.206,-10.844h-13.859l9.128,9l0.142,0.063zM38.151,32.937l6.854,10.538l2.992,-11.082l0.019,-0.158l-0.028,-0.137l-3.828,-11.112zM18.323,30h14.063l6.223,-12.235l-11.754,2.154z" fill="url(#color-4)"></path></g></g></g></svg>