<svg xmlns="http://www.w3.org/2000/svg" width="233" height="233" fill="none" viewBox="0 0 233 233"><rect width="232.014" height="232.014" x=".382" y=".351" fill="#662D91" rx="6.96"/><rect width="232.014" height="232.014" x=".382" y=".351" fill="url(#a)" fill-opacity=".4" rx="6.96"/><path fill="#fff" d="M41.099 124.554v2.779h-4.575v14.386h-3.443v-14.386h-4.574v-2.779h12.592zm10.185 3.344c1.033 0 1.95.23 2.754.689.804.443 1.427 1.107 1.87 1.992.458.869.688 1.918.688 3.148v7.992h-3.443v-7.525c0-1.082-.27-1.91-.812-2.484-.54-.59-1.279-.885-2.213-.885-.951 0-1.705.295-2.263.885-.54.574-.811 1.402-.811 2.484v7.525H43.61v-18.198h3.443v6.271c.442-.59 1.033-1.049 1.77-1.377.738-.345 1.558-.517 2.46-.517zm21.251 6.714c0 .492-.032.935-.098 1.328h-9.96c.082.984.426 1.754 1.033 2.312.606.557 1.352.836 2.238.836 1.278 0 2.188-.549 2.73-1.648h3.713c-.393 1.312-1.148 2.394-2.263 3.247-1.114.836-2.483 1.254-4.106 1.254-1.312 0-2.493-.287-3.542-.861a6.332 6.332 0 01-2.435-2.484c-.573-1.066-.86-2.295-.86-3.689 0-1.41.287-2.648.86-3.713a6.007 6.007 0 012.41-2.46c1.033-.573 2.222-.86 3.566-.86 1.296 0 2.452.278 3.468.836a5.764 5.764 0 012.386 2.385c.573 1.017.86 2.189.86 3.517zm-3.566-.984c-.016-.885-.336-1.59-.959-2.115-.623-.541-1.385-.811-2.287-.811-.852 0-1.574.262-2.164.787-.574.508-.926 1.221-1.058 2.139h6.468zm21.678-.713c.968.181 1.763.664 2.386 1.451.623.787.934 1.689.934 2.705 0 .919-.23 1.73-.688 2.435-.443.689-1.09 1.23-1.943 1.623-.853.394-1.861.59-3.025.59h-7.403v-17.165h7.083c1.164 0 2.164.188 3 .565.853.377 1.493.902 1.919 1.574.443.672.664 1.435.664 2.287 0 1-.27 1.837-.812 2.509-.524.672-1.23 1.147-2.115 1.426zm-6.296-1.279H87.5c.82 0 1.451-.18 1.894-.541.443-.377.664-.91.664-1.598 0-.689-.221-1.222-.664-1.599-.443-.377-1.074-.565-1.894-.565h-3.147v4.303zm3.468 7.28c.836 0 1.484-.197 1.943-.59.475-.394.713-.951.713-1.673 0-.737-.246-1.311-.738-1.721-.491-.426-1.155-.64-1.992-.64h-3.394v4.624h3.468zm12.335-8.706a4.881 4.881 0 011.722-1.697c.721-.41 1.541-.615 2.459-.615v3.615h-.91c-1.082 0-1.902.255-2.459.763-.541.508-.812 1.393-.812 2.656v6.787h-3.443v-13.624h3.443v2.115zm5.615 4.648c0-1.377.27-2.599.811-3.664.558-1.066 1.304-1.886 2.238-2.46.951-.573 2.009-.86 3.173-.86 1.016 0 1.902.205 2.656.614.771.41 1.385.927 1.844 1.55v-1.943h3.468v13.624h-3.468v-1.992c-.442.64-1.057 1.173-1.844 1.599-.771.41-1.664.615-2.681.615a5.848 5.848 0 01-3.148-.886c-.934-.59-1.68-1.418-2.238-2.483-.541-1.083-.811-2.32-.811-3.714zm10.722.049c0-.836-.164-1.549-.491-2.139-.328-.607-.771-1.066-1.328-1.378a3.492 3.492 0 00-1.796-.491 3.48 3.48 0 00-1.77.467c-.541.311-.984.77-1.328 1.377-.328.59-.492 1.295-.492 2.115 0 .82.164 1.541.492 2.164.344.607.787 1.074 1.328 1.402a3.434 3.434 0 001.77.492 3.63 3.63 0 001.796-.467c.557-.328 1-.787 1.328-1.378.327-.606.491-1.328.491-2.164zm12.512 3.64l3.443-10.452h3.664l-5.041 13.624h-4.181l-5.017-13.624h3.689l3.443 10.452zm21.706-3.935c0 .492-.033.935-.098 1.328h-9.96c.082.984.426 1.754 1.033 2.312.606.557 1.352.836 2.238.836 1.278 0 2.188-.549 2.729-1.648h3.714c-.394 1.312-1.148 2.394-2.263 3.247-1.114.836-2.483 1.254-4.107 1.254-1.311 0-2.492-.287-3.541-.861a6.337 6.337 0 01-2.435-2.484c-.574-1.066-.86-2.295-.86-3.689 0-1.41.286-2.648.86-3.713a6.007 6.007 0 012.41-2.46c1.033-.573 2.222-.86 3.566-.86 1.296 0 2.451.278 3.468.836a5.76 5.76 0 012.385 2.385c.574 1.017.861 2.189.861 3.517zm-3.566-.984c-.016-.885-.336-1.59-.959-2.115-.623-.541-1.385-.811-2.287-.811-.853 0-1.574.262-2.164.787-.574.508-.927 1.221-1.058 2.139h6.468zm22.465 4.821h-6.837l-1.131 3.27h-3.615l6.173-17.19h4.008l6.173 17.19h-3.64l-1.131-3.27zm-.934-2.755l-2.484-7.181-2.484 7.181h4.968zm7.127-.836c0-1.377.271-2.599.812-3.664.557-1.066 1.311-1.886 2.262-2.46.951-.573 2.009-.86 3.173-.86.885 0 1.729.196 2.533.59.803.377 1.443.885 1.918 1.525v-6.468h3.492v18.198h-3.492v-2.016c-.426.672-1.025 1.213-1.795 1.623-.771.41-1.664.615-2.681.615a5.848 5.848 0 01-3.148-.886c-.951-.59-1.705-1.418-2.262-2.483-.541-1.083-.812-2.32-.812-3.714zm10.723.049c0-.836-.164-1.549-.492-2.139-.328-.607-.771-1.066-1.328-1.378a3.49 3.49 0 00-1.795-.491c-.64 0-1.23.155-1.771.467-.541.311-.984.77-1.328 1.377-.328.59-.492 1.295-.492 2.115 0 .82.164 1.541.492 2.164.344.607.787 1.074 1.328 1.402a3.437 3.437 0 001.771.492c.639 0 1.237-.156 1.795-.467.557-.328 1-.787 1.328-1.378.328-.606.492-1.328.492-2.164zm12.044 7.034c-1.115 0-2.115-.197-3.001-.59-.885-.41-1.59-.96-2.115-1.648a4.194 4.194 0 01-.836-2.287h3.468c.065.524.32.959.762 1.303.459.344 1.025.517 1.697.517.656 0 1.164-.132 1.525-.394.377-.262.566-.598.566-1.008 0-.443-.23-.771-.689-.984-.443-.229-1.156-.475-2.14-.738-1.016-.246-1.852-.5-2.508-.762a4.446 4.446 0 01-1.672-1.205c-.46-.541-.689-1.271-.689-2.189 0-.754.213-1.443.639-2.066.443-.623 1.066-1.115 1.869-1.475.82-.361 1.779-.541 2.878-.541 1.623 0 2.918.41 3.885 1.229.968.804 1.501 1.894 1.599 3.271h-3.295c-.05-.541-.279-.967-.689-1.279-.394-.328-.926-.492-1.599-.492-.623 0-1.106.115-1.451.345a1.106 1.106 0 00-.491.959c0 .459.229.811.688 1.057.459.23 1.172.468 2.14.714.983.246 1.795.5 2.434.762.64.262 1.189.672 1.648 1.23.476.541.722 1.262.738 2.164a3.56 3.56 0 01-.664 2.115c-.426.623-1.049 1.115-1.869 1.475-.803.345-1.746.517-2.828.517zM33.566 156.8v37.984h-7.618V156.8h7.618zm24.234 7.401c3.592 0 6.494 1.142 8.707 3.428 2.213 2.249 3.32 5.405 3.32 9.469v17.686h-7.62v-16.652c0-2.395-.598-4.227-1.795-5.497-1.197-1.306-2.83-1.959-4.898-1.959-2.104 0-3.773.653-5.006 1.959-1.197 1.27-1.796 3.102-1.796 5.497v16.652h-7.619v-30.148h7.62v3.755c1.015-1.306 2.303-2.322 3.863-3.048 1.596-.762 3.337-1.142 5.224-1.142zm30.808 31.072c-2.467 0-4.68-.435-6.639-1.306-1.959-.907-3.519-2.122-4.68-3.646-1.125-1.523-1.741-3.21-1.85-5.061h7.673c.145 1.161.707 2.123 1.687 2.885 1.016.761 2.267 1.142 3.755 1.142 1.45 0 2.575-.29 3.374-.87.834-.581 1.251-1.324 1.251-2.231 0-.98-.508-1.706-1.523-2.177-.98-.508-2.558-1.052-4.735-1.633-2.25-.544-4.1-1.106-5.55-1.687-1.415-.58-2.649-1.469-3.701-2.666-1.016-1.197-1.524-2.812-1.524-4.843 0-1.669.472-3.193 1.415-4.572.98-1.378 2.358-2.467 4.136-3.265 1.814-.798 3.936-1.197 6.367-1.197 3.592 0 6.458.907 8.598 2.721 2.14 1.778 3.32 4.19 3.537 7.238h-7.292c-.109-1.198-.617-2.141-1.524-2.83-.87-.726-2.05-1.088-3.537-1.088-1.378 0-2.449.253-3.21.761-.726.508-1.089 1.216-1.089 2.123 0 1.016.508 1.796 1.524 2.34 1.016.508 2.594 1.034 4.734 1.578 2.177.544 3.973 1.106 5.388 1.687 1.415.58 2.63 1.487 3.646 2.721 1.052 1.197 1.596 2.793 1.632 4.789 0 1.741-.49 3.301-1.469 4.68-.943 1.378-2.322 2.467-4.136 3.265-1.778.762-3.864 1.142-6.258 1.142zm21.981-34.229c-1.342 0-2.467-.417-3.374-1.251-.871-.871-1.306-1.941-1.306-3.211 0-1.27.435-2.322 1.306-3.156.907-.871 2.032-1.306 3.374-1.306s2.449.435 3.319 1.306c.907.834 1.361 1.886 1.361 3.156 0 1.27-.454 2.34-1.361 3.211-.87.834-1.977 1.251-3.319 1.251zm3.755 3.592v30.148h-7.619v-30.148h7.619zm5.568 14.965c0-3.047.598-5.75 1.796-8.108 1.233-2.359 2.902-4.172 5.006-5.442 2.104-1.27 4.444-1.905 7.02-1.905 1.959 0 3.828.435 5.605 1.306 1.778.835 3.193 1.959 4.245 3.374v-14.312h7.727v40.27h-7.727v-4.463c-.943 1.488-2.268 2.685-3.973 3.592s-3.682 1.36-5.931 1.36c-2.54 0-4.862-.653-6.966-1.959s-3.773-3.138-5.006-5.496c-1.198-2.394-1.796-5.133-1.796-8.217zm23.726.109c0-1.85-.362-3.429-1.088-4.735-.726-1.342-1.705-2.358-2.939-3.047a7.695 7.695 0 00-3.972-1.088 7.708 7.708 0 00-3.918 1.034c-1.198.689-2.177 1.705-2.939 3.047-.725 1.306-1.088 2.866-1.088 4.68 0 1.814.363 3.41 1.088 4.789.762 1.342 1.741 2.376 2.939 3.102 1.233.725 2.539 1.088 3.918 1.088a8.013 8.013 0 003.972-1.034c1.234-.726 2.213-1.741 2.939-3.047.726-1.343 1.088-2.939 1.088-4.789zm43.14-.653a17.98 17.98 0 01-.218 2.938h-22.039c.181 2.177.943 3.882 2.285 5.116 1.342 1.233 2.993 1.85 4.952 1.85 2.83 0 4.843-1.215 6.041-3.646h8.217c-.871 2.902-2.54 5.297-5.007 7.183-2.467 1.85-5.496 2.775-9.088 2.775-2.902 0-5.514-.634-7.836-1.904-2.285-1.306-4.081-3.138-5.387-5.496-1.27-2.359-1.905-5.08-1.905-8.163 0-3.12.635-5.859 1.905-8.217 1.27-2.359 3.047-4.172 5.333-5.442 2.285-1.27 4.916-1.905 7.89-1.905 2.867 0 5.424.617 7.673 1.85a12.76 12.76 0 015.279 5.279c1.27 2.249 1.905 4.843 1.905 7.782zm-7.891-2.177c-.036-1.959-.744-3.519-2.122-4.68-1.379-1.197-3.066-1.796-5.061-1.796-1.887 0-3.483.581-4.789 1.742-1.27 1.124-2.05 2.702-2.34 4.734h14.312zm21.07-7.564c.98-1.596 2.249-2.848 3.809-3.755 1.597-.907 3.411-1.36 5.442-1.36v7.999h-2.013c-2.395 0-4.209.562-5.442 1.687-1.197 1.125-1.796 3.084-1.796 5.877v15.02h-7.618v-30.148h7.618v4.68z"/><path fill="url(#b)" fill-rule="evenodd" d="M147.537 42.29l1.846-4.527s-2.35-2.516-5.204-5.367c-2.854-2.85-8.898-1.174-8.898-1.174l-6.883-7.8h-24.176l-6.883 7.8s-6.044-1.677-8.898 1.174-5.205 5.367-5.205 5.367l1.847 4.527-2.35 6.708s6.912 26.154 7.722 29.347c1.595 6.289 2.686 8.72 7.22 11.907 4.532 3.186 12.759 8.72 14.102 9.559 1.343.838 3.022 2.266 4.533 2.266 1.511 0 3.19-1.428 4.533-2.266 1.343-.839 9.569-6.373 14.102-9.56 4.533-3.185 5.624-5.617 7.219-11.906.81-3.194 7.723-29.347 7.723-29.347l-2.35-6.708z" clip-rule="evenodd"/><path fill="#fff" fill-rule="evenodd" d="M124.872 37.595c1.007 0 8.478-1.426 8.478-1.426s8.854 10.691 8.854 12.976c0 1.89-.762 2.629-1.658 3.5-.188.182-.382.37-.576.576l-6.638 7.041c-.066.07-.139.144-.217.221-.663.666-1.638 1.646-.95 3.274l.142.331c.755 1.764 1.686 3.94.5 6.146-1.262 2.347-3.423 3.913-4.808 3.654-1.385-.26-4.638-1.957-5.834-2.733-1.196-.775-4.988-3.898-4.988-5.094 0-.996 2.727-2.654 4.052-3.46.263-.16.471-.286.591-.367.137-.092.366-.234.647-.409 1.209-.75 3.393-2.105 3.447-2.706.068-.74.042-.958-.932-2.788-.208-.389-.45-.806-.701-1.237-.928-1.595-1.967-3.38-1.737-4.66.26-1.444 2.525-2.272 4.444-2.973l.699-.258c.56-.212 1.264-.475 1.999-.75 1.916-.717 4.044-1.513 4.395-1.675.486-.224.361-.437-1.111-.576a71.307 71.307 0 01-.715-.074c-1.822-.193-5.182-.55-6.816-.095-.321.09-.681.187-1.059.289-1.836.496-4.085 1.105-4.301 1.456a3.269 3.269 0 01-.11.164c-.207.293-.341.484-.113 1.732.068.371.208 1.102.382 2.005.507 2.645 1.297 6.771 1.397 7.698.014.13.029.255.044.375.127 1.034.211 1.722-.991 1.997l-.314.072c-1.357.311-3.346.767-4.064.767-.719 0-2.71-.456-4.066-.767l-.313-.072c-1.202-.275-1.118-.963-.991-1.997.015-.12.03-.245.044-.375.1-.928.893-5.064 1.4-7.709.172-.898.311-1.624.379-1.994.229-1.247.094-1.439-.113-1.732a3.269 3.269 0 01-.11-.164c-.216-.351-2.465-.96-4.3-1.456-.378-.102-.739-.2-1.06-.29-1.634-.454-4.994-.097-6.816.096-.278.03-.52.055-.715.074-1.471.14-1.597.352-1.111.576.35.162 2.479.958 4.394 1.675.736.275 1.44.538 2.001.75.224.084.459.17.699.258 1.918.701 4.184 1.53 4.443 2.973.23 1.28-.809 3.065-1.737 4.66-.25.43-.493.848-.7 1.237-.975 1.83-1.001 2.047-.933 2.788.055.6 2.237 1.955 3.446 2.706.282.174.511.316.648.409.12.08.328.207.591.367 1.325.805 4.052 2.464 4.052 3.46 0 1.195-3.791 4.319-4.987 5.094-1.197.776-4.449 2.474-5.834 2.733-1.385.259-3.547-1.307-4.809-3.654-1.186-2.206-.254-4.382.5-6.145l.142-.332c.689-1.628-.287-2.608-.95-3.274l-.217-.22-6.638-7.042a17.374 17.374 0 00-.576-.576c-.896-.871-1.657-1.61-1.657-3.5 0-2.285 8.853-12.976 8.853-12.976s7.471 1.426 8.478 1.426c.804 0 2.356-.534 3.974-1.09.41-.142.824-.284 1.231-.42 2.015-.67 3.358-.675 3.358-.675s1.343.005 3.357.676c.407.135.821.278 1.231.418 1.618.557 3.17 1.09 3.974 1.09zm-1.283 37.814c1.58.813 2.7 1.39 3.124 1.654.548.343.214.99-.285 1.342-.5.352-7.209 5.542-7.86 6.115l-.263.236c-.628.565-1.428 1.285-1.995 1.285-.568 0-1.369-.72-1.996-1.286l-.263-.235c-.651-.573-7.36-5.763-7.859-6.115-.499-.353-.834-.999-.286-1.341.424-.265 1.546-.843 3.127-1.656l1.502-.775c2.366-1.223 5.315-2.262 5.775-2.262.46 0 3.408 1.04 5.774 2.262l1.505.776z" clip-rule="evenodd"/><path fill="url(#c)" fill-rule="evenodd" d="M135.281 31.222l-6.883-7.8h-24.176l-6.883 7.8s-6.044-1.677-8.898 1.174c0 0 8.058-.726 10.828 3.773 0 0 7.471 1.426 8.479 1.426 1.007 0 3.189-.839 5.204-1.51 2.015-.67 3.358-.675 3.358-.675s1.343.005 3.358.676c2.014.67 4.197 1.509 5.204 1.509 1.007 0 8.478-1.426 8.478-1.426 2.77-4.5 10.829-3.773 10.829-3.773-2.854-2.85-8.898-1.174-8.898-1.174z" clip-rule="evenodd"/><defs><linearGradient id="a" x1="-30.251" x2="212.236" y1="249.186" y2="12.197" gradientUnits="userSpaceOnUse"><stop stop-color="#F50"/><stop offset="1" stop-color="#F50" stop-opacity="0"/></linearGradient><linearGradient id="b" x1="82.733" x2="149.887" y1="102.632" y2="102.632" gradientUnits="userSpaceOnUse"><stop stop-color="#F50"/><stop offset=".41" stop-color="#F50"/><stop offset=".582" stop-color="#FF2000"/><stop offset="1" stop-color="#FF2000"/></linearGradient><linearGradient id="c" x1="89.638" x2="144.179" y1="37.543" y2="37.543" gradientUnits="userSpaceOnUse"><stop stop-color="#FF452A"/><stop offset="1" stop-color="#FF2000"/></linearGradient></defs></svg>