<svg version="1.1" id="Layer_1" xmlns="http://www.w3.org/2000/svg" x="0" y="0" viewBox="0 0 655.4 132" xml:space="preserve"><style>.st0{fill:#434351}.st2{fill:#fff}</style><g id="Group-4" transform="translate(153 26)"><path id="Shape" class="st0" d="M-4.8 45.5V.2h4.3C3.1.2 6 3.1 6 6.6v20.2c7-6.2 12.9-8.7 20.8-8.8 15.1-.3 28.2 10.9 29.5 26 1.5 18-11.6 31.5-28.7 31.5-18.8-.1-32.4-11.7-32.4-30zm10.6 3.6c1.1 9.4 10 17.1 19.5 17.3 12.3.2 20.7-7.8 20.7-19.7S37.7 27 25.8 27C13 27 4.3 36.2 5.8 49.1z"/><path id="Shape_1_" class="st0" d="M74.1 19v8.1c6.8-7.5 10.8-9.5 18.7-9.5 2.3 0 4.6.2 6.9.6v10.7c-2.4-.7-4.9-1-7.4-1-5.7 0-10.5 1.9-14.1 5.4-3.1 3.1-4 5.5-4 10.4v29.9H63V19h11.1z"/><path id="Shape_2_" class="st0" d="M102.3 37.1c.6-5.3 1.6-8.2 3.9-10.9 4.6-5.6 12.8-8.5 24.5-8.5 9.3 0 16 1.4 20.7 4.5 3.9 2.5 5.5 6.3 5.5 12.9v24.2c0 5.3 1.4 7.2 5.2 7.1.8 0 1.7-.1 2.5-.2v7.3c-1.9.6-3.9.9-5.8.9-7 0-10.2-2.1-12.4-8.2-6.9 6.3-14 9-24.2 9-13.6 0-22-6.2-22-16.3-.1-5.7 3.3-11 8.6-13.3 4.1-1.8 6.6-2.3 18.4-3.5 10.1-1 11.8-1.2 14.7-2.1 3.1-1 4.5-2.7 4.5-5.4 0-5.9-4.9-8.5-15.2-8.5-9.7 0-14.8 1.9-16.8 6.9-1 2.5-3.4 4.2-6.1 4.2l-6-.1zm44.1 9.3c-7.1 2.1-14.3 3.4-21.7 4-10 1-13.1 2.9-13.1 7.8 0 5.5 4.6 8.4 13.6 8.4 7.4 0 13.1-1.9 17.1-5.5 3.2-3 4-5.1 4-10.3l.1-4.4z"/><path id="Shape_3_" class="st0" d="M191.5 73.5h-2.9c-2.5 0-4.8-1.4-5.9-3.7l-24-50.8h6.7c3.9 0 7.4 2.2 9 5.8l16 36.5L207 24.7c1.6-3.5 5.1-5.7 9-5.7h6.1l-24.6 50.9c-1.2 2.3-3.5 3.7-6 3.6z"/><path id="Shape_4_" class="st0" d="M229.6 49.5c1.1 10.5 9.4 17 21.6 17 7 0 12.2-2.1 15.4-6.2 1.9-2.4 4.8-3.7 7.8-3.7h6.5C275.2 68.9 265.2 75 250.2 75c-18.7 0-31.4-11.4-31.4-28.4s12.9-29 31.6-29c13.5 0 24.4 6.1 28.8 16.3 1.9 4.7 2.7 8.8 2.7 15.6h-52.3zm41-8.5c-2.5-9.6-10-15-20.3-15s-17.8 5.4-20.4 15h40.7z"/></g><g id="build-icons_x2F_Stable"><g id="Logo" transform="translate(10.382)"><linearGradient id="Head_1_" gradientUnits="userSpaceOnUse" x1="470.394" y1="101.106" x2="471.395" y2="101.106" gradientTransform="matrix(112.3123 0 0 -131.86 -52836.012 13397.718)"><stop offset="0" stop-color="#f50"/><stop offset=".41" stop-color="#f50"/><stop offset=".582" stop-color="#ff2000"/><stop offset="1" stop-color="#ff2000"/></linearGradient><path id="Head" d="M103.4 31.6l3.1-7.6s-3.9-4.2-8.7-9c-4.8-4.8-14.9-2-14.9-2L71.4 0H30.9L19.4 13.1s-10.1-2.8-14.9 2-8.7 9-8.7 9l3.1 7.6L-5 42.9S6.6 86.7 7.9 92.1c2.7 10.5 4.5 14.6 12.1 20s21.3 14.6 23.6 16c2.2 1.4 5.1 3.8 7.6 3.8s5.3-2.4 7.6-3.8c2.2-1.4 16-10.7 23.6-16s9.4-9.4 12.1-20c1.4-5.4 12.9-49.2 12.9-49.2l-4-11.3z" fill="url(#Head_1_)"/><path id="Face" class="st2" d="M79.7 21.4s14.8 17.9 14.8 21.8-1.9 4.8-3.8 6.8-10.1 10.7-11.1 11.8c-1.1 1.1-3.2 2.8-2 5.9 1.3 3 3.2 6.9 1.1 10.9-2.1 3.9-5.7 6.6-8 6.1-2.3-.4-7.8-3.3-9.8-4.6-2-1.3-8.3-6.5-8.3-8.5s6.6-5.6 7.8-6.4 6.7-4 6.8-5.2.1-1.6-1.6-4.7c-1.6-3.1-4.6-7.2-4.1-9.9s5.2-4.1 8.6-5.4c3.4-1.3 9.9-3.7 10.7-4.1.8-.4.6-.7-1.9-1-2.5-.2-9.4-1.2-12.6-.3s-8.5 2.2-9 2.9c-.4.7-.8.7-.4 3.2.4 2.4 2.8 14.2 3 16.3s.7 3.5-1.6 4c-2.2.5-6 1.4-7.3 1.4s-5.1-.9-7.3-1.4-1.8-1.9-1.6-4 2.5-13.8 3-16.3c.4-2.4.1-2.5-.4-3.2-.4-.7-5.8-2-9-2.9s-10.1 0-12.6.3c-2.5.2-2.7.6-1.9 1s7.3 2.8 10.7 4.1 8.1 2.7 8.6 5.4-2.4 6.8-4.1 9.9c-1.6 3.1-1.7 3.4-1.6 4.7.1 1.2 5.6 4.4 6.8 5.2s7.8 4.4 7.8 6.4-6.3 7.2-8.3 8.5-7.4 4.1-9.8 4.6c-2.3.4-5.9-2.2-8-6.1s-.2-7.8 1.1-10.9c1.3-3-.9-4.7-2-5.9-.8-1.2-8.9-9.9-10.8-11.8-1.9-2-3.7-3-3.7-6.8s14.8-21.8 14.8-21.8 12.5 2.4 14.2 2.4 5.3-1.4 8.7-2.5 5.6-1.1 5.6-1.1 2.2 0 5.6 1.1 7 2.5 8.7 2.5c1.7 0 14.2-2.4 14.2-2.4zM68.6 89.9c.9.6.4 1.7-.5 2.2-.8.6-12.1 9.3-13.1 10.3-1.1 1-2.7 2.5-3.8 2.5s-2.7-1.6-3.8-2.5c-1.1-1-12.3-9.7-13.1-10.3-.8-.6-1.4-1.7-.5-2.2.9-.6 3.8-2 7.7-4.1 4-2.1 8.9-3.8 9.7-3.8s5.7 1.7 9.7 3.8c3.9 2.1 6.7 3.6 7.7 4.1z"/><g id="Top-Head"><linearGradient id="path-3_2_" gradientUnits="userSpaceOnUse" x1="469.502" y1="99.311" x2="470.48" y2="99.311" gradientTransform="matrix(93.2192 0 0 -23.7599 -43760.02 2371.508)"><stop offset="0" stop-color="#ff452a"/><stop offset="1" stop-color="#ff2000"/></linearGradient><path id="path-3_1_" d="M82.9 13.1L71.4 0H30.9L19.4 13.1s-10.1-2.8-14.9 2c0 0 13.5-1.2 18.1 6.3 0 0 12.5 2.4 14.2 2.4s5.3-1.4 8.7-2.5 5.6-1.1 5.6-1.1 2.2 0 5.6 1.1 7 2.5 8.7 2.5 14.2-2.4 14.2-2.4c4.6-7.5 18.1-6.3 18.1-6.3-4.7-4.8-14.8-2-14.8-2" fill="url(#path-3_2_)"/></g></g></g><path fill="none" stroke="#8e8e8e" stroke-width="2" stroke-miterlimit="10" d="M478.7 11.9v108.2"/><path d="M584.8-1.5v40.4L609 80.8l35.1 20.4c.3-.6.3-1.3-.2-2.2l-28.7-49.7L586.5-.2c-.5-.9-1.1-1.3-1.7-1.3" fill="#9e1f63" transform="translate(2.421 9.686)"/><path d="M525.5 101.2l35.1-20.4 24.2-41.9V-1.5c-.6 0-1.3.4-1.8 1.3l-28.7 49.7-28.7 49.7c-.4.7-.4 1.5-.1 2" fill="#ff4724" transform="translate(2.421 9.686)"/><path d="M644 101.2l-35-20.4h-48.4l-35.1 20.4c.3.6 1 .9 2 .9h114.6c.9 0 1.6-.3 1.9-.9" fill="#662d91" transform="translate(2.421 9.686)"/><path class="st2" d="M560.6 80.8H609l-24.2-41.9z" transform="translate(2.421 9.686)"/></svg>