<svg width="642" height="187" viewBox="0 0 642 187" fill="none" xmlns="http://www.w3.org/2000/svg"><path opacity=".08" d="M512.624 177.582c11.708 0 21.2-9.492 21.2-21.2 0-11.708-9.492-21.2-21.2-21.2-11.708 0-21.2 9.492-21.2 21.2 0 11.708 9.492 21.2 21.2 21.2z" fill="#fff"/><path opacity=".24" fill-rule="evenodd" clip-rule="evenodd" d="M510.227 155.027a.618.618 0 01.875 0l1.402 1.401c.101-.026.206-.046.316-.046a1.239 1.239 0 010 2.475 1.24 1.24 0 01-1.238-1.237c0-.11.02-.215.047-.317l-1.402-1.401a.618.618 0 010-.875zm8.597-1.919l-.954.954a6.145 6.145 0 011.135 3.558 6.193 6.193 0 01-6.186 6.186 6.195 6.195 0 01-4.61-2.061.62.62 0 01.922-.825 4.955 4.955 0 003.688 1.649 4.954 4.954 0 004.949-4.949 4.954 4.954 0 00-4.949-4.949c-1.449 0-2.82.632-3.763 1.734a.618.618 0 01-.94-.804 6.173 6.173 0 014.084-2.134v-1.271h-.619a.619.619 0 010-1.237h2.475a.619.619 0 110 1.237h-.618v1.269a6.14 6.14 0 012.938 1.104l.955-.954a.618.618 0 01.875 0l.618.618a.618.618 0 010 .875zm-11.572 3.275h-3.093a.62.62 0 010-1.238h3.093a.62.62 0 010 1.238zm-1.856.618h3.712a.619.619 0 010 1.237h-3.712a.619.619 0 110-1.237zm.619 1.856h1.856a.619.619 0 110 1.237h-1.856a.619.619 0 110-1.237z" fill="#fff"/><path opacity=".08" d="M73.311 66.283c11.64-1.271 20.044-11.737 18.773-23.376-1.27-11.64-11.737-20.044-23.376-18.773C57.07 25.404 48.664 35.87 49.935 47.51c1.271 11.639 11.737 20.044 23.376 18.773z" fill="#fff"/><path opacity=".24" fill-rule="evenodd" clip-rule="evenodd" d="M68.427 44.127a.618.618 0 01.87-.095l1.545 1.24c.098-.037.2-.067.31-.08a1.239 1.239 0 011.364 1.096 1.239 1.239 0 01-2.46.27 1.219 1.219 0 01.011-.32l-1.545-1.242a.619.619 0 01-.095-.87zm8.338-2.841l-.845 1.052a6.143 6.143 0 011.515 3.413 6.194 6.194 0 01-5.479 6.822 6.197 6.197 0 01-4.806-1.549.619.619 0 01.827-.92 4.956 4.956 0 003.845 1.239 4.955 4.955 0 004.383-5.457 4.955 4.955 0 00-5.457-4.383 4.946 4.946 0 00-3.553 2.132.618.618 0 11-1.021-.697 6.174 6.174 0 013.828-2.565l-.138-1.263-.615.067a.619.619 0 01-.135-1.23l2.46-.268a.618.618 0 11.135 1.23l-.615.067.138 1.261a6.143 6.143 0 013.041.779l.845-1.053a.618.618 0 01.87-.095l.682.548a.619.619 0 01.095.87zm-11.148 4.511l-3.075.336a.619.619 0 11-.134-1.23l3.075-.336a.619.619 0 01.134 1.23zm-1.779.817l3.69-.403a.619.619 0 01.135 1.23l-3.69.403a.619.619 0 01-.135-1.23zm.818 1.777l1.845-.201a.618.618 0 11.134 1.23l-1.845.201a.619.619 0 11-.134-1.23z" fill="#fff"/><path opacity=".08" d="M364.669 45.703c11.533 2.018 22.519-5.696 24.537-17.229 2.018-11.533-5.696-22.518-17.229-24.536-11.533-2.018-22.519 5.696-24.537 17.229-2.017 11.533 5.696 22.518 17.229 24.536z" fill="#fff"/><path opacity=".24" fill-rule="evenodd" clip-rule="evenodd" d="M366.134 23.062a.617.617 0 01.861.15l1.14 1.622a1.24 1.24 0 01.319.01 1.24 1.24 0 011.006 1.432 1.239 1.239 0 01-2.438-.427c.019-.108.056-.208.1-.304l-1.139-1.622a.618.618 0 01.151-.861zm8.799-.409l-1.105.775a6.145 6.145 0 01.506 3.7 6.194 6.194 0 01-7.16 5.028 6.195 6.195 0 01-4.186-2.825.618.618 0 111.05-.654 4.958 4.958 0 003.349 2.26 4.955 4.955 0 005.728-4.022 4.955 4.955 0 00-4.022-5.728 4.945 4.945 0 00-4.005 1.06.62.62 0 01-.788-.954 6.176 6.176 0 014.391-1.398l.219-1.252-.609-.107a.618.618 0 11.213-1.218l2.438.426a.618.618 0 11-.214 1.219l-.609-.107-.218 1.25a6.145 6.145 0 012.704 1.595l1.104-.776a.618.618 0 01.862.15l.503.716a.62.62 0 01-.151.862zm-11.963 1.231l-3.047-.533a.619.619 0 11.213-1.218l3.047.533a.618.618 0 11-.213 1.218zm-1.936.29l3.657.64a.618.618 0 11-.213 1.218l-3.657-.64a.618.618 0 01.213-1.219zm.291 1.935l1.828.32a.619.619 0 11-.213 1.218l-1.828-.32a.619.619 0 11.213-1.218z" fill="#fff"/><path opacity=".08" d="M16.506 20.25l-4.389-1.457 1.452-4.389a2.232 2.232 0 10-4.238-1.401l-1.457 4.383-4.383-1.452a2.233 2.233 0 10-1.407 4.238l4.388 1.457-1.457 4.389a2.233 2.233 0 001.418 2.791 2.235 2.235 0 002.82-1.418l1.457-4.383 4.388 1.452a2.233 2.233 0 001.408-4.238v.028zm194.209 9.42l-2.804-3.677 3.677-2.804a2.236 2.236 0 00-2.712-3.553l-3.673 2.806-2.807-3.672a2.22 2.22 0 00-1.483-.9 2.23 2.23 0 00-2.543 1.939 2.23 2.23 0 00.476 1.669l2.804 3.677-3.674 2.799a2.237 2.237 0 00-.86 1.48c-.04.29-.021.586.055.87a2.233 2.233 0 003.512 1.2l3.677-2.803 2.804 3.677a2.234 2.234 0 003.551-2.708zm-61.137 76.576a4.539 4.539 0 014.199 2.807 4.539 4.539 0 01-.987 4.953 4.548 4.548 0 01-4.955.982 4.541 4.541 0 01-1.467-7.411 4.548 4.548 0 013.21-1.331zm0-2.234a6.775 6.775 0 00-6.263 4.186 6.777 6.777 0 0011.901 6.354 6.77 6.77 0 001.14-3.767 6.766 6.766 0 00-1.986-4.791 6.76 6.76 0 00-4.792-1.982zm485.671 27.154l-4.377 1.489-1.491-4.369a2.232 2.232 0 00-4.363.564c-.014.297.033.595.136.875l1.49 4.377-4.373 1.486a2.218 2.218 0 00-.776.427 2.222 2.222 0 00-.787 1.547 2.237 2.237 0 002.127 2.389c.297.014.595-.032.874-.135l4.378-1.49 1.49 4.377a2.232 2.232 0 104.227-1.439l-1.491-4.369 4.374-1.495c.227-.076.44-.188.632-.331a2.236 2.236 0 00.627-2.832 2.233 2.233 0 00-2.698-1.064l.001-.007zM468.383 73.207a4.547 4.547 0 014.457 5.432 4.54 4.54 0 01-3.571 3.57 4.546 4.546 0 01-5.431-4.457 4.549 4.549 0 014.545-4.544zm0-2.233a6.779 6.779 0 100 13.558 6.779 6.779 0 000-13.558zm-235.344 55.524c8.675 5.86 20.458 3.578 26.318-5.097 5.86-8.675 3.579-20.457-5.096-26.318-8.675-5.86-20.458-3.578-26.318 5.097-5.86 8.675-3.579 20.458 5.096 26.318z" fill="#fff"/><path fill-rule="evenodd" clip-rule="evenodd" d="M247.589 104.439l-.334 1.247 1.871.502a.646.646 0 01.457.791l-3.176 11.853a.646.646 0 01-.791.457l-8.734-2.34a.646.646 0 01-.457-.791l3.176-11.854a.647.647 0 01.791-.457l1.872.502.334-1.248a.645.645 0 01.791-.456l3.743 1.002a.647.647 0 01.457.792zm-6.907.823l-2.842 10.606 7.487 2.006 2.842-10.606-7.487-2.006zm2.998-1.202l-.167.624 2.496.668.167-.623-2.496-.669zm-3.921 9.648a.645.645 0 01.791-.457l3.743 1.003a.646.646 0 11-.334 1.248l-3.744-1.003a.645.645 0 01-.456-.791zm.501-1.872a.646.646 0 01.791-.457l3.743 1.003a.646.646 0 01-.334 1.248l-3.743-1.003a.646.646 0 01-.457-.791zm.502-1.872a.645.645 0 01.791-.456l3.743 1.003a.646.646 0 11-.334 1.247l-3.744-1.003a.644.644 0 01-.456-.791zm.501-1.871a.646.646 0 01.791-.457l3.743 1.003a.646.646 0 01-.334 1.248l-3.743-1.003a.646.646 0 01-.457-.791z" fill="#fff" opacity=".24"/><path opacity=".08" d="M363.859 175.889c10.443.738 19.506-7.13 20.244-17.572.738-10.443-7.13-19.507-17.573-20.244-10.442-.738-19.506 7.13-20.244 17.572-.737 10.443 7.13 19.507 17.573 20.244z" fill="#fff"/><path fill-rule="evenodd" clip-rule="evenodd" d="M365.43 149.511l.334 1.248 1.872-.502a.646.646 0 01.791.457l3.176 11.853a.646.646 0 01-.457.791l-8.734 2.341a.647.647 0 01-.791-.457l-3.176-11.854a.647.647 0 01.456-.791l1.872-.501-.334-1.248a.645.645 0 01.456-.791l3.744-1.003a.646.646 0 01.791.457zm-5.57 4.167l2.842 10.606 7.486-2.006-2.841-10.606-7.487 2.006zm1.995-2.541l.167.624 2.496-.669-.167-.623-2.496.668zm1.428 10.316a.646.646 0 01.457-.791l3.743-1.003a.646.646 0 01.334 1.248l-3.743 1.003a.646.646 0 01-.791-.457zm-.502-1.871a.646.646 0 01.457-.791l3.743-1.003a.645.645 0 11.335 1.247l-3.744 1.003a.645.645 0 01-.791-.456zm-.501-1.872a.646.646 0 01.457-.791l3.743-1.003a.646.646 0 11.334 1.248l-3.743 1.003a.646.646 0 01-.791-.457zm-.502-1.872a.646.646 0 01.457-.791l3.743-1.003a.646.646 0 01.335 1.248l-3.744 1.003a.645.645 0 01-.791-.457z" fill="#fff" opacity=".24"/><path opacity=".08" d="M566.317 62.031c6.862 7.906 18.834 8.752 26.74 1.889 7.906-6.863 8.751-18.835 1.889-26.74-6.863-7.906-18.835-8.752-26.741-1.89-7.905 6.863-8.751 18.835-1.888 26.741z" fill="#fff"/><path fill-rule="evenodd" clip-rule="evenodd" d="M586.079 44.49l-.646 1.118 1.678.969c.31.178.415.573.237.882l-6.136 10.627a.645.645 0 01-.882.237l-7.831-4.521a.646.646 0 01-.237-.883l6.136-10.627a.646.646 0 01.882-.236l1.679.968.645-1.118a.647.647 0 01.883-.237l3.356 1.938a.646.646 0 01.236.882zm-6.885-.993l-5.49 9.51 6.713 3.875 5.489-9.51-6.712-3.875zm3.208-.385l-.323.56 2.237 1.29.323-.559-2.237-1.291zm-6.285 8.304a.645.645 0 01.882-.237l3.356 1.938a.645.645 0 11-.646 1.119l-3.356-1.938a.645.645 0 01-.236-.882zm.968-1.678a.646.646 0 01.883-.237l3.356 1.938a.646.646 0 01-.646 1.119l-3.356-1.938a.646.646 0 01-.237-.882zm.969-1.678a.646.646 0 01.883-.237l3.356 1.938a.646.646 0 01-.646 1.119l-3.356-1.938a.645.645 0 01-.237-.882zm.969-1.678a.645.645 0 01.882-.237l3.356 1.938a.646.646 0 11-.645 1.119l-3.357-1.938a.646.646 0 01-.236-.882z" fill="#fff" opacity=".24"/></svg>