<svg id="Layer_1" data-name="Layer 1" xmlns="http://www.w3.org/2000/svg" xmlns:xlink="http://www.w3.org/1999/xlink" viewBox="0 0 1455.5 272.37"><defs><linearGradient id="linear-gradient" x1="1241.23" y1="-4511.56" x2="1273.46" y2="-4511.56" gradientTransform="translate(-3068.98 -1020.12) rotate(90)" gradientUnits="userSpaceOnUse"><stop offset="0" stop-color="#fff"/><stop offset="1" stop-color="#81d6e2"/></linearGradient><linearGradient id="linear-gradient-2" x1="1235.31" y1="-4384.16" x2="1267.54" y2="-4384.16" gradientTransform="translate(4513.43 -1020.12) rotate(90) scale(1 -1)" xlink:href="#linear-gradient"/><linearGradient id="linear-gradient-3" x1="1251.43" y1="-4046.23" x2="1294" y2="-4046.23" gradientTransform="translate(4513.43 -1020.12) rotate(90) scale(1 -1)" xlink:href="#linear-gradient"/><linearGradient id="linear-gradient-4" x1="1269.04" y1="-4095.85" x2="1294.4" y2="-4095.85" gradientTransform="translate(4513.43 -1020.12) rotate(90) scale(1 -1)" xlink:href="#linear-gradient"/><linearGradient id="linear-gradient-5" x1="1260.13" y1="-4006.84" x2="1294.4" y2="-4006.84" gradientTransform="translate(4513.43 -1020.12) rotate(90) scale(1 -1)" xlink:href="#linear-gradient"/><linearGradient id="linear-gradient-6" x1="1226.1" y1="-3492.35" x2="1268.41" y2="-3492.35" gradientTransform="translate(4513.43 -1020.12) rotate(90) scale(1 -1)" xlink:href="#linear-gradient"/><linearGradient id="linear-gradient-7" x1="1135.15" y1="-4469.9" x2="1177.46" y2="-4469.9" gradientTransform="translate(4513.43 -1020.12) rotate(90) scale(1 -1)" xlink:href="#linear-gradient"/><linearGradient id="linear-gradient-8" x1="1195.65" y1="-3086.87" x2="1227.88" y2="-3086.87" gradientTransform="translate(4513.43 -1020.12) rotate(90) scale(1 -1)" xlink:href="#linear-gradient"/><linearGradient id="linear-gradient-9" x1="1300.75" y1="235.05" x2="1300.75" y2="276.31" gradientTransform="matrix(1, 0, 0, 1, 0, 0)" xlink:href="#linear-gradient"/><linearGradient id="linear-gradient-10" x1="1300.75" y1="178.54" x2="1300.75" y2="254.01" gradientUnits="userSpaceOnUse"><stop offset="0" stop-color="#9d33a6"/><stop offset=".04" stop-color="#9f33a2"/><stop offset=".41" stop-color="#b33587"/><stop offset=".74" stop-color="#be3777"/><stop offset="1" stop-color="#c33872"/></linearGradient><linearGradient id="linear-gradient-11" x1="1280.03" y1="216.27" x2="1321.48" y2="216.27" gradientUnits="userSpaceOnUse"><stop offset="0" stop-color="#c566a1"/><stop offset="1" stop-color="#ed9fcc"/></linearGradient><clipPath id="clippath"><path class="cls-1" d="M0 0h1455.5v272.37H0z"/></clipPath><style>.cls-1,.cls-2,.cls-3{fill:none}.cls-2{stroke:#fff;stroke-width:3.27px}.cls-2,.cls-3{stroke-linecap:round;stroke-linejoin:round}.cls-3{stroke:#ffd0a6;stroke-width:3px}</style></defs><g clip-path="url(#clippath)"><path fill="#81d6e2" d="M0 0h1455.5v272.37H0z"/><path class="cls-1" d="M0 0h1455.5v272.37H0z"/><path class="cls-2" d="m309.7 242.8 9.52-34.29 25.38 24.94-34.9 9.35z"/><g><path class="cls-3" d="m243.08 174.42-.12 15.58m7.85-7.73-15.58-.12"/></g><g><path class="cls-3" d="m1203.01 240.51-.11 15.58m7.84-7.73-15.58-.12"/></g><g><path class="cls-3" d="m1347.5 149.78-.12 15.58m7.85-7.73-15.58-.12"/></g><path class="cls-3" d="m103.13 118.69 19.71-15.04 3.61 24.53-23.32-9.49z"/><path d="m1433.63 252.82-23.28.52c0-17.8 14.43-32.23 32.23-32.23s32.23 14.43 32.23 32.23" fill="url(#linear-gradient)"/><g><path d="m138.22 246.91 23.28.52c0-17.8-14.43-32.23-32.23-32.23-17.8 0-32.23 14.43-32.23 32.23" fill="url(#linear-gradient-2)"/><path d="M509.77 273.88c0-23.51-19.06-42.57-42.57-42.57s-42.57 19.06-42.57 42.57h85.14Z" fill="url(#linear-gradient-3)"/><path d="m424.62 273.88 18.32.41c0-14.01-11.36-25.36-25.36-25.36-14.01 0-25.36 11.36-25.36 25.36" fill="url(#linear-gradient-4)"/><path d="m516.11 273.74 24.76.55c0-18.93-15.35-34.28-34.28-34.28s-34.28 15.35-34.28 34.28" fill="url(#linear-gradient-5)"/><path d="M1078.94 247.9c0-23.15-18.76-41.91-41.91-41.91-23.15 0-41.91 18.76-41.91 41.91l18.03.4c0-13.79-11.18-24.97-24.97-24.97s-24.97 11.18-24.97 24.97" fill="url(#linear-gradient-6)"/><path d="M101.39 156.94c0-23.15-18.76-41.91-41.91-41.91-23.15 0-41.91 18.76-41.91 41.91l18.03.4c0-13.79-11.18-24.97-24.97-24.97s-24.97 11.18-24.97 24.97" fill="url(#linear-gradient-7)"/><path d="m1435.51 207.25 23.28.52c0-17.8-14.43-32.23-32.23-32.23-17.8 0-32.23 14.43-32.23 32.23" fill="url(#linear-gradient-8)"/><path class="cls-1" d="M1444.45 272.37H-11.05V0h1455.5z"/></g><g><g><path d="M1280.11 192.87c-1.62 5.63-11.05 36.18-25.31 39.25-.54.12-1.03-.35-.95-.9l.78-5c.12-.8-.88-1.25-1.39-.62-3.06 3.76-10.36 10.15-26.26 13.72a.796.796 0 0 1-.95-.94c.58-2.59 2.24-8.81 5.49-13.01.49-.63-.14-1.51-.89-1.23l-3.64 1.35c-.56.21-1.15-.26-1.06-.85.45-2.97 2.25-10.39 9.19-15.65.66-.5.18-1.55-.63-1.4l-4.58.86c-.55.1-1.04-.39-.92-.94.98-4.54 7.52-20.8 50.45-15.65.48.06.81.53.67 1Zm41.29 0c1.62 5.63 11.05 36.18 25.31 39.25.54.12 1.03-.35.95-.9l-.78-5c-.12-.8.88-1.25 1.39-.62 3.06 3.76 10.36 10.15 26.26 13.72.56.13 1.07-.38.95-.94-.58-2.59-2.24-8.81-5.49-13.01-.49-.63.14-1.51.89-1.23l3.64 1.35c.56.21 1.15-.26 1.06-.85-.45-2.97-2.25-10.39-9.19-15.65-.66-.5-.18-1.55.63-1.4l4.58.86c.55.1 1.04-.39.92-.94-.98-4.54-7.52-20.8-50.45-15.65-.48.06-.81.53-.67 1Z" fill="#fff"/></g><rect x="1263.02" y="235.05" width="75.46" height="41.26" rx="7.92" ry="7.92" fill="url(#linear-gradient-9)"/><rect x="1263.02" y="178.54" width="75.46" height="75.46" rx="12.61" ry="12.61" fill="url(#linear-gradient-10)"/><path d="m1320.03 203.39 1.14-2.85s-1.45-1.58-3.21-3.38c-1.76-1.8-5.49-.74-5.49-.74l-4.25-4.91h-14.92l-4.25 4.91s-3.73-1.06-5.49.74c-1.76 1.8-3.21 3.38-3.21 3.38l1.14 2.85-1.45 4.22s4.27 16.47 4.77 18.48c.98 3.96 1.66 5.49 4.46 7.5s7.88 5.49 8.71 6.02c.83.53 1.87 1.43 2.8 1.43s1.97-.9 2.8-1.43c.83-.53 5.91-4.01 8.71-6.02s3.47-3.54 4.46-7.5c.5-2.01 4.77-18.48 4.77-18.48l-1.45-4.22ZM1307 226.13c-.31.22-4.45 3.49-4.85 3.85-.4.36-.99.96-1.39.96s-.99-.6-1.39-.96c-.4-.36-4.54-3.63-4.85-3.85-.31-.22-.51-.63-.18-.84.34-.22 1.4-.76 2.86-1.53s3.28-1.42 3.56-1.42 2.1.65 3.56 1.42c1.46.77 2.52 1.31 2.86 1.53.34.22.13.62-.18.84Zm8.36-15.86c-.69.75-3.71 4.01-4.1 4.43-.39.42-1.19 1.06-.72 2.2.47 1.14 1.18 2.6.4 4.08-.78 1.48-2.11 2.46-2.97 2.3-.86-.16-2.86-1.23-3.6-1.72-.74-.49-3.08-2.45-3.08-3.21s2.42-2.1 2.87-2.41c.45-.31 2.49-1.49 2.53-1.96.04-.47.03-.6-.58-1.76-.6-1.15-1.68-2.69-1.5-3.71.18-1.02 1.93-1.55 3.17-2.03 1.25-.48 3.65-1.39 3.95-1.53.3-.14.22-.28-.69-.36-.91-.09-3.49-.44-4.65-.11-1.16.33-3.15.83-3.31 1.1-.16.27-.3.28-.14 1.19.17.92 1.02 5.33 1.1 6.11s.24 1.3-.58 1.49c-.83.19-2.22.53-2.7.53s-1.87-.34-2.7-.53c-.83-.19-.67-.71-.58-1.49s.93-5.19 1.1-6.11c.17-.92.02-.93-.14-1.19-.16-.27-2.15-.77-3.31-1.1-1.16-.33-3.74.02-4.65.11-.91.09-.99.22-.69.36s2.7 1.05 3.95 1.53 2.99 1.01 3.17 2.03c.18 1.02-.9 2.56-1.5 3.71s-.62 1.29-.58 1.76 2.08 1.65 2.53 1.96c.45.31 2.87 1.66 2.87 2.41s-2.34 2.72-3.08 3.21c-.74.49-2.75 1.56-3.6 1.72-.86.16-2.19-.82-2.97-2.3-.78-1.48-.08-2.93.4-4.08.47-1.14-.33-1.78-.72-2.2-.39-.42-3.41-3.69-4.1-4.43-.69-.75-1.38-1.13-1.38-2.57s5.47-8.17 5.47-8.17 4.61.9 5.23.9 1.97-.53 3.21-.95c1.13-.38 1.91-.42 2.05-.42h.04c.14 0 .93.04 2.05.42 1.24.42 2.59.95 3.21.95s5.23-.9 5.23-.9 5.47 6.73 5.47 8.17-.69 1.82-1.38 2.57Z" fill="url(#linear-gradient-11)"/></g><circle class="cls-3" cx="1154.82" cy="253.34" r="25.17"/><circle class="cls-3" cx="1455.5" cy="117.25" r="25.17"/><g><g><path class="cls-3" d="m983.06 243.22 9.6 12.27m1.34-10.93-12.27 9.6"/></g><path class="cls-3" d="m946.83 235.61 3.34-12.81 9.59 9.12-12.93 3.69zm495.57-35.48-3.17-35.45 32.54 14.4-29.37 21.05z"/></g><circle class="cls-3" cx="102.56" cy="260.14" r="22.19"/><g><path class="cls-3" d="m32.72 151.91 4.97 14.77m4.9-9.87-14.77 4.97"/></g><g><path class="cls-3" d="m82.71 231.85-18.59 6.19m12.39 6.2-6.19-18.59"/></g><circle class="cls-2" cx="175.16" cy="210.22" r="13.32"/><circle class="cls-3" cx="240.94" cy="238.66" r="25.17"/><circle class="cls-3" cx="17.59" cy="205.03" r="25.17"/><path class="cls-3" d="m132.67 203.89 6.25-23.99 17.96 17.09-24.21 6.9zm937.62 40.81 14.34-14.65 5.87 19.64-20.21-4.99z"/><g><circle class="cls-3" cx="1377.52" cy="180.06" r="13.32"/><path class="cls-3" d="m428.78 288.22-6.19-18.58"/></g></g></svg>