<svg id="Layer_1" data-name="Layer 1" xmlns="http://www.w3.org/2000/svg" xmlns:xlink="http://www.w3.org/1999/xlink" viewBox="0 0 1455.5 272.37"><defs><linearGradient id="linear-gradient" x1="1218.05" y1="189.25" x2="1455.5" y2="189.25" gradientUnits="userSpaceOnUse"><stop offset="0" stop-color="#e3add0"/><stop offset="1" stop-color="#d988b4"/></linearGradient><linearGradient id="linear-gradient-2" x1="1245.92" y1="189.42" x2="1451.66" y2="189.42" gradientUnits="userSpaceOnUse"><stop offset="0" stop-color="#9d33a6"/><stop offset=".38" stop-color="#b0358b"/><stop offset=".74" stop-color="#be3778"/><stop offset="1" stop-color="#c33872"/></linearGradient><linearGradient id="linear-gradient-3" x1="86.57" y1="242.81" x2="214.16" y2="242.81" xlink:href="#linear-gradient-2"/><linearGradient id="linear-gradient-4" x1="104.29" y1="181.28" x2="195.52" y2="181.28" xlink:href="#linear-gradient-2"/><linearGradient id="linear-gradient-5" x1="137.79" y1="241.1" x2="162.95" y2="241.1" xlink:href="#linear-gradient"/><clipPath id="clippath"><path fill="none" d="M0 0h1455.5v272.37H0z"/></clipPath><style>.cls-2,.cls-3,.cls-4,.cls-5{fill:none}.cls-2{stroke:#fff}.cls-2,.cls-3{stroke-width:3.27px}.cls-2,.cls-3,.cls-4,.cls-5{stroke-linecap:round;stroke-linejoin:round}.cls-3{stroke:#fffffe}.cls-4{stroke-width:3px}.cls-4,.cls-5{stroke:#ffd0a6}.cls-5{stroke-width:3.03px}</style></defs><g clip-path="url(#clippath)"><path fill="#eca671" d="M0 0h1455.5v272.37H0z"/><g opacity=".3"><g><path class="cls-5" d="M13.68-30.28V303.4M41.01-30.28V303.4M68.35-30.28V303.4M95.69-30.28V303.4m27.34-333.68V303.4m27.34-333.68V303.4M177.7-30.28V303.4m27.34-333.68V303.4m27.34-333.68V303.4m27.34-333.68V303.4"/></g><g><path class="cls-5" d="M288.33-30.28V303.4m27.34-333.68V303.4m27.34-333.68V303.4m27.33-333.68V303.4m27.34-333.68V303.4m27.34-333.68V303.4m27.34-333.68V303.4M479.7-30.28V303.4m27.33-333.68V303.4m27.34-333.68V303.4"/></g><g><path class="cls-5" d="M562.99-30.28V303.4m27.33-333.68V303.4m27.34-333.68V303.4M645-30.28V303.4m27.34-333.68V303.4m27.33-333.68V303.4m27.34-333.68V303.4m27.34-333.68V303.4m27.34-333.68V303.4m27.33-333.68V303.4"/></g><g><path class="cls-5" d="M837.64-30.28V303.4m27.34-333.68V303.4m27.34-333.68V303.4m27.33-333.68V303.4m27.34-333.68V303.4m27.34-333.68V303.4m27.34-333.68V303.4M1029-30.28V303.4m27.34-333.68V303.4m27.34-333.68V303.4"/></g><g><path class="cls-5" d="M1112.29-30.28V303.4m27.34-333.68V303.4m27.34-333.68V303.4m27.34-333.68V303.4m27.34-333.68V303.4m27.33-333.68V303.4m27.34-333.68V303.4m27.34-333.68V303.4M1331-30.28V303.4m27.33-333.68V303.4"/></g><g><path class="cls-5" d="M1386.95-30.28V303.4m27.34-333.68V303.4m27.33-333.68V303.4"/></g><g><path class="cls-5" d="M1464.41 12.78H-12.84m1477.25 27.34H-12.84m1477.25 27.33H-12.84m1477.25 27.34H-12.84m1477.25 27.34H-12.84m1477.25 27.34H-12.84m1477.25 27.33H-12.84m1477.25 27.34H-12.84m1477.25 27.34H-12.84m1477.25 25.77H-12.84"/></g></g><path d="M1257.83 149.47h197.67v79.56h-197.67c-21.96 0-39.78-17.83-39.78-39.78 0-21.96 17.83-39.78 39.78-39.78Z" fill="url(#linear-gradient)"/><path d="m1284.35 171.29-12.21 16.07v.26l19.41-2.57v8.74l-19.41-2.31v.26l12.34 15.42-8.1 4.63-7.71-18h-.26l-8.35 18.12-7.33-4.63 12.21-15.68v-.26l-19.02 2.44v-8.74l18.9 2.44v-.26l-12.08-15.68 7.84-4.5 7.97 17.87h.26l7.84-18 7.71 4.37Zm53.34 0-12.21 16.07v.26l19.41-2.57v8.74l-19.41-2.31v.26l12.34 15.42-8.1 4.63-7.71-18h-.26l-8.35 18.12-7.33-4.63 12.21-15.68v-.26l-19.02 2.44v-8.74l18.9 2.44v-.26l-12.08-15.68 7.84-4.5 7.97 17.87h.26l7.84-18 7.71 4.37Zm53.34 0-12.21 16.07v.26l19.41-2.57v8.74l-19.41-2.31v.26l12.34 15.42-8.1 4.63-7.71-18h-.26l-8.35 18.12-7.33-4.63 12.21-15.68v-.26l-19.02 2.44v-8.74l18.9 2.44v-.26l-12.08-15.68 7.84-4.5 7.97 17.87h.26l7.84-18 7.71 4.37Zm53.42 0-12.21 16.07v.26l19.41-2.57v8.74l-19.41-2.31v.26l12.34 15.42-8.1 4.63-7.71-18h-.26l-8.35 18.12-7.33-4.63 12.21-15.68v-.26l-19.02 2.44v-8.74l18.9 2.44v-.26l-12.08-15.68 7.84-4.5 7.97 17.87h.26l7.84-18 7.71 4.37Z" fill="url(#linear-gradient-2)"/><g><rect x="86.57" y="192.58" width="127.6" height="100.47" rx="15.75" ry="15.75" fill="url(#linear-gradient-3)"/><path d="M149.9 149.78c14.68 0 26.61 11.94 26.61 26.61v33.5c0 1.59-1.3 2.89-2.89 2.89h-47.45c-1.59 0-2.89-1.3-2.89-2.89v-33.5c0-14.68 11.94-26.61 26.61-26.61m0-19c-25.19 0-45.61 20.42-45.61 45.61v33.5c0 12.09 9.8 21.89 21.89 21.89h47.45c12.09 0 21.89-9.8 21.89-21.89v-33.5c0-25.19-20.42-45.61-45.61-45.61Z" fill="url(#linear-gradient-4)"/><path d="M162.95 226.79c0-6.95-5.63-12.58-12.58-12.58s-12.58 5.63-12.58 12.58c0 5.1 3.04 9.48 7.39 11.45l-5.45 29.75h21.86l-5.5-30.01c4.06-2.09 6.85-6.31 6.85-11.19Z" fill="url(#linear-gradient-5)"/></g><path class="cls-2" d="m302.96 220.28 9.52-34.29 25.38 24.95-34.9 9.34z"/><circle class="cls-4" cx="254.15" cy="190.85" r="13.32"/><circle class="cls-4" cx="275.68" cy="255.37" r="25.17"/><path class="cls-4" d="m205.04 212.47 19.71-15.05 3.61 24.53-23.32-9.48z"/><circle class="cls-4" cx="1240.79" cy="271.77" r="25.17"/><path class="cls-4" d="m1170.14 228.86 19.71-15.05 3.61 24.53-23.32-9.48z"/><circle class="cls-4" cx="13.68" cy="122.13" r="25.17"/><circle class="cls-4" cx="1276.32" cy="136.56" r="25.17"/><circle class="cls-4" cx="97.56" cy="67.45" r="39.22"/><circle class="cls-4" cx="958.88" cy="189.25" r="39.22"/><circle class="cls-4" cx="1428.84" cy="67.45" r="39.22"/><g><path class="cls-3" d="M76.14 161.22v15.58m7.8-7.79H68.35"/></g><path class="cls-2" d="m1019.03 258.33 83.15-63.48 15.24 103.5-98.39-40.02z"/><g><path class="cls-3" d="m883.43 235.07-18.45-6.58m5.94 12.51 6.57-18.45"/></g></g></svg>