<svg version="1.1" id="Layer_1" xmlns="http://www.w3.org/2000/svg" xmlns:xlink="http://www.w3.org/1999/xlink" x="0" y="0" viewBox="0 0 1455.5 272.4" xml:space="preserve"><style>.st1,.st7{fill:none;stroke-miterlimit:10}.st1{stroke:#e3add0;stroke-width:3;stroke-linecap:round;stroke-linejoin:round}.st7{stroke:#ce5f9e;stroke-width:6.3435}</style><defs><path id="SVGID_1_" d="M0 0h1455.5v272.4H0z"/></defs><clipPath id="SVGID_00000039100450108519662390000002027784086651167104_"><use xlink:href="#SVGID_1_" overflow="visible"/></clipPath><g clip-path="url(#SVGID_00000039100450108519662390000002027784086651167104_)"><path class="st1" d="M20.5 157.6 15 170.8m9.4-3.8-13.2-5.6"/></g><path d="M0 0h1455.5v272.4H0z" clip-path="url(#SVGID_00000039100450108519662390000002027784086651167104_)" fill="#edc1d8"/><linearGradient id="SVGID_00000183211481518624587880000017961790893452538268_" gradientUnits="userSpaceOnUse" x1="727.75" y1="272.372" x2="727.75" y2="0"><stop offset="0" stop-color="#9d33a6"/><stop offset=".38" stop-color="#b1368b"/><stop offset=".744" stop-color="#be3779"/><stop offset="1" stop-color="#c33872"/></linearGradient><path d="M0 272.4h1455.5V13.2l-141.8 129-.3.3c-15.9 14.2-40.3 13.3-55.3-1.9L1118.2 0H612.8l-44.6 40.6c-19.4 17.7-48.6 19.2-69.7 3.7L438.2 0H321.9L217.2 76.9c-15.7 11.5-37.5 9.8-51.2-4L93.5 0H0v272.4z" clip-path="url(#SVGID_00000039100450108519662390000002027784086651167104_)" fill="url(#SVGID_00000183211481518624587880000017961790893452538268_)"/><g clip-path="url(#SVGID_00000039100450108519662390000002027784086651167104_)"><defs><path id="SVGID_00000163065497310222436480000015726071090125254300_" d="M0 272.4h1455.5V13.2l-141.8 129-.3.3c-15.9 14.2-40.3 13.3-55.3-1.9L1118.2 0H612.8l-44.6 40.6c-19.4 17.7-48.6 19.2-69.7 3.7L438.2 0H321.9L217.2 76.9c-15.7 11.5-37.5 9.8-51.2-4L93.5 0H0v272.4z"/></defs><clipPath id="SVGID_00000114774203430120610480000011234785044293386663_"><use xlink:href="#SVGID_00000163065497310222436480000015726071090125254300_" overflow="visible"/></clipPath><path d="M270.1 117.9c-.8 0-1.5.2-2.2.6l-80.4-53.1c0-1.1-.5-2-1.1-2.8L224.9-6c.4-.7.1-1.6-.6-2-.7-.4-1.6-.1-2 .6l-38.6 68.9h-.2c-.5 0-1.1.1-1.5.3l-20.1-13.3 1.4-2.1c.6-1 .4-2.3-.6-2.9-1-.6-2.3-.4-2.9.6l-1.4 2.1L129.3 27c-.1-.7-.3-1.3-.6-1.8l61.1-60.9c.4-.4.6-1.1.3-1.7-.3-.6-.8-.9-1.5-.9L43-29.5c-.6 0-1.2.5-1.4 1.1-.2.6.1 1.3.6 1.6l79.3 52.4c-.3.6-.5 1.2-.5 1.9 0 .3 0 .6.1.9L78.9 70.6c-.3-.1-.6-.1-1-.1-.2 0-.4 0-.6.1L25.9 5.8c-.7-.9-2-1.1-3-.3-.9.7-1.1 2-.3 3l51.5 64.8c-.2.4-.3.9-.3 1.4 0 .3.1.7.1 1l-31.5 31.4c-.6-.3-1.2-.5-1.9-.5-1 0-1.8.3-2.5.9L-89.7 8c-.5-.4-1.1-.4-1.6-.1-.5.3-.8.8-.8 1.4l13.5 219.2c0 .6.4 1.1 1 1.3.5.2 1.2.1 1.6-.3l115.3-115c.4.1.9.2 1.3.2.6 0 1.1-.1 1.6-.3l42.3 32.9c-.2.5-.4 1.1-.4 1.7 0 .6.1 1.2.4 1.7l-48 58.3c-.5.6-.4 1.6.2 2.1.6.5 1.6.4 2.1-.2l47.9-58.1c.5.2 1.1.3 1.6.3 1 0 1.8-.3 2.6-.9l26.9 21c-.1.3-.2.7-.2 1.1 0 1.2.5 2.2 1.3 3l-33.3 59.4c-.3.6-.2 1.3.3 1.8s1.3.5 1.8.2l63.2-39.6 2.9 2.3c-.2.4-.3.9-.3 1.4 0 2.3 1.8 4.1 4.1 4.1.9 0 1.7-.3 2.3-.7l62.1 48.3c.3.2.6.3.9.3.4 0 .8-.2 1.1-.4.5-.5.6-1.4.1-2l-53.2-65.9 96.9-60.8c.7.4 1.5.7 2.3.7 2.3 0 4.1-1.8 4.1-4.1 0-2.6-1.8-4.4-4.1-4.4zm-90.5-54c-.2.5-.4 1.1-.4 1.7 0 .9.3 1.7.7 2.4l-42 75c-.3-.1-.6-.1-.9-.1-.4 0-.8.1-1.2.2l-18.6-23c.2-.5.3-1 .3-1.5 0-.6-.1-1.2-.4-1.7l.4-.4L160.1 51l19.5 12.9zm-56.9 106.3c-.3-.1-.7-.2-1.1-.2-.8 0-1.6.2-2.2.6l-27.2-21.2c0-.2.1-.4.1-.6 0-.9-.3-1.7-.7-2.3l20.1-24.4c.6.3 1.2.5 1.9.5.6 0 1.2-.2 1.8-.4l18.3 22.6c-.4.6-.6 1.3-.6 2.1 0 1.1.4 2.1 1.1 2.8l-11.5 20.5zm-34.5-25.4c-.6 0-1.1.1-1.6.3l-42.3-32.9c.2-.5.4-1.1.4-1.7 0-.5-.1-.9-.2-1.3L75.7 78c.6.4 1.4.7 2.2.7h.5l30.4 38.2c.2.3.5.5.8.6-.1.3-.2.7-.2 1 0 .5.1.9.3 1.4l-20.6 25c-.3-.1-.6-.1-.9-.1zm26-30.7c-.1.1-.1.2-.2.3h-.4c-.4 0-.8.1-1.2.2-.1-.1-.1-.2-.2-.4L81.8 76.1c.2-.5.3-1 .3-1.5 0-.8-.2-1.6-.7-2.2L123 30.9c.7.4 1.4.7 2.3.7 1.3 0 2.5-.6 3.2-1.6l28.2 18.6-42.5 65.5zM184.9-35l-58.7 58.5c-.3-.1-.6-.1-.9-.1-.4 0-.8.1-1.2.2L47.7-26.8 184.9-35zM-88.9 12.4 36.5 110c0 .2-.1.4-.1.6 0 .7.2 1.4.5 1.9L-75.9 224.9l-13-212.5zM91 232.8l30.6-54.6c.7 0 1.4-.2 2-.5l24.6 19.2L91 232.8zm34.6-57.4c.1-.4.2-.8.2-1.3 0-.8-.2-1.5-.6-2.2l11.8-21h.3c.5 0 .9-.1 1.3-.2l28 34.7-15.5 9.7-25.5-19.7zm88.1 68.6-52.1-40.5c.1-.3.1-.6.1-.9 0-2.3-1.8-4.1-4.1-4.1-.7 0-1.3.2-1.9.5l-2.2-1.7 14.9-9.3 45.3 56zm52.4-121L169 183.9l-28.3-35c.3-.6.5-1.3.5-2 0-.9-.3-1.7-.8-2.4l42-74.9c.3.1.6.1.9.1 1.2 0 2.3-.5 3-1.3L266 121c-.1.3-.2.7-.2 1.1.2.2.2.6.3.9zm950.6 48.4c0 2.3 1.8 4.1 4.1 4.1.9 0 1.6-.3 2.3-.7l96.9 60.8-53.2 65.9c-.5.6-.4 1.5.1 2 .3.3.7.4 1.1.4.3 0 .6-.1.9-.3l62.1-48.3c.7.4 1.5.7 2.3.7 2.3 0 4.1-1.8 4.1-4.1 0-.5-.1-1-.3-1.4l2.9-2.3 63.2 39.6c.6.4 1.3.3 1.8-.2s.6-1.2.3-1.8l-33.3-59.4c.8-.8 1.3-1.8 1.3-3 0-.4-.1-.7-.2-1.1l26.9-21c.7.6 1.6.9 2.6.9.6 0 1.1-.1 1.6-.3l47.9 58.1c.5.6 1.5.7 2.1.2.6-.5.7-1.5.2-2.1l-48-58.3c.2-.5.4-1.1.4-1.7 0-.6-.1-1.2-.4-1.7l42.3-32.9c.5.2 1 .3 1.6.3.5 0 .9-.1 1.3-.2l115.3 115c.4.4 1 .5 1.6.3.6-.2.9-.7 1-1.3l13.5-219c0-.6-.3-1.1-.8-1.4-.5-.3-1.2-.2-1.6.1l-127.7 99.3c-.7-.6-1.6-.9-2.5-.9-.7 0-1.4.2-1.9.5l-31.5-31.4c.1-.3.1-.6.1-1 0-.5-.1-.9-.3-1.4l51.5-64.8c.7-.9.6-2.2-.3-3-.9-.7-2.2-.6-3 .3l-51.5 64.7c-.2 0-.4-.1-.6-.1-.3 0-.7.1-1 .1l-42.3-42.2c.1-.3.1-.6.1-.9 0-.7-.2-1.4-.5-1.9l79.3-52.4c.5-.4.8-1 .6-1.6-.2-.6-.7-1.1-1.4-1.1l-145.6-8.7c-.6 0-1.2.3-1.5.9-.3.6-.1 1.2.3 1.7l61.1 60.9c-.4.5-.6 1.2-.6 1.8l-28.9 19.1-1.4-2.1c-.6-1-1.9-1.2-2.9-.6s-1.3 1.9-.6 2.9l1.4 2.1-20.1 13.3c-.5-.2-1-.3-1.5-.3h-.2l-38.6-68.9c-.4-.7-1.3-1-2-.6s-1 1.3-.6 2l38.5 68.6c-.7.7-1.1 1.7-1.1 2.8l-80.4 53.1c-.6-.4-1.4-.6-2.2-.6-2.3.3-4.1 2.2-4.1 4.5zm114-71.1 42.5 65.4c.1.2.2.3.4.4-.2.5-.4 1.1-.4 1.7 0 .5.1 1 .3 1.5l-18.6 23c-.4-.1-.8-.2-1.2-.2-.3 0-.6 0-.9.1l-42-75c.5-.7.7-1.5.7-2.4 0-.6-.1-1.2-.4-1.7l19.6-12.8zm26 98.8c.7-.7 1.1-1.7 1.1-2.8 0-.8-.2-1.5-.6-2.1l18.3-22.6c.5.3 1.1.4 1.8.4s1.3-.2 1.9-.5l20.1 24.4c-.5.7-.7 1.5-.7 2.3 0 .2 0 .4.1.6l-27.2 21.2c-.6-.4-1.4-.6-2.2-.6-.4 0-.7.1-1.1.2l-11.5-20.5zm45.1-4.9-20.6-25c.2-.4.3-.9.3-1.4 0-.4-.1-.7-.2-1 .3-.1.6-.3.8-.6l30.4-38.2h.5c.8 0 1.6-.2 2.2-.7l31.3 31.2c-.1.4-.2.9-.2 1.3 0 .6.1 1.2.4 1.7l-42.3 32.9c-.5-.2-1-.3-1.6-.3-.4 0-.7.1-1 .1zM1334.3 98l28.2-18.6c.8.9 1.9 1.6 3.2 1.6.8 0 1.6-.3 2.3-.7l41.5 41.4c-.4.6-.7 1.4-.7 2.2 0 .5.1 1.1.3 1.5l-30.3 38.1c-.1.1-.2.2-.2.4-.4-.1-.8-.2-1.2-.2h-.4c0-.1-.1-.2-.2-.3L1334.3 98zm108.9-75.5-76.4 50.4c-.4-.1-.8-.2-1.2-.2-.3 0-.6 0-.9.1L1306 14.3l137.2 8.2zm123.6 251.8L1454 161.8c.3-.6.5-1.2.5-1.9 0-.2 0-.4-.1-.6l125.4-97.6-13 212.6zm-224.2-28.1 24.6-19.2c.6.3 1.3.5 2 .5l30.6 54.6-57.2-35.9zm-2.7-1.7-15.5-9.7 28-34.7c.4.1.8.2 1.3.2h.3l11.8 21c-.4.6-.6 1.4-.6 2.2 0 .4.1.9.2 1.3l-25.5 19.7zm-17.4-7.3 14.9 9.3-2.2 1.7c-.6-.3-1.2-.5-1.9-.5-2.3 0-4.1 1.8-4.1 4.1 0 .3 0 .6.1.9l-52.1 40.5 45.3-56zm-97.6-65.8c0-.4-.1-.7-.2-1.1l79.7-52.6c.8.8 1.8 1.3 3 1.3.3 0 .6 0 .9-.1l42 74.9c-.5.7-.8 1.5-.8 2.4 0 .7.2 1.4.5 2l-28.3 35-97.1-60.9c.3-.3.3-.6.3-.9z" opacity=".33" clip-path="url(#SVGID_00000114774203430120610480000011234785044293386663_)" fill="#9d81d4"/></g><circle cx="226.9" cy="104.9" r="20.4" clip-path="url(#SVGID_00000039100450108519662390000002027784086651167104_)" fill="none" stroke="#e3add0" stroke-width="3" stroke-miterlimit="10"/><linearGradient id="SVGID_00000168097766171543544600000015981676985274920602_" gradientUnits="userSpaceOnUse" x1="0" y1="233.773" x2="1455.5" y2="233.773"><stop offset="0" stop-color="#c566a1"/><stop offset="1" stop-color="#ed9fcc"/></linearGradient><path d="M1455.5 272.4v-30.5H112.4c-5.5 0-6.3-7.9-.9-9l121.7-25.4c7.3-1.5 6.2-12.3-1.3-12.3H0v77.2h1455.5z" clip-path="url(#SVGID_00000039100450108519662390000002027784086651167104_)" fill="url(#SVGID_00000168097766171543544600000015981676985274920602_)"/><g clip-path="url(#SVGID_00000039100450108519662390000002027784086651167104_)"><path class="st7" d="M1325.2 162.9v109.5"/><linearGradient id="SVGID_00000079453521683280811640000016446578004160238495_" gradientUnits="userSpaceOnUse" x1="1292.485" y1="175.904" x2="1358.395" y2="175.904"><stop offset="0" stop-color="#c566a1"/><stop offset="1" stop-color="#ed9fcc"/></linearGradient><path d="m1292.5 252.2 32.9-152.6 33 152.6z" fill="url(#SVGID_00000079453521683280811640000016446578004160238495_)"/></g><g clip-path="url(#SVGID_00000039100450108519662390000002027784086651167104_)"><path class="st7" d="M1370.9 162.9v109.5"/><linearGradient id="SVGID_00000089573678471019949450000009679924630701780103_" gradientUnits="userSpaceOnUse" x1="1338.133" y1="175.904" x2="1404.044" y2="175.904"><stop offset="0" stop-color="#c566a1"/><stop offset="1" stop-color="#ed9fcc"/></linearGradient><path d="m1338.1 252.2 33-152.6 32.9 152.6z" fill="url(#SVGID_00000089573678471019949450000009679924630701780103_)"/></g><path d="M1282.9 257.2v56.7" clip-path="url(#SVGID_00000039100450108519662390000002027784086651167104_)" fill="none" stroke="#ce5f9e" stroke-width="6.065" stroke-miterlimit="10"/><g clip-path="url(#SVGID_00000039100450108519662390000002027784086651167104_)"><linearGradient id="SVGID_00000177462365366993258960000011263115033842294920_" gradientUnits="userSpaceOnUse" x1="1243.302" y1="152.532" x2="1325.505" y2="152.532"><stop offset="0" stop-color="#c566a1"/><stop offset="1" stop-color="#ed9fcc"/></linearGradient><circle cx="1284.4" cy="152.5" r="41.1" fill="url(#SVGID_00000177462365366993258960000011263115033842294920_)"/><linearGradient id="SVGID_00000099624289595116789180000018162386410966470322_" gradientUnits="userSpaceOnUse" x1="1214.759" y1="232.935" x2="1352.732" y2="232.935"><stop offset="0" stop-color="#c566a1"/><stop offset="1" stop-color="#ed9fcc"/></linearGradient><circle cx="1283.7" cy="232.9" r="69" fill="url(#SVGID_00000099624289595116789180000018162386410966470322_)"/></g><circle cx="1385.9" cy="168.9" r="12.2" clip-path="url(#SVGID_00000039100450108519662390000002027784086651167104_)" fill="none" stroke="#fffffe" stroke-width="3" stroke-miterlimit="10"/><circle cx="101.4" cy="138.4" r="22.2" clip-path="url(#SVGID_00000039100450108519662390000002027784086651167104_)" fill="none" stroke="#fffffe" stroke-width="3" stroke-miterlimit="10"/><circle cx="895.1" cy="50.3" r="12.2" clip-path="url(#SVGID_00000039100450108519662390000002027784086651167104_)" fill="none" stroke="#e3add0" stroke-width="3" stroke-miterlimit="10"/><circle cx="1067.7" cy="13.5" r="20.1" clip-path="url(#SVGID_00000039100450108519662390000002027784086651167104_)" fill="none" stroke="#e3add0" stroke-width="3" stroke-miterlimit="10"/><path d="M59.3 86.7V101m7.1-7.1H52.1" clip-path="url(#SVGID_00000039100450108519662390000002027784086651167104_)" fill="none" stroke="#e3add0" stroke-width="3" stroke-linecap="round" stroke-linejoin="round" stroke-miterlimit="10"/><linearGradient id="SVGID_00000108266644826281365660000005039383951400799413_" gradientUnits="userSpaceOnUse" x1="168.722" y1="10.772" x2="174.934" y2="10.772"><stop offset="0" stop-color="#c566a1"/><stop offset="1" stop-color="#ed9fcc"/></linearGradient><circle cx="171.8" cy="10.8" r="3.1" clip-path="url(#SVGID_00000039100450108519662390000002027784086651167104_)" fill="url(#SVGID_00000108266644826281365660000005039383951400799413_)"/><linearGradient id="SVGID_00000093866054549543432750000002132374220718494647_" gradientUnits="userSpaceOnUse" x1="209.946" y1="26.301" x2="216.158" y2="26.301"><stop offset="0" stop-color="#c566a1"/><stop offset="1" stop-color="#ed9fcc"/></linearGradient><circle cx="213.1" cy="26.3" r="3.1" clip-path="url(#SVGID_00000039100450108519662390000002027784086651167104_)" fill="url(#SVGID_00000093866054549543432750000002132374220718494647_)"/><linearGradient id="SVGID_00000129887749065777142810000017088083948250426007_" gradientUnits="userSpaceOnUse" x1="1242.508" y1="91.807" x2="1248.72" y2="91.807"><stop offset="0" stop-color="#c566a1"/><stop offset="1" stop-color="#ed9fcc"/></linearGradient><circle cx="1245.6" cy="91.8" r="3.1" clip-path="url(#SVGID_00000039100450108519662390000002027784086651167104_)" fill="url(#SVGID_00000129887749065777142810000017088083948250426007_)"/><linearGradient id="SVGID_00000135679621642295679590000001720056568714431637_" gradientUnits="userSpaceOnUse" x1="231.204" y1="-11.156" x2="292.393" y2="-11.156"><stop offset="0" stop-color="#c566a1"/><stop offset="1" stop-color="#ed9fcc"/></linearGradient><path d="M279.7-.3c-17.3 0-31.3-14-31.3-31.3 0-3.3.5-6.5 1.5-9.5-10.9 4.9-18.6 15.8-18.6 28.6 0 17.3 14 31.3 31.3 31.3 14 0 25.9-9.2 29.9-21.9-4 1.8-8.3 2.8-12.8 2.8z" clip-path="url(#SVGID_00000039100450108519662390000002027784086651167104_)" fill="url(#SVGID_00000135679621642295679590000001720056568714431637_)"/><linearGradient id="SVGID_00000001643033704138600600000008522913853852644510_" gradientUnits="userSpaceOnUse" x1="562.039" y1="20.936" x2="568.251" y2="20.936"><stop offset="0" stop-color="#c566a1"/><stop offset="1" stop-color="#ed9fcc"/></linearGradient><circle cx="565.1" cy="20.9" r="3.1" clip-path="url(#SVGID_00000039100450108519662390000002027784086651167104_)" fill="url(#SVGID_00000001643033704138600600000008522913853852644510_)"/><path d="m180 106.8-16.9-6m5.4 11.5 6.1-17" clip-path="url(#SVGID_00000039100450108519662390000002027784086651167104_)" fill="none" stroke="#fffffe" stroke-width="3" stroke-linecap="round" stroke-linejoin="round" stroke-miterlimit="10"/><path d="M943.1 74.8 937.5 88m9.4-3.8-13.2-5.6" clip-path="url(#SVGID_00000039100450108519662390000002027784086651167104_)" fill="none" stroke="#e3add0" stroke-width="3" stroke-linecap="round" stroke-linejoin="round" stroke-miterlimit="10"/><g clip-path="url(#SVGID_00000039100450108519662390000002027784086651167104_)"><path class="st1" d="m1434.4 124.8-5.6 13.2m9.4-3.8-13.2-5.6"/></g><path d="m238.8 222.2 23.9-18.2 4.4 29.8z" clip-path="url(#SVGID_00000039100450108519662390000002027784086651167104_)" fill="none" stroke="#e3add0" stroke-width="3" stroke-linecap="round" stroke-linejoin="round" stroke-miterlimit="10"/><path d="m29.5 204.5 24-18.3 4.4 29.8z" clip-path="url(#SVGID_00000039100450108519662390000002027784086651167104_)" fill="none" stroke="#fffffe" stroke-width="3" stroke-miterlimit="10"/><path d="m120.9 178.9 5-18.1 13.4 13.2zm1301.3 35.2 5-18.1 13.4 13.2z" clip-path="url(#SVGID_00000039100450108519662390000002027784086651167104_)" fill="none" stroke="#e3add0" stroke-width="3" stroke-linecap="round" stroke-linejoin="round" stroke-miterlimit="10"/></svg>