<svg id="Layer_1" data-name="Layer 1" xmlns="http://www.w3.org/2000/svg" xmlns:xlink="http://www.w3.org/1999/xlink" viewBox="0 0 1455.5 272.37"><defs><linearGradient id="linear-gradient" x1="-3641.13" y1="166.07" x2="-3581.36" y2="166.07" gradientTransform="translate(-2224.1) rotate(-180) scale(1 -1)" gradientUnits="userSpaceOnUse"><stop offset="0" stop-color="#c566a1"/><stop offset="1" stop-color="#ed9fcc"/></linearGradient><linearGradient id="linear-gradient-2" x1="-2354.33" y1="199.44" x2="-2294.56" y2="199.44" xlink:href="#linear-gradient"/><linearGradient id="linear-gradient-3" x1="-3533.85" y1="224.33" x2="-3499.9" y2="224.33" xlink:href="#linear-gradient"/><linearGradient id="linear-gradient-4" x1="-3510.34" y1="224.33" x2="-3476.38" y2="224.33" xlink:href="#linear-gradient"/><linearGradient id="linear-gradient-5" x1="-2395.84" y1="196.15" x2="-2361.89" y2="196.15" xlink:href="#linear-gradient"/><linearGradient id="linear-gradient-6" x1="-3569.29" y1="235.15" x2="-3525.01" y2="235.15" xlink:href="#linear-gradient"/><linearGradient id="linear-gradient-7" x1="-3584.67" y1="278.47" x2="-3510.34" y2="278.47" xlink:href="#linear-gradient"/><linearGradient id="linear-gradient-8" x1="-2305.7" y1="161.93" x2="-2261.42" y2="161.93" xlink:href="#linear-gradient"/><linearGradient id="linear-gradient-9" x1="-2321.08" y1="205.24" x2="-2246.75" y2="205.24" xlink:href="#linear-gradient"/><clipPath id="clippath"><path class="cls-1" d="M0 0h1455.5v272.37H0z"/></clipPath><clipPath id="clippath-1"><path class="cls-1" d="M0 0h1455.5v272.37H0z"/></clipPath><style>.cls-1,.cls-2,.cls-3,.cls-4,.cls-5{fill:none}.cls-2{stroke:#77aa8f;stroke-width:3px}.cls-2,.cls-5{stroke-miterlimit:10}.cls-9{fill:#8abca3}.cls-3,.cls-4{stroke-linecap:round;stroke-linejoin:round}.cls-3,.cls-4,.cls-5{stroke-width:3.27px}.cls-3{stroke:#fffffe}.cls-4,.cls-5{stroke:#ce5f9e}</style></defs><g clip-path="url(#clippath)"><g clip-path="url(#clippath-1)"><g><g><path class="cls-9" d="M294.82 316.21H-11.15V-14.35h305.97z"/><path class="cls-2" d="M278.72-14.35v333.68M251.38-14.35v333.68M224.04-14.35v333.68M196.71-14.35v333.68M169.37-14.35v333.68M142.03-14.35v333.68M114.69-14.35v333.68M87.35-14.35v333.68M60.02-14.35v333.68M32.68-14.35v333.68"/></g><g><path class="cls-9" d="M571.32 316.21H294.61V-14.35h276.71z"/><path class="cls-2" d="M555.21-14.35v333.68M527.87-14.35v333.68M500.54-14.35v333.68M473.2-14.35v333.68M445.86-14.35v333.68M418.52-14.35v333.68M391.19-14.35v333.68M363.85-14.35v333.68M336.51-14.35v333.68M309.17-14.35v333.68"/></g><g><path class="cls-9" d="M847.81 316.21H571.1V-14.35h276.71z"/><path class="cls-2" d="M831.71-14.35v333.68M804.37-14.35v333.68M777.03-14.35v333.68M749.69-14.35v333.68M722.36-14.35v333.68M695.02-14.35v333.68M667.68-14.35v333.68M640.34-14.35v333.68M613-14.35v333.68M585.67-14.35v333.68"/></g><g><path class="cls-9" d="M1124.31 316.21H847.6V-14.35h276.71z"/><path class="cls-2" d="M1108.2-14.35v333.68m-27.34-333.68v333.68m-27.34-333.68v333.68m-27.33-333.68v333.68M998.85-14.35v333.68M971.51-14.35v333.68M944.17-14.35v333.68M916.84-14.35v333.68M889.5-14.35v333.68M862.16-14.35v333.68"/></g><g><path class="cls-9" d="M1400.8 316.21h-276.71V-14.35h276.71z"/><path class="cls-2" d="M1384.69-14.35v333.68m-27.33-333.68v333.68m-27.34-333.68v333.68m-27.34-333.68v333.68m-27.34-333.68v333.68m-27.33-333.68v333.68m-27.34-333.68v333.68m-27.34-333.68v333.68m-27.34-333.68v333.68m-27.34-333.68v333.68"/></g><g><path class="cls-9" d="M1677.3 316.21h-276.71V-14.35h276.71z"/><path class="cls-2" d="M1442.49-14.35v333.68m-27.34-333.68v333.68"/></g><g><path class="cls-2" d="M-11.14 1.37h333.68M-11.14 28.71H1489M-11.14 56.05H1489M-11.14 83.39H1489M-11.14 110.72H1489M-11.14 138.06H1489M-11.14 165.4H1489M-11.14 192.74H1489M-11.14 220.07H1489M-11.14 247.41H1489M-11.14 273.19h333.68"/></g></g></g><g><path class="cls-5" d="M1387.36 154.31v99.24"/><path fill="url(#linear-gradient)" d="M1417.04 235.24 1387.15 96.9l-29.88 138.34h59.77z"/></g><g><path class="cls-5" d="M100.56 187.69v99.23"/><path fill="url(#linear-gradient-2)" d="m130.24 268.61-29.89-138.33-29.88 138.33h59.77z"/></g><g><g><path class="cls-5" d="M1292.9 217.66v56.37"/><path fill="url(#linear-gradient-3)" d="m1309.76 263.63-16.98-78.59-16.98 78.59h33.96z"/></g><g><path class="cls-5" d="M1269.38 217.66v56.37"/><path fill="url(#linear-gradient-4)" d="m1286.24 263.63-16.98-78.59-16.97 78.59h33.95z"/></g></g><g><path class="cls-5" d="M154.89 189.47v56.37"/><path fill="url(#linear-gradient-5)" d="m171.75 235.44-16.98-78.58-16.98 78.58h33.96z"/></g><g><circle cx="1323.05" cy="235.15" r="22.14" fill="url(#linear-gradient-6)"/><circle cx="1323.41" cy="278.47" r="37.17" fill="url(#linear-gradient-7)"/></g><g><path class="cls-5" d="M60.28 218.31v59.05"/><g><circle cx="59.46" cy="161.93" r="22.14" fill="url(#linear-gradient-8)"/><circle cx="59.82" cy="205.24" r="37.17" fill="url(#linear-gradient-9)"/></g></g><circle class="cls-3" cx="187.01" cy="217.88" r="25.22"/><circle class="cls-4" cx="22.65" cy="121.07" r="13.32"/><circle cx="924.4" cy="227.73" r="13.32" stroke="#fffffe" stroke-width="3.27" stroke-miterlimit="10" fill="none"/><circle class="cls-3" cx="132.9" cy="162.17" r="17.3"/><circle class="cls-3" cx="1083.54" cy="234.38" r="22.19"/><g><path class="cls-4" d="M1153.01 239.87v15.58m7.79-7.79h-15.58"/></g><g><path class="cls-3" d="M1204.49 197.62v15.59m7.8-7.79h-15.59"/></g><g><path class="cls-4" d="m118.19 93.05-5.18 14.7m9.94-4.76-14.69-5.18"/></g><g><path class="cls-4" d="m1001.54 227.73-8.11 13.31m10.71-2.6-13.31-8.11"/></g><g><path class="cls-3" d="m1318.98 182.76-18.45-6.58m5.94 12.51 6.57-18.45"/></g><path class="cls-4" d="m1009.13 267.86 10.52-8.03 1.93 13.1-12.45-5.07zm329.84-123.64 10.52-8.03 1.93 13.09-12.45-5.06z"/></g></svg>