<svg id="Layer_1" data-name="Layer 1" xmlns="http://www.w3.org/2000/svg" xmlns:xlink="http://www.w3.org/1999/xlink" viewBox="0 0 276.71 330.56"><defs><linearGradient id="linear-gradient" x1="12.74" y1="205.65" x2="72.51" y2="205.65" gradientTransform="translate(276.71) rotate(-180) scale(1 -1)" gradientUnits="userSpaceOnUse"><stop offset="0" stop-color="#c566a1"/><stop offset="1" stop-color="#ed9fcc"/></linearGradient><linearGradient id="linear-gradient-2" x1="120.02" y1="163.55" x2="153.97" y2="163.55" xlink:href="#linear-gradient"/><linearGradient id="linear-gradient-3" x1="143.54" y1="163.55" x2="177.49" y2="163.55" xlink:href="#linear-gradient"/><linearGradient id="linear-gradient-4" x1="189.82" y1="64.75" x2="223.77" y2="64.75" xlink:href="#linear-gradient"/><linearGradient id="linear-gradient-5" x1="84.58" y1="174.37" x2="128.87" y2="174.37" xlink:href="#linear-gradient"/><linearGradient id="linear-gradient-6" x1="69.2" y1="217.69" x2="143.54" y2="217.69" xlink:href="#linear-gradient"/><clipPath id="clippath"><path class="cls-1" d="M276.71 330.56H0V0h276.71z"/></clipPath><clipPath id="clippath-1"><path class="cls-1" d="M276.71 330.56H0V0h276.71z"/></clipPath><style>.cls-1,.cls-2,.cls-3,.cls-4,.cls-5{fill:none}.cls-2{stroke:#77aa8f;stroke-width:3px}.cls-2,.cls-5{stroke-miterlimit:10}.cls-3,.cls-4{stroke-linecap:round;stroke-linejoin:round}.cls-3,.cls-4,.cls-5{stroke-width:3.27px}.cls-3{stroke:#fffffe}.cls-4,.cls-5{stroke:#ce5f9e}</style></defs><g clip-path="url(#clippath)"><g clip-path="url(#clippath-1)"><g><g><path fill="#8abca3" d="M276.71 330.56H0V0h276.71z"/><path class="cls-2" d="M260.6 0v333.68M233.26 0v333.68M205.92 0v333.68M178.58 0v333.68M151.25 0v333.68M123.91 0v333.68M96.57 0v333.68M69.23 0v333.68M41.9 0v333.68M14.56 0v333.68"/></g><g><path class="cls-2" d="M-29.26 15.72h333.68M-29.26 43.06h333.68M-29.26 70.4h333.68M-29.26 97.74h333.68m-333.68 27.33h333.68m-333.68 27.34h333.68m-333.68 27.34h333.68m-333.68 27.34h333.68m-333.68 27.34h333.68m-333.68 27.33h333.68m-333.68 25.78h333.68m-333.68 27.34h333.68"/></g></g></g><path class="cls-1" d="M276.71 330.56H0V0h276.71z"/><path class="cls-1" d="M276.71 330.56H0V0h276.71z"/><g><path class="cls-5" d="M234.28 193.9v99.23"/><path fill="url(#linear-gradient)" d="m263.96 274.82-29.88-138.33-29.89 138.33h59.77z"/></g><g><g><path class="cls-5" d="M139.82 156.88v56.37"/><path fill="url(#linear-gradient-2)" d="m156.68 202.85-16.97-78.59-16.98 78.59h33.95z"/></g><g><path class="cls-5" d="M116.31 156.88v56.37"/><path fill="url(#linear-gradient-3)" d="m133.17 202.85-16.98-78.59-16.97 78.59h33.95z"/></g></g><g><path class="cls-5" d="M70.03 58.07v56.37"/><path fill="url(#linear-gradient-4)" d="M86.89 104.04 69.91 25.46l-16.98 78.58h33.96z"/></g><g><path class="cls-5" d="M170.8 230.76v59.05"/><g><circle cx="169.98" cy="174.37" r="22.14" fill="url(#linear-gradient-5)"/><circle cx="170.34" cy="217.69" r="37.17" fill="url(#linear-gradient-6)"/></g></g></g><g><circle class="cls-3" cx="124.02" cy="288.87" r="25.22"/><circle class="cls-4" cx="31.94" cy="266.14" r="13.32"/><circle cx="39.29" cy="47.86" r="13.32" stroke="#fffffe" stroke-width="3.27" stroke-miterlimit="10" fill="none"/><circle class="cls-3" cx="69.91" cy="233.16" r="17.3"/><circle class="cls-3" cx="198.43" cy="54.51" r="22.19"/><g><path class="cls-4" d="M231.43 89.82v15.58m7.8-7.79h-15.59"/></g><g><path class="cls-3" d="M167.61 89.82v15.58m7.79-7.79h-15.58"/></g><g><path class="cls-4" d="m55.2 164.05-5.18 14.7m9.94-4.76-14.7-5.18"/></g><g><path class="cls-4" d="m116.42 47.86-8.1 13.31m10.71-2.6-13.31-8.11"/></g><g><path class="cls-3" d="m268.67 150.05-18.45-6.58m5.94 12.52 6.58-18.45"/></g><path class="cls-4" d="m124.02 87.99 10.52-8.03 1.93 13.09-12.45-5.06z"/></g></svg>