<svg id="Layer_1" data-name="Layer 1" xmlns="http://www.w3.org/2000/svg" xmlns:xlink="http://www.w3.org/1999/xlink" viewBox="0 0 276.71 330.56"><defs><linearGradient id="linear-gradient" x1="2306.34" y1="-2036.17" x2="2338.57" y2="-2036.17" gradientTransform="translate(-1818.58 -2270.52) rotate(90)" gradientUnits="userSpaceOnUse"><stop offset="0" stop-color="#fff"/><stop offset="1" stop-color="#81d6e2"/></linearGradient><linearGradient id="linear-gradient-2" x1="2345.81" y1="-1886.36" x2="2388.38" y2="-1886.36" xlink:href="#linear-gradient"/><linearGradient id="linear-gradient-3" x1="2363.42" y1="-1935.97" x2="2388.79" y2="-1935.97" xlink:href="#linear-gradient"/><linearGradient id="linear-gradient-4" x1="2354.51" y1="-1846.96" x2="2388.79" y2="-1846.96" xlink:href="#linear-gradient"/><linearGradient id="linear-gradient-5" x1="2537.27" y1="-2049.68" x2="2579.58" y2="-2049.68" gradientTransform="translate(2280.78 -2270.52) rotate(90) scale(1 -1)" xlink:href="#linear-gradient"/><linearGradient id="linear-gradient-6" x1="138.35" y1="189.68" x2="138.35" y2="249.89" gradientTransform="matrix(1, 0, 0, 1, 0, 0)" xlink:href="#linear-gradient"/><linearGradient id="linear-gradient-7" x1="138.35" y1="107.22" x2="138.35" y2="217.34" gradientUnits="userSpaceOnUse"><stop offset="0" stop-color="#9d33a6"/><stop offset=".04" stop-color="#9f33a2"/><stop offset=".41" stop-color="#b33587"/><stop offset=".74" stop-color="#be3777"/><stop offset="1" stop-color="#c33872"/></linearGradient><linearGradient id="linear-gradient-8" x1="108.11" y1="162.28" x2="168.6" y2="162.28" gradientUnits="userSpaceOnUse"><stop offset="0" stop-color="#c566a1"/><stop offset="1" stop-color="#ed9fcc"/></linearGradient><linearGradient id="linear-gradient-9" x1="2508.53" y1="-1861.2" x2="2550.84" y2="-1861.2" xlink:href="#linear-gradient"/><clipPath id="clippath"><path class="cls-1" d="M0 0h276.71v330.56H0z"/></clipPath><style>.cls-1,.cls-2,.cls-3{fill:none}.cls-2{stroke:#fff;stroke-width:3.27px}.cls-2,.cls-3{stroke-linecap:round;stroke-linejoin:round}.cls-3{stroke:#ffd0a6;stroke-width:3px}</style></defs><g clip-path="url(#clippath)"><path fill="#81d6e2" d="M0 0h276.71v330.56H0z"/><path class="cls-1" d="M0 0h276.71v330.56H0z"/><path d="m208.64 67.53-23.28.52c0-17.8 14.43-32.23 32.23-32.23s32.23 14.43 32.23 32.23" fill="url(#linear-gradient)"/><g><path d="M25.21 117.86c0-23.51 19.06-42.57 42.57-42.57s42.57 19.06 42.57 42.57H25.21Z" fill="url(#linear-gradient-2)"/><g><path d="m110.35 117.86-18.32.41c0-14.01 11.36-25.36 25.36-25.36s25.36 11.36 25.36 25.36" fill="url(#linear-gradient-3)"/><path d="m18.86 117.72-24.76.55c0-18.93 15.35-34.28 34.28-34.28s34.28 15.35 34.28 34.28" fill="url(#linear-gradient-4)"/></g></g><path d="M288.97 308.66c0-23.15-18.76-41.91-41.91-41.91s-41.91 18.76-41.91 41.91l18.03.4c0-13.79-11.18-24.97-24.97-24.97s-24.97 11.18-24.97 24.97" fill="url(#linear-gradient-5)"/><g><g><path d="M108.23 128.14c-2.37 8.21-16.12 52.8-36.94 57.28-.79.17-1.51-.51-1.39-1.31l1.14-7.29c.18-1.17-1.29-1.82-2.03-.9-4.46 5.49-15.11 14.81-38.32 20.01-.82.18-1.56-.55-1.38-1.37.85-3.78 3.26-12.86 8.01-18.98.71-.92-.21-2.2-1.3-1.79l-5.31 1.97c-.82.3-1.67-.38-1.54-1.25.66-4.33 3.29-15.17 13.41-22.83.96-.73.27-2.26-.92-2.04l-6.69 1.25c-.81.15-1.52-.56-1.34-1.37 1.44-6.62 10.97-30.36 73.61-22.83.71.08 1.18.78.98 1.46Zm60.25 0c2.37 8.21 16.12 52.8 36.94 57.28.79.17 1.51-.51 1.39-1.31l-1.14-7.29c-.18-1.17 1.29-1.82 2.03-.9 4.46 5.49 15.11 14.81 38.32 20.01.82.18 1.56-.55 1.38-1.37-.85-3.78-3.26-12.86-8.01-18.98-.71-.92.21-2.2 1.3-1.79l5.31 1.97c.82.3 1.67-.38 1.54-1.25-.66-4.33-3.29-15.17-13.41-22.83-.96-.73-.27-2.26.92-2.04l6.69 1.25c.81.15 1.52-.56 1.34-1.37-1.44-6.62-10.97-30.36-73.61-22.83-.71.08-1.18.78-.98 1.46Z" fill="#fff"/></g><rect x="83.29" y="189.68" width="110.12" height="60.21" rx="11.56" ry="11.56" fill="url(#linear-gradient-6)"/><rect x="83.29" y="107.22" width="110.12" height="110.12" rx="18.4" ry="18.4" fill="url(#linear-gradient-7)"/><path d="m166.48 143.49 1.66-4.16s-2.12-2.31-4.69-4.93c-2.57-2.62-8.01-1.08-8.01-1.08l-6.2-7.17h-21.78l-6.2 7.17s-5.44-1.54-8.01 1.08c-2.57 2.62-4.69 4.93-4.69 4.93l1.66 4.16-2.12 6.16s6.23 24.03 6.96 26.96c1.44 5.78 2.42 8.01 6.5 10.94s11.49 8.01 12.7 8.78c1.21.77 2.72 2.08 4.08 2.08s2.87-1.31 4.08-2.08 8.62-5.85 12.7-8.78c4.08-2.93 5.07-5.16 6.5-10.94.73-2.93 6.96-26.96 6.96-26.96l-2.12-6.16Zm-19.01 33.18c-.45.32-6.49 5.09-7.08 5.62-.59.53-1.45 1.4-2.03 1.4s-1.45-.87-2.03-1.4c-.59-.53-6.63-5.29-7.08-5.62-.45-.32-.75-.92-.26-1.23.49-.31 2.04-1.11 4.17-2.23 2.13-1.12 4.79-2.08 5.2-2.08s3.07.96 5.2 2.08c2.13 1.12 3.68 1.92 4.17 2.23.49.31.19.91-.26 1.23Zm12.2-23.14c-1.01 1.09-5.41 5.86-5.98 6.47-.57.61-1.74 1.54-1.05 3.21s1.71 3.8.58 5.95c-1.14 2.16-3.08 3.59-4.33 3.36-1.25-.24-4.18-1.8-5.26-2.51-1.08-.71-4.49-3.58-4.49-4.68s3.53-3.07 4.18-3.52c.65-.45 3.63-2.18 3.69-2.86.06-.68.04-.88-.84-2.56-.88-1.68-2.46-3.92-2.2-5.42.26-1.49 2.81-2.27 4.63-2.97 1.82-.7 5.32-2.02 5.76-2.23.44-.21.32-.4-1-.53-1.33-.13-5.09-.64-6.78-.16-1.7.48-4.59 1.21-4.83 1.6-.23.39-.44.4-.2 1.74.24 1.34 1.48 7.77 1.6 8.91.12 1.14.36 1.9-.85 2.18-1.21.28-3.24.77-3.94.77s-2.73-.49-3.94-.77-.97-1.04-.85-2.18 1.36-7.57 1.6-8.91c.24-1.34.03-1.35-.2-1.74-.23-.39-3.13-1.12-4.83-1.6-1.7-.48-5.46.03-6.78.16-1.33.13-1.44.32-1 .53s3.94 1.53 5.76 2.23c1.82.7 4.37 1.48 4.63 2.97.26 1.49-1.32 3.74-2.2 5.42-.88 1.68-.9 1.88-.84 2.56s3.04 2.41 3.69 2.86c.65.45 4.18 2.42 4.18 3.52s-3.41 3.97-4.49 4.68c-1.08.71-4.01 2.27-5.26 2.51-1.25.24-3.19-1.2-4.33-3.36-1.14-2.16-.11-4.28.58-5.95s-.48-2.6-1.05-3.21c-.57-.61-4.97-5.38-5.98-6.47-1.01-1.09-2.01-1.65-2.01-3.74s7.97-11.92 7.97-11.92 6.73 1.31 7.64 1.31 2.87-.77 4.69-1.39c1.64-.56 2.79-.61 2.99-.62h.06c.2 0 1.35.06 2.99.62 1.81.62 3.78 1.39 4.69 1.39s7.64-1.31 7.64-1.31 7.97 9.82 7.97 11.92-1 2.65-2.01 3.74Z" fill="url(#linear-gradient-8)"/></g><path d="M-15.25 279.92c0-23.15 18.76-41.91 41.91-41.91s41.91 18.76 41.91 41.91l-18.03.4c0-13.79 11.18-24.97 24.97-24.97s24.97 11.18 24.97 24.97" fill="url(#linear-gradient-9)"/><g><circle class="cls-3" cx="183.52" cy="75.48" r="13.32"/><circle class="cls-2" cx="70.69" cy="53.03" r="20.1"/><circle class="cls-3" cx="118.46" cy="316.71" r="22.19"/><g><path class="cls-3" d="m132.5 41.62 9.6 12.27m1.34-10.93-12.27 9.6"/></g><g><path class="cls-3" d="m45.7 109.79 4.97 14.76m4.9-9.87-14.77 4.98"/></g><g><path class="cls-3" d="m226.67 110.98-18.59 6.19m12.39 6.2-6.19-18.59"/></g><g><path class="cls-3" d="m105.57 259.49-18.59 6.2m12.39 6.19-6.19-18.58"/></g><path class="cls-3" d="m96.27 34.01 3.34-12.81 9.59 9.12-12.93 3.69zM257.57 95l-3.18-35.45 32.55 14.4L257.57 95z"/><circle class="cls-2" cx="196.84" cy="243.86" r="13.32"/><circle class="cls-3" cx="263.8" cy="266.3" r="25.17"/><circle class="cls-3" cx="40.44" cy="232.68" r="25.17"/><path class="cls-3" d="m159.31 231.5 6.25-23.99 17.96 17.09-24.21 6.9z"/></g></g></svg>