<svg id="Layer_1" xmlns="http://www.w3.org/2000/svg" xmlns:xlink="http://www.w3.org/1999/xlink" viewBox="0 0 1455.5 272.37"><defs><linearGradient id="linear-gradient" x1="81.39" y1="196.84" x2="151" y2="196.84" gradientTransform="translate(232.39 393.69) rotate(-180)" gradientUnits="userSpaceOnUse"><stop offset="0" stop-color="#9d33a6"/><stop offset=".04" stop-color="#9f33a2"/><stop offset=".41" stop-color="#b33587"/><stop offset=".74" stop-color="#be3777"/><stop offset="1" stop-color="#c33872"/></linearGradient><linearGradient id="linear-gradient-2" x1="-520.55" y1="-2669.86" x2="-488.33" y2="-2669.86" gradientTransform="translate(-1378.26 670.61) rotate(90)" gradientUnits="userSpaceOnUse"><stop offset="0" stop-color="#fff"/><stop offset="1" stop-color="#81d6e2"/></linearGradient><linearGradient id="linear-gradient-3" x1="175.77" y1="549.17" x2="230.56" y2="549.17" gradientTransform="translate(-75.58 -242.66) rotate(-12.16)" gradientUnits="userSpaceOnUse"><stop offset="0" stop-color="#eca671"/><stop offset="1" stop-color="#f9c69d"/></linearGradient><linearGradient id="linear-gradient-4" x1="19.18" y1="274.67" x2="56.84" y2="274.67" gradientTransform="translate(-26.17 -157.28) rotate(-8.33)" xlink:href="#linear-gradient-3"/><linearGradient id="linear-gradient-5" x1="1014.81" y1="539.83" x2="1052.47" y2="539.83" gradientTransform="translate(-26.17 -157.28) rotate(-8.33)" xlink:href="#linear-gradient-3"/><linearGradient id="linear-gradient-6" x1="1091.51" y1="-238.18" x2="1164.94" y2="-238.18" gradientTransform="translate(10.54 210.36) rotate(11.28)" xlink:href="#linear-gradient-3"/><linearGradient id="linear-gradient-7" x1="934.54" y1="527.22" x2="1007.98" y2="527.22" gradientTransform="translate(188.13 200.16) rotate(-25.36)" xlink:href="#linear-gradient-3"/><linearGradient id="linear-gradient-8" x1="1335.36" y1="213.08" x2="1406.64" y2="213.08" gradientTransform="matrix(1, 0, 0, 1, 0, 0)" xlink:href="#linear-gradient"/><linearGradient id="linear-gradient-9" x1="-439.3" y1="-2355.51" x2="-396.73" y2="-2355.51" xlink:href="#linear-gradient-2"/><linearGradient id="linear-gradient-10" x1="-421.68" y1="-2405.13" x2="-396.32" y2="-2405.13" xlink:href="#linear-gradient-2"/><linearGradient id="linear-gradient-11" x1="-430.6" y1="-2316.11" x2="-396.32" y2="-2316.11" xlink:href="#linear-gradient-2"/><linearGradient id="linear-gradient-12" x1="-464.62" y1="-1801.63" x2="-422.31" y2="-1801.63" xlink:href="#linear-gradient-2"/><linearGradient id="linear-gradient-13" x1="-620.06" y1="-2721.31" x2="-577.75" y2="-2721.31" xlink:href="#linear-gradient-2"/><linearGradient id="linear-gradient-14" x1="-449.5" y1="-2820.84" x2="-417.27" y2="-2820.84" xlink:href="#linear-gradient-2"/><linearGradient id="linear-gradient-15" x1="-495.07" y1="-1396.14" x2="-462.84" y2="-1396.14" xlink:href="#linear-gradient-2"/><clipPath id="clippath"><path class="cls-1" d="M0 0h1455.5v272.37H0z"/></clipPath><clipPath id="clippath-2"><rect class="cls-1" x="116.19" y="123.81" width="106.16" height="189.42" rx="17.07" ry="17.07"/></clipPath><style>.cls-1,.cls-2,.cls-3,.cls-4,.cls-6,.cls-7,.cls-8{fill:none}.cls-2{stroke-miterlimit:10}.cls-2,.cls-3,.cls-4,.cls-6,.cls-7,.cls-8{stroke-linecap:round}.cls-2,.cls-3,.cls-6{stroke-width:3px}.cls-2,.cls-4{stroke:#fff}.cls-3,.cls-4,.cls-6,.cls-7,.cls-8{stroke-linejoin:round}.cls-3,.cls-7,.cls-8{stroke:#dd9f6b}.cls-4{stroke-width:3.27px}.cls-6{stroke:#ffd0a6}.cls-7{stroke-width:2.24px}.cls-8{stroke-width:1.54px}</style></defs><g clip-path="url(#clippath)"><path fill="#81d6e2" d="M0 0h1455.5v272.37H0z"/><path class="cls-1" d="M0 0h1455.5v272.37H0z"/><path class="cls-4" d="m309.7 242.8 9.52-34.29 25.38 24.94-34.9 9.35z"/><path class="cls-6" d="m1350.9 170.62 5.48-19.75 14.62 14.36-20.1 5.39z"/><g><path class="cls-6" d="m1329.85 119.63-.12 15.58m7.85-7.73-15.58-.12"/></g><path class="cls-6" d="m262.27 220.24 14.33-14.65 5.87 19.64-20.2-4.99z"/><g><path class="cls-6" d="m243.08 174.42-.12 15.58m7.85-7.73-15.58-.12"/></g><g><path class="cls-4" d="m1212.27 226.4-.11 15.58m7.85-7.73-15.58-.11"/></g><g><path class="cls-4" d="m1418.2 50.33-.11 15.58m7.85-7.73-15.58-.12"/></g><g><rect x="116.19" y="123.81" width="106.16" height="189.42" rx="17.07" ry="17.07" fill="#fff"/><g clip-path="url(#clippath-2)"><path d="M222.36 140.88S176.81 269.04 116.2 290.09c-60.61 21.04-36.85 1.9-36.85 1.9l30.97-172.88 15.23-14.96 114.77-1.95-17.96 38.69Z" fill="#cdf6f7"/></g></g><path d="M81.39 156.46h57.01c6.95 0 12.6 5.64 12.6 12.6v55.57c0 6.95-5.64 12.6-12.6 12.6H81.39v-80.77Z" transform="translate(232.39 393.69) rotate(180)" fill="url(#linear-gradient)"/><path class="cls-6" d="M98.73 173.78H151m-52.27 7.1h44"/><rect class="cls-2" x="99.17" y="191.34" width="6.6" height="12.27" rx="1.82" ry="1.82"/><path d="m1282.66 181.77-23.28.52c0-17.8 14.43-32.23 32.23-32.23s32.23 14.43 32.23 32.23" fill="url(#linear-gradient-2)"/><rect class="cls-2" x="111.49" y="191.34" width="6.6" height="12.27" rx="1.82" ry="1.82"/><rect class="cls-2" x="123.81" y="191.34" width="6.6" height="12.27" rx="1.82" ry="1.82"/><rect class="cls-2" x="136.13" y="191.34" width="6.6" height="12.27" rx="1.82" ry="1.82"/><path class="cls-6" d="M97.9 217.29c.51-2.77 2.15-5.66 6.03-4.64.36 3.11-1.15 8.76-2.9 11.36-.14-.9-.17-3.96 2.03-4.63.87-.27 1.74-.5 2.65-.55 4.98-.24 9.97.19 14.95.62"/><path class="cls-2" d="M151 151.26v91.16"/><g><circle cx="238.7" cy="251.4" r="27.39" fill="url(#linear-gradient-3)"/><g><circle class="cls-7" cx="240.06" cy="252.8" r="21.02"/><path class="cls-7" d="m231.64 260.53 5.71-17.34 12.4 13.4-18.11 3.94z"/></g><circle class="cls-6" cx="238.7" cy="251.4" r="21.02"/><path class="cls-6" d="m230.28 259.13 5.71-17.34 12.4 13.4-18.11 3.94z"/></g><circle cx="51.22" cy="108.99" r="18.83" fill="url(#linear-gradient-4)"/><g><circle class="cls-8" cx="52.24" cy="111" r="14.45"/><path class="cls-8" d="m46.1 115.91 4.72-11.63 7.89 9.76-12.61 1.87z"/></g><circle class="cls-6" cx="51.22" cy="108.99" r="14.45"/><path class="cls-6" d="m45.09 113.9 4.71-11.63 7.89 9.76-12.6 1.87z"/><circle cx="1074.76" cy="227.14" r="18.83" fill="url(#linear-gradient-5)"/><g><circle class="cls-8" cx="1075.77" cy="229.15" r="14.45"/><path class="cls-8" d="m1069.64 234.07 4.72-11.63 7.89 9.76-12.61 1.87z"/></g><circle class="cls-6" cx="1074.76" cy="227.14" r="14.45"/><path class="cls-6" d="m1068.63 232.06 4.71-11.63 7.89 9.76-12.6 1.87z"/><g><circle cx="1163.56" cy="197.47" r="36.72" fill="url(#linear-gradient-6)"/><g><circle class="cls-3" cx="1164.49" cy="199.91" r="28.18"/><path class="cls-3" d="m1150.01 204.93 16.27-18.28 8.11 23.09-24.38-4.81z"/></g><circle class="cls-6" cx="1163.56" cy="197.47" r="28.18"/><path class="cls-6" d="m1149.08 202.49 16.27-18.28 8.11 23.08-24.38-4.8z"/></g><g><circle cx="1291.61" cy="260.53" r="36.72" fill="url(#linear-gradient-7)"/><g><circle class="cls-3" cx="1293.81" cy="261.94" r="28.18"/><path class="cls-3" d="m1285.19 274.61 2.15-24.38 20.28 13.69-22.43 10.69z"/></g><circle class="cls-6" cx="1291.61" cy="260.53" r="28.18"/><path class="cls-6" d="m1282.99 273.2 2.14-24.38 20.29 13.69-22.43 10.69z"/></g><path class="cls-6" d="m103.13 118.69 19.71-15.04 3.61 24.53-23.32-9.49z"/><rect x="1335.36" y="203.03" width="71.28" height="20.1" rx="10.05" ry="10.05" fill="url(#linear-gradient-8)"/><path d="m1347.42 214.66 6.05-2.37c.92-.36 1.96-.72 2.88-.34s1.27 1.91.37 2.32c1.99.44 3.85-.98 5.47-2.23s3.74-2.44 5.58-1.56c0 .76.03 1.56.43 2.2s1.3 1.05 1.94.63c.34-.23.53-.62.8-.93 1.37-1.48 3.69 0 5.47.95 5.71 3.04 12.85-.61 19.14.9" stroke-width="2.67" stroke-linejoin="round" stroke="#fff" stroke-linecap="round" fill="none"/><circle class="cls-6" cx="1254.88" cy="191.34" r="25.17"/><path d="M934.68 273.88c0-23.51 19.06-42.57 42.57-42.57s42.57 19.06 42.57 42.57h-85.14Z" fill="url(#linear-gradient-9)"/><path d="m1019.82 273.88-18.32.41c0-14.01 11.36-25.36 25.36-25.36s25.36 11.36 25.36 25.36" fill="url(#linear-gradient-10)"/><path d="m928.33 273.74-24.76.55c0-18.93 15.35-34.28 34.28-34.28s34.28 15.35 34.28 34.28" fill="url(#linear-gradient-11)"/><path d="M365.51 247.9c0-23.15 18.76-41.91 41.91-41.91s41.91 18.76 41.91 41.91l-18.03.4c0-13.79 11.18-24.97 24.97-24.97s24.97 11.18 24.97 24.97" fill="url(#linear-gradient-12)"/><path d="M1285.19 92.46c0-23.15 18.76-41.91 41.91-41.91s41.91 18.76 41.91 41.91l-18.03.4c0-13.79 11.18-24.97 24.97-24.97s24.97 11.18 24.97 24.97" fill="url(#linear-gradient-13)"/><path d="m1433.63 252.82-23.28.52c0-17.8 14.43-32.23 32.23-32.23s32.23 14.43 32.23 32.23" fill="url(#linear-gradient-14)"/><path d="m8.94 207.25-23.28.52c0-17.8 14.43-32.23 32.23-32.23s32.23 14.43 32.23 32.23" fill="url(#linear-gradient-15)"/><circle class="cls-6" cx="1371.48" cy="96.54" r="13.32"/></g></svg>