<svg id="Layer_1" xmlns="http://www.w3.org/2000/svg" xmlns:xlink="http://www.w3.org/1999/xlink" viewBox="0 0 1455.5 272.37"><defs><linearGradient id="linear-gradient" x1="0" y1="136.19" x2="1455.5" y2="136.19" gradientUnits="userSpaceOnUse"><stop offset="0" stop-color="#9d33a6"/><stop offset=".38" stop-color="#b0358b"/><stop offset=".74" stop-color="#be3778"/><stop offset="1" stop-color="#c33872"/></linearGradient><linearGradient id="linear-gradient-2" x1="168.72" y1="10.77" x2="174.93" y2="10.77" gradientUnits="userSpaceOnUse"><stop offset="0" stop-color="#c566a1"/><stop offset="1" stop-color="#ed9fcc"/></linearGradient><linearGradient id="linear-gradient-3" x1="209.95" y1="26.3" x2="216.16" y2="26.3" xlink:href="#linear-gradient-2"/><linearGradient id="linear-gradient-4" x1="1242.51" y1="91.81" x2="1248.72" y2="91.81" xlink:href="#linear-gradient-2"/><linearGradient id="linear-gradient-5" x1="562.04" y1="20.94" x2="568.25" y2="20.94" xlink:href="#linear-gradient-2"/><linearGradient id="linear-gradient-6" x1="1522.88" y1="271.96" x2="-.41" y2="271.96" xlink:href="#linear-gradient-2"/><clipPath id="clippath"><path class="cls-1" d="M0 0h1455.5v272.37H0z"/></clipPath><clipPath id="clippath-1"><path class="cls-1" d="M0 0h1455.5v272.37H0z"/></clipPath><style>.cls-1,.cls-2,.cls-3,.cls-4,.cls-5,.cls-6{fill:none}.cls-2,.cls-3{stroke-miterlimit:10}.cls-2,.cls-3,.cls-5,.cls-6{stroke-width:3px}.cls-2,.cls-5{stroke:#e3add0}.cls-3,.cls-6{stroke:#fffffe}.cls-9{fill:#edc1d8}.cls-10{fill:#bf71a7}.cls-4{stroke:#bf71a7;stroke-width:3.27px}.cls-4,.cls-5,.cls-6{stroke-linecap:round;stroke-linejoin:round}</style></defs><g clip-path="url(#clippath)"><g clip-path="url(#clippath-1)"><path class="cls-5" d="m20.53 157.59-5.54 13.19m9.36-3.83-13.19-5.54"/><path d="M0 0h1455.5v272.37H0z" fill="url(#linear-gradient)"/><path d="M270.09 117.89c-.8 0-1.54.24-2.17.63l-80.39-53.06a4.133 4.133 0 0 0-1.14-2.77l38.46-68.64c.41-.72.15-1.64-.58-2.04-.72-.4-1.64-.15-2.04.58l-38.6 68.86c-.08 0-.15-.02-.23-.02-.55 0-1.07.11-1.54.3l-20.09-13.26 1.37-2.11c.63-.97.36-2.28-.62-2.91-.97-.63-2.28-.36-2.91.62l-1.35 2.08-28.95-19.11c-.07-.67-.29-1.29-.64-1.82l61.1-60.92a1.5 1.5 0 0 0 .31-1.68c-.25-.57-.81-.92-1.46-.88L43.03-29.55c-.64.04-1.19.49-1.36 1.11-.17.62.08 1.29.62 1.64l79.33 52.36c-.31.58-.51 1.24-.51 1.94 0 .32.04.62.11.92L78.94 70.58c-.31-.08-.64-.13-.98-.13-.22 0-.42.03-.63.06L25.86 5.81a2.099 2.099 0 1 0-3.29 2.61L74.1 73.18c-.16.43-.25.89-.25 1.38 0 .33.05.66.13.97L42.52 106.9c-.58-.31-1.24-.51-1.94-.51-.97 0-1.85.35-2.55.9L-89.69 7.96c-.46-.36-1.1-.42-1.62-.14-.52.28-.83.83-.8 1.42l13.45 219.2c.04.59.41 1.1.96 1.31.55.21 1.17.08 1.59-.34L39.23 114.42c.42.14.86.24 1.33.24.57 0 1.1-.11 1.6-.32l42.26 32.88c-.23.52-.37 1.08-.37 1.69s.13 1.16.36 1.67l-48.03 58.31c-.53.64-.43 1.58.2 2.11.64.52 1.58.43 2.11-.2l47.86-58.1c.5.22 1.05.34 1.63.34.97 0 1.85-.35 2.55-.91l26.95 20.96c-.09.34-.15.69-.15 1.06 0 1.17.5 2.23 1.28 2.98L85.54 236.5c-.33.6-.22 1.35.27 1.82.5.47 1.25.55 1.83.18l63.17-39.64 2.93 2.28c-.16.44-.26.9-.26 1.4 0 2.28 1.85 4.13 4.13 4.13.86 0 1.66-.26 2.32-.71l62.14 48.34c.27.21.6.32.92.32.39 0 .78-.15 1.07-.45.53-.54.58-1.4.1-1.99l-53.22-65.92 96.87-60.79a4.131 4.131 0 1 0 2.3-7.56Zm-90.44-54.03c-.23.52-.37 1.08-.37 1.69 0 .88.28 1.68.74 2.35l-42.01 74.96c-.27-.06-.56-.09-.85-.09-.41 0-.8.08-1.17.19l-18.56-22.99c.18-.46.28-.95.28-1.47 0-.61-.14-1.18-.37-1.69.13-.12.25-.26.35-.41L160.15 51l19.51 12.87ZM122.7 170.17c-.34-.09-.69-.15-1.05-.15-.81 0-1.56.24-2.2.64L92.24 149.5c.03-.2.06-.39.06-.6 0-.86-.27-1.66-.72-2.32l20.12-24.43c.56.29 1.19.47 1.87.47s1.25-.16 1.79-.42l18.25 22.61c-.36.62-.59 1.32-.59 2.09 0 1.1.43 2.08 1.13 2.82l-11.46 20.45Zm-34.52-25.39c-.56 0-1.1.11-1.59.32l-42.27-32.88c.23-.52.37-1.08.37-1.69 0-.47-.09-.91-.24-1.32l31.27-31.18c.65.42 1.42.67 2.25.67.16 0 .32-.03.47-.05l30.38 38.19c.22.27.48.47.78.6-.09.34-.15.68-.15 1.05 0 .48.1.94.25 1.37l-20.61 25.02c-.29-.07-.6-.11-.91-.11Zm25.98-30.68c-.07.1-.12.21-.16.32-.14-.01-.27-.04-.42-.04-.43 0-.84.09-1.24.21-.06-.12-.14-.24-.23-.35L81.79 76.13a4.065 4.065 0 0 0-.37-3.77l41.54-41.42c.65.44 1.44.69 2.28.69 1.3 0 2.45-.62 3.21-1.56l28.18 18.6-42.47 65.43Zm70.7-149.12L126.17 23.5c-.3-.07-.61-.11-.93-.11-.42 0-.81.08-1.19.19l-76.34-50.4 137.16-8.2ZM-88.91 12.37 36.5 109.93c-.03.2-.06.39-.06.6 0 .7.19 1.35.5 1.93L-75.87 224.93-88.91 12.37ZM91.02 232.82l30.58-54.56h.04c.73 0 1.41-.21 2-.54l24.63 19.16-57.26 35.93Zm34.53-57.41c.13-.4.22-.82.22-1.27 0-.8-.24-1.55-.64-2.18l11.75-20.97c.09 0 .18.03.27.03.46 0 .89-.09 1.3-.23l28.01 34.69-15.47 9.71-25.43-19.78Zm88.11 68.54-52.06-40.5c.07-.3.11-.61.11-.93 0-2.28-1.85-4.13-4.13-4.13-.68 0-1.31.18-1.88.47l-2.21-1.72 14.85-9.32 45.31 56.12Zm52.42-120.98-97.06 60.91-28.26-35.01c.32-.59.52-1.25.52-1.97 0-.89-.29-1.71-.76-2.38l42-74.94c.28.06.58.1.88.1 1.2 0 2.27-.52 3.02-1.34l79.7 52.6c-.09.35-.16.7-.16 1.08 0 .33.05.64.12.95Zm950.6 48.4a4.131 4.131 0 0 0 6.43 3.43l96.87 60.79-53.22 65.92c-.48.59-.44 1.45.1 1.99.29.3.68.45 1.07.45.32 0 .65-.1.92-.32l62.14-48.34c.66.45 1.46.71 2.32.71 2.28 0 4.13-1.85 4.13-4.13 0-.49-.1-.96-.26-1.4l2.93-2.28 63.17 39.64c.58.36 1.33.29 1.83-.18s.61-1.22.27-1.82l-33.27-59.37c.79-.75 1.28-1.8 1.28-2.98 0-.37-.06-.72-.15-1.06l26.95-20.96c.7.56 1.58.91 2.55.91.58 0 1.13-.12 1.63-.34l47.86 58.1c.53.64 1.47.73 2.11.2.64-.53.73-1.47.2-2.11l-48.03-58.31c.23-.51.36-1.07.36-1.67 0-.6-.14-1.17-.37-1.69l42.26-32.88c.49.21 1.03.32 1.6.32.47 0 .91-.1 1.33-.24l115.33 114.99c.42.42 1.04.55 1.59.34.55-.21.93-.72.96-1.31l13.45-219.2a1.503 1.503 0 0 0-2.42-1.28l-127.71 99.35c-.7-.56-1.58-.9-2.55-.9-.71 0-1.36.19-1.94.51l-31.46-31.37c.08-.31.13-.63.13-.97 0-.49-.1-.95-.25-1.38l51.53-64.76a2.099 2.099 0 1 0-3.29-2.61l-51.48 64.7c-.21-.03-.41-.06-.63-.06-.34 0-.66.05-.98.13l-42.28-42.16c.07-.3.11-.6.11-.92 0-.71-.19-1.36-.51-1.94l79.33-52.36c.54-.36.79-1.02.62-1.64-.17-.62-.71-1.07-1.36-1.11l-145.6-8.7c-.65-.04-1.2.31-1.46.88a1.5 1.5 0 0 0 .31 1.68l61.1 60.92c-.35.53-.57 1.15-.64 1.82l-28.95 19.11-1.35-2.08a2.109 2.109 0 0 0-2.91-.62c-.97.63-1.25 1.93-.62 2.91l1.37 2.11-20.09 13.26c-.48-.19-1-.3-1.54-.3-.08 0-.15.02-.23.02L1243.07-5.5c-.41-.72-1.32-.98-2.04-.58-.72.41-.98 1.32-.58 2.04l64.06 116.09c-.69.72-1.12 1.69-1.14 2.77l-80.39 53.06c-.63-.39-1.37-.63-2.17-.63-2.28 0-4.13 1.85-4.13 4.13Zm114.07-71.03 42.46 65.4c.1.16.22.29.35.41-.23.52-.37 1.09-.37 1.69s.11 1.01.28 1.47l-18.56 22.99c-.37-.11-.76-.19-1.17-.19-.29 0-.58.03-.85.09l-42.01-74.96a4.075 4.075 0 0 0 .37-4.04l19.51-12.87Zm25.98 98.73a4.09 4.09 0 0 0 1.13-2.82c0-.77-.22-1.48-.59-2.09l18.25-22.61a4.1 4.1 0 0 0 1.79.42c.68 0 1.31-.18 1.87-.47l20.12 24.43c-.45.66-.72 1.46-.72 2.32 0 .2.03.4.06.6l-27.21 21.16c-.64-.4-1.39-.64-2.2-.64-.37 0-.71.06-1.05.15l-11.46-20.45Zm45.07-4.83-20.61-25.02c.15-.43.25-.89.25-1.37 0-.36-.06-.71-.15-1.05.29-.13.56-.33.78-.6l30.38-38.19c.16.02.31.05.47.05.83 0 1.6-.25 2.25-.67l31.27 31.18c-.14.42-.24.86-.24 1.32 0 .6.14 1.17.37 1.69l-42.27 32.88a4.032 4.032 0 0 0-2.5-.21Zm-67.54-96.21 28.18-18.6c.76.94 1.9 1.56 3.21 1.56.85 0 1.63-.26 2.28-.69l41.53 41.4a4.065 4.065 0 0 0-.37 3.77l-30.32 38.11c-.09.11-.17.23-.23.35-.39-.12-.8-.21-1.24-.21-.14 0-.28.03-.42.04-.05-.11-.1-.21-.16-.32l-42.47-65.43Zm108.93-75.49-76.35 50.39c-.38-.11-.77-.19-1.19-.19-.32 0-.63.05-.93.11l-58.69-58.51 137.16 8.2Zm123.57 251.75-112.81-112.47c.31-.58.5-1.23.5-1.93 0-.21-.03-.4-.06-.6l125.41-97.56-13.05 212.57Zm-224.15-28.04 24.63-19.16c.6.33 1.27.54 2 .54h.04l30.58 54.56-57.26-35.93Zm-2.7-1.7-15.47-9.71 28.01-34.69c.41.14.84.23 1.3.23.09 0 .18-.02.27-.03l11.75 20.97c-.4.63-.64 1.38-.64 2.18 0 .45.09.87.22 1.27l-25.43 19.78Zm-17.37-7.36 14.85 9.32-2.21 1.72a4.12 4.12 0 0 0-1.88-.47c-2.28 0-4.13 1.85-4.13 4.13 0 .32.04.63.11.93l-52.06 40.5 45.31-56.12Zm-97.6-65.81c0-.38-.07-.73-.16-1.08l79.7-52.6c.75.82 1.82 1.34 3.02 1.34.3 0 .6-.04.88-.1l42 74.94c-.48.67-.76 1.49-.76 2.38 0 .72.2 1.39.52 1.97l-28.26 35.01-97.06-60.91c.07-.31.12-.62.12-.95Z" fill="#9d81d4" opacity=".33"/><circle class="cls-3" cx="1385.85" cy="168.89" r="12.23"/><circle class="cls-2" cx="981.39" cy="42.5" r="12.23"/><circle class="cls-2" cx="1067.66" cy="13.52" r="20.06"/><circle cx="171.83" cy="10.77" r="3.11" fill="url(#linear-gradient-2)"/><circle cx="213.05" cy="26.3" r="3.11" fill="url(#linear-gradient-3)"/><circle cx="1245.61" cy="91.81" r="3.11" fill="url(#linear-gradient-4)"/><circle cx="565.15" cy="20.94" r="3.11" fill="url(#linear-gradient-5)"/><path class="cls-5" d="m910.59 37.83-5.54 13.19m9.37-3.82-13.19-5.55m533.13 83.14-5.55 13.19m9.37-3.82-13.19-5.54m-2.82 85.48 5.04-18.14 13.42 13.19-18.46 4.95z"/><path class="cls-10" d="M1404.32 143.85h3.27v99.24h-3.27z"/><path class="cls-9" d="m1435.63 224.77-29.88-138.33-29.89 138.33h59.77z"/><path class="cls-10" d="M1311.14 143.85h3.27v99.24h-3.27z"/><path class="cls-9" d="m1342.46 224.77-29.89-138.33-29.88 138.33h59.77z"/><path class="cls-10" d="M1360.03 184.03h3.27v59.05h-3.27z"/><circle class="cls-9" cx="1360.85" cy="127.65" r="22.14"/><circle class="cls-9" cx="1361.2" cy="170.97" r="37.17"/><path class="cls-10" d="M1267.71 172.41h3.27v79.29h-3.27z"/><path class="cls-9" d="m1293.05 237.07-23.87-110.53-23.88 110.53h47.75z"/><path class="cls-10" d="M1234.63 172.41h3.27v79.29h-3.27z"/><path class="cls-9" d="m1259.98 237.07-23.88-110.53-23.87 110.53h47.75z"/></g><path d="m374.58 308.33-10.23 11.4-362.03 2.01-2.73-83.18c114.54 23.48 183.4 1.34 251.58-6.04 0 0 55.26-20.39 167.14-3.96 142.31 20.89 265.57-13.15 475.48 23.15 150.21 25.98 223.76-12.73 329.8-24.28 53.35-5.81 91.74 6.11 116.32 12.23 8.11 2.02 42.21 11.39 50.45 12.8 54.96 9.41 132.52 6.59 132.52 6.59l-27.17 45.29-520.97 12.31" fill="url(#linear-gradient-6)"/><path class="cls-10" d="M267.57 137.07h3.27v99.24h-3.27z"/><path class="cls-9" d="M298.88 218 269 79.66 239.11 218h59.77z"/><path class="cls-10" d="M223.28 177.26h3.27v59.05h-3.27z"/><circle class="cls-9" cx="224.09" cy="120.87" r="22.14"/><circle class="cls-9" cx="224.45" cy="164.19" r="37.17"/><path class="cls-10" d="M53.87 165.64h3.27v79.29h-3.27z"/><path class="cls-9" d="M79.22 230.29 55.34 119.77 31.47 230.29h47.75z"/><path class="cls-10" d="M20.8 165.64h3.27v79.29H20.8z"/><path class="cls-9" d="M46.15 230.29 22.27 119.77-1.61 230.29h47.76z"/><path class="cls-10" d="M151.58 103.92h3.27v141h-3.27z"/><path class="cls-9" d="M195.38 218.9 152.92 22.36 110.46 218.9h84.92z"/><path class="cls-10" d="M92.76 103.92h3.27v141h-3.27z"/><path class="cls-9" d="M136.56 218.9 94.1 22.36 51.64 218.9h84.92z"/><circle class="cls-4" cx="216.74" cy="64.66" r="20.37"/><circle class="cls-3" cx="80.63" cy="112.94" r="22.16"/><path class="cls-4" d="M48.53 74.02v14.3m7.16-7.15H41.38"/><path class="cls-6" d="m180.02 106.83-16.94-6.04m5.45 11.49 6.04-16.94"/><path class="cls-4" d="m151.62 194.19 23.93-18.26 4.38 29.78-28.31-11.52z"/><path class="cls-3" d="m29.54 204.45 23.94-18.27 4.38 29.79-28.32-11.52z"/><path class="cls-4" d="m97.44 167.61 5.04-18.13 13.42 13.19-18.46 4.94z"/><circle class="cls-3" cx="1213.04" cy="148.67" r="22.16"/><circle class="cls-3" cx="1354.33" cy="49.55" r="22.16"/><path class="cls-6" d="m1294.74 106.83-16.94-6.04m5.45 11.49 6.04-16.94"/><path class="cls-4" d="m1312.37 174.15 23.93-18.27 4.38 29.78-28.31-11.51zm-108.95 36.09 5.03-18.13 13.42 13.19-18.45 4.94z"/></g></svg>