<svg version="1.1" id="Layer_1" xmlns="http://www.w3.org/2000/svg" xmlns:xlink="http://www.w3.org/1999/xlink" x="0" y="0" viewBox="0 0 276.7 330.6" xml:space="preserve"><style>.st25{fill:#9d81d4}.st26,.st28,.st48{fill:none;stroke-width:3.2678;stroke-miterlimit:10}.st26{stroke:#9d81d4;stroke-linecap:round;stroke-linejoin:round}.st28{stroke:#ce5f9e}.st48{stroke-linecap:round;stroke-linejoin:round;stroke:#e3add0}</style><defs><path id="SVGID_00000036235378858741438920000005762278792314142605_" d="M0 0h276.7v330.6H0z"/></defs><clipPath id="SVGID_00000062880412416351551520000011769198792514095235_"><use xlink:href="#SVGID_00000036235378858741438920000005762278792314142605_" overflow="visible"/></clipPath><path d="M300.1 330.6H7c-3.9 0-7-3.2-7-7V0h300.1v330.6z" clip-path="url(#SVGID_00000062880412416351551520000011769198792514095235_)" fill="#edc1d8"/><linearGradient id="SVGID_00000090277918789765809130000000737074142106353838_" gradientUnits="userSpaceOnUse" x1="147.133" y1="329.422" x2="147.133" y2="49.666"><stop offset="0" stop-color="#9d33a6"/><stop offset=".38" stop-color="#b1368b"/><stop offset=".744" stop-color="#be3779"/><stop offset="1" stop-color="#c33872"/></linearGradient><path d="m.3 152.8 75-55.1c4.6-3.4 10.9-3.4 15.5 0l20.5 15c5 3.7 12 3.3 16.6-.9l64.6-58.7c5.2-4.7 13.2-4.5 18.2.5l87.6 88.2c2.4 2.4 3.8 5.7 3.8 9.2l1.1 165.3c0 7.3-5.8 13.2-13.1 13.2H4.2c-7.4 0-13.3-6.1-13.1-13.5l3.8-153c.1-4 2.1-7.8 5.4-10.2z" clip-path="url(#SVGID_00000062880412416351551520000011769198792514095235_)" fill="url(#SVGID_00000090277918789765809130000000737074142106353838_)"/><g clip-path="url(#SVGID_00000062880412416351551520000011769198792514095235_)"><defs><path id="SVGID_00000020392620096088683920000003797350917168415923_" d="m.3 152.4 75-55.1c4.6-3.4 10.9-3.4 15.5 0l20.5 15c5 3.7 12 3.3 16.6-.9l64.6-58.7c5.2-4.7 13.2-4.5 18.2.5l87.6 88.2c2.4 2.4 3.8 5.7 3.8 9.2l1.1 165.3c0 7.3-5.8 13.2-13.1 13.2H4.2c-7.4 0-13.3-6.1-13.1-13.5l3.8-152.9c.1-4.1 2.1-7.9 5.4-10.3z"/></defs><clipPath id="SVGID_00000176721868244028316350000012077238780193436853_"><use xlink:href="#SVGID_00000020392620096088683920000003797350917168415923_" overflow="visible"/></clipPath><g opacity=".33" clip-path="url(#SVGID_00000176721868244028316350000012077238780193436853_)"><circle class="st25" cx="161.5" cy="301.3" r="3.2"/><path class="st26" d="m84.1 350.2 59.1-71.7 85 105.4-243.7-189.6 10.4 170.3 199.5-197-106-2.3L265.1 282 109.9 392.3 266.5 113"/><circle class="st25" cx="143.2" cy="279.3" r="3.2"/><circle class="st25" cx="123.4" cy="302.9" r="3.2"/><circle class="st25" cx="149.4" cy="322.5" r="3.2"/><circle class="st25" cx="197.2" cy="237.5" r="3.2"/><circle class="st25" cx="195.2" cy="167.8" r="3.2"/><circle class="st25" cx="152.2" cy="208.5" r="3.2"/><circle class="st25" cx="86.4" cy="273.1" r="3.2"/><path class="st26" d="m140.8 276.9-67.1-84.2"/><circle class="st25" cx="115.5" cy="245.1" r="3.2"/></g></g><linearGradient id="SVGID_00000100363120644964299770000009136636247969545623_" gradientUnits="userSpaceOnUse" x1="74.379" y1="48.806" x2="111.723" y2="48.806"><stop offset="0" stop-color="#c566a1"/><stop offset="1" stop-color="#ed9fcc"/></linearGradient><path d="M104 55.4c-10.6 0-19.1-8.6-19.1-19.1 0-2 .3-3.9.9-5.8-6.7 3-11.3 9.7-11.3 17.5 0 10.6 8.6 19.1 19.1 19.1 8.5 0 15.8-5.6 18.2-13.3-2.5 1-5.1 1.6-7.8 1.6z" clip-path="url(#SVGID_00000062880412416351551520000011769198792514095235_)" fill="url(#SVGID_00000100363120644964299770000009136636247969545623_)"/><g clip-path="url(#SVGID_00000062880412416351551520000011769198792514095235_)"><path class="st28" d="M26.2 178.6v99.3"/><linearGradient id="SVGID_00000155846215269972989940000000213486278644947609_" gradientUnits="userSpaceOnUse" x1="-3.435" y1="190.391" x2="56.334" y2="190.391"><stop offset="0" stop-color="#c566a1"/><stop offset="1" stop-color="#ed9fcc"/></linearGradient><path d="m-3.4 259.6 29.8-138.4 29.9 138.4z" fill="url(#SVGID_00000155846215269972989940000000213486278644947609_)"/></g><g clip-path="url(#SVGID_00000062880412416351551520000011769198792514095235_)"><path class="st28" d="M70.5 218.8v59.1"/><linearGradient id="SVGID_00000109717690697255632960000014179357538834789821_" gradientUnits="userSpaceOnUse" x1="49.209" y1="162.435" x2="93.496" y2="162.435"><stop offset="0" stop-color="#c566a1"/><stop offset="1" stop-color="#ed9fcc"/></linearGradient><circle cx="71.4" cy="162.4" r="22.1" fill="url(#SVGID_00000109717690697255632960000014179357538834789821_)"/><linearGradient id="SVGID_00000152964419320075967750000016898675878376437377_" gradientUnits="userSpaceOnUse" x1="33.831" y1="205.754" x2="108.165" y2="205.754"><stop offset="0" stop-color="#c566a1"/><stop offset="1" stop-color="#ed9fcc"/></linearGradient><circle cx="71" cy="205.8" r="37.2" fill="url(#SVGID_00000152964419320075967750000016898675878376437377_)"/></g><linearGradient id="SVGID_00000096743902892830196330000015159469841332563331_" gradientUnits="userSpaceOnUse" x1="-6.766" y1="306.678" x2="300.788" y2="306.678"><stop offset="0" stop-color="#c566a1"/><stop offset="1" stop-color="#ed9fcc"/></linearGradient><path d="M-4.3 276.8h203.1c3.3 0 3.8 4.8.6 5.5l-54.5 11.4c-2.4.5-2 4 .4 4h155.5v38.8l-307.6-1.8 2.5-57.9z" clip-path="url(#SVGID_00000062880412416351551520000011769198792514095235_)" fill="url(#SVGID_00000096743902892830196330000015159469841332563331_)"/><linearGradient id="SVGID_00000074424144724501785700000010294121136278480825_" gradientUnits="userSpaceOnUse" x1="56.331" y1="64.633" x2="59.309" y2="64.633"><stop offset="0" stop-color="#c566a1"/><stop offset="1" stop-color="#ed9fcc"/></linearGradient><circle cx="57.8" cy="64.6" r="1.5" clip-path="url(#SVGID_00000062880412416351551520000011769198792514095235_)" fill="url(#SVGID_00000074424144724501785700000010294121136278480825_)"/><linearGradient id="SVGID_00000139986196665274030710000008380463865427066545_" gradientUnits="userSpaceOnUse" x1="100.263" y1="30.186" x2="103.241" y2="30.186"><stop offset="0" stop-color="#c566a1"/><stop offset="1" stop-color="#ed9fcc"/></linearGradient><circle cx="101.8" cy="30.2" r="1.5" clip-path="url(#SVGID_00000062880412416351551520000011769198792514095235_)" fill="url(#SVGID_00000139986196665274030710000008380463865427066545_)"/><linearGradient id="SVGID_00000122691709122275808740000012598694459538935188_" gradientUnits="userSpaceOnUse" x1="166.743" y1="61.249" x2="169.721" y2="61.249"><stop offset="0" stop-color="#c566a1"/><stop offset="1" stop-color="#ed9fcc"/></linearGradient><circle cx="168.2" cy="61.2" r="1.5" clip-path="url(#SVGID_00000062880412416351551520000011769198792514095235_)" fill="url(#SVGID_00000122691709122275808740000012598694459538935188_)"/><linearGradient id="SVGID_00000031897306668249146920000011621697344529982909_" gradientUnits="userSpaceOnUse" x1="27.421" y1="48.381" x2="30.399" y2="48.381"><stop offset="0" stop-color="#c566a1"/><stop offset="1" stop-color="#ed9fcc"/></linearGradient><circle cx="28.9" cy="48.4" r="1.5" clip-path="url(#SVGID_00000062880412416351551520000011769198792514095235_)" fill="url(#SVGID_00000031897306668249146920000011621697344529982909_)"/><linearGradient id="SVGID_00000138537222901022056830000009726736991658230455_" gradientUnits="userSpaceOnUse" x1="214.722" y1="36.338" x2="217.7" y2="36.338"><stop offset="0" stop-color="#c566a1"/><stop offset="1" stop-color="#ed9fcc"/></linearGradient><circle cx="216.2" cy="36.3" r="1.5" clip-path="url(#SVGID_00000062880412416351551520000011769198792514095235_)" fill="url(#SVGID_00000138537222901022056830000009726736991658230455_)"/><linearGradient id="SVGID_00000024710121812384205390000006784254599025862841_" gradientUnits="userSpaceOnUse" x1="258.389" y1="77.795" x2="261.368" y2="77.795"><stop offset="0" stop-color="#c566a1"/><stop offset="1" stop-color="#ed9fcc"/></linearGradient><circle cx="259.9" cy="77.8" r="1.5" clip-path="url(#SVGID_00000062880412416351551520000011769198792514095235_)" fill="url(#SVGID_00000024710121812384205390000006784254599025862841_)"/><g opacity=".3" clip-path="url(#SVGID_00000062880412416351551520000011769198792514095235_)"><path d="M33.2 314.4h122.4m-92.4-9.5h48.1m-122.4 0h31.4" stroke="#edc1d8" stroke-linecap="round" stroke-linejoin="round" fill="none" stroke-width="3.2678" stroke-miterlimit="10"/></g><linearGradient id="SVGID_00000111183285612072583740000013654521481872078235_" gradientUnits="userSpaceOnUse" x1="26.108" y1="99.254" x2="29.086" y2="99.254"><stop offset="0" stop-color="#c566a1"/><stop offset="1" stop-color="#ed9fcc"/></linearGradient><circle cx="27.6" cy="99.3" r="1.5" clip-path="url(#SVGID_00000062880412416351551520000011769198792514095235_)" fill="url(#SVGID_00000111183285612072583740000013654521481872078235_)"/><linearGradient id="SVGID_00000128462875403747079880000013486384064438667920_" gradientUnits="userSpaceOnUse" x1="151.673" y1="10.762" x2="154.651" y2="10.762"><stop offset="0" stop-color="#c566a1"/><stop offset="1" stop-color="#ed9fcc"/></linearGradient><circle cx="153.2" cy="10.8" r="1.5" clip-path="url(#SVGID_00000062880412416351551520000011769198792514095235_)" fill="url(#SVGID_00000128462875403747079880000013486384064438667920_)"/><circle cx="233.7" cy="129.4" r="13.3" clip-path="url(#SVGID_00000062880412416351551520000011769198792514095235_)" fill="none" stroke="#fffffe" stroke-width="3.268" stroke-linecap="round" stroke-linejoin="round" stroke-miterlimit="10"/><circle cx="94.1" cy="173.7" r="13.3" clip-path="url(#SVGID_00000062880412416351551520000011769198792514095235_)" fill="none" stroke="#fffffe" stroke-width="3.268" stroke-miterlimit="10"/><circle cx="102.4" cy="267.8" r="17.3" clip-path="url(#SVGID_00000062880412416351551520000011769198792514095235_)" fill="none" stroke="#e3add0" stroke-width="3.268" stroke-miterlimit="10"/><circle cx="192.2" cy="170.6" r="22.2" clip-path="url(#SVGID_00000062880412416351551520000011769198792514095235_)" fill="none" stroke="#e3add0" stroke-width="3.268" stroke-miterlimit="10"/><circle cx="240.8" cy="245" r="22.2" clip-path="url(#SVGID_00000062880412416351551520000011769198792514095235_)" fill="none" stroke="#fffffe" stroke-width="3.268" stroke-linecap="round" stroke-linejoin="round" stroke-miterlimit="10"/><g clip-path="url(#SVGID_00000062880412416351551520000011769198792514095235_)"><path class="st28" d="M244.8 230.1v56.4"/><linearGradient id="SVGID_00000110435694449641959620000000314208040037216173_" gradientUnits="userSpaceOnUse" x1="227.907" y1="236.788" x2="261.86" y2="236.788"><stop offset="0" stop-color="#c566a1"/><stop offset="1" stop-color="#ed9fcc"/></linearGradient><path d="m227.9 276.1 17-78.6 17 78.6z" fill="url(#SVGID_00000110435694449641959620000000314208040037216173_)"/><path class="st28" d="M268.3 230.1v56.4"/><linearGradient id="SVGID_00000002363564592562059950000010213297271775414709_" gradientUnits="userSpaceOnUse" x1="251.422" y1="236.788" x2="285.375" y2="236.788"><stop offset="0" stop-color="#c566a1"/><stop offset="1" stop-color="#ed9fcc"/></linearGradient><path d="m251.4 276.1 17-78.6 17 78.6z" fill="url(#SVGID_00000002363564592562059950000010213297271775414709_)"/></g><g clip-path="url(#SVGID_00000062880412416351551520000011769198792514095235_)"><path class="st48" d="M213.5 94.1v15.6m7.7-7.8h-15.5"/></g><g clip-path="url(#SVGID_00000062880412416351551520000011769198792514095235_)"><path class="st48" d="m147.6 117.6-8.1 13.4m10.7-2.6-13.3-8.2"/></g><g clip-path="url(#SVGID_00000062880412416351551520000011769198792514095235_)"><path d="M49.4 235.8 31 229.3m5.9 12.5 6.6-18.5" stroke="#fffffe" stroke-linecap="round" stroke-linejoin="round" fill="none" stroke-width="3.2678" stroke-miterlimit="10"/></g><path d="M125.9 219.3 138 210l2.2 15.1zm76.2 4 5.5-19.8 14.6 14.4z" clip-path="url(#SVGID_00000062880412416351551520000011769198792514095235_)" fill="none" stroke="#e3add0" stroke-width="3.268" stroke-linecap="round" stroke-linejoin="round" stroke-miterlimit="10"/></svg>