<svg version="1.1" id="Layer_1" xmlns="http://www.w3.org/2000/svg" xmlns:xlink="http://www.w3.org/1999/xlink" x="0" y="0" viewBox="0 0 1455.5 272.4" xml:space="preserve"><style>.st1{stroke:#e3add0}.st1,.st100,.st92{stroke-width:3;stroke-linecap:round;stroke-linejoin:round;fill:none;stroke-miterlimit:10}.st92{stroke:#ffd0a6}.st100{stroke:#fff}</style><defs><path id="SVGID_00000163059458846289962480000018347777347071998111_" d="M0 0h1455.5v272.4H0z"/></defs><clipPath id="SVGID_00000178178757247706465400000012062197156365734814_"><use xlink:href="#SVGID_00000163059458846289962480000018347777347071998111_" overflow="visible"/></clipPath><path d="M0 0h1455.5v272.4H0z" clip-path="url(#SVGID_00000178178757247706465400000012062197156365734814_)" fill="#8abca3"/><g clip-path="url(#SVGID_00000178178757247706465400000012062197156365734814_)"><defs><path id="SVGID_00000136385979073431131350000011560634490953546399_" d="M0 0h1455.5v272.4H0z"/></defs><clipPath id="SVGID_00000183207136929047252970000011753423863457138339_"><use xlink:href="#SVGID_00000136385979073431131350000011560634490953546399_" overflow="visible"/></clipPath><g clip-path="url(#SVGID_00000183207136929047252970000011753423863457138339_)"><path d="M34.6-22.9v368.1M69.2-22.9v368.1m34.7-368.1v368.1m34.7-368.1v368.1m34.7-368.1v368.1m34.6-368.1v368.1m34.7-368.1v368.1m34.7-368.1v368.1m34.5-368.1v368.1m34.7-368.1v368.1m34.7-368.1v368.1m34.7-368.1v368.1m34.6-368.1v368.1m34.7-368.1v368.1m34.7-368.1v368.1m34.7-368.1v368.1m34.5-368.1v368.1m34.7-368.1v368.1m34.7-368.1v368.1m34.6-368.1v368.1m34.7-368.1v368.1m34.7-368.1v368.1m34.7-368.1v368.1m34.6-368.1v368.1m34.6-368.1v368.1m34.7-368.1v368.1m34.6-368.1v368.1m34.7-368.1v368.1m34.7-368.1v368.1m34.7-368.1v368.1m34.6-368.1v368.1m34.7-368.1v368.1m34.6-368.1v368.1m34.6-368.1v368.1M1213-22.9v368.1m34.7-368.1v368.1m34.6-368.1v368.1M1317-22.9v368.1m34.7-368.1v368.1m34.7-368.1v368.1m34.5-368.1v368.1" stroke="#77aa8f" stroke-width="3.281" fill="none" stroke-miterlimit="10"/></g></g><ellipse cx="1348.5" cy="254.3" rx="115.2" ry="148" clip-path="url(#SVGID_00000178178757247706465400000012062197156365734814_)" fill="#77aa8f"/><linearGradient id="SVGID_00000080886198083108831170000008848956263024975493_" gradientUnits="userSpaceOnUse" x1="1342.544" y1="363.045" x2="1342.544" y2="137.163"><stop offset="0" stop-color="#9d33a6"/><stop offset=".38" stop-color="#b1368b"/><stop offset=".744" stop-color="#be3779"/><stop offset="1" stop-color="#c33872"/></linearGradient><path d="M1345.1 363h-5.1c-44.6 0-80.7-36.1-80.7-80.7v-64.5c0-44.6 36.1-80.7 80.7-80.7h5.1c44.6 0 80.7 36.1 80.7 80.7v64.5c0 44.6-36.2 80.7-80.7 80.7z" clip-path="url(#SVGID_00000178178757247706465400000012062197156365734814_)" fill="url(#SVGID_00000080886198083108831170000008848956263024975493_)"/><linearGradient id="SVGID_00000106127305349117427730000015924102471159171497_" gradientUnits="userSpaceOnUse" x1="1288.249" y1="250.528" x2="1394.979" y2="250.528"><stop offset="0" stop-color="#c566a1"/><stop offset="1" stop-color="#ed9fcc"/></linearGradient><path d="m1391.2 217.4 2.9-7.3s-3.7-4.1-8.3-8.7c-4.5-4.6-14.1-1.9-14.1-1.9l-10.9-12.6h-38.4l-10.9 12.6s-9.6-2.7-14.1 1.9-8.3 8.7-8.3 8.7l2.9 7.3-3.7 10.9s11 42.4 12.3 47.6c2.5 10.2 4.3 14.1 11.5 19.3 7.2 5.2 20.3 14.1 22.4 15.5 2.1 1.4 4.8 3.7 7.2 3.7 2.4 0 5.1-2.3 7.2-3.7 2.1-1.4 15.2-10.3 22.4-15.5 7.2-5.2 8.9-9.1 11.5-19.3 1.3-5.2 12.3-47.6 12.3-47.6l-3.9-10.9zm-33.5 58.5c-.8.6-11.5 9-12.5 9.9-1 .9-2.6 2.5-3.6 2.5s-2.6-1.5-3.6-2.5c-1-.9-11.7-9.3-12.5-9.9-.8-.6-1.3-1.6-.5-2.2.9-.6 3.6-2 7.4-3.9 3.8-2 8.4-3.7 9.2-3.7.7 0 5.4 1.7 9.2 3.7 3.8 2 6.5 3.4 7.4 3.9.8.6.3 1.6-.5 2.2zm21.5-40.8c-1.8 1.9-9.6 10.3-10.6 11.4-1 1.1-3.1 2.7-1.9 5.7 1.2 2.9 3 6.7 1 10.5s-5.4 6.3-7.6 5.9c-2.2-.4-7.4-3.2-9.3-4.4-1.9-1.3-7.9-6.3-7.9-8.3 0-1.9 6.2-5.4 7.4-6.2 1.2-.8 6.4-3.8 6.5-5 .1-1.2.1-1.6-1.5-4.5-1.5-3-4.3-6.9-3.9-9.6.5-2.6 5-4 8.2-5.2 3.2-1.2 9.4-3.6 10.2-3.9.8-.4.6-.7-1.8-.9-2.3-.2-9-1.1-12-.3s-8.1 2.1-8.5 2.8c-.4.7-.8.7-.4 3.1.4 2.4 2.6 13.7 2.8 15.7.2 2 .6 3.3-1.5 3.8s-5.7 1.4-7 1.4-4.8-.9-7-1.4c-2.1-.5-1.7-1.8-1.5-3.8.2-2 2.4-13.4 2.8-15.7.4-2.4.1-2.4-.4-3.1-.4-.7-5.5-2-8.5-2.8-3-.9-9.6 0-12 .3-2.3.2-2.5.6-1.8.9s7 2.7 10.2 3.9c3.2 1.2 7.7 2.6 8.2 5.2.5 2.6-2.3 6.6-3.9 9.6-1.5 3-1.6 3.3-1.5 4.5.1 1.2 5.4 4.3 6.5 5 1.2.8 7.4 4.3 7.4 6.2 0 1.9-6 7-7.9 8.3-1.9 1.3-7.1 4-9.3 4.4-2.2.4-5.6-2.1-7.6-5.9-2-3.8-.2-7.6 1-10.5 1.2-2.9-.9-4.6-1.9-5.7-1-1.1-8.8-9.5-10.6-11.4-1.8-1.9-3.5-2.9-3.5-6.6s14.1-21 14.1-21 11.9 2.3 13.5 2.3c1.6 0 5.1-1.4 8.3-2.4 2.9-1 4.9-1.1 5.3-1.1h.1c.4 0 2.4.1 5.3 1.1 3.2 1.1 6.7 2.4 8.3 2.4 1.6 0 13.5-2.3 13.5-2.3s14.1 17.3 14.1 21-1.6 4.7-3.4 6.6z" clip-path="url(#SVGID_00000178178757247706465400000012062197156365734814_)" fill="url(#SVGID_00000106127305349117427730000015924102471159171497_)"/><g clip-path="url(#SVGID_00000178178757247706465400000012062197156365734814_)"><circle class="st100" cx="1318.8" cy="181.9" r="15"/><circle class="st1" cx="1406.3" cy="265.6" r="30.7"/><path class="st1" d="m1256.7 242.1 19.6-15 3.6 24.5z"/><path class="st100" d="m1381.1 174.1-.1 14.9m7.5-7.4-14.9-.1"/></g><path d="M1344.3 144c19.4 0 38.2 10.6 53 29.8 8 10.4 14.3 22.7 18.8 36.5 4.8 14.7 7.2 30.4 7.2 46.6s-2.4 31.9-7.2 46.6c-4.5 13.8-10.8 26.1-18.8 36.5-14.7 19.2-33.5 29.8-53 29.8-19.4 0-38.2-10.6-53-29.8-8-10.4-14.3-22.7-18.8-36.5-4.8-14.7-7.2-30.4-7.2-46.6s2.4-31.9 7.2-46.6c4.5-13.8 10.8-26.1 18.8-36.5 14.8-19.2 33.6-29.8 53-29.8m0-35c-62.6 0-113.3 66.2-113.3 148 0 81.7 50.7 148 113.3 148 62.6 0 113.3-66.2 113.3-148 .1-81.8-50.7-148-113.3-148z" opacity=".1" clip-path="url(#SVGID_00000178178757247706465400000012062197156365734814_)" fill="#221f20"/><g clip-path="url(#SVGID_00000178178757247706465400000012062197156365734814_)"><path d="M92.8 451c3.3-5.6 15.3-17.7 56.3-16.8 41.6.9 55.6-4 59.7-6.1.2-.1.4-.3.5-.4h.1v-.1c.3-.4.3-1 0-1.4V139.6c.4-.7.2-1.6-.5-2-4.1-2.2-18.1-7-59.7-6.1-41.1.9-53-11.3-56.3-16.8-.5-.9-1.9-.9-2.4 0-3.3 5.6-15.3 17.7-56.3 16.8-41.6-.9-55.6 4-59.7 6.1-.7.4-1 1.3-.5 2v286.5c-.3.5-.3 1 0 1.4v.1h.1c.1.2.3.3.5.4 4.1 2.1 18.1 7 59.7 6.1 41.1-.9 53 11.3 56.3 16.8.3 1 1.6 1 2.2.1" fill="#77aa8f"/><linearGradient id="SVGID_00000073690130112190831650000008029289550617173425_" gradientUnits="userSpaceOnUse" x1="85.379" y1="403.208" x2="85.379" y2="142.339"><stop offset="0" stop-color="#9d33a6"/><stop offset=".38" stop-color="#b1368b"/><stop offset=".744" stop-color="#be3779"/><stop offset="1" stop-color="#c33872"/></linearGradient><path d="M-12.7 142.3h196.2v260.9H-12.7z" fill="url(#SVGID_00000073690130112190831650000008029289550617173425_)"/><g opacity=".15"><linearGradient id="SVGID_00000100352522076146273020000000421789365552942212_" gradientUnits="userSpaceOnUse" x1="-16.733" y1="270.792" x2="180.517" y2="270.792"><stop offset="0" stop-color="#9d33a6"/><stop offset=".38" stop-color="#b1368b"/><stop offset=".744" stop-color="#be3779"/><stop offset="1" stop-color="#c33872"/></linearGradient><path d="M180.5 151.4H-4.9v250.7l-11.8-1.1 2-259.8 189.4-1.7 5.6 9.3z" fill="url(#SVGID_00000100352522076146273020000000421789365552942212_)"/></g><linearGradient id="SVGID_00000134210574741648397720000011636603245760789382_" gradientUnits="userSpaceOnUse" x1="9.243" y1="270.909" x2="160.512" y2="270.909"><stop offset="0" stop-color="#c566a1"/><stop offset="1" stop-color="#ed9fcc"/></linearGradient><path d="M125.9 182.7s-18.2-13.4-31.1 9.5-12.2 25.9-31.9 25.7c-21.9-.2-57.1 9.8-51.3 28.4 7.8 25.2 12.1 32.4.7 60.7C-6 352.2 66 382 76.7 349.2c17.3-53 54.5 6.3 68.3-39.1 9.9-32.7-23.7-48.3 1.2-62.7 8.4-4.9 16.3-16.6 14-24.2-2.6-8.4-11.2-27.2-34.3-40.5z" fill="url(#SVGID_00000134210574741648397720000011636603245760789382_)"/><circle cx="136.9" cy="189.5" r="18" fill="none" stroke="#fff" stroke-width="3" stroke-miterlimit="10"/><circle class="st1" cx="156.4" cy="263.2" r="34"/><path class="st100" d="m35 234.7 26.7-20.3 4.8 33.1z"/><path class="st1" d="m25.1 177.4-.2 21M35.5 188l-21-.2"/><linearGradient id="SVGID_00000114062847536940387970000003939693339878920330_" gradientUnits="userSpaceOnUse" x1="-35.941" y1="271.234" x2="200.089" y2="271.234"><stop offset="0" stop-color="#eca671"/><stop offset="1" stop-color="#f9c69d"/></linearGradient><path d="M83.3 439.4c3.3-5.6 15.3-17.7 56.3-16.8 41.6.9 55.6-4 59.7-6.1.2-.1.4-.3.5-.4h.1v-.1c.3-.4.3-1 0-1.4V128c.4-.7.2-1.6-.5-2-4.1-2.2-18.1-7-59.7-6.1-41.1.9-53-11.3-56.3-16.8-.5-.9-1.9-.9-2.4 0-3.3 5.6-15.3 17.7-56.3 16.8-41.6-.9-55.6 4-59.7 6.1-.7.4-1 1.3-.5 2v286.5c-.3.5-.3 1 0 1.4v.1h.1c.1.2.3.3.5.4 4.1 2.1 18.1 7 59.7 6.1 41.1-.9 53 11.3 56.3 16.8.3 1 1.6 1 2.2.1m93.5-295.3v255.7H-12.7V144.1h189.5z" fill="url(#SVGID_00000114062847536940387970000003939693339878920330_)"/><path class="st92" d="M-22.4 134.4h83.9m41.2 0h83.8m-112 2.3 7.7-13.1 7.7 13.1z"/></g><g clip-path="url(#SVGID_00000178178757247706465400000012062197156365734814_)"><linearGradient id="SVGID_00000072973650145978019530000009928755658562094752_" gradientUnits="userSpaceOnUse" x1="1225.556" y1="250.104" x2="1455.956" y2="250.104"><stop offset="0" stop-color="#eca671"/><stop offset="1" stop-color="#f9c69d"/></linearGradient><path d="M1340.8 137.2c19.7 0 38.9 10.6 53.8 29.8 8.1 10.4 14.5 22.7 19.1 36.5 4.8 14.7 7.3 30.4 7.3 46.6s-2.5 31.9-7.3 46.6c-4.5 13.8-11 26.1-19.1 36.5-15 19.2-34.1 29.8-53.8 29.8-19.7 0-38.9-10.6-53.8-29.8-8.1-10.4-14.5-22.7-19.1-36.5-4.8-14.7-7.3-30.4-7.3-46.6s2.5-31.9 7.3-46.6c4.5-13.8 11-26.1 19.1-36.5 14.9-19.3 34-29.8 53.8-29.8m0-35c-63.6 0-115.2 66.2-115.2 148 0 81.7 51.6 148 115.2 148S1456 332 1456 250.2s-51.6-148-115.2-148z" fill="url(#SVGID_00000072973650145978019530000009928755658562094752_)"/></g><g clip-path="url(#SVGID_00000178178757247706465400000012062197156365734814_)"><path d="M1354.5 124c48.2 8.6 85.4 61.8 85.4 126.1 0 70.3-44.4 127.3-99.1 127.3-54.7 0-99.1-57-99.1-127.3 0-65.9 39-120.1 89-126.6" fill="none" stroke="#ffd0a6" stroke-width="3.195" stroke-linecap="round" stroke-linejoin="round" stroke-miterlimit="10"/><path class="st92" d="m1334.7 129.3 7.7-13.1 7.8 13.1z"/></g></svg>