<svg id="Layer_1" data-name="Layer 1" xmlns="http://www.w3.org/2000/svg" xmlns:xlink="http://www.w3.org/1999/xlink" viewBox="0 0 1455.5 272.37"><defs><linearGradient id="linear-gradient" x1="0" y1="137.29" x2="1455.61" y2="137.29" gradientUnits="userSpaceOnUse"><stop offset="0" stop-color="#c566a1"/><stop offset="1" stop-color="#ed9fcc"/></linearGradient><linearGradient id="linear-gradient-2" x1="-91.94" y1="802.01" x2="-67.6" y2="802.01" gradientTransform="translate(-115.65 -537.61) rotate(-22.62)" gradientUnits="userSpaceOnUse"><stop offset="0" stop-color="#eca671"/><stop offset="1" stop-color="#f9c69d"/></linearGradient><linearGradient id="linear-gradient-3" x1="-79.77" y1="802.01" x2="-55.44" y2="802.01" gradientTransform="translate(198.01 -573.3)" xlink:href="#linear-gradient-2"/><linearGradient id="linear-gradient-4" x1="-170.37" y1="-996.26" x2="-96.93" y2="-996.26" gradientTransform="translate(-891.36 575.52) rotate(74.03)" xlink:href="#linear-gradient-2"/><linearGradient id="linear-gradient-5" x1="708.75" y1="-189.45" x2="762.01" y2="-189.45" gradientTransform="translate(-562.47 202.59) rotate(16.6)" xlink:href="#linear-gradient-2"/><linearGradient id="linear-gradient-6" x1="229.41" y1="-2280.92" x2="302.85" y2="-2280.92" gradientTransform="translate(-891.36 575.52) rotate(74.03)" xlink:href="#linear-gradient-2"/><linearGradient id="linear-gradient-7" x1="1496" y1="1611.72" x2="1569.43" y2="1611.72" gradientTransform="translate(-753.3 -302.49) rotate(-35.87)" xlink:href="#linear-gradient-2"/><linearGradient id="linear-gradient-8" x1="1799.83" y1="-480.92" x2="1853.09" y2="-480.92" gradientTransform="translate(-562.47 202.59) rotate(16.6)" xlink:href="#linear-gradient-2"/><linearGradient id="linear-gradient-9" x1="1041.28" y1="-1509.51" x2="1094.54" y2="-1509.51" gradientTransform="translate(-614.88 527.56) rotate(45.35)" xlink:href="#linear-gradient-2"/><linearGradient id="linear-gradient-10" x1="1375.9" y1="-313.93" x2="1390.94" y2="-313.93" gradientTransform="translate(105.91 -276.08) rotate(32.31)" xlink:href="#linear-gradient-2"/><linearGradient id="linear-gradient-11" x1="1383.42" y1="-313.93" x2="1398.46" y2="-313.93" gradientTransform="translate(1135.32 -1188.8) rotate(90)" xlink:href="#linear-gradient-2"/><clipPath id="clippath"><path class="cls-1" d="M0 0h1455.5v272.37H0z"/></clipPath><clipPath id="clippath-1"><path class="cls-1" d="M141.37 286.68c-6.2 2.58-21.17-19.18-33.44-48.61-12.26-29.43-17.18-55.39-10.97-57.97l11.23-4.68 44.41 106.59-11.23 4.68Z"/></clipPath><clipPath id="clippath-2"><path class="cls-1" d="M1423.83 228.27c-3.51-2.22 2.18-17.52 12.72-34.17 10.53-16.65 21.92-28.35 25.43-26.13l6.36 4.02-38.14 60.31-6.36-4.02Z"/></clipPath><style>.cls-1,.cls-2,.cls-4,.cls-5,.cls-6,.cls-7,.cls-8,.cls-9{fill:none}.cls-2,.cls-4,.cls-5,.cls-6,.cls-7,.cls-8,.cls-9{stroke-linecap:round;stroke-linejoin:round}.cls-2,.cls-8{stroke:#dd9f6b}.cls-2,.cls-9{stroke-width:3px}.cls-13{fill:#ffd0a6}.cls-14{fill:#dd9f6b}.cls-4{stroke:#fffffe}.cls-4,.cls-5,.cls-6{stroke-width:3.27px}.cls-5{stroke:#e3add0}.cls-6{stroke:#e089c9}.cls-7,.cls-8{stroke-width:2.18px}.cls-7,.cls-9{stroke:#ffd0a6}</style></defs><g clip-path="url(#clippath)"><path fill="url(#linear-gradient)" d="M0 0h1455.61v274.58H0z"/><g><path d="M141.37 286.68c-6.2 2.58-21.17-19.18-33.44-48.61-12.26-29.43-17.18-55.39-10.97-57.97l11.23-4.68 44.41 106.59-11.23 4.68Z" fill="url(#linear-gradient-2)"/><g clip-path="url(#clippath-1)"><g><path d="m87.63 191.86 21.09-8.78m-20.66 20.5 21.09-8.78m-16.14 20.65 21.08-8.79m-14.97 23.45 21.08-8.78m-14.97 23.45 21.09-8.78m-16.15 20.65 21.09-8.79M114.49 267l21.08-8.79m-16.77 19.14 21.09-8.78" stroke-width="3.78" stroke="#dd9f6b" stroke-linecap="round" stroke-linejoin="round" fill="none"/></g></g><ellipse cx="130.4" cy="228.71" rx="12.17" ry="57.73" transform="translate(-77.93 67.75) rotate(-22.62)" fill="url(#linear-gradient-3)"/><path class="cls-14" d="M133.36 230.93c2.75 6.71 5.6 13.39 8.66 19.95 2.59 5.34 4.84 11.03 8.46 15.72.32.34.25.09-.25.11-.35 0-.75.31-.81.46-.14.25-.07.22-.06.05 0-2.04-.64-4.14-1.15-6.22-1.43-5.23-3.17-10.38-5.06-15.46-6.37-16.96-13.47-33.76-22.15-49.67-1.29-2.14-2.41-4.46-4.13-6.21.03 0 .03.07.44.11.34.05.87-.26 1.02-.58.13-.3.04-.12.06 0 .44 3.81 1.95 7.65 3.15 11.34 3.61 10.25 7.6 20.37 11.84 30.39Zm-3.45 1.44c-4.13-10.15-8.16-20.35-11.46-30.81-1.1-3.59-2.2-7.02-2.83-10.79-.11-1.14-.47-2.59.71-3.55 1.03-.74 2.29.02 2.85.73 3.82 5.02 6.19 10.93 8.94 16.54 6.15 13.24 11.77 26.68 17.09 40.27 1.94 5.13 3.92 10.26 5.52 15.52.63 2.45 1.67 5 1.39 7.68-.41 1.95-2.48 2.04-3.66.72-4.14-4.82-6.66-10.75-9.57-16.31-3.17-6.6-6.12-13.28-8.97-20Z"/><path class="cls-13" d="M128.01 229.5c4.64 11.18 9.62 22.27 15.48 32.85 1.84 2.99 3.44 6.42 6.17 8.63.12.08.03-.04-.18.08-.23.07-.2.22-.17.07.46-3.49-.8-7.1-1.55-10.53-3.09-11.73-7.46-23.1-12.03-34.33-4.76-11.15-9.75-22.26-15.91-32.72-1.91-2.95-3.59-6.38-6.39-8.51-.12-.08-.04.05.17-.07.23-.06.21-.21.18-.07-.35 3.49.96 7.05 1.79 10.46 3.39 11.62 7.76 22.96 12.43 34.13Zm-2.77 1.15c-4.6-11.32-9-22.77-12.13-34.61-.55-2.78-3.46-11.74-.38-13.17 1.75-.51 2.74.87 3.73 1.88 4.5 5.66 7.53 12.26 10.77 18.65 3.59 7.31 6.87 14.75 9.97 22.27 3.15 7.49 6.12 15.07 8.79 22.76 2.26 6.8 4.81 13.6 5.66 20.78.03 1.42.3 3.08-1.29 3.97-3.18 1.2-7.55-7.28-9.09-9.55-6.21-10.56-11.24-21.74-16.04-32.98Z"/></g><g><circle cx="29.67" cy="172.9" r="36.72" fill="url(#linear-gradient-4)"/><g><circle class="cls-2" cx="27.92" cy="174.85" r="28.18"/><path class="cls-2" d="m16.83 164.27 23.7 6.1-16.81 17.78-6.89-23.88z"/></g><circle class="cls-9" cx="29.67" cy="172.9" r="28.18"/><path class="cls-9" d="m18.58 162.33 23.7 6.09-16.81 17.78-6.89-23.87z"/></g><g><circle cx="196.38" cy="231.17" r="26.63" fill="url(#linear-gradient-5)"/><g><circle class="cls-8" cx="196.89" cy="233" r="20.44"/><path class="cls-8" d="m186.1 235.65 12.98-12.11 4.3 17.22-17.28-5.11z"/></g><circle class="cls-7" cx="196.38" cy="231.17" r="20.44"/><path class="cls-7" d="m185.59 233.82 12.98-12.11 4.3 17.22-17.28-5.11z"/></g><g><circle cx="1374.74" cy="203.76" r="36.72" fill="url(#linear-gradient-6)"/><g><circle class="cls-2" cx="1372.99" cy="205.71" r="28.18"/><path class="cls-2" d="m1361.9 195.13 23.7 6.1-16.81 17.78-6.89-23.88z"/></g><circle class="cls-9" cx="1374.74" cy="203.76" r="28.18"/><path class="cls-9" d="m1363.65 193.19 23.71 6.09-16.82 17.78-6.89-23.87z"/></g><g><circle cx="1433.11" cy="105.51" r="36.72" fill="url(#linear-gradient-7)"/><g><circle class="cls-2" cx="1435.54" cy="106.49" r="28.18"/><path class="cls-2" d="m1429.37 120.52-2.34-24.36 22.45 9.75-20.11 14.61z"/></g><circle class="cls-9" cx="1433.11" cy="105.51" r="28.18"/><path class="cls-9" d="m1426.95 119.53-2.34-24.36 22.44 9.76-20.1 14.6z"/></g><g><circle cx="1325.26" cy="263.62" r="26.63" fill="url(#linear-gradient-8)"/><g><circle class="cls-8" cx="1325.76" cy="265.45" r="20.44"/><path class="cls-8" d="m1314.97 268.1 12.98-12.11 4.3 17.22-17.28-5.11z"/></g><circle class="cls-7" cx="1325.26" cy="263.62" r="20.44"/><path class="cls-7" d="m1314.46 266.27 12.98-12.11 4.3 17.23-17.28-5.12z"/></g><g><circle cx="1209.49" cy="226.35" r="26.63" fill="url(#linear-gradient-9)"/><g><circle class="cls-8" cx="1209.05" cy="228.2" r="20.44"/><path class="cls-8" d="m1198.32 225.33 17.2-4.37-4.51 17.17-12.69-12.8z"/></g><circle class="cls-7" cx="1209.49" cy="226.35" r="20.44"/><path class="cls-7" d="m1198.75 223.48 17.21-4.37-4.51 17.17-12.7-12.8z"/></g><g><path d="M1423.83 228.27c-3.51-2.22 2.18-17.52 12.72-34.17 10.53-16.65 21.92-28.35 25.43-26.13l6.36 4.02-38.14 60.31-6.36-4.02Z" fill="url(#linear-gradient-10)"/><g clip-path="url(#clippath-2)"><g><path d="m1452.7 167.43 11.93 7.54m-17.7-3.17 11.93 7.55m-16.18-.83 11.93 7.54m-17.18.75 11.93 7.55m-17.18.75 11.93 7.55m-16.17-.83 11.93 7.54m-15.64-1.69 11.93 7.55m-15.63-1.69 11.93 7.55m-14.3-.84 11.93 7.54" stroke-width="2.34" stroke="#dd9f6b" stroke-linecap="round" stroke-linejoin="round" fill="none"/></g></g><ellipse cx="1449.25" cy="202.14" rx="35.68" ry="7.52" transform="translate(503.71 1318.9) rotate(-57.69)" fill="url(#linear-gradient-11)"/><path class="cls-14" d="M1449.17 204.42c-4.19 6.84-8.86 13.57-11.89 21-.07.21-.11.5-.1.48 0-.01 0-.08-.12-.24-.12-.18-.43-.27-.52-.25 2.95-2.62 6.16-7.21 8.72-10.85 6.31-9.24 12.29-18.8 17.26-28.84.62-1.39 1.41-2.84 1.67-4.29 0 .29.42.63.75.57-1.34 1.28-3.23 3.73-4.6 5.65-3.9 5.47-7.6 11.08-11.17 16.78Zm-1.95-1.24c5.01-7.58 9.75-15.3 15.97-22 .58-.6 1.81-1.54 2.56-.5.51.95-.06 1.81-.31 2.63-3.28 7.22-7.6 13.89-11.73 20.64-3.6 5.72-7.23 11.43-11.17 16.94-1.57 2.04-2.97 4.33-5.12 6-.19.1-.33.24-.83.28-.24.03-.69-.12-.89-.41-.21-.28-.24-.49-.26-.63-.05-.58.05-.85.12-1.18 2.77-7.8 7.46-14.72 11.67-21.77Z"/><path class="cls-13" d="M1448.64 201.62c-2.67 4.21-5.25 8.47-7.69 12.8-2.09 3.95-4.62 7.88-5.67 12.23-.03.39.05-.1-.38-.31-.33-.22-.58-.11-.55-.13 8.4-5.92 28.61-37.86 30.39-48.04 0-.04 0 .24.35.44.32.23.58.12.56.14.04-.02-.06.04-.12.06-3.48 2.81-5.94 6.78-8.62 10.36-2.87 4.06-5.62 8.22-8.27 12.44Zm-2.85-1.8c2.25-3.45 16.89-26.32 20.68-23.38 2.26 1.6-.82 6.69-1.59 8.63-3.38 6.79-7.31 13.26-11.34 19.66-4.06 6.38-8.22 12.71-12.9 18.67-1.45 1.57-4.69 6.48-7.11 5.14-4.28-2.18 10.11-25.2 12.26-28.71Z"/></g></g><circle class="cls-4" cx="1307.11" cy="232.94" r="13.32"/><circle class="cls-6" cx="1389.61" cy="164.06" r="22.19"/><g><path class="cls-5" d="m70.47 103.87-8.11 13.31m10.71-2.61-13.31-8.1"/></g><g><path class="cls-6" d="m1244.1 239.52-18.46-6.58m5.94 12.52 6.58-18.46"/></g><g><circle class="cls-4" cx="83.71" cy="211.99" r="17.3"/><circle class="cls-5" cx="222.11" cy="198.01" r="22.19"/><path class="cls-5" d="m107.13 163.48 12.13-9.26 2.22 15.09-14.35-5.83zm76.23 3.98 5.49-19.75 14.62 14.37-20.11 5.38z"/></g></svg>