<svg id="Layer_1" xmlns="http://www.w3.org/2000/svg" xmlns:xlink="http://www.w3.org/1999/xlink" viewBox="0 0 276.71 330.56"><defs><linearGradient id="linear-gradient" x1="-11.71" y1="165.28" x2="288.42" y2="165.28" gradientTransform="rotate(180 138.355 165.28)" gradientUnits="userSpaceOnUse"><stop offset="0" stop-color="#9d33a6"/><stop offset=".38" stop-color="#b0358b"/><stop offset=".74" stop-color="#be3778"/><stop offset="1" stop-color="#c33872"/></linearGradient><linearGradient id="linear-gradient-2" x1="175.3" y1="58.36" x2="219.15" y2="58.36" gradientUnits="userSpaceOnUse"><stop offset="0" stop-color="#c566a1"/><stop offset="1" stop-color="#ed9fcc"/></linearGradient><linearGradient id="linear-gradient-3" x1="298.56" y1="310.27" x2="-17.11" y2="310.27" xlink:href="#linear-gradient-2"/><clipPath id="clippath"><path class="cls-1" transform="rotate(-180 138.355 165.28)" d="M0 0h276.71v330.56H0z"/></clipPath><style>.cls-1,.cls-3,.cls-4{fill:none}.cls-10{fill:#edc1d8}.cls-11{fill:#9d81d4}.cls-12{fill:#bf71a7}.cls-3,.cls-4{stroke-linecap:round;stroke-linejoin:round;stroke-width:3.27px}.cls-3{stroke:#fffffe}.cls-4{stroke:#e3add0}.cls-15{opacity:.33}</style></defs><g clip-path="url(#clippath)"><path d="M-4.66 0h293.08v330.56H-11.71V7.05C-11.71 3.16-8.55 0-4.66 0Z" transform="rotate(-180 138.355 165.28)" fill="url(#linear-gradient)"/><g class="cls-15"><g class="cls-15"><path class="cls-11" d="M115.37 79.08c0-1.77 1.44-3.21 3.21-3.21s3.21 1.44 3.21 3.21-1.44 3.21-3.21 3.21-3.21-1.44-3.21-3.21Z"/><path class="cls-11" d="M7.17 241.48c-.32 0-.65-.09-.93-.29-.74-.51-.93-1.53-.41-2.27l56.44-81.38-91.39-44.72c-.54-.27-.9-.81-.92-1.42s.3-1.17.83-1.47L88.43 43.4 57.25 4.77c-.52-.65-.48-1.58.11-2.17.58-.59 1.51-.65 2.17-.15l42.65 33.18 73.8-41.75c.66-.37 1.5-.24 2.01.32.51.56.57 1.41.14 2.03L133.76 60.2l30.12 23.43 89.41-101.26c.6-.68 1.63-.74 2.31-.14.68.6.74 1.63.14 2.31L166.46 85.66l33.35 25.94 90.86-89.78a1.63 1.63 0 0 1 1.73-.36c.6.23 1.01.79 1.05 1.43l10.46 170.39c.04.64-.3 1.25-.87 1.54-.57.3-1.26.24-1.77-.16l-101.2-78.73-71.34 70.48 70.31 34.4a1.634 1.634 0 0 1-.75 3.1l-105.97-2.22c-.66-.01-1.24-.42-1.48-1.03-.24-.61-.1-1.31.37-1.77l31.96-31.57-57.91-28.33-56.74 81.79c-.32.46-.83.7-1.34.7Zm89.07-22.97 94.7 1.99-64.68-31.65-30.02 29.66Zm106.17-104.89 98.01 76.25L290.4 26.69l-87.99 86.94ZM67.13 156.28l58.49 28.62 71.85-70.99-33.17-25.8-19.49 22.08c-.32.36-.77.57-1.26.55a1.64 1.64 0 0 1-1.24-.61l-23.22-28.76-51.96 74.91Zm-92.03-45.03 89.06 43.57 52.79-76.1-26.43-32.74-115.42 65.27Zm145.92-32.68 22.6 28 18.08-20.48-29.81-23.19-10.87 15.67ZM93.39 44.35l25.49 31.57 10.43-15.03-27.43-21.34-8.48 4.8Zm11.57-6.54 26.22 20.39L171.37.25l-66.41 37.56ZM68.66 13.7l22.66 28.07 7.77-4.39-30.43-23.67Z"/><circle class="cls-11" cx="143.55" cy="108.37" r="3.21"/><circle class="cls-11" cx="163.29" cy="84.74" r="3.21"/><circle class="cls-11" cx="137.28" cy="65.12" r="3.21"/><path class="cls-11" d="M86.27 150.14c0-1.77 1.44-3.21 3.21-3.21s3.21 1.44 3.21 3.21-1.44 3.21-3.21 3.21-3.21-1.44-3.21-3.21Z"/><circle class="cls-11" cx="91.53" cy="219.86" r="3.21"/><circle class="cls-11" cx="134.48" cy="179.1" r="3.21"/><circle class="cls-11" cx="200.3" cy="114.56" r="3.21"/><circle class="cls-11" cx="109.34" cy="43.05" r="3.21"/><path class="cls-11" d="M213.01 196.58c-.48 0-.96-.21-1.28-.62l-67.05-84.27c-.56-.71-.44-1.73.26-2.3.71-.56 1.73-.45 2.3.26l67.05 84.27c.56.71.44 1.73-.26 2.3-.3.24-.66.36-1.02.36Z"/><circle class="cls-11" cx="171.23" cy="142.51" r="3.21"/></g></g><path class="cls-12" d="M260.54 178.63h3.27v99.24h-3.27z"/><path class="cls-10" d="m291.85 259.56-29.88-138.34-29.89 138.34h59.77z"/><path class="cls-12" d="M216.25 218.82h3.27v59.05h-3.27z"/><circle class="cls-10" cx="217.07" cy="162.44" r="22.14"/><circle class="cls-10" cx="217.42" cy="205.75" r="37.17"/><circle class="cls-10" cx="230.6" cy="64.63" r="1.49"/><circle class="cls-10" cx="186.67" cy="30.19" r="1.49"/><circle class="cls-10" cx="120.19" cy="61.25" r="1.49"/><circle class="cls-10" cx="259.51" cy="48.38" r="1.49"/><circle class="cls-10" cx="72.21" cy="36.34" r="1.49"/><circle class="cls-10" cx="28.54" cy="77.8" r="1.49"/><path d="M255.2 314.37H132.79m92.48-9.43h-48.19m122.41 0h-31.37" opacity=".3" stroke-linecap="round" stroke-linejoin="round" stroke-width="3.27px" stroke="#edc1d8" fill="none"/><circle class="cls-10" cx="260.82" cy="99.25" r="1.49"/><circle class="cls-10" cx="135.26" cy="10.76" r="1.49"/><circle class="cls-3" cx="54.76" cy="129.38" r="13.32"/><circle class="cls-4" cx="12.1" cy="60.08" r="13.32"/><circle cx="197.22" cy="58.36" r="21.92" fill="url(#linear-gradient-2)"/><circle cx="194.31" cy="173.72" r="13.32" stroke-miterlimit="10" stroke="#fffffe" stroke-width="3.27" fill="none"/><path class="cls-12" d="M46.84 207.2h3.27v79.29h-3.27z"/><path class="cls-10" d="M72.19 271.85 48.31 161.33 24.44 271.85h47.75z"/><path class="cls-12" d="M13.77 207.2h3.27v79.29h-3.27z"/><path class="cls-10" d="M39.12 271.85 15.24 161.33-8.64 271.85h47.76z"/><path class="cls-12" d="M144.55 145.49h3.27v141h-3.27z"/><path class="cls-10" d="M188.35 260.46 145.89 63.92l-42.46 196.54h84.92z"/><path class="cls-12" d="M85.73 145.49H89v141h-3.27z"/><path class="cls-10" d="M129.54 260.46 87.08 63.92 44.61 260.46h84.93z"/><circle class="cls-3" cx="47.59" cy="245.02" r="22.19"/><path class="cls-4" d="M236.84 100.87v15.59m-7.79-7.79h15.58"/><path class="cls-3" d="m140.84 117.64 8.11 13.31m-10.71-2.6 13.31-8.11M239 235.85l18.46-6.58m-5.94 12.51-6.58-18.45"/><path d="m171.04 231.7-12.13-9.26-2.22 15.09 14.35-5.83zm-84.7-8.44-5.49-19.75-14.62 14.36 20.11 5.39z" stroke="#bf71a7" stroke-linecap="round" stroke-linejoin="round" stroke-width="3.27px" fill="none"/><path class="cls-1" transform="rotate(-180 150.065 165.28)" d="M11.71 0h276.71v330.56H11.71z"/><path d="M292.82 283.59s-40.39-16.42-98.14-10.16-115.36 24.85-211.79 5.08l2.3 70.02 304.76-1.69 8.61-9.6-5.74-53.65Z" fill="url(#linear-gradient-3)"/><circle cx="137.88" cy="213.59" r="17.3" stroke-miterlimit="10" stroke="#bf71a7" stroke-width="3.27" fill="none"/></g></svg>