<svg xmlns="http://www.w3.org/2000/svg" x="0px" y="0px" width="100" height="100" viewBox="0,0,256,256">
<g transform="translate(-24.32,-24.32) scale(1.19,1.19)"><g fill="none" fill-rule="nonzero" stroke="none" stroke-width="1" stroke-linecap="butt" stroke-linejoin="miter" stroke-miterlimit="10" stroke-dasharray="" stroke-dashoffset="0" font-family="none" font-weight="none" font-size="none" text-anchor="none" style="mix-blend-mode: normal"><g transform="scale(5.33333,5.33333)"><path d="M24,5c-10.49341,0 -19,8.50659 -19,19c0,10.49341 8.50659,19 19,19c10.49341,0 19,-8.50659 19,-19c0,-10.49341 -8.50659,-19 -19,-19z" fill="#37474f"></path><path d="M25.064,25.167l2.409,6.331c0.546,0.741 1.195,1.389 1.969,1.828c2.419,1.373 5.5,0.581 6.881,-1.769v0c-0.001,0 -10.983,-6.179 -11.259,-6.39z" fill="#ff7043"></path><path d="M25.064,25.167c0.323,0.129 11.259,6.389 11.259,6.389v0c1.38,-2.351 0.538,-5.369 -1.882,-6.742c-0.774,-0.439 -1.669,-0.667 -2.595,-0.762z" fill="#f16461"></path><path d="M33.492,26.545c-0.291,-0.165 -0.605,-0.306 -0.929,-0.435c0.104,0.993 -0.085,2.024 -0.632,2.955c-0.547,0.931 -1.36,1.607 -2.287,2.015c0.276,0.211 0.557,0.408 0.848,0.573c3.031,1.72 5.001,1.314 5.83,-0.096v0v0c0.829,-1.411 0.201,-3.292 -2.83,-5.012z" fill="#ff5252"></path><path d="M27.664,29.134c0.589,0.71 1.256,1.392 1.981,1.945c0.927,-0.408 1.741,-1.084 2.287,-2.015c0.547,-0.931 0.736,-1.962 0.632,-2.955c-0.85,-0.34 -1.785,-0.567 -2.704,-0.713c0.044,0.741 -0.12,1.503 -0.525,2.194c-0.407,0.691 -0.996,1.212 -1.671,1.544z" fill="#ff855f"></path><path d="M29.645,31.08c-0.725,-0.553 -1.392,-1.236 -1.981,-1.945c-0.421,0.207 -0.876,0.332 -1.343,0.384c0.317,0.683 0.698,1.363 1.153,1.98c0.749,0.017 1.49,-0.12 2.171,-0.419z" fill="#ff8a65"></path><path d="M29.859,25.397c0.92,0.147 1.855,0.373 2.704,0.713c-0.076,-0.73 -0.326,-1.428 -0.717,-2.058c-0.771,-0.079 -1.56,-0.062 -2.32,0.009c0.187,0.424 0.306,0.874 0.333,1.336z" fill="#ff8a80"></path><path d="M29.334,27.59c0.406,-0.691 0.57,-1.452 0.525,-2.194c-2.472,-0.394 -4.795,-0.229 -4.795,-0.229c0,0 1.016,2.06 2.6,3.967c0.675,-0.332 1.264,-0.853 1.67,-1.544z" fill="#ffccbc"></path><path d="M27.664,29.134c-1.584,-1.907 -2.6,-3.967 -2.6,-3.967c-0.058,0.098 -0.079,0.217 -0.054,0.338c0.153,0.742 0.55,2.379 1.31,4.014c0.467,-0.053 0.923,-0.177 1.344,-0.385z" fill="#ffab91"></path><path d="M29.526,24.061c-1.821,0.17 -3.461,0.651 -4.191,0.892c-0.119,0.039 -0.213,0.117 -0.27,0.215c0,0 2.323,-0.165 4.795,0.229c-0.028,-0.462 -0.147,-0.912 -0.334,-1.336z" fill="#ffcdd2"></path><g><path d="M22.922,25.167c-0.276,0.211 -11.258,6.389 -11.258,6.389v0c1.381,2.35 4.461,3.142 6.881,1.769c0.774,-0.439 1.423,-1.087 1.969,-1.828z" fill="#c6cf47"></path><path d="M22.922,25.167l-6.782,-1.115c-0.926,0.094 -1.822,0.323 -2.595,0.762c-2.419,1.373 -3.262,4.391 -1.882,6.742v0c0.001,0 10.936,-6.259 11.259,-6.389z" fill="#e1eb8a"></path><path d="M17.494,31.653c0.291,-0.165 0.572,-0.363 0.848,-0.573c-0.927,-0.408 -1.741,-1.084 -2.287,-2.015c-0.547,-0.931 -0.736,-1.962 -0.632,-2.955c-0.323,0.129 -0.638,0.27 -0.929,0.435c-3.031,1.72 -3.658,3.6 -2.83,5.011v0v0c0.829,1.411 2.799,1.817 5.83,0.097z" fill="#dce775"></path><path d="M18.127,25.397c-0.92,0.147 -1.855,0.373 -2.704,0.713c-0.104,0.993 0.085,2.024 0.632,2.955c0.547,0.931 1.36,1.607 2.287,2.015c0.725,-0.553 1.392,-1.236 1.981,-1.945c-0.675,-0.333 -1.264,-0.853 -1.67,-1.544c-0.406,-0.692 -0.57,-1.453 -0.526,-2.194z" fill="#fff59d"></path><path d="M15.423,26.11c0.85,-0.34 1.785,-0.567 2.704,-0.713c0.028,-0.462 0.146,-0.912 0.333,-1.336c-0.76,-0.071 -1.55,-0.087 -2.32,-0.009c-0.391,0.63 -0.641,1.329 -0.717,2.058z" fill="#e6ee9c"></path><path d="M20.323,29.134c-0.589,0.71 -1.256,1.392 -1.981,1.945c0.681,0.3 1.422,0.437 2.172,0.419c0.455,-0.617 0.835,-1.297 1.153,-1.98c-0.468,-0.052 -0.923,-0.176 -1.344,-0.384z" fill="#ffd740"></path><path d="M18.653,27.59c0.406,0.691 0.995,1.211 1.67,1.544c1.584,-1.907 2.6,-3.967 2.6,-3.967c0,0 -2.323,-0.165 -4.795,0.229c-0.045,0.742 0.119,1.503 0.525,2.194z" fill="#fff9c4"></path><path d="M18.127,25.397c2.472,-0.394 4.795,-0.229 4.795,-0.229c-0.058,-0.098 -0.151,-0.176 -0.27,-0.215c-0.731,-0.241 -2.371,-0.721 -4.191,-0.892c-0.188,0.424 -0.306,0.874 -0.334,1.336z" fill="#f0f4c3"></path><path d="M21.666,29.518c0.76,-1.635 1.157,-3.271 1.31,-4.014c0.025,-0.121 0.004,-0.24 -0.054,-0.338c0,0 -1.016,2.06 -2.6,3.967c0.422,0.209 0.877,0.333 1.344,0.385z" fill="#ffe082"></path></g><g><path d="M41.37,28.654c-0.411,1.537 -1.015,2.993 -1.794,4.339l1.731,0.999c0.866,-1.496 1.536,-3.112 1.993,-4.821z" fill="#f44336"></path><path d="M11.272,36.728l-1.414,1.414c1.231,1.231 2.633,2.287 4.15,3.165l0.999,-1.731c-1.365,-0.79 -2.627,-1.74 -3.735,-2.848z" fill="#ffd740"></path><path d="M6,24h-2c0,1.792 0.258,3.519 0.7,5.172l1.93,-0.517c-0.398,-1.488 -0.63,-3.043 -0.63,-4.655z" fill="#aed581"></path><path d="M8.424,32.993l-1.731,0.999c0.878,1.517 1.934,2.918 3.165,4.15l1.414,-1.414c-1.108,-1.108 -2.058,-2.37 -2.848,-3.735z" fill="#fff176"></path><path d="M6.63,28.654l-1.93,0.518c0.457,1.708 1.128,3.325 1.993,4.821l1.731,-0.999c-0.779,-1.347 -1.383,-2.802 -1.794,-4.34z" fill="#dce775"></path><path d="M15.007,39.576l-0.999,1.731c1.496,0.865 3.112,1.536 4.821,1.993l0.517,-1.93c-1.538,-0.411 -2.993,-1.015 -4.339,-1.794z" fill="#ffca28"></path><path d="M32.993,39.576l0.999,1.731c1.517,-0.878 2.919,-1.934 4.15,-3.165l-1.414,-1.414c-1.108,1.108 -2.37,2.058 -3.735,2.848z" fill="#ff7043"></path><path d="M28.654,41.37l0.517,1.93c1.708,-0.457 3.325,-1.128 4.821,-1.993l-0.999,-1.731c-1.346,0.779 -2.801,1.383 -4.339,1.794z" fill="#fb8c00"></path><path d="M36.728,36.728l1.414,1.414c1.231,-1.231 2.287,-2.633 3.165,-4.15l-1.731,-0.999c-0.79,1.365 -1.74,2.627 -2.848,3.735z" fill="#ff5252"></path><path d="M19.346,41.37l-0.517,1.93c1.652,0.442 3.379,0.7 5.171,0.7v-2c-1.612,0 -3.167,-0.232 -4.654,-0.63z" fill="#ffb74d"></path><path d="M24,42v2c1.792,0 3.519,-0.258 5.172,-0.7l-0.517,-1.93c-1.488,0.398 -3.043,0.63 -4.655,0.63z" fill="#ffa726"></path><path d="M19.346,6.63l-0.518,-1.93c-1.708,0.457 -3.325,1.128 -4.821,1.993l0.999,1.731c1.347,-0.779 2.802,-1.383 4.34,-1.794z" fill="#64b5f6"></path><path d="M41.37,19.346l1.93,-0.517c-0.457,-1.708 -1.128,-3.325 -1.993,-4.821l-1.731,0.999c0.779,1.346 1.383,2.801 1.794,4.339z" fill="#9575cd"></path><path d="M39.576,15.007l1.731,-0.999c-0.878,-1.517 -1.934,-2.919 -3.165,-4.15l-1.414,1.414c1.108,1.108 2.058,2.37 2.848,3.735z" fill="#7986cb"></path><path d="M36.728,11.272l1.414,-1.414c-1.231,-1.231 -2.633,-2.287 -4.15,-3.165l-0.999,1.731c1.365,0.79 2.627,1.74 3.735,2.848z" fill="#8c9eff"></path><path d="M32.993,8.424l0.999,-1.731c-1.495,-0.866 -3.112,-1.537 -4.82,-1.993l-0.517,1.93c1.537,0.411 2.992,1.015 4.338,1.794z" fill="#82b1ff"></path><path d="M42,24h2c0,-1.792 -0.258,-3.519 -0.7,-5.172l-1.93,0.517c0.398,1.488 0.63,3.043 0.63,4.655z" fill="#f06292"></path><path d="M6.63,19.346l-1.93,-0.518c-0.442,1.653 -0.7,3.38 -0.7,5.172h2c0,-1.612 0.232,-3.167 0.63,-4.654z" fill="#9ccc65"></path><path d="M41.37,28.654l1.93,0.517c0.442,-1.652 0.7,-3.379 0.7,-5.171h-2c0,1.612 -0.232,3.167 -0.63,4.654z" fill="#ef5350"></path><path d="M28.654,6.63l0.517,-1.93c-1.652,-0.442 -3.379,-0.7 -5.171,-0.7v2c1.612,0 3.167,0.232 4.654,0.63z" fill="#64b5f6"></path><path d="M11.272,11.272l-1.414,-1.414c-1.231,1.231 -2.287,2.633 -3.165,4.15l1.731,0.999c0.79,-1.365 1.74,-2.627 2.848,-3.735z" fill="#68c1b8"></path><path d="M8.424,15.007l-1.731,-0.999c-0.866,1.495 -1.537,3.112 -1.993,4.82l1.93,0.517c0.411,-1.537 1.015,-2.992 1.794,-4.338z" fill="#81c784"></path><path d="M15.007,8.424l-0.999,-1.731c-1.517,0.878 -2.919,1.934 -4.15,3.165l1.414,1.414c1.108,-1.108 2.37,-2.058 3.735,-2.848z" fill="#4db6ac"></path><path d="M24,6v-2c-1.792,0 -3.519,0.258 -5.172,0.7l0.517,1.93c1.488,-0.398 3.043,-0.63 4.655,-0.63z" fill="#4ba9f5"></path></g><g><path d="M24.001,11v0l-0.001,13c0.115,0 0.23,-0.042 0.324,-0.125c1.109,-0.979 4.676,-4.398 4.676,-7.816c0,-2.794 -2.238,-5.058 -4.999,-5.059z" fill="#7986cb"></path><path d="M24,11c-0.001,0 -0.001,0 0,0c-2.761,0 -5,2.265 -5,5.059c0,3.418 3.567,6.837 4.676,7.816c0.094,0.083 0.209,0.125 0.324,0.125z" fill="#26a69a"></path><path d="M24,11v0v0c-1.658,0 -3,1.5 -3,5c0,3.59 3,8 3,8c0,0 3,-4.41 3,-8c0,-3.5 -1.343,-5 -3,-5z" fill="#82b1ff"></path><path d="M24,11c0.543,0 0.941,0.092 0.997,0.105c1.726,0.393 3.003,1.767 3.003,3.395c0,0.91 -0.41,1.74 -1.06,2.36c0.01,-0.07 -2.659,-5.83 -2.94,-5.86z" fill="#4db6ac"></path><path d="M25.82,20.66c-0.84,1.9 -1.82,3.34 -1.82,3.34c0,0 -0.98,-1.44 -1.82,-3.34c0.57,0.22 1.18,0.34 1.82,0.34c0.64,0 1.25,-0.12 1.82,-0.34z" fill="#90caf9"></path><path d="M21.06,16.86c-0.66,-0.61 -1.06,-1.45 -1.06,-2.36c0,-1.69 1.37,-3.1 3.19,-3.43c0.16,-0.03 0.641,-0.07 0.81,-0.07c-1.51,0.18 -2.98,5.57 -2.94,5.86z" fill="#8dd0ca"></path><path d="M27,16c0,0.14 0,0.29 -0.02,0.43c0,0.14 -0.02,0.29 -0.04,0.43c-0.73,0.7 -1.78,1.14 -2.94,1.14c-1.16,0 -2.21,-0.44 -2.94,-1.14c-0.04,-0.29 -0.06,-0.58 -0.06,-0.86c0,-3.28 1.18,-4.8 2.69,-4.98c0.1,-0.02 0.21,-0.02 0.31,-0.02c0.1,0 0.21,0 0.31,0.02c0.28,0.03 0.56,0.11 0.81,0.25c0.08,0.04 0.16,0.09 0.24,0.14c0.08,0.05 0.16,0.11 0.24,0.19c0.07,0.06 0.14,0.12 0.2,0.19c0.23,0.24 0.44,0.54 0.6,0.91c0.05,0.11 0.1,0.22 0.14,0.33c0.05,0.12 0.09,0.24 0.13,0.37c0.04,0.11 0.07,0.23 0.09,0.35c0.04,0.16 0.08,0.32 0.1,0.49c0.04,0.19 0.07,0.4 0.09,0.61c0.03,0.35 0.05,0.74 0.05,1.15z" fill="#80cbc4"></path><path d="M28.98,16.45c-0.25,3.29 -3.59,6.49 -4.66,7.43c-0.09,0.08 -0.2,0.12 -0.32,0.12c0,0 0.98,-1.44 1.82,-3.34c1.72,-0.68 2.98,-2.29 3.16,-4.21z" fill="#9fa8da"></path><path d="M24,24c-0.12,0 -0.23,-0.04 -0.32,-0.12c-1.07,-0.94 -4.41,-4.14 -4.66,-7.43c0.18,1.92 1.44,3.53 3.16,4.21c0.84,1.9 1.82,3.34 1.82,3.34z" fill="#81c784"></path></g></g></g></g>
</svg>