<svg xmlns="http://www.w3.org/2000/svg" width="37" height="37" fill="none" viewBox="0 0 37 37"><path fill="#fff" d="M18.7 36.278c9.941 0 18-8.06 18-18 0-9.941-8.059-18-18-18-9.94 0-18 8.059-18 18 0 9.94 8.06 18 18 18z"/><path fill="#DE5833" d="M18.7 33.623c8.475 0 15.345-6.87 15.345-15.345 0-8.475-6.87-15.345-15.345-15.345-8.474 0-15.345 6.87-15.345 15.345 0 8.475 6.87 15.345 15.346 15.345z"/><path fill="#DE5833" fill-rule="evenodd" d="M.7 18.278c0 9.94 8.06 18 18 18 9.937-.012 17.989-8.064 18-18 0-9.941-8.059-18-18-18-9.94 0-18 8.059-18 18zm1.5 0c0-9.113 7.387-16.5 16.5-16.5 9.109.01 16.49 7.391 16.5 16.5 0 9.112-7.387 16.5-16.5 16.5-9.112 0-16.5-7.388-16.5-16.5z" clip-rule="evenodd"/><path fill="#fff" d="M21.208 9.803a4.64 4.64 0 00-2.4-1.107 5.301 5.301 0 00-1.839-1.464 8.637 8.637 0 00-5.37-.88H11.5c-.219.043-.354.12-.537.15.543.175 1.074.385 1.59.628-.26.099-.618.159-.9.273a1.393 1.393 0 00-.3.087c-.266.178-.433.47-.453.789a13 13 0 014.5.369 7.8 7.8 0 00-2.49.723.601.601 0 00-.075.042 1.75 1.75 0 00-.225.099c-2.052 1.08-2.96 3.6-2.42 6.639.467 2.76 2.51 12.2 3.41 16.623.27.096.546.183.822.26 1.388.401 2.825.603 4.27.6a15.505 15.505 0 003.66-.44c-.628-1.2-1.2-2.304-1.588-3.063-1.2-2.38-2.379-5.733-1.839-7.896.102-.393.102-2.001.43-2.214 2.522-1.647 2.342-.054 3.356-.792.53-.35.926-.87 1.122-1.473.657-2.268-.894-6.222-2.625-7.953z"/><path fill="#D5D7D8" d="M11.5 6.368c-.22.042-.354.12-.537.15.543.174 1.074.384 1.59.627a.902.902 0 00.195-.096c-.288-.042-.948-.651-1.248-.681zm-.276 1.551c0-.255.18-.4.42-.501a1.391 1.391 0 00-.3.087 1.026 1.026 0 00-.444.774 13 13 0 014.5.369l.3-.042a9.018 9.018 0 00-4.476-.687zm1.584 1.494c-.078.027-.153.06-.225.099-2.052 1.08-2.961 3.6-2.421 6.639.495 2.76 2.538 12.2 3.438 16.623.27.096.546.183.822.26-.822-3.974-3.07-14.456-3.597-17.39-.525-2.991-.01-5.136 1.983-6.231z"/><path fill="#fff" d="M14.848 15.122a.3.3 0 100 .6.3.3 0 000-.6zm7.522-.072a.252.252 0 100-.504.252.252 0 000 .504zm-7.704-2.547s-.573-.756-1.752-.273c-1.18.483-.735 1.467-.735 1.467s-.03-.534.8-1.056a1.896 1.896 0 011.687-.138zm7.859-.078a1.272 1.272 0 00-.9-.72c.09.147.177.3.264.453.22.068.433.158.636.267z"/><path fill="#fff" d="M20.183 12.527s.267-.435 1.248-.447c.156.002.31.029.459.078-.087-.156-.174-.3-.264-.453h-.024c-1.254-.213-1.42.822-1.42.822z"/><path fill="url(#paint0_linear)" fill-rule="evenodd" d="M13.291 15.36a1.137 1.137 0 112.1.874 1.137 1.137 0 01-2.1-.875zm1.257.053a.3.3 0 10.6 0 .3.3 0 00-.6 0z" clip-rule="evenodd"/><path fill="url(#paint1_linear)" fill-rule="evenodd" d="M21.023 14.74a.978.978 0 111.799.768.978.978 0 01-1.8-.767zm1.097.053a.252.252 0 00.25.254v.003a.252.252 0 00.254-.255.252.252 0 00-.504-.002z" clip-rule="evenodd"/><path fill="url(#paint2_linear)" d="M14.666 12.503s-.573-.756-1.752-.273c-1.18.483-.735 1.467-.735 1.467s-.03-.534.8-1.056a1.896 1.896 0 011.687-.138z"/><path fill="url(#paint3_linear)" d="M21.89 12.158c.22.069.433.158.636.267a1.272 1.272 0 00-.9-.72h-.024c-1.254-.21-1.42.825-1.42.825s.268-.435 1.249-.447c.155.002.31.027.459.075z"/><path fill="#FDD20A" d="M17.821 20.177c.114-.687 1.89-1.986 3.147-2.067 1.257-.081 1.653-.06 2.7-.3 1.047-.24 3.759-.927 4.5-1.272.741-.345 3.933.17 1.689 1.422-.957.53-3.57 1.518-5.439 2.082-1.869.564-3-.531-3.618.384-.492.732-.099 1.73 2.13 1.938 3 .279 5.898-1.356 6.216-.49.318.868-2.589 1.954-4.359 1.99-1.77.036-5.331-1.17-5.865-1.542-.534-.372-1.251-1.24-1.101-2.145z"/><path fill="#65BC46" d="M24.331 27.08c-.507-.114-2.45 1.257-3.213 1.8a2.907 2.907 0 00-.08-.282c-.124-.3-1.99-.132-2.488.333-1.182-.6-3.6-1.71-3.666-1.017-.072.9 0 4.653.492 4.935.36.204 2.334-.864 3.375-1.458l.1.03c.632.144 1.832 0 2.255-.282a.33.33 0 00.102-.132c.963.372 2.913 1.083 3.333.93.564-.204.423-4.713-.21-4.857z"/><path fill="#43A244" d="M18.16 29.504c0 1.482-.213 2.1.423 2.256.636.156 1.83 0 2.256-.28.426-.278.07-2.183-.072-2.54-.14-.357-2.607-.07-2.607.564z"/><defs><linearGradient id="paint0_linear" x1="13.207" x2="16.324" y1="17.355" y2="17.355" gradientUnits="userSpaceOnUse"><stop offset=".01" stop-color="#6176B9"/><stop offset=".69" stop-color="#394A9F"/></linearGradient><linearGradient id="paint1_linear" x1="20.962" x2="23.641" y1="16.461" y2="16.461" gradientUnits="userSpaceOnUse"><stop offset=".01" stop-color="#6176B9"/><stop offset=".69" stop-color="#394A9F"/></linearGradient><linearGradient id="paint2_linear" x1="12.098" x2="15.623" y1="14.001" y2="14.001" gradientUnits="userSpaceOnUse"><stop offset=".01" stop-color="#6176B9"/><stop offset=".69" stop-color="#394A9F"/></linearGradient><linearGradient id="paint3_linear" x1="20.183" x2="23.396" y1="12.686" y2="12.686" gradientUnits="userSpaceOnUse"><stop offset=".01" stop-color="#6176B9"/><stop offset=".69" stop-color="#394A9F"/></linearGradient></defs></svg>