<svg xmlns="http://www.w3.org/2000/svg" width="242" height="241" fill="none" viewBox="0 0 242 241"><path fill="#fff" fill-rule="evenodd" d="M241.253 120.343h-38.264c-2.001-11.327-12.13-19.944-24.324-19.944s-22.322 8.617-24.324 19.944h-33.362V83.657c-.46.026-.922.04-1.388.04-13.285 0-24.055-10.77-24.055-24.055s10.77-24.055 24.055-24.055c.466 0 .928.013 1.388.04V.068h102.233c9.963 0 18.041 8.077 18.041 18.041v102.233z" clip-rule="evenodd"/><path fill="#C5C9DE" fill-rule="evenodd" d="M175.896 68.796c-12.272 0-22.22-9.95-22.22-22.222 0-12.27 9.949-22.219 22.22-22.219 12.271 0 22.22 9.949 22.22 22.22a22.142 22.142 0 01-5.651 14.806l16.039 14.663a2.223 2.223 0 01-2.999 3.28l-16.331-14.93a22.122 22.122 0 01-13.278 4.402zm12.152-9.246a2.233 2.233 0 00-.564.506 17.707 17.707 0 01-11.587 4.296c-9.818 0-17.777-7.96-17.777-17.778 0-9.816 7.96-17.775 17.777-17.775 9.816 0 17.776 7.96 17.776 17.775a17.73 17.73 0 01-5.625 12.976z" clip-rule="evenodd"/><path fill="#A78AFF" fill-rule="evenodd" d="M120.979 204.723v35.33H84.722c0-13.285-10.822-24.055-24.171-24.055-13.35 0-24.172 10.77-24.172 24.055H18.742C8.778 240.053.7 231.976.7 222.012V119.779h35.678c0 13.285 10.822 24.055 24.172 24.055 13.349 0 24.17-10.77 24.17-24.055h36.258v35.331c13.7 0 24.806 11.106 24.806 24.806 0 13.7-11.106 24.807-24.806 24.807z" clip-rule="evenodd"/><path fill="#F1ECFF" fill-rule="evenodd" d="M36.035 119.786H.7V83.704c13.285 0 24.054-10.77 24.054-24.055S13.985 35.595.701 35.595V18.128C.7 8.164 8.778.087 18.74.087h102.234v35.508c-13.285 0-24.055 10.77-24.055 24.054 0 13.285 10.77 24.055 24.055 24.055v36.082H85.641c-.214 13.515-11.237 24.405-24.803 24.405s-24.589-10.89-24.803-24.405z" clip-rule="evenodd"/><mask id="a" fill="#fff"><path fill-rule="evenodd" d="M154.737 119.775c.198-13.114 10.891-23.684 24.052-23.684 13.162 0 23.854 10.57 24.052 23.684h38.408v36.256c-13.285.001-24.055 10.822-24.055 24.171 0 13.35 10.77 24.171 24.055 24.171v17.639c0 9.964-8.078 18.041-18.041 18.041H120.975v-35.68c13.285 0 24.055-10.821 24.055-24.171 0-13.349-10.77-24.171-24.055-24.171v-36.256h33.762z" clip-rule="evenodd"/></mask><path fill="#EDF0F3" d="M154.737 119.775v4h3.94l.06-3.94-4-.06zm48.104 0l-3.999.06.059 3.94h3.94v-4zm38.408 0h4v-4h-4v4zm0 36.256v4h4v-4h-4zm0 48.342h4v-3.999l-4-.001v4zm-120.274 35.68h-4v4h4v-4zm0-35.68v-4h-4v4h4zm0-48.342h-4v4h4v-4zm0-36.256v-4h-4v4h4zm37.762.06c.165-10.932 9.08-19.744 20.052-19.744v-8c-15.35 0-27.82 12.327-28.051 27.623l7.999.121zm20.052-19.744c10.973 0 19.888 8.812 20.053 19.744l7.999-.121c-.231-15.296-12.702-27.623-28.052-27.623v8zm24.052 23.684h38.408v-8h-38.408v8zm34.408-4v36.256h8v-36.256h-8zm4 32.256c-15.513.001-28.055 12.631-28.055 28.171h8c0-11.158 8.997-20.17 20.055-20.171v-8zm-28.055 28.171c0 15.54 12.542 28.171 28.055 28.171v-8c-11.058 0-20.055-9.012-20.055-20.171h-8zm24.055 24.171v17.639h8v-17.639h-8zm0 17.639c0 7.755-6.287 14.041-14.041 14.041v8c12.173 0 22.041-9.868 22.041-22.041h-8zm-14.041 14.041H120.975v8h102.233v-8zm-98.233 4v-35.68h-8v35.68h8zm-4-31.68v-8 8zm0 0c15.512 0 28.055-12.63 28.055-28.171h-8c0 11.159-8.997 20.171-20.055 20.171v8zm28.055-28.171c0-15.54-12.543-28.171-28.055-28.171v8c11.058 0 20.055 9.013 20.055 20.171h8zm-28.055-28.171v8-8zm4 4v-36.256h-8v36.256h8zm-4-32.256h33.762v-8h-33.762v8z" mask="url(#a)"/></svg>