<svg width="369" height="335" viewBox="0 0 369 335" fill="none" xmlns="http://www.w3.org/2000/svg"><path d="M96.766 153.219a26.955 26.955 0 0126.818-29.829h100.979a26.891 26.891 0 0125.624 18.667 26.883 26.883 0 011.126 11.162l-16.693 156.6a26.954 26.954 0 01-26.818 24.15h-67.525a26.957 26.957 0 01-26.818-24.15l-16.693-156.6z" fill="#E9ECEF"/><path fill-rule="evenodd" clip-rule="evenodd" d="M103.568 152.49l16.695 156.617a20.114 20.114 0 0020.012 18.021h67.529a20.12 20.12 0 0020.012-18.021l.001-.013 16.694-156.612.002-.012a20.047 20.047 0 00-19.944-22.238H123.58a20.117 20.117 0 00-19.151 13.925 20.124 20.124 0 00-.861 8.333zm104.234 181.479a26.957 26.957 0 0026.818-24.15l16.693-156.6a26.883 26.883 0 00-15.776-27.498 26.895 26.895 0 00-10.974-2.331H123.584a26.965 26.965 0 00-20.062 8.934 26.959 26.959 0 00-6.756 20.895l16.693 156.6a26.957 26.957 0 0026.818 24.15h67.525z" fill="#E9ECEF"/><path d="M175.236 144.191h47.069s-17.172-15.393-21.824-29.145a116.836 116.836 0 01-3.763-29.144h-46.042a118.451 118.451 0 01-6.842 29.144 188.241 188.241 0 01-18.745 29.145h43.58l3.284 2.326 3.283-2.326z" fill="#E9ECEF"/><path fill-rule="evenodd" clip-rule="evenodd" d="M173.059 137.349h33.274c-4.632-5.518-9.852-12.778-12.332-20.11l-.079-.232-.062-.238a123.63 123.63 0 01-3.779-24.026h-33.393a125.423 125.423 0 01-6.444 24.696l-.146.392-.193.371a195.037 195.037 0 01-11.388 19.147h32.329l1.106.784 1.107-.784zm-1.106 9.168l-3.284-2.326h-43.58a188.319 188.319 0 0018.745-29.145 118.451 118.451 0 006.842-29.144h46.042a116.836 116.836 0 003.763 29.144c2.705 7.996 9.643 16.546 14.976 22.303 3.84 4.145 6.848 6.842 6.848 6.842h-47.069l-3.283 2.326z" fill="#E9ECEF"/><path d="M173.716 105.809c-22.234 0-42.758-36.67-42.758-58.63a42.674 42.674 0 0111.871-31.286 42.695 42.695 0 0147.516-9.699 42.695 42.695 0 0125.925 40.984c.068 21.961-20.251 58.631-42.554 58.631z" fill="#E9ECEF"/><path fill-rule="evenodd" clip-rule="evenodd" d="M137.799 47.041v.137c0 9.263 4.498 22.62 11.899 33.766 7.62 11.476 16.525 18.023 24.018 18.023 7.522 0 16.393-6.542 23.956-18.006 7.348-11.137 11.785-24.493 11.757-33.762l-.001-.147.006-.148a35.854 35.854 0 00-9.969-26.271A35.841 35.841 0 00173.614 9.62a35.85 35.85 0 00-35.821 37.284l.006.137zm78.471.137a42.693 42.693 0 00-59.387-40.984 42.695 42.695 0 00-25.925 40.984c0 21.961 20.524 58.631 42.758 58.631 22.303 0 42.622-36.67 42.554-58.63z" fill="#E9ECEF"/><path d="M298.382 247.357a21.208 21.208 0 00-2.531-31.128l-.958-.753a21.21 21.21 0 00-30.923 5.405l-36.465 57.673a15.528 15.528 0 003.493 20.871 15.535 15.535 0 0021.068-1.989l46.316-50.079z" fill="#E9ECEF"/><path fill-rule="evenodd" clip-rule="evenodd" d="M293.36 242.712a14.367 14.367 0 00-1.715-21.087l-.011-.009-.936-.736-.015-.011a14.378 14.378 0 00-5.331-2.584 14.38 14.38 0 00-11.454 2.002 14.378 14.378 0 00-4.148 4.254l-36.499 57.726-.037.057a8.689 8.689 0 0013.741 10.564l.043-.049 46.362-50.127zm-29.39-21.831a21.205 21.205 0 0130.923-5.405l.958.753a21.212 21.212 0 012.531 31.128l-46.316 50.079a15.532 15.532 0 01-26.919-7.76 15.528 15.528 0 012.358-11.122l36.465-57.673z" fill="#E9ECEF"/><path fill-rule="evenodd" clip-rule="evenodd" d="M219.495 308.724a6.294 6.294 0 01-2.394-5.61 5.272 5.272 0 01-4.898-2.893 5.272 5.272 0 01.588-5.659l8.483-10.878a15.878 15.878 0 0124.629 20.046 15.735 15.735 0 01-7.799 5.404v.411a6.299 6.299 0 01-8.826 1.095 5.895 5.895 0 01-1.71-1.984 6.16 6.16 0 01-8.073.068z" fill="#E9ECEF"/><path fill-rule="evenodd" clip-rule="evenodd" d="M223.8 303.429a.534.534 0 01.065.114l.016.042-.389.455-3.997 4.684 4.163-5.347a.71.71 0 01.142.052zm1.219 6.576a6.153 6.153 0 01-5.524-1.281 6.294 6.294 0 01-2.394-5.61 5.298 5.298 0 01-1.455-.149 5.264 5.264 0 01-3.979-5.66 5.261 5.261 0 011.124-2.743l8.483-10.878a15.878 15.878 0 0124.629 20.046 15.735 15.735 0 01-7.799 5.404v.411a6.293 6.293 0 01-8.826 1.095 5.895 5.895 0 01-1.71-1.984 6.154 6.154 0 01-2.549 1.349zm7.643-6.349l-3.112-5.878-5.525 4.879.686-6.669-4.485.165 6.393-8.197a9.034 9.034 0 0115.959 4.829 9.038 9.038 0 01-1.981 6.626l-.053.066-.052.066a8.887 8.887 0 01-4.408 3.055l-3.422 1.058z" fill="#E9ECEF"/><path d="M229.689 149.182l47.137 79.497-47.137-79.497z" fill="#E9ECEF"/><path fill-rule="evenodd" clip-rule="evenodd" d="M216.081 126.232c12.675-7.516 29.043-3.333 36.558 9.342l47.138 79.497c7.515 12.675 3.333 29.043-9.343 36.559-12.675 7.515-29.042 3.333-36.558-9.342l-47.137-79.497c-7.516-12.676-3.334-29.043 9.342-36.559z" fill="#E9ECEF"/><path d="M64.945 211.848a20.525 20.525 0 0118.471-22.987h2.053a20.525 20.525 0 0121.755 20.524v95.027a14.501 14.501 0 01-23.65 11.253 14.503 14.503 0 01-5.22-9.269l-13.41-94.548z" fill="#E9ECEF"/><path fill-rule="evenodd" clip-rule="evenodd" d="M85.469 188.861h-2.053a20.533 20.533 0 00-14.105 7.58 20.537 20.537 0 00-4.367 15.407l13.41 94.548a14.503 14.503 0 0028.87-1.984v-95.027a20.516 20.516 0 00-6.44-14.966 20.52 20.52 0 00-15.315-5.558zm-13.742 22.087l13.402 94.499.001.012a7.665 7.665 0 008.116 6.594 7.664 7.664 0 007.137-7.641v-95.039a13.693 13.693 0 00-4.293-9.978 13.691 13.691 0 00-10.21-3.705l-.206.012h-1.91a13.674 13.674 0 00-11.62 9.865 13.683 13.683 0 00-.417 5.381z" fill="#E9ECEF"/><path fill-rule="evenodd" clip-rule="evenodd" d="M95.936 329.114a5.88 5.88 0 004.242-2.189 4.863 4.863 0 003.968 1.505 5.062 5.062 0 004.652-5.405l-1.095-14.709a15.15 15.15 0 10-30.17 2.805 14.64 14.64 0 003.352 8.415v.547a6.02 6.02 0 006.431 5.542 6.863 6.863 0 002.326-.684 5.884 5.884 0 006.294 4.173z" fill="#E9ECEF"/><path fill-rule="evenodd" clip-rule="evenodd" d="M99.764 316.515l1.834 1.944-.712-9.563a8.306 8.306 0 00-14.662-4.484 8.31 8.31 0 00-1.88 6.076l.01.095.006.096a7.799 7.799 0 001.786 4.483l1.58 1.901v1.186l6.152-3.08 1.88 6.333 4.006-4.987zm-4.408 5.797a.931.931 0 01.182.032l.053.896.345 5.874-.753-6.74a.968.968 0 01.173-.062zm3.645 5.723a5.88 5.88 0 01-3.065 1.079 5.885 5.885 0 01-6.294-4.173 6.846 6.846 0 01-2.292.68l-.034.004a6.019 6.019 0 01-6.43-5.542v-.547a14.64 14.64 0 01-3.353-8.415 15.15 15.15 0 1130.17-2.805l1.095 14.709a5.062 5.062 0 01-4.652 5.405 4.863 4.863 0 01-3.968-1.505c-.34.423-.737.797-1.177 1.11z" fill="#E9ECEF"/><path d="M117.28 147.064l-23.876 61.573 23.876-61.573z" fill="#E9ECEF"/><path fill-rule="evenodd" clip-rule="evenodd" d="M126.927 122.188c13.739 5.327 20.558 20.784 15.23 34.523l-23.876 61.573c-5.328 13.739-20.785 20.557-34.524 15.23-13.739-5.328-20.557-20.785-15.23-34.524l23.877-61.572c5.328-13.739 20.784-20.558 34.523-15.23z" fill="#E9ECEF"/><path d="M204.577 123.39l-32.565 23.124 17.993 20.525 26.048-43.649h-11.476z" fill="#E9ECEF"/><path fill-rule="evenodd" clip-rule="evenodd" d="M172.012 146.514l17.993 20.525 26.048-43.649h-11.476l-32.565 23.124zm10.141 1.19l6.796 7.753 13.027-21.829-19.823 14.076z" fill="#E9ECEF"/><path d="M139.448 123.39l32.565 23.124-18.062 20.525-24.184-43.649h9.681z" fill="#E9ECEF"/><path fill-rule="evenodd" clip-rule="evenodd" d="M129.767 123.39h9.681l32.565 23.124-18.062 20.525-24.184-43.649zm25.463 31.84l6.63-7.534-17.813-12.649 11.183 20.183zm-12.7-143.423A34.207 34.207 0 01164.286 1.75a44.265 44.265 0 0118.472 0 41.053 41.053 0 0120.524 10.057c1.026.821 2.12 1.573 3.215 2.326a13.68 13.68 0 015.131 4.79 18.82 18.82 0 015.337 8.893c.975 3.224.681 6.7-.821 9.715a11.612 11.612 0 00-1.095 3.9c-3.079.957-7.32-3.558-9.373-10.057a17.973 17.973 0 01-.821-3.695 62.18 62.18 0 01-6.841 1.232h-1.847a21.62 21.62 0 01-10.057-1.164 27.783 27.783 0 00-8.689-1.505 34.752 34.752 0 00-10.125 2.121 32.09 32.09 0 01-10.331 2.121h-5.062a42.966 42.966 0 01-9.92 0c.03.319.03.64 0 .958-2.053 6.841-6.226 11.014-9.373 10.057a11.488 11.488 0 00-1.095-4.037 12.866 12.866 0 01-.821-9.578 18.82 18.82 0 015.337-8.893 35.56 35.56 0 014.994-6.09l1.505-1.094z" fill="#E9ECEF"/><path fill-rule="evenodd" clip-rule="evenodd" d="M147.003 17.013l-1.533 1.115a28.738 28.738 0 00-3.702 4.59l-.456.701-.095.089 1.555.18c2.771.322 5.57.322 8.341 0l.393-.045h5.324a25.24 25.24 0 008.007-1.664l.038-.015.037-.013a41.599 41.599 0 0112.119-2.539l.236-.013.237.002a34.63 34.63 0 0110.829 1.876l.066.023.066.024a14.776 14.776 0 006.874.795l.413-.05h1.831a55.397 55.397 0 005.686-1.045l.967-.23a6.831 6.831 0 00-.968-.63l-.334-.179-.391-.268c-1.044-.718-2.313-1.59-3.535-2.568l-.168-.134-.16-.145a34.21 34.21 0 00-17.103-8.381l-.124-.022-.123-.026a37.423 37.423 0 00-15.617 0l-.453.097-.461.034a27.368 27.368 0 00-17.405 8.046l-.391.395zm65.595 24.175c.855.381 1.688.48 2.451.242a11.612 11.612 0 011.095-3.9 13.212 13.212 0 00.821-9.714 18.82 18.82 0 00-5.337-8.894 13.68 13.68 0 00-5.131-4.789c-1.095-.752-2.189-1.505-3.215-2.326A41.053 41.053 0 00182.758 1.75a44.265 44.265 0 00-18.472 0 34.207 34.207 0 00-21.756 10.057l-1.505 1.095a35.56 35.56 0 00-4.994 6.089 18.82 18.82 0 00-5.337 8.893 12.866 12.866 0 00.821 9.578 11.49 11.49 0 011.095 4.037c.787.24 1.638.158 2.504-.206 1.291-.542 2.615-1.71 3.809-3.38 1.119-1.563 2.125-3.566 2.882-5.903a27.1 27.1 0 00.178-.568c.03-.319.03-.64 0-.958a42.957 42.957 0 009.92 0h5.062a32.09 32.09 0 0010.331-2.12 34.752 34.752 0 0110.125-2.122c2.958.036 5.891.544 8.689 1.505a21.62 21.62 0 0010.057 1.164h1.847l.098-.013a62.15 62.15 0 006.743-1.219c.143 1.257.418 2.495.821 3.695.069.218.141.434.215.649.763 2.211 1.777 4.169 2.902 5.726 1.2 1.662 2.526 2.868 3.805 3.439z" fill="#E9ECEF"/><g filter="url(#filter0_d)"><rect x="8.403" y="131.969" width="172" height="54" rx="8" fill="#fff"/></g><path fill-rule="evenodd" clip-rule="evenodd" d="M35.093 166.169c-5.302 0-9.6-4.298-9.6-9.601 0-5.301 4.299-9.599 9.6-9.599 5.302 0 9.6 4.298 9.6 9.599a9.568 9.568 0 01-2.441 6.398l6.929 6.334a.96.96 0 01-1.296 1.417l-7.055-6.45a9.554 9.554 0 01-5.737 1.902zm5.25-3.994a.97.97 0 00-.243.217 7.68 7.68 0 11.242-.217z" fill="#AEB1C2"/><rect x="8.403" y="193.969" width="172" height="140" rx="4" fill="#F8F9FA"/><rect x="25.403" y="207.224" width="8" height="8" rx="4" fill="#CED4DA"/><rect x="25.403" y="219.52" width="48" height="8" rx="4" fill="#E9ECEF"/><rect x="77.249" y="219.52" width="24" height="8" rx="4" fill="#E9ECEF"/><rect x="25.403" y="235.599" width="32" height="8" rx="4" fill="#E9ECEF"/><rect x="25.403" y="247.895" width="32" height="8" rx="4" fill="#E9ECEF"/><rect x="61.249" y="235.599" width="32" height="8" rx="4" fill="#E9ECEF"/><rect x="97.095" y="235.599" width="48" height="8" rx="4" fill="#E9ECEF"/><rect x="61.249" y="247.895" width="48" height="8" rx="4" fill="#E9ECEF"/><rect x="113.095" y="247.895" width="48" height="8" rx="4" fill="#E9ECEF"/><rect x="105.095" y="219.52" width="24" height="8" rx="4" fill="#E9ECEF"/><rect x="132.94" y="219.52" width="24" height="8" rx="4" fill="#E9ECEF"/><rect x="37.249" y="207.224" width="32" height="8" rx="4" fill="#CED4DA"/><rect x="25.403" y="272.043" width="8" height="8" rx="4" fill="#CED4DA"/><rect x="25.403" y="284.338" width="48" height="8" rx="4" fill="#E9ECEF"/><rect x="77.249" y="284.338" width="24" height="8" rx="4" fill="#E9ECEF"/><rect x="25.403" y="300.418" width="32" height="8" rx="4" fill="#E9ECEF"/><rect x="25.403" y="312.714" width="32" height="8" rx="4" fill="#E9ECEF"/><rect x="61.249" y="300.418" width="32" height="8" rx="4" fill="#E9ECEF"/><rect x="97.095" y="300.418" width="48" height="8" rx="4" fill="#E9ECEF"/><rect x="61.249" y="312.714" width="48" height="8" rx="4" fill="#E9ECEF"/><rect x="113.095" y="312.714" width="48" height="8" rx="4" fill="#E9ECEF"/><rect x="105.095" y="284.338" width="24" height="8" rx="4" fill="#E9ECEF"/><rect x="132.94" y="284.338" width="24" height="8" rx="4" fill="#E9ECEF"/><rect x="37.249" y="272.043" width="32" height="8" rx="4" fill="#CED4DA"/><g filter="url(#filter1_d)"><rect x="74.095" y="146.895" width="94" height="105" rx="4" fill="#fff"/></g><rect x="83.939" y="217.339" width="32" height="8" rx="4" fill="#E9ECEF"/><rect x="121.095" y="217.339" width="16" height="8" rx="4" fill="#E9ECEF"/><rect x="142.251" y="217.339" width="16" height="8" rx="4" fill="#E9ECEF"/><rect x="83.939" y="205.093" width="32" height="8" rx="4" fill="#CED4DA"/><path d="M83.939 159.643a4 4 0 014-4h66.311a4 4 0 014 4v37.204a4 4 0 01-4 4H87.939a4 4 0 01-4-4v-37.204z" fill="#E9ECEF"/><circle cx="92.786" cy="171.2" r="1.1" stroke="#A78AFF" stroke-width=".8"/><path d="M107.232 177.217a.3.3 0 00.057-.407l-1.279-1.741 1.7-1.289a.302.302 0 00.057-.408.31.31 0 00-.197-.115.302.302 0 00-.22.052l-1.7 1.289-1.279-1.741a.295.295 0 00-.188-.113.29.29 0 00-.212.052.298.298 0 00-.107.184.353.353 0 00.05.224l1.279 1.741-1.7 1.289a.343.343 0 00-.109.199.3.3 0 00.052.208.29.29 0 00.401.061l1.7-1.289 1.279 1.741a.307.307 0 00.416.063z" fill="#A78AFF"/><mask id="a" fill="#fff"><path d="M143.971 167.603a.274.274 0 00-.22-.033.278.278 0 00-.175.137l-1.049 1.755-1.773-1.018a.292.292 0 00-.204-.005.292.292 0 00-.194.325c.013.068.05.129.104.171l1.774 1.018-1.049 1.755a.271.271 0 00.102.389c.032.02.068.034.106.039a.27.27 0 00.113-.006.27.27 0 00.102-.05.269.269 0 00.074-.087l1.048-1.755 1.773 1.018c.033.02.069.034.106.04a.28.28 0 00.289-.143.29.29 0 00.042-.105.264.264 0 00-.056-.212.26.26 0 00-.087-.071l-1.773-1.018 1.048-1.756a.26.26 0 00.041-.104.249.249 0 00-.005-.112.275.275 0 00-.137-.172z"/></mask><path d="M143.971 167.603l-.535.845.037.023.038.02.46-.888zm-.395.104l.858.512.011-.018.011-.019-.88-.475zm-1.049 1.755l-.498.867.853.489.504-.843-.859-.513zm-1.773-1.018l.498-.867-.062-.036-.065-.026-.371.929zm-.294.491l-.615.788.056.044.062.036.497-.868zm1.774 1.018l.858.513.522-.874-.883-.506-.497.867zm-1.049 1.755l.836.55.012-.018.011-.019-.859-.513zm.102.389l.534-.845-.036-.023-.038-.02-.46.888zm.219.033l.253.968-.253-.968zm.176-.137l-.859-.512-.011.018-.01.019.88.475zm1.048-1.755l.498-.867-.852-.489-.504.843.858.513zm1.773 1.018l.535-.845-.018-.012-.019-.01-.498.867zm.395-.103l-.835-.549-.024.036-.02.037.879.476zm-.101-.388l-.498.867.019.011.019.009.46-.887zm-1.773-1.018l-.859-.513-.522.873.883.507.498-.867zm1.048-1.756l-.835-.549-.012.018-.011.019.858.512zm.434-1.233a1.301 1.301 0 00-.49-.183l-.303 1.977a.724.724 0 01-.277-.104l1.07-1.69zm-.49-.183a1.292 1.292 0 00-.518.027l.506 1.935a.714.714 0 01-.291.015l.303-1.977zm-.518.027a1.275 1.275 0 00-.465.23l1.232 1.576a.725.725 0 01-.261.129l-.506-1.935zm-.465.23a1.284 1.284 0 00-.337.399l1.76.951a.731.731 0 01-.191.226l-1.232-1.576zm-.316.362l-1.048 1.755 1.717 1.026 1.048-1.756-1.717-1.025zm.308 1.4l-1.773-1.017-.996 1.734 1.773 1.018.996-1.735zm-1.9-1.079a1.297 1.297 0 00-.894-.024l.639 1.895a.707.707 0 01-.486-.013l.741-1.858zm-.894-.024c-.29.098-.539.296-.698.562l1.717 1.026a.706.706 0 01-.38.307l-.639-1.895zm-.698.562a1.283 1.283 0 00-.16.893l1.966-.365a.712.712 0 01-.089.498l-1.717-1.026zm-.16.893c.057.31.226.585.472.777l1.231-1.576a.72.72 0 01.263.434l-1.966.365zm.59.857l1.773 1.017.995-1.734-1.773-1.018-.995 1.735zm1.412-.363l-1.048 1.756 1.717 1.025 1.048-1.755-1.717-1.026zm-1.026 1.719a1.284 1.284 0 00-.191.49l1.972.329a.716.716 0 01-.109.28l-1.672-1.099zm-.191.49a1.26 1.26 0 00.023.529l1.936-.506c.026.101.03.205.013.306l-1.972-.329zm.023.529c.046.173.127.334.238.473l1.56-1.252a.75.75 0 01.138.273l-1.936.506zm.238.473c.112.139.251.252.407.334l.921-1.776a.732.732 0 01.232.19l-1.56 1.252zm.333.291c.149.094.316.156.489.183l.303-1.977c.098.015.192.05.277.104l-1.069 1.69zm.489.183c.173.026.349.017.518-.027l-.505-1.935a.708.708 0 01.29-.015l-.303 1.977zm.518-.027c.169-.044.327-.122.465-.23l-1.231-1.576a.71.71 0 01.261-.129l.505 1.935zm.465-.23c.138-.108.253-.244.337-.399l-1.759-.951a.72.72 0 01.191-.226l1.231 1.576zm.316-.362l1.049-1.755-1.717-1.026-1.049 1.756 1.717 1.025zm-.308-1.401l1.774 1.018.995-1.734-1.773-1.018-.996 1.734zm1.737.996c.149.095.316.157.489.183l.303-1.977c.098.015.192.05.277.104l-1.069 1.69zm.489.183c.173.027.349.017.518-.027l-.506-1.935a.732.732 0 01.291-.015l-.303 1.977zm.518-.027c.169-.044.327-.122.465-.23l-1.232-1.576a.742.742 0 01.261-.129l.506 1.935zm.465-.23c.138-.108.253-.243.337-.399l-1.759-.951a.742.742 0 01.19-.226l1.232 1.576zm.293-.325c.097-.147.163-.314.192-.49l-1.973-.328a.727.727 0 01.11-.28l1.671 1.098zm.192-.49a1.277 1.277 0 00-.024-.529l-1.935.506a.73.73 0 01-.014-.305l1.973.328zm-.024-.529a1.258 1.258 0 00-.238-.473l-1.56 1.252a.732.732 0 01-.137-.273l1.935-.506zm-.238-.473a1.26 1.26 0 00-.407-.333l-.92 1.775a.723.723 0 01-.233-.19l1.56-1.252zm-.369-.313l-1.773-1.018-.996 1.735 1.773 1.018.996-1.735zm-1.413.363l1.049-1.756-1.717-1.025-1.049 1.755 1.717 1.026zm1.026-1.719a1.27 1.27 0 00.192-.49l-1.973-.329a.733.733 0 01.11-.28l1.671 1.099zm.192-.49a1.276 1.276 0 00-.024-.529l-1.935.506a.736.736 0 01-.014-.306l1.973.329zm-.024-.529a1.273 1.273 0 00-.238-.473l-1.56 1.251a.72.72 0 01-.137-.272l1.935-.506zm-.238-.473a1.275 1.275 0 00-.407-.334l-.92 1.776a.726.726 0 01-.233-.191l1.56-1.251z" fill="#A78AFF" mask="url(#a)"/><circle cx="118.368" cy="162.409" r="1.1" stroke="#A78AFF" stroke-width=".8"/><circle cx="145.765" cy="191.772" r="1.1" stroke="#A78AFF" stroke-width=".8"/><path fill="#D9CDFF" d="M115.024 178.155h25.754v22.691h-25.754z"/><path fill="#A78AFF" d="M113.552 176.385h28.699v4.361h-28.699z"/><path fill="#F1ECFF" d="M101.429 184.847h23.665v16h-23.665z"/><path fill="#A78AFF" d="M100.075 183.224h26.371v4h-26.371z"/><g filter="url(#filter2_b)"><circle cx="94" cy="105.431" r="20" fill="#D5F5DA"/></g><path fill-rule="evenodd" clip-rule="evenodd" d="M94 113.431c-4.411 0-8-3.589-8-8s3.589-8 8-8 8 3.589 8 8-3.589 8-8 8zm0-14.667a6.674 6.674 0 00-6.667 6.667A6.675 6.675 0 0094 112.098a6.675 6.675 0 006.667-6.667A6.674 6.674 0 0094 98.764zm-.165 9.772a.663.663 0 01-.918.082l-3.334-2.666a.668.668 0 01.833-1.042l2.835 2.268 4.248-4.852a.666.666 0 111.002.877l-4.666 5.333z" fill="#12A378"/><g filter="url(#filter3_d)"><rect x="188.403" y="131.969" width="172" height="54" rx="8" fill="#fff"/></g><path fill-rule="evenodd" clip-rule="evenodd" d="M215.093 166.169c-5.302 0-9.6-4.298-9.6-9.601 0-5.301 4.299-9.599 9.6-9.599 5.302 0 9.6 4.298 9.6 9.599a9.565 9.565 0 01-2.442 6.398l6.93 6.334a.96.96 0 01-1.296 1.417l-7.055-6.45a9.556 9.556 0 01-5.737 1.902zm5.249-3.994a.96.96 0 00-.242.217 7.68 7.68 0 11.242-.217z" fill="#AEB1C2"/><rect x="188.403" y="193.969" width="172" height="140" rx="4" fill="#F8F9FA"/><rect x="205.403" y="207.224" width="8" height="8" rx="4" fill="#CED4DA"/><rect x="205.403" y="219.52" width="48" height="8" rx="4" fill="#E9ECEF"/><rect x="257.249" y="219.52" width="24" height="8" rx="4" fill="#E9ECEF"/><rect x="205.403" y="235.599" width="32" height="8" rx="4" fill="#E9ECEF"/><rect x="205.403" y="247.895" width="32" height="8" rx="4" fill="#E9ECEF"/><rect x="241.249" y="235.599" width="32" height="8" rx="4" fill="#E9ECEF"/><rect x="277.095" y="235.599" width="48" height="8" rx="4" fill="#E9ECEF"/><rect x="241.249" y="247.895" width="48" height="8" rx="4" fill="#E9ECEF"/><rect x="293.095" y="247.895" width="48" height="8" rx="4" fill="#E9ECEF"/><rect x="285.095" y="219.52" width="24" height="8" rx="4" fill="#E9ECEF"/><rect x="312.94" y="219.52" width="24" height="8" rx="4" fill="#E9ECEF"/><rect x="217.249" y="207.224" width="32" height="8" rx="4" fill="#CED4DA"/><rect x="205.403" y="272.043" width="8" height="8" rx="4" fill="#CED4DA"/><rect x="205.403" y="284.338" width="48" height="8" rx="4" fill="#E9ECEF"/><rect x="257.249" y="284.338" width="24" height="8" rx="4" fill="#E9ECEF"/><rect x="205.403" y="300.418" width="32" height="8" rx="4" fill="#E9ECEF"/><rect x="205.403" y="312.714" width="32" height="8" rx="4" fill="#E9ECEF"/><rect x="241.249" y="300.418" width="32" height="8" rx="4" fill="#E9ECEF"/><rect x="277.095" y="300.418" width="48" height="8" rx="4" fill="#E9ECEF"/><rect x="241.249" y="312.714" width="48" height="8" rx="4" fill="#E9ECEF"/><rect x="293.095" y="312.714" width="48" height="8" rx="4" fill="#E9ECEF"/><rect x="285.095" y="284.338" width="24" height="8" rx="4" fill="#E9ECEF"/><rect x="312.94" y="284.338" width="24" height="8" rx="4" fill="#E9ECEF"/><rect x="217.249" y="272.043" width="32" height="8" rx="4" fill="#CED4DA"/><g filter="url(#filter4_b)"><circle cx="274.403" cy="105.431" r="20" fill="#D9CDFF" fill-opacity=".24"/></g><path fill-rule="evenodd" clip-rule="evenodd" d="M274.403 113.431c-4.411 0-8-3.589-8-8s3.589-8 8-8c4.412 0 8 3.589 8 8s-3.588 8-8 8zm-6.666-8a6.674 6.674 0 006.666 6.667 6.638 6.638 0 004.217-1.508l-9.375-9.376a6.633 6.633 0 00-1.508 4.217zm6.666-6.667a6.634 6.634 0 00-4.216 1.508l9.375 9.375a6.638 6.638 0 001.508-4.216 6.674 6.674 0 00-6.667-6.667z" fill="#A78AFF"/><defs><filter id="filter0_d" x=".403" y="123.969" width="188" height="70" filterUnits="userSpaceOnUse" color-interpolation-filters="sRGB"><feFlood flood-opacity="0" result="BackgroundImageFix"/><feColorMatrix in="SourceAlpha" values="0 0 0 0 0 0 0 0 0 0 0 0 0 0 0 0 0 0 127 0"/><feOffset/><feGaussianBlur stdDeviation="4"/><feColorMatrix values="0 0 0 0 0.682353 0 0 0 0 0.694118 0 0 0 0 0.760784 0 0 0 0.16 0"/><feBlend in2="BackgroundImageFix" result="effect1_dropShadow"/><feBlend in="SourceGraphic" in2="effect1_dropShadow" result="shape"/></filter><filter id="filter1_d" x="58.095" y="130.895" width="126" height="137" filterUnits="userSpaceOnUse" color-interpolation-filters="sRGB"><feFlood flood-opacity="0" result="BackgroundImageFix"/><feColorMatrix in="SourceAlpha" values="0 0 0 0 0 0 0 0 0 0 0 0 0 0 0 0 0 0 127 0"/><feOffset/><feGaussianBlur stdDeviation="8"/><feColorMatrix values="0 0 0 0 0.52549 0 0 0 0 0.556863 0 0 0 0 0.588235 0 0 0 0.16 0"/><feBlend in2="BackgroundImageFix" result="effect1_dropShadow"/><feBlend in="SourceGraphic" in2="effect1_dropShadow" result="shape"/></filter><filter id="filter2_b" x="66" y="77.431" width="56" height="56" filterUnits="userSpaceOnUse" color-interpolation-filters="sRGB"><feFlood flood-opacity="0" result="BackgroundImageFix"/><feGaussianBlur in="BackgroundImage" stdDeviation="4"/><feComposite in2="SourceAlpha" operator="in" result="effect1_backgroundBlur"/><feBlend in="SourceGraphic" in2="effect1_backgroundBlur" result="shape"/></filter><filter id="filter3_d" x="180.403" y="123.969" width="188" height="70" filterUnits="userSpaceOnUse" color-interpolation-filters="sRGB"><feFlood flood-opacity="0" result="BackgroundImageFix"/><feColorMatrix in="SourceAlpha" values="0 0 0 0 0 0 0 0 0 0 0 0 0 0 0 0 0 0 127 0"/><feOffset/><feGaussianBlur stdDeviation="4"/><feColorMatrix values="0 0 0 0 0.682353 0 0 0 0 0.694118 0 0 0 0 0.760784 0 0 0 0.16 0"/><feBlend in2="BackgroundImageFix" result="effect1_dropShadow"/><feBlend in="SourceGraphic" in2="effect1_dropShadow" result="shape"/></filter><filter id="filter4_b" x="246.403" y="77.431" width="56" height="56" filterUnits="userSpaceOnUse" color-interpolation-filters="sRGB"><feFlood flood-opacity="0" result="BackgroundImageFix"/><feGaussianBlur in="BackgroundImage" stdDeviation="4"/><feComposite in2="SourceAlpha" operator="in" result="effect1_backgroundBlur"/><feBlend in="SourceGraphic" in2="effect1_backgroundBlur" result="shape"/></filter></defs></svg>