<svg width="434" height="429" viewBox="0 0 434 429" fill="none" xmlns="http://www.w3.org/2000/svg"><g filter="url(#filter0_d)"><rect x="8.563" y="8.706" width="335" height="82.982" rx="12.294" fill="#fff"/></g><path fill-rule="evenodd" clip-rule="evenodd" d="M49.578 61.392c-8.148 0-14.753-6.622-14.753-14.79 0-8.167 6.606-14.788 14.753-14.788S64.33 38.435 64.33 46.602c0 3.786-1.419 7.24-3.752 9.855l10.648 9.76c.602.55.643 1.486.094 2.089a1.473 1.473 0 01-2.085.094l-10.842-9.938a14.662 14.662 0 01-8.815 2.93zm8.066-6.153a1.477 1.477 0 00-.372.335 11.738 11.738 0 01-7.694 2.86c-6.518 0-11.802-5.297-11.802-11.832 0-6.533 5.284-11.83 11.802-11.83 6.517 0 11.801 5.297 11.801 11.83 0 3.407-1.436 6.478-3.735 8.637z" fill="#AEB1C2"/><rect x="8.563" y="103.982" width="335" height="215.138" rx="6.147" fill="#F8F9FA"/><rect x="34.687" y="124.351" width="12.294" height="12.294" rx="6.147" fill="#CED4DA"/><rect x="34.687" y="143.246" width="73.761" height="12.294" rx="6.147" fill="#E9ECEF"/><rect x="114.358" y="143.246" width="36.881" height="12.294" rx="6.147" fill="#E9ECEF"/><rect x="34.687" y="167.955" width="49.174" height="12.294" rx="6.147" fill="#E9ECEF"/><rect x="34.687" y="186.85" width="49.174" height="12.294" rx="6.147" fill="#E9ECEF"/><rect x="89.771" y="167.955" width="49.174" height="12.294" rx="6.147" fill="#E9ECEF"/><rect x="144.855" y="167.955" width="73.761" height="12.294" rx="6.147" fill="#E9ECEF"/><rect x="89.771" y="186.85" width="73.761" height="12.294" rx="6.147" fill="#E9ECEF"/><rect x="169.442" y="186.85" width="73.761" height="12.294" rx="6.147" fill="#E9ECEF"/><rect x="157.149" y="143.246" width="36.881" height="12.294" rx="6.147" fill="#E9ECEF"/><rect x="199.939" y="143.246" width="36.881" height="12.294" rx="6.147" fill="#E9ECEF"/><rect x="52.891" y="124.351" width="49.174" height="12.294" rx="6.147" fill="#CED4DA"/><rect x="34.687" y="223.957" width="12.294" height="12.294" rx="6.147" fill="#CED4DA"/><rect x="34.687" y="242.852" width="73.761" height="12.294" rx="6.147" fill="#E9ECEF"/><rect x="114.358" y="242.852" width="36.881" height="12.294" rx="6.147" fill="#E9ECEF"/><rect x="34.687" y="267.561" width="49.174" height="12.294" rx="6.147" fill="#E9ECEF"/><rect x="34.687" y="286.456" width="49.174" height="12.294" rx="6.147" fill="#E9ECEF"/><rect x="89.771" y="267.561" width="49.174" height="12.294" rx="6.147" fill="#E9ECEF"/><rect x="144.855" y="267.561" width="73.761" height="12.294" rx="6.147" fill="#E9ECEF"/><rect x="89.771" y="286.456" width="73.761" height="12.294" rx="6.147" fill="#E9ECEF"/><rect x="169.442" y="286.456" width="73.761" height="12.294" rx="6.147" fill="#E9ECEF"/><rect x="157.149" y="242.852" width="36.881" height="12.294" rx="6.147" fill="#E9ECEF"/><rect x="199.939" y="242.852" width="36.881" height="12.294" rx="6.147" fill="#E9ECEF"/><rect x="52.891" y="223.957" width="49.174" height="12.294" rx="6.147" fill="#CED4DA"/><g filter="url(#filter1_b)"><path d="M271.28 185.561a55.952 55.952 0 01-9.797 32.199 105.361 105.361 0 01-12.318 15.482 167.291 167.291 0 01-16.994 15.482 294.148 294.148 0 01-51.06 32.456 11.233 11.233 0 01-5.122 1.299 10.758 10.758 0 01-4.898-1.235 298.883 298.883 0 01-48.315-30.226c-12.909-10.011-22.339-19.252-29.471-29.263-4.931-6.787-11.553-17.375-12.335-30.948a40.016 40.016 0 010-4.99v-80.522c0-4.957 0-10.059-.175-15.032-.112-3.787 1.149-8.84 7.978-11.423 16.387-6.273 32.598-12.53 51.89-19.959 3.558-1.38 7.116-2.743 10.658-4.139 6.654-2.567 13.531-5.246 20.328-7.813a12.956 12.956 0 019 0 8314.032 8314.032 0 0139.268 15.13c6.946 2.673 13.898 5.347 20.855 8.02 6.845 2.664 14.951 5.777 23.136 8.777a10.676 10.676 0 015.517 4.093 10.775 10.775 0 011.903 6.624v63.724c-.16 10.541-.192 21.515-.048 32.264z" fill="#D9CDFF" fill-opacity=".24"/></g><path d="M207.12 140.093h-62.308a2.943 2.943 0 00-2.732 1.843c-.148.362-.222.75-.22 1.141v45.772c.004.784.317 1.535.87 2.088a2.94 2.94 0 002.082.864h62.229a2.96 2.96 0 002.751-1.827c.151-.361.23-.749.232-1.141v-45.756a3.005 3.005 0 00-.851-2.083 2.976 2.976 0 00-2.053-.901zm-28.577 24.434v3.642a2.422 2.422 0 01.734 1.733 2.476 2.476 0 01-1.073 2.085 2.447 2.447 0 01-3.29-.482 2.477 2.477 0 01.198-3.336v-3.642a4.555 4.555 0 01-2.285-2.061 4.588 4.588 0 011.11-5.704 4.54 4.54 0 012.891-1.042c1.054 0 2.076.369 2.89 1.042a4.593 4.593 0 011.111 5.704 4.561 4.561 0 01-2.286 2.061z" fill="#A78AFF"/><path d="M176.848 109.435c-14.489 0-26.312 13.396-26.312 29.905v.754h6.494a5.928 5.928 0 010-.754c0-12.915 8.92-23.407 19.85-23.407 10.93 0 19.849 10.492 19.849 23.407v.754h6.383a6.322 6.322 0 000-.754c.079-16.525-11.744-29.905-26.264-29.905z" fill="#A78AFF"/><path d="M283.215 389.29a581.495 581.495 0 00-8.738-8.562c-.522-.509-.772-.962-.22-1.568 2.538-2.641 3.502-6.092 4.543-9.499 2.611-8.975 13.577-21.844 23.084-15.509 2.588 1.706 3.866 4.093 3.791 7.237-.572 12.522-12.124 22.687-22.46 27.901zm-2.174 2.544c-2.531 3.16-5.048 6.121-8.274 8.364-3.963 2.638-8.374 1.622-10.859-2.39-1.259-2.066-1.321-4.262-.201-6.389 1.987-3.989 5.435-6.617 9.144-8.99.286-.143.877-.108 1.062.102a380.911 380.911 0 019.128 9.303zm45.813-58.969a572.082 572.082 0 00-8.737-8.563c-.523-.509-.772-.962-.22-1.567 2.538-2.642 3.502-6.093 4.543-9.5 2.611-8.974 13.577-21.844 23.084-15.508 2.587 1.706 3.866 4.092 3.791 7.237-.572 12.521-12.124 22.686-22.461 27.901zm-2.174 2.543c-2.53 3.16-5.048 6.122-8.274 8.364-3.962 2.638-8.374 1.622-10.858-2.389-1.259-2.067-1.322-4.263-.201-6.389 1.987-3.989 5.434-6.617 9.143-8.991.286-.143.878-.108 1.063.102a382.726 382.726 0 019.127 9.303zm63.671-112.109a576.224 576.224 0 00-11.837-3.002c-.706-.177-1.148-.443-.969-1.244.89-3.56.013-7.027-.776-10.495-2.192-9.069.932-25.71 12.331-25.02 3.093.172 5.388 1.591 6.885 4.346 5.724 11.109.747 25.706-5.634 35.415zm-.624 3.291c-.626 4.005-1.34 7.831-3.026 11.392-2.129 4.274-6.462 5.617-10.611 3.401-2.119-1.153-3.265-3.019-3.348-5.42-.257-4.447 1.429-8.454 3.469-12.371.178-.268.708-.535.973-.447a382.697 382.697 0 0112.543 3.445zM266.301 361.795c-4.31-1.369-8.193-2.592-12.109-3.938-.35-.1-.708-.719-.684-1.116.131-8.562 1.739-16.678 6.236-24.147 1.894-3.118 4.376-5.484 7.392-7.539 6.154-4.144 12.981 1.357 13.629 6.258 1.159 7.561-2.284 14.614-7.098 20.151-2.727 3.149-6.251 5.732-7.366 10.331zm-13.871-1.051c4.157 1.28 8.314 2.559 12.395 3.795.274.055.632.674.652.994-.289 4.049-.972 8.074-3.209 11.61-3.381 6.06-12.67 3.245-13.289-2.77-.496-4.812 1.592-9.154 3.451-13.629zm60.85-83.62c-4.31-1.368-8.194-2.592-12.109-3.937-.351-.1-.708-.719-.684-1.116.131-8.562 1.738-16.678 6.236-24.148 1.894-3.117 4.375-5.483 7.392-7.538 6.153-4.144 12.981 1.357 13.629 6.258 1.158 7.561-2.284 14.613-7.098 20.151-2.728 3.148-6.252 5.732-7.366 10.33zm-13.871-1.05c4.157 1.279 8.314 2.559 12.395 3.794.274.056.631.675.651.995-.288 4.049-.971 8.074-3.208 11.61-3.381 6.06-12.67 3.244-13.29-2.771-.495-4.812 1.593-9.153 3.452-13.628zm48.084-107.428c-4.311-1.368-8.194-2.592-12.11-3.937-.35-.1-.708-.719-.684-1.116.131-8.562 1.739-16.679 6.236-24.148 1.894-3.118 4.376-5.483 7.392-7.539 6.154-4.144 12.981 1.358 13.63 6.258 1.158 7.561-2.285 14.614-7.099 20.151-2.727 3.149-6.251 5.733-7.365 10.331zm-13.872-1.051c4.157 1.28 8.315 2.56 12.395 3.795.274.056.632.675.652.995-.289 4.048-.972 8.074-3.208 11.61-3.382 6.06-12.67 3.244-13.29-2.771-.496-4.812 1.592-9.154 3.451-13.629z" fill="#E9ECEF"/><defs><filter id="filter0_d" x=".563" y=".706" width="351" height="98.982" filterUnits="userSpaceOnUse" color-interpolation-filters="sRGB"><feFlood flood-opacity="0" result="BackgroundImageFix"/><feColorMatrix in="SourceAlpha" values="0 0 0 0 0 0 0 0 0 0 0 0 0 0 0 0 0 0 127 0"/><feOffset/><feGaussianBlur stdDeviation="4"/><feColorMatrix values="0 0 0 0 0.682353 0 0 0 0 0.694118 0 0 0 0 0.760784 0 0 0 0.16 0"/><feBlend in2="BackgroundImageFix" result="effect1_dropShadow"/><feBlend in="SourceGraphic" in2="effect1_dropShadow" result="shape"/></filter><filter id="filter1_b" x="72.788" y="38.123" width="206.55" height="252.357" filterUnits="userSpaceOnUse" color-interpolation-filters="sRGB"><feFlood flood-opacity="0" result="BackgroundImageFix"/><feGaussianBlur in="BackgroundImage" stdDeviation="4"/><feComposite in2="SourceAlpha" operator="in" result="effect1_backgroundBlur"/><feBlend in="SourceGraphic" in2="effect1_backgroundBlur" result="shape"/></filter></defs></svg>