<svg xmlns="http://www.w3.org/2000/svg" width="398" height="181" fill="none" viewBox="0 0 398 181"><rect width="354" height="140" x="41.543" y="20.172" stroke="#C3AFFF" stroke-dasharray="16 17" stroke-linecap="round" stroke-width="3" rx="16"/><g filter="url(#filter0_b)"><path fill="#D9CDFF" fill-opacity=".24" d="M81.958 99.937A23.528 23.528 0 0177.8 113.53a44.522 44.522 0 01-5.229 6.536 70.93 70.93 0 01-7.213 6.536 124.97 124.97 0 01-21.673 13.701 4.789 4.789 0 01-2.174.548 4.58 4.58 0 01-2.079-.521 126.996 126.996 0 01-20.508-12.76c-5.479-4.226-9.481-8.127-12.509-12.353-2.093-2.865-4.903-7.335-5.235-13.065a16.8 16.8 0 010-2.106V66.053c0-2.092 0-4.246-.075-6.346-.047-1.598.488-3.731 3.387-4.822 6.955-2.648 13.836-5.29 22.025-8.425 1.51-.583 3.02-1.158 4.524-1.747 2.824-1.084 5.743-2.215 8.628-3.299a5.527 5.527 0 013.82 0c5.567 2.113 11.202 4.28 16.668 6.387 2.948 1.129 5.899 2.258 8.852 3.386a541.06 541.06 0 009.82 3.705 4.53 4.53 0 013.15 4.524v26.902c-.068 4.45-.082 9.082-.02 13.62z"/></g><path fill="#A78AFF" d="M54.727 80.743H28.279a1.252 1.252 0 00-1.253 1.26v19.322a1.255 1.255 0 001.253 1.246h26.414a1.248 1.248 0 00.893-.364 1.251 1.251 0 00.373-.889V82.003a1.266 1.266 0 00-1.232-1.26zm-12.13 10.315v1.537a1.023 1.023 0 01.311.732 1.043 1.043 0 11-1.767-.732v-1.537a1.93 1.93 0 111.456 0z"/><path fill="#A78AFF" d="M41.877 67.8c-6.15 0-11.168 5.656-11.168 12.625v.319h2.756a2.486 2.486 0 010-.319c0-5.452 3.786-9.881 8.426-9.881 4.64 0 8.425 4.43 8.425 9.881v.319h2.71a2.486 2.486 0 000-.319c.033-6.976-4.986-12.624-11.149-12.624z"/><rect width="272" height="80" x="100.701" y="50.172" fill="#fff" rx="12"/><rect width="272" height="80" x="100.701" y="50.172" fill="#fff" rx="12"/><rect width="272" height="80" x="100.701" y="50.172" fill="#fff" rx="12"/><path fill="#C5C9DE" fill-rule="evenodd" d="M132.058 99.884c-7.069 0-12.8-5.73-12.8-12.8 0-7.069 5.731-12.8 12.8-12.8 7.069 0 12.8 5.731 12.8 12.8 0 3.276-1.231 6.265-3.256 8.53l9.239 8.445a1.28 1.28 0 01-1.727 1.89l-9.408-8.6a12.742 12.742 0 01-7.648 2.535zm7-5.326a1.279 1.279 0 00-.325.292 10.201 10.201 0 01-6.675 2.474c-5.655 0-10.24-4.585-10.24-10.24s4.585-10.24 10.24-10.24 10.24 4.585 10.24 10.24c0 2.948-1.246 5.605-3.24 7.474z" clip-rule="evenodd"/><path fill="url(#paint0_linear)" fill-rule="evenodd" d="M302.156 84.627l-1.005-2.677.698-1.538a.518.518 0 00-.109-.585l-1.9-1.885a3.114 3.114 0 00-3.189-.727l-.531.18-2.776-3.11h-10.208l-2.741 3.148-.517-.179a3.12 3.12 0 00-3.219.735l-1.934 1.92a.412.412 0 00-.086.466l.73 1.597-1.001 2.675.648 2.413 2.949 10.997a5.604 5.604 0 002.211 3.139s3.581 2.477 7.115 4.726c.311.198.636.343.985.337.349.005.674-.139.984-.338a261.483 261.483 0 007.109-4.735 5.606 5.606 0 002.207-3.142l2.936-11.001.644-2.416z" clip-rule="evenodd"/><path fill="url(#paint1_linear)" fill-rule="evenodd" d="M299.017 85.158l-.046.143-.073.257a21.26 21.26 0 01-.916 1.019l-2.835 2.955c-.309.321-.483.724-.307 1.13l.383.924c.176.406.193 1.078.024 1.528a2.724 2.724 0 01-.852 1.173l-.296.237c-.349.279-.967.352-1.374.163l-1.306-.608a6.768 6.768 0 01-1.349-.88l-1.235-1.09a.553.553 0 01-.03-.806l3.009-1.99c.373-.247.57-.704.358-1.093l-1.07-1.908c-.212-.39-.296-.907-.188-1.15.108-.243.541-.57.963-.726l3.493-1.272c.421-.156.399-.318-.05-.359l-2.232-.163c-.448-.041-.777.023-1.211.142l-1.689.41c-.434.118-.526.57-.444 1.004l.697 3.705c.081.433.121.87.088.97-.032.1-.418.262-.858.36l-.577.128a4.541 4.541 0 01-1.6.01l-.699-.145c-.44-.092-.827-.25-.86-.35-.033-.1.006-.537.088-.97l.692-3.706c.082-.434-.011-.886-.444-1.004l-1.69-.408c-.434-.118-.763-.18-1.212-.14l-2.232.165c-.448.042-.47.203-.049.36l3.495 1.268c.421.156.855.482.964.725.109.242.024.76-.187 1.149l-1.068 1.909c-.212.39-.014.846.36 1.092l3.012 1.987a.554.554 0 01-.03.807L286.4 93.2a6.817 6.817 0 01-1.347.883l-1.306.61c-.406.189-1.025.117-1.374-.162l-.296-.236a2.765 2.765 0 01-.868-1.209c-.155-.414-.139-1.085.036-1.491l.382-.924c.175-.407.001-.81-.308-1.13l-2.839-2.953a22.587 22.587 0 01-.917-1.016l-.073-.258-.046-.143c-.005-.165.055-.691.124-.834.068-.141.33-.557.583-.922l.607-.88c.252-.366.689-.947.969-1.292l.89-1.094c.281-.344.52-.625.556-.623.002-.002.365.064.808.147l1.348.254 1.085.203c.154.028.63-.06 1.059-.196l.97-.308a21.7 21.7 0 011.445-.399l.339.005.339-.005a21.73 21.73 0 011.445.397l.971.307c.428.136.905.223 1.059.194l.895-.169.189-.035 1.348-.255c.442-.084.806-.15.832-.148.011-.002.251.277.532.622l.892 1.093c.281.344.717.925.97 1.29l.609.88c.253.364.647 1.029.672 1.18.025.151.042.41.037.575zm-10.606 8.818c.039 0 .412.138.828.307l.386.157c.416.168 1.086.47 1.487.67l1.14.566c.401.2.43.573.064.83l-.972.68a20.008 20.008 0 00-1.601 1.266l-.904.773c-.337.288-.882.289-1.212.004-.33-.286-.877-.754-1.215-1.04a19.71 19.71 0 00-1.283-.982l-.968-.67c-.368-.255-.342-.63.057-.833l1.146-.584c.399-.205 1.066-.51 1.482-.679l.386-.157c.416-.169.789-.308.829-.308h.35z" clip-rule="evenodd"/><path fill="#FF4724" fill-rule="evenodd" d="M319.764 103.353l9.368-5.503 6.459-11.32V75.618c-.171 0-.341.114-.47.34l-7.651 13.408-7.65 13.408c-.128.226-.141.431-.056.58z" clip-rule="evenodd"/><path fill="#9E1F63" fill-rule="evenodd" d="M335.591 75.617v10.914l6.458 11.319 9.369 5.503c.084-.149.072-.354-.057-.58l-7.65-13.408-7.651-13.408c-.129-.226-.299-.34-.469-.34z" clip-rule="evenodd"/><path fill="#662D91" fill-rule="evenodd" d="M351.418 103.353l-9.369-5.503h-12.917l-9.368 5.503c.084.15.266.243.524.243h30.605c.258 0 .44-.093.525-.243z" clip-rule="evenodd"/><path fill="#fff" fill-rule="evenodd" d="M329.132 97.85h12.917l-6.458-11.32-6.459 11.32z" clip-rule="evenodd"/><path fill="#495057" d="M220.422 88.138h-7.5v-7.56c0-.67-.577-1.244-1.25-1.244-.769 0-1.346.575-1.346 1.244v7.465h-7.597c-.673.095-1.25.67-1.25 1.34s.577 1.243 1.25 1.243h7.5v7.464c0 .67.577 1.244 1.25 1.244a1.27 1.27 0 001.25-1.244v-7.464h7.5a1.27 1.27 0 001.25-1.244c0-.67-.384-1.244-1.057-1.244z"/><defs><linearGradient id="paint0_linear" x1="274.368" x2="302.156" y1="106.485" y2="106.485" gradientUnits="userSpaceOnUse"><stop stop-color="#F50"/><stop offset=".41" stop-color="#F50"/><stop offset=".494" stop-color="#FF4530"/><stop offset=".572" stop-color="#FF2000"/><stop offset="1" stop-color="#FF2000"/></linearGradient><linearGradient id="paint1_linear" x1="288.231" x2="298.321" y1="104.168" y2="104.168" gradientUnits="userSpaceOnUse"><stop stop-color="#fff"/><stop offset="1" stop-color="#F4F4F4"/></linearGradient><filter id="filter0_b" width="88.881" height="107.778" x="-2.897" y="37.074" color-interpolation-filters="sRGB" filterUnits="userSpaceOnUse"><feFlood flood-opacity="0" result="BackgroundImageFix"/><feGaussianBlur in="BackgroundImage" stdDeviation="2"/><feComposite in2="SourceAlpha" operator="in" result="effect1_backgroundBlur"/><feBlend in="SourceGraphic" in2="effect1_backgroundBlur" result="shape"/></filter></defs></svg>