<svg width="363" height="349" viewBox="0 0 363 349" fill="none" xmlns="http://www.w3.org/2000/svg"><circle opacity=".7" cx="189.054" cy="174.842" r="130.991" stroke="#E9ECEF" stroke-width="3.144" stroke-dasharray="9.43 18.86"/><path d="M188.829 43.585v77.355" stroke="#F0F2F4" stroke-width="3.144" stroke-dasharray="9.43 18.86"/><path d="M188.829 202.761v80" stroke="#C3AFFF" stroke-width="3.144" stroke-dasharray="9.43 18.86"/><path d="M227.709 215.089l54.698 54.698" stroke="#F0F2F4" stroke-width="3.144" stroke-dasharray="9.43 18.86"/><path d="M166.759 156.338L110.19 99.77" stroke="#C3AFFF" stroke-width="3.144" stroke-dasharray="9.43 18.86"/><path d="M145.642 215.089l-54.698 54.698" stroke="#F0F2F4" stroke-width="3.144" stroke-dasharray="9.43 18.86"/><path d="M208.898 156.338l56.569-56.568" stroke="#C3AFFF" stroke-width="3.144" stroke-dasharray="9.43 18.86"/><path opacity=".24" d="M221.908 50.761c4.682-18.144-6.231-36.648-24.374-41.33-18.144-4.682-36.649 6.23-41.331 24.375-4.682 18.144 6.231 36.648 24.375 41.33 18.144 4.682 36.648-6.23 41.33-24.375z" fill="url(#paint0_radial)"/><path d="M189.016 78.655c20.07 0 36.34-16.27 36.34-36.34 0-20.07-16.27-36.34-36.34-36.34-20.071 0-36.341 16.27-36.341 36.34 0 20.07 16.27 36.34 36.341 36.34z" fill="#fff"/><path d="M189.757 76.923c10.324 0 17.911-3.574 23.301-9.469-.533-11.72-10.672-20.644-23.301-20.644-12.629 0-22.767 8.924-23.301 20.644 4.927 5.605 12.977 9.47 23.301 9.47z" fill="#CED4DA"/><circle cx="189.628" cy="31.809" r="11.857" fill="#CED4DA"/><path d="M190.519 78.576a36.338 36.338 0 01-34.507-20.992 36.343 36.343 0 0124.383-50.63 36.34 36.34 0 1110.124 71.622zm-2.696-68.461a31.89 31.89 0 00-28.577 20.923 31.882 31.882 0 0025.051 42.44 31.886 31.886 0 0036.76-32.825 32.005 32.005 0 00-33.234-30.538z" fill="#F8F9FA"/><path d="M295.776 174.874h-77.355m-61.453 0H79.614" stroke="#F0F2F4" stroke-width="3.144" stroke-dasharray="9.43 18.86"/><path opacity=".24" d="M247.577 189.735c8.428-32.659-11.215-65.967-43.874-74.395-32.659-8.428-65.967 11.216-74.395 43.875-8.428 32.659 11.215 65.966 43.874 74.394 32.659 8.428 65.967-11.215 74.395-43.874z" fill="url(#paint1_radial)"/><g filter="url(#filter0_b)"><path d="M190.063 240.121c36.127 0 65.413-29.286 65.413-65.413 0-36.126-29.286-65.413-65.413-65.413-36.126 0-65.413 29.287-65.413 65.413 0 36.127 29.287 65.413 65.413 65.413z" fill="#D9CDFF" fill-opacity=".24"/></g><path fill-rule="evenodd" clip-rule="evenodd" d="M198.553 190.886a22.356 22.356 0 01-16.961 3.518 22.357 22.357 0 01-14.38-9.659 22.853 22.853 0 010-25.19 22.345 22.345 0 0134.581-3.434 22.856 22.856 0 012.484 29.076l11.32 11.443a4.061 4.061 0 01-.081 5.647 3.995 3.995 0 01-5.587.097l-11.376-11.498zm-28.731-21.941a16.569 16.569 0 014.485-8.471 16.323 16.323 0 0111.61-4.845 16.327 16.327 0 0111.61 4.845 16.62 16.62 0 014.728 13.315 16.619 16.619 0 01-7.222 12.145 16.298 16.298 0 01-18.232 0 16.608 16.608 0 01-6.979-16.989z" fill="#A78AFF"/><path opacity=".24" d="M299.736 111.027c16.14-9.519 21.508-30.32 11.989-46.46-9.519-16.14-30.32-21.508-46.46-11.99-16.141 9.52-21.508 30.32-11.99 46.46 9.519 16.141 30.32 21.509 46.461 11.99z" fill="url(#paint2_radial)"/><g filter="url(#filter1_b)"><path d="M256.752 107.492c14.192 14.192 37.202 14.192 51.393 0 14.192-14.192 14.192-37.201 0-51.393-14.191-14.192-37.201-14.192-51.393 0s-14.192 37.201 0 51.393z" fill="#D9CDFF" fill-opacity=".24"/></g><path d="M282.5 117.868c10.324 0 17.911-3.575 23.301-9.469-.533-11.72-10.672-20.644-23.301-20.644-12.629 0-22.767 8.924-23.302 20.644 4.928 5.604 12.978 9.469 23.302 9.469z" fill="#A78AFF"/><circle cx="282.371" cy="72.754" r="11.857" fill="#A78AFF"/><g filter="url(#filter2_d)"><path d="M257.873 108.499a36.34 36.34 0 1149.15-53.54 36.34 36.34 0 01-49.15 53.54zm46.502-50.316a31.882 31.882 0 00-35.001-5.413 31.882 31.882 0 00-18.409 30.258 31.882 31.882 0 0039.372 29.64 31.89 31.89 0 0015.945-9.392 32.002 32.002 0 00-1.907-45.093z" fill="#F8F9FA"/></g><path opacity=".24" d="M253.275 286.507c9.519 16.141 30.32 21.509 46.461 11.99 16.14-9.519 21.508-30.32 11.989-46.461-9.519-16.14-30.32-21.508-46.46-11.989-16.141 9.519-21.509 30.32-11.99 46.46z" fill="url(#paint3_radial)"/><path d="M256.807 243.524c-14.192 14.191-14.192 37.201 0 51.393s37.201 14.192 51.393 0 14.192-37.202 0-51.393c-14.192-14.192-37.201-14.192-51.393 0z" fill="#fff"/><path d="M282.571 304.328c10.324 0 17.911-3.575 23.301-9.47-.534-11.719-10.672-20.644-23.301-20.644-12.63 0-22.768 8.925-23.302 20.644 4.928 5.605 12.978 9.47 23.302 9.47z" fill="#CED4DA"/><circle cx="282.44" cy="259.154" r="11.857" fill="#CED4DA"/><path d="M255.802 244.643a36.342 36.342 0 0157.804 43.485 36.338 36.338 0 01-67.342-17.384 36.343 36.343 0 019.538-26.101zm50.316 46.502a31.884 31.884 0 00-24.845-53.41 31.882 31.882 0 00-29.641 39.372 31.89 31.89 0 009.393 15.945 32.006 32.006 0 0045.093-1.907z" fill="#F8F9FA"/><path opacity=".24" d="M354.47 183.32c4.682-18.144-6.231-36.648-24.375-41.33-18.144-4.682-36.648 6.231-41.33 24.374-4.682 18.144 6.231 36.648 24.375 41.331 18.143 4.682 36.648-6.231 41.33-24.375z" fill="url(#paint4_radial)"/><path d="M321.574 211.214c20.07 0 36.34-16.27 36.34-36.341 0-20.07-16.27-36.34-36.34-36.34-20.07 0-36.341 16.27-36.341 36.34 0 20.071 16.271 36.341 36.341 36.341z" fill="#fff"/><path d="M321.527 210.168c10.324 0 17.911-3.574 23.301-9.469-.534-11.72-10.672-20.644-23.301-20.644-12.63 0-22.768 8.924-23.302 20.644 4.928 5.605 12.978 9.469 23.302 9.469z" fill="#CED4DA"/><circle cx="321.398" cy="165.054" r="11.857" fill="#CED4DA"/><g filter="url(#filter3_d)"><path d="M323.078 211.135a36.34 36.34 0 11-3.105-72.614 36.34 36.34 0 013.105 72.614zm-2.696-68.461a31.884 31.884 0 00-28.578 20.923 31.887 31.887 0 0057.179 27.531 31.886 31.886 0 004.632-17.916 32.006 32.006 0 00-33.233-30.538z" fill="#F8F9FA"/></g><path opacity=".24" d="M221.908 315.879c4.682-18.144-6.231-36.648-24.374-41.33-18.144-4.682-36.649 6.231-41.331 24.374-4.682 18.144 6.231 36.649 24.375 41.331 18.144 4.682 36.648-6.231 41.33-24.375z" fill="url(#paint5_radial)"/><g filter="url(#filter4_b)"><path d="M189.016 343.773c20.07 0 36.34-16.27 36.34-36.34 0-20.071-16.27-36.341-36.34-36.341-20.071 0-36.341 16.27-36.341 36.341 0 20.07 16.27 36.34 36.341 36.34z" fill="#D9CDFF" fill-opacity=".24"/></g><path d="M188.968 342.155c10.324 0 17.911-3.575 23.301-9.469-.533-11.72-10.672-20.644-23.301-20.644-12.629 0-22.767 8.924-23.301 20.644 4.927 5.604 12.977 9.469 23.301 9.469z" fill="#A78AFF"/><circle cx="188.838" cy="297.041" r="11.857" fill="#A78AFF"/><path d="M190.519 343.694a36.343 36.343 0 01-37.461-41.888 36.338 36.338 0 0148.408-28.543 36.343 36.343 0 0123.811 32.625 36.339 36.339 0 01-34.758 37.806zm-2.696-68.461a31.89 31.89 0 00-28.577 20.923 31.881 31.881 0 0025.051 42.44 31.883 31.883 0 0032.127-14.909 31.879 31.879 0 004.633-17.916 32.005 32.005 0 00-33.234-30.538z" fill="#F8F9FA"/><path opacity=".24" d="M112.27 298.495c16.14-9.519 21.508-30.32 11.989-46.461-9.518-16.14-30.32-21.508-46.46-11.989-16.14 9.518-21.508 30.319-11.99 46.46 9.52 16.14 30.32 21.508 46.461 11.99z" fill="url(#paint6_radial)"/><path d="M69.286 294.96c14.192 14.191 37.202 14.191 51.394 0 14.191-14.192 14.191-37.202 0-51.394-14.192-14.192-37.202-14.192-51.394 0s-14.192 37.202 0 51.394z" fill="#fff"/><path d="M95.104 304.328c10.324 0 17.911-3.575 23.301-9.47-.533-11.719-10.672-20.644-23.301-20.644-12.63 0-22.767 8.925-23.301 20.644 4.928 5.605 12.977 9.47 23.301 9.47z" fill="#CED4DA"/><circle cx="94.974" cy="259.154" r="11.857" fill="#CED4DA"/><path d="M70.407 295.966a36.338 36.338 0 01-9.557-39.244 36.34 36.34 0 119.557 39.244zm46.503-50.316a31.888 31.888 0 00-47.298 42.312 31.883 31.883 0 0033.26 12.174 31.886 31.886 0 0015.944-9.392 32.005 32.005 0 00-1.906-45.094z" fill="#F8F9FA"/><path opacity=".24" d="M65.806 99.04c9.519 16.14 30.32 21.508 46.46 11.989 16.141-9.519 21.509-30.32 11.99-46.46s-30.32-21.508-46.46-11.99c-16.14 9.52-21.509 30.32-11.99 46.46z" fill="url(#paint7_radial)"/><g filter="url(#filter5_b)"><path d="M69.341 56.056c-14.192 14.192-14.192 37.202 0 51.394 14.192 14.191 37.202 14.191 51.394 0 14.191-14.192 14.191-37.202 0-51.394-14.192-14.192-37.202-14.192-51.394 0z" fill="#D9CDFF" fill-opacity=".24"/></g><path d="M95.104 117.886c10.324 0 17.912-3.575 23.302-9.469-.534-11.72-10.672-20.644-23.302-20.644-12.629 0-22.767 8.924-23.301 20.644 4.928 5.604 12.977 9.469 23.301 9.469z" fill="#A78AFF"/><circle cx="94.974" cy="72.712" r="11.857" fill="#A78AFF"/><path d="M68.336 57.175a36.34 36.34 0 1153.54 49.152 36.34 36.34 0 01-53.54-49.152zm50.316 46.503a31.888 31.888 0 00-24.845-53.411 31.886 31.886 0 00-20.249 55.317 32.005 32.005 0 0045.094-1.906z" fill="#F8F9FA"/><path opacity=".24" d="M32.73 199.054c13.372 13.127 34.853 12.928 47.98-.444 13.127-13.372 12.928-34.853-.444-47.98-13.372-13.127-34.853-12.928-47.98.444-13.127 13.372-12.928 34.853.444 47.98z" fill="url(#paint8_radial)"/><path d="M25.019 156.621c-10.035 17.381-4.08 39.607 13.301 49.642 17.382 10.035 39.607 4.08 49.642-13.302 10.035-17.381 4.08-39.607-13.301-49.642-17.382-10.035-39.607-4.08-49.642 13.302z" fill="#fff"/><path d="M56.492 209.652c10.324 0 17.91-3.575 23.3-9.47-.533-11.719-10.671-20.643-23.3-20.643-12.63 0-22.768 8.924-23.302 20.643 4.928 5.605 12.977 9.47 23.302 9.47z" fill="#CED4DA"/><circle cx="56.361" cy="164.478" r="11.857" fill="#CED4DA"/><path d="M24.333 157.962a36.342 36.342 0 0166.896 5.939 36.342 36.342 0 01-51.534 43.065 36.342 36.342 0 01-15.362-49.004zm60.637 31.895a31.886 31.886 0 10-43.063 13.513 32.005 32.005 0 0043.063-13.513z" fill="#F8F9FA"/><defs><radialGradient id="paint0_radial" cx="0" cy="0" r="1" gradientUnits="userSpaceOnUse" gradientTransform="rotate(-2.37 22442.387 -156233.584) scale(369.144)"><stop stop-color="#B39117"/><stop offset=".85" stop-color="#B39117"/><stop offset="1" stop-color="#FFDD63" stop-opacity="0"/></radialGradient><radialGradient id="paint1_radial" cx="0" cy="0" r="1" gradientUnits="userSpaceOnUse" gradientTransform="rotate(-2.37 42698.104 -277500.108) scale(664.46)"><stop stop-color="#B39117"/><stop offset=".85" stop-color="#B39117"/><stop offset="1" stop-color="#FFDD63" stop-opacity="0"/></radialGradient><radialGradient id="paint2_radial" cx="0" cy="0" r="1" gradientUnits="userSpaceOnUse" gradientTransform="rotate(42.63 -4387.04 7911.596) scale(369.144)"><stop stop-color="#B39117"/><stop offset=".85" stop-color="#B39117"/><stop offset="1" stop-color="#FFDD63" stop-opacity="0"/></radialGradient><radialGradient id="paint3_radial" cx="0" cy="0" r="1" gradientUnits="userSpaceOnUse" gradientTransform="rotate(132.63 -3266.824 1062.529) scale(369.144)"><stop stop-color="#B39117"/><stop offset=".85" stop-color="#B39117"/><stop offset="1" stop-color="#FFDD63" stop-opacity="0"/></radialGradient><radialGradient id="paint4_radial" cx="0" cy="0" r="1" gradientUnits="userSpaceOnUse" gradientTransform="rotate(-2.37 25712.895 -159371.557) scale(369.144)"><stop stop-color="#B39117"/><stop offset=".85" stop-color="#B39117"/><stop offset="1" stop-color="#FFDD63" stop-opacity="0"/></radialGradient><radialGradient id="paint5_radial" cx="0" cy="0" r="1" gradientUnits="userSpaceOnUse" gradientTransform="rotate(-2.37 28850.722 -156101.028) scale(369.144)"><stop stop-color="#B39117"/><stop offset=".85" stop-color="#B39117"/><stop offset="1" stop-color="#FFDD63" stop-opacity="0"/></radialGradient><radialGradient id="paint6_radial" cx="0" cy="0" r="1" gradientUnits="userSpaceOnUse" gradientTransform="rotate(42.63 -4721.006 7765.099) scale(369.144)"><stop stop-color="#B39117"/><stop offset=".85" stop-color="#B39117"/><stop offset="1" stop-color="#FFDD63" stop-opacity="0"/></radialGradient><radialGradient id="paint7_radial" cx="0" cy="0" r="1" gradientUnits="userSpaceOnUse" gradientTransform="rotate(132.63 -3319.442 927.676) scale(369.144)"><stop stop-color="#B39117"/><stop offset=".85" stop-color="#B39117"/><stop offset="1" stop-color="#FFDD63" stop-opacity="0"/></radialGradient><radialGradient id="paint8_radial" cx="0" cy="0" r="1" gradientUnits="userSpaceOnUse" gradientTransform="rotate(117.63 -3457.95 1491.454) scale(369.144)"><stop stop-color="#B39117"/><stop offset=".85" stop-color="#B39117"/><stop offset="1" stop-color="#FFDD63" stop-opacity="0"/></radialGradient><filter id="filter0_b" x="120.65" y="105.295" width="138.826" height="138.826" filterUnits="userSpaceOnUse" color-interpolation-filters="sRGB"><feFlood flood-opacity="0" result="BackgroundImageFix"/><feGaussianBlur in="BackgroundImage" stdDeviation="2"/><feComposite in2="SourceAlpha" operator="in" result="effect1_backgroundBlur"/><feBlend in="SourceGraphic" in2="effect1_backgroundBlur" result="shape"/></filter><filter id="filter1_b" x="244.108" y="43.455" width="76.681" height="76.681" filterUnits="userSpaceOnUse" color-interpolation-filters="sRGB"><feFlood flood-opacity="0" result="BackgroundImageFix"/><feGaussianBlur in="BackgroundImage" stdDeviation="1"/><feComposite in2="SourceAlpha" operator="in" result="effect1_backgroundBlur"/><feBlend in="SourceGraphic" in2="effect1_backgroundBlur" result="shape"/></filter><filter id="filter2_d" x="244.108" y="43.388" width="76.681" height="76.681" filterUnits="userSpaceOnUse" color-interpolation-filters="sRGB"><feFlood flood-opacity="0" result="BackgroundImageFix"/><feColorMatrix in="SourceAlpha" values="0 0 0 0 0 0 0 0 0 0 0 0 0 0 0 0 0 0 127 0"/><feOffset/><feGaussianBlur stdDeviation="1"/><feColorMatrix values="0 0 0 0 0.52549 0 0 0 0 0.556863 0 0 0 0 0.588235 0 0 0 0.16 0"/><feBlend in2="BackgroundImageFix" result="effect1_dropShadow"/><feBlend in="SourceGraphic" in2="effect1_dropShadow" result="shape"/></filter><filter id="filter3_d" x="283.186" y="136.487" width="76.681" height="76.681" filterUnits="userSpaceOnUse" color-interpolation-filters="sRGB"><feFlood flood-opacity="0" result="BackgroundImageFix"/><feColorMatrix in="SourceAlpha" values="0 0 0 0 0 0 0 0 0 0 0 0 0 0 0 0 0 0 127 0"/><feOffset/><feGaussianBlur stdDeviation="1"/><feColorMatrix values="0 0 0 0 0.52549 0 0 0 0 0.556863 0 0 0 0 0.588235 0 0 0 0.16 0"/><feBlend in2="BackgroundImageFix" result="effect1_dropShadow"/><feBlend in="SourceGraphic" in2="effect1_dropShadow" result="shape"/></filter><filter id="filter4_b" x="148.675" y="267.092" width="80.681" height="80.681" filterUnits="userSpaceOnUse" color-interpolation-filters="sRGB"><feFlood flood-opacity="0" result="BackgroundImageFix"/><feGaussianBlur in="BackgroundImage" stdDeviation="2"/><feComposite in2="SourceAlpha" operator="in" result="effect1_backgroundBlur"/><feBlend in="SourceGraphic" in2="effect1_backgroundBlur" result="shape"/></filter><filter id="filter5_b" x="56.697" y="43.412" width="76.681" height="76.681" filterUnits="userSpaceOnUse" color-interpolation-filters="sRGB"><feFlood flood-opacity="0" result="BackgroundImageFix"/><feGaussianBlur in="BackgroundImage" stdDeviation="1"/><feComposite in2="SourceAlpha" operator="in" result="effect1_backgroundBlur"/><feBlend in="SourceGraphic" in2="effect1_backgroundBlur" result="shape"/></filter></defs></svg>