<svg xmlns="http://www.w3.org/2000/svg" xmlns:xlink="http://www.w3.org/1999/xlink" fill="none" viewBox="6.89 6.65 300.5 184.94"><defs><path id="a" fill="#fff" d="M229.383 177.181c-34.423-9.017-80.952-4.377-98.344 0-26.087 6.567-47.077-.994-68.018-27.049-20.94-26.055-49.095-43.147-23.434-90.65C65.25 11.98 143.303 31.569 190.815 26.99c47.511-4.577 104.721 1.128 91.139 42.93-13.582 41.802 9.902 52.612-.598 82.839-7 20.151-24.324 28.292-51.973 24.422z"/></defs><path fill="url(#a)" d="M229.383 177.181c-34.423-9.017-80.952-4.377-98.344 0-26.087 6.567-47.077-.994-68.018-27.049-20.94-26.055-49.095-43.147-23.434-90.65C65.25 11.98 143.303 31.569 190.815 26.99c47.511-4.577 104.721 1.128 91.139 42.93-13.582 41.802 9.902 52.612-.598 82.839-7 20.151-24.324 28.292-51.973 24.422z"/><mask id="b" width="256" height="155" x="29" y="25" maskUnits="userSpaceOnUse" style="mask-type:alpha"><use xlink:href="#a"/></mask><g mask="url(#b)"><g filter="url(#c)"><path fill="#fff" fill-rule="evenodd" d="M249.751 141.29a8.385 8.385 0 018.385-8.385H299a8.386 8.386 0 018.386 8.385v7.529a8.387 8.387 0 01-8.386 8.386h-40.864a8.386 8.386 0 01-8.385-8.386v-7.529z" clip-rule="evenodd"/></g><path fill="#F2F2F2" d="M259.147 137.603h39.936v2.349h-39.936zm0 5.874h28.19v2.349h-28.19zm0 5.873h34.063v2.349h-34.063z"/><g filter="url(#d)"><path fill="#fff" fill-rule="evenodd" d="M6.888 78.974a8.386 8.386 0 018.386-8.386h40.864a8.386 8.386 0 018.385 8.386v7.528a8.386 8.386 0 01-8.385 8.386H15.274a8.386 8.386 0 01-8.386-8.386v-7.528z" clip-rule="evenodd"/></g><path fill="#F2F2F2" d="M16.285 75.287h39.936v2.349H16.285zm0 5.873h28.19v2.349h-28.19zm0 5.873h34.063v2.349H16.285z"/></g><g filter="url(#e)"><path fill="#000" fill-opacity=".01" d="M229.383 177.181c-34.423-9.017-80.952-4.377-98.344 0-26.087 6.567-47.077-.994-68.018-27.049-20.94-26.055-49.095-43.147-23.434-90.65C65.25 11.98 143.303 31.569 190.815 26.99c47.511-4.577 104.721 1.128 91.139 42.93-13.582 41.802 9.902 52.612-.598 82.839-7 20.151-24.324 28.292-51.973 24.422z"/></g><path fill="url(#g)" d="M292.979 95.187c4.43 0 8.021-3.352 8.021-7.486 0-4.135-3.591-7.487-8.021-7.487-4.43 0-8.021 3.352-8.021 7.487 0 4.134 3.591 7.486 8.021 7.486z"/><path fill="url(#h)" d="M32.021 139.037c4.43 0 8.021-3.352 8.021-7.486 0-4.135-3.59-7.487-8.02-7.487S24 127.416 24 131.551c0 4.134 3.591 7.486 8.021 7.486z"/><path fill="url(#i)" d="M48.064 155.08c2.658 0 4.813-1.915 4.813-4.278 0-2.363-2.155-4.278-4.813-4.278s-4.813 1.915-4.813 4.278c0 2.363 2.155 4.278 4.813 4.278z"/><g filter="url(#j)"><path fill="#fff" fill-rule="evenodd" d="M82.839 18.545a3.96 3.96 0 013.96-3.961h146.913a3.96 3.96 0 013.961 3.96v158.429a3.96 3.96 0 01-3.961 3.96H86.799a3.96 3.96 0 01-3.96-3.96V18.545z" clip-rule="evenodd"/></g><path fill="url(#k)" fill-rule="evenodd" d="M82.839 13.791h154.834v15.062H82.839V13.791z" clip-rule="evenodd"/><path fill="#fff" fill-rule="evenodd" d="M91.573 23.304a2.38 2.38 0 002.382-2.378 2.38 2.38 0 00-2.382-2.379 2.38 2.38 0 00-2.382 2.379 2.38 2.38 0 002.382 2.378zm7.94 0a2.38 2.38 0 002.382-2.378 2.38 2.38 0 00-2.382-2.379 2.38 2.38 0 00-2.382 2.379 2.38 2.38 0 002.382 2.378zm7.94 0a2.38 2.38 0 002.382-2.378 2.38 2.38 0 00-2.382-2.379 2.38 2.38 0 00-2.382 2.379 2.38 2.38 0 002.382 2.378z" clip-rule="evenodd"/><g filter="url(#l)"><rect width="38.956" height="12.07" x="27.209" y="40.642" fill="url(#m)" rx="3.961"/></g><g filter="url(#n)"><rect width="37.74" height="31.71" x="63.571" y="148.663" fill="url(#o)" rx="3.961"/></g><path fill="#fff" fill-rule="evenodd" d="M82.175 154.237a.837.837 0 01.174-.025c.304.013.57.195.695.471l2.58 5.252 5.856.867a.79.79 0 01.614.542.786.786 0 01-.192.796l-4.193 4.112.967 5.797a.8.8 0 01-.31.775.8.8 0 01-.831.068l-5.21-2.75-5.212 2.75a.8.8 0 01-.83-.068.8.8 0 01-.311-.775l.968-5.797-4.194-4.112a.786.786 0 01-.192-.796.79.79 0 01.614-.542l5.856-.867 2.58-5.252a.8.8 0 01.571-.446zm2.233 6.788l-2.084-4.187-2.084 4.187a.79.79 0 01-.596.421l-4.64.694 3.35 3.27a.79.79 0 01.248.694l-.794 4.632 4.144-2.18a.791.791 0 01.744 0l4.144 2.18-.794-4.632a.79.79 0 01.248-.694l3.35-3.27-4.64-.694a.79.79 0 01-.596-.421z" clip-rule="evenodd"/><g filter="url(#p)"><rect width="59" height="48" x="101" y="55" fill="#fff" rx="3.961"/></g><path fill="url(#q)" fill-rule="evenodd" d="M116 70.391c0-1.872 1.55-3.391 3.462-3.391h5.769c1.911 0 3.461 1.519 3.461 3.391h13.846c1.912 0 3.462 1.52 3.462 3.392v15.826c0 1.872-1.55 3.391-3.462 3.391h-23.076C117.55 93 116 91.481 116 89.609V70.39zm26.538 2.261h-23.076c-.636 0-1.154.508-1.154 1.13V89.61c0 .622.518 1.13 1.154 1.13h23.076c.636 0 1.154-.508 1.154-1.13V73.783c0-.623-.518-1.13-1.154-1.13z" clip-rule="evenodd"/><g filter="url(#r)"><rect width="46" height="41" x="174" y="6.652" fill="url(#s)" rx="3.961"/></g><path fill="#fff" fill-rule="evenodd" d="M192.791 18.263c0-1.441 1.131-2.61 2.525-2.61h3.367c1.394 0 2.525 1.169 2.525 2.61v6.962h2.788c1.072 0 1.411.197.395 1.251l-5.524 5.738c-.927.96-1.385 1.439-1.842 1.438-.458 0-.915-.48-1.84-1.438l-5.55-5.738c-1.016-1.054-.766-1.25.421-1.25h2.735v-6.963zM186 35.081v-3.429h1.692v3.429c0 .472.38.857.846.857h16.924a.853.853 0 00.846-.857v-3.429H208v3.429c0 1.42-1.137 2.571-2.538 2.571h-16.924c-1.401 0-2.538-1.151-2.538-2.571z" clip-rule="evenodd"/><g filter="url(#t)"><rect width="60.346" height="42.016" x="192" y="81" fill="url(#u)" rx="3.961"/></g><path fill="#fff" fill-rule="evenodd" d="M221.764 110.459c-4.827-3.225-9.196-8.289-9.313-8.518-.112-.117-.229-.463-.229-.693 0-.229.117-.576.229-.805.117-.229 4.598-5.298 9.313-8.523.346-.229.804-.229 1.262-.112.345.23.691.576.691 1.034v4.26s10 .575 10.462.921c.575.576 1.033 1.957 1.033 3.225s-.458 2.532-1.033 2.995c-.462.23-10.462 1.035-10.462 1.035v4.259c0 .463-.229.805-.691 1.039-.342.229-.804.112-1.262-.117z" clip-rule="evenodd"/><g filter="url(#v)"><path fill="#fff" fill-rule="evenodd" d="M143 143.753a4.753 4.753 0 014.753-4.753h50.84a4.753 4.753 0 014.753 4.753v43.086a4.752 4.752 0 01-4.753 4.752h-50.84a4.752 4.752 0 01-4.753-4.752v-43.086z" clip-rule="evenodd"/></g><path fill="url(#w)" fill-rule="evenodd" d="M179.403 152.975a.638.638 0 01.351-.07.666.666 0 01.35.105c1.66 1.12 4.115 2.635 5.791 3.669 1.062.655 1.811 1.117 1.849 1.165.1.127.175.267.175.42a.686.686 0 01-.175.421c-.037.046-.746.479-1.762 1.1-1.677 1.024-4.189 2.559-5.878 3.699a.684.684 0 01-.701.035.659.659 0 01-.35-.596v-3.012s-19.169-.316-19.415-.491c-.359-.254-.596-.468-.596-1.156 0-.687.237-.867.596-1.121.246-.175 19.415-.63 19.415-.63v-2.943c0-.254.127-.477.35-.595zm-12.546 13.938c.105-.07.228-.1.351-.105a.653.653 0 01.35.07.659.659 0 01.351.596v3.012s19.169.315 19.414.49c.359.254.596.469.596 1.156 0 .688-.237.867-.596 1.121-.245.175-19.414.63-19.414.63v2.943a.656.656 0 01-.351.595.673.673 0 01-.701-.035c-1.66-1.12-4.115-2.635-5.791-3.669-1.062-.655-1.811-1.117-1.848-1.164-.101-.127-.176-.268-.176-.421 0-.153.075-.298.176-.42.036-.046.746-.48 1.761-1.1 1.677-1.024 4.189-2.559 5.878-3.699z" clip-rule="evenodd"/><g filter="url(#x)"><path fill="url(#y)" fill-rule="evenodd" d="M67.85 115.191a3.96 3.96 0 013.96-3.961h14.538a3.96 3.96 0 013.96 3.961v10.26a3.96 3.96 0 01-3.96 3.961H71.81a3.96 3.96 0 01-3.96-3.961v-10.26z" clip-rule="evenodd"/></g><g filter="url(#z)"><path fill="url(#A)" fill-rule="evenodd" d="M269.985 109.843a3.96 3.96 0 013.96-3.961h14.538a3.961 3.961 0 013.961 3.961v10.26a3.96 3.96 0 01-3.961 3.961h-14.538a3.96 3.96 0 01-3.96-3.961v-10.26z" clip-rule="evenodd"/></g><g filter="url(#B)"><path fill="#fff" fill-rule="evenodd" d="M231.483 24.282a3.96 3.96 0 013.96-3.961h5.982a3.96 3.96 0 013.961 3.96v5.983a3.96 3.96 0 01-3.961 3.96h-5.982a3.96 3.96 0 01-3.96-3.96v-5.982z" clip-rule="evenodd"/></g><defs><linearGradient id="a" x1="-97.937" x2="18.449" y1="92.022" y2="323.505" gradientUnits="userSpaceOnUse"><stop stop-color="#F0F0F0"/><stop offset="1" stop-color="#F2EDFD"/></linearGradient><linearGradient id="g" x1="276.944" x2="290.63" y1="86.676" y2="104.274" gradientUnits="userSpaceOnUse"><stop stop-color="#F0F0F0"/><stop offset="1" stop-color="#F2EDFD"/></linearGradient><linearGradient id="h" x1="24" x2="40.042" y1="139.143" y2="139.143" gradientUnits="userSpaceOnUse"><stop stop-color="#F50"/><stop offset=".572" stop-color="#FF2000"/><stop offset="1" stop-color="#FF2000"/></linearGradient><linearGradient id="i" x1="38.443" x2="46.161" y1="150.216" y2="160.638" gradientUnits="userSpaceOnUse"><stop stop-color="#F0F0F0"/><stop offset="1" stop-color="#F2EDFD"/></linearGradient><linearGradient id="k" x1="-35.286" x2="-33.258" y1="22.161" y2="63.99" gradientUnits="userSpaceOnUse"><stop stop-color="#392DD1"/><stop offset="1" stop-color="#FF4343"/></linearGradient><linearGradient id="m" x1="-2.511" x2="2.556" y1="47.348" y2="80.163" gradientUnits="userSpaceOnUse"><stop stop-color="#392DD1"/><stop offset="1" stop-color="#FF4343"/></linearGradient><linearGradient id="o" x1="63.571" x2="101.312" y1="180.597" y2="180.597" gradientUnits="userSpaceOnUse"><stop stop-color="#F50"/><stop offset=".572" stop-color="#FF2000"/><stop offset="1" stop-color="#FF2000"/></linearGradient><linearGradient id="q" x1="93.113" x2="119.46" y1="81.448" y2="142.44" gradientUnits="userSpaceOnUse"><stop stop-color="#392DD1"/><stop offset="1" stop-color="#FF4343"/></linearGradient><linearGradient id="s" x1="174" x2="220" y1="47.942" y2="47.942" gradientUnits="userSpaceOnUse"><stop stop-color="#F50"/><stop offset=".572" stop-color="#FF2000"/><stop offset="1" stop-color="#FF2000"/></linearGradient><linearGradient id="u" x1="145.962" x2="182.188" y1="104.347" y2="208.732" gradientUnits="userSpaceOnUse"><stop stop-color="#392DD1"/><stop offset="1" stop-color="#FF4343"/></linearGradient><linearGradient id="w" x1="159.042" x2="187.919" y1="177.676" y2="177.676" gradientUnits="userSpaceOnUse"><stop stop-color="#F50"/><stop offset=".572" stop-color="#FF2000"/><stop offset="1" stop-color="#FF2000"/></linearGradient><linearGradient id="y" x1="50.715" x2="68.277" y1="121.333" y2="164.858" gradientUnits="userSpaceOnUse"><stop stop-color="#392DD1"/><stop offset="1" stop-color="#FF4343"/></linearGradient><linearGradient id="A" x1="269.985" x2="292.444" y1="124.192" y2="124.192" gradientUnits="userSpaceOnUse"><stop stop-color="#F50"/><stop offset=".572" stop-color="#FF2000"/><stop offset="1" stop-color="#FF2000"/></linearGradient><filter id="c" width="101.635" height="68.3" x="227.751" y="121.905" color-interpolation-filters="sRGB" filterUnits="userSpaceOnUse"><feFlood flood-opacity="0" result="BackgroundImageFix"/><feColorMatrix in="SourceAlpha" result="hardAlpha" values="0 0 0 0 0 0 0 0 0 0 0 0 0 0 0 0 0 0 127 0"/><feOffset dy="11"/><feGaussianBlur stdDeviation="11"/><feColorMatrix values="0 0 0 0 0.152941 0 0 0 0 0.180392 0 0 0 0 0.25098 0 0 0 0.2 0"/><feBlend in2="BackgroundImageFix" result="effect1_dropShadow_1_199"/><feBlend in="SourceGraphic" in2="effect1_dropShadow_1_199" result="shape"/></filter><filter id="d" width="101.635" height="68.3" x="-15.112" y="59.588" color-interpolation-filters="sRGB" filterUnits="userSpaceOnUse"><feFlood flood-opacity="0" result="BackgroundImageFix"/><feColorMatrix in="SourceAlpha" result="hardAlpha" values="0 0 0 0 0 0 0 0 0 0 0 0 0 0 0 0 0 0 127 0"/><feOffset dy="11"/><feGaussianBlur stdDeviation="11"/><feColorMatrix values="0 0 0 0 0.152941 0 0 0 0 0.180392 0 0 0 0 0.25098 0 0 0 0.2 0"/><feBlend in2="BackgroundImageFix" result="effect1_dropShadow_1_199"/><feBlend in="SourceGraphic" in2="effect1_dropShadow_1_199" result="shape"/></filter><filter id="e" width="254.801" height="153.75" x="29.348" y="25.669" color-interpolation-filters="sRGB" filterUnits="userSpaceOnUse"><feFlood flood-opacity="0" result="BackgroundImageFix"/><feBlend in="SourceGraphic" in2="BackgroundImageFix" result="shape"/><feColorMatrix in="SourceAlpha" result="hardAlpha" values="0 0 0 0 0 0 0 0 0 0 0 0 0 0 0 0 0 0 127 0"/><feOffset/><feGaussianBlur stdDeviation="2.5"/><feComposite in2="hardAlpha" k2="-1" k3="1" operator="arithmetic"/><feColorMatrix values="0 0 0 0 0.866337 0 0 0 0 0.866337 0 0 0 0 0.866337 0 0 0 0.5 0"/><feBlend in2="shape" result="effect1_innerShadow_1_199"/></filter><filter id="j" width="176.834" height="188.35" x="71.839" y="8.584" color-interpolation-filters="sRGB" filterUnits="userSpaceOnUse"><feFlood flood-opacity="0" result="BackgroundImageFix"/><feColorMatrix in="SourceAlpha" result="hardAlpha" values="0 0 0 0 0 0 0 0 0 0 0 0 0 0 0 0 0 0 127 0"/><feOffset dy="5"/><feGaussianBlur stdDeviation="5.5"/><feColorMatrix values="0 0 0 0 0.152941 0 0 0 0 0.180392 0 0 0 0 0.25098 0 0 0 0.2 0"/><feBlend in2="BackgroundImageFix" result="effect1_dropShadow_1_199"/><feBlend in="SourceGraphic" in2="effect1_dropShadow_1_199" result="shape"/></filter><filter id="l" width="60.956" height="34.07" x="16.209" y="34.642" color-interpolation-filters="sRGB" filterUnits="userSpaceOnUse"><feFlood flood-opacity="0" result="BackgroundImageFix"/><feColorMatrix in="SourceAlpha" result="hardAlpha" values="0 0 0 0 0 0 0 0 0 0 0 0 0 0 0 0 0 0 127 0"/><feOffset dy="5"/><feGaussianBlur stdDeviation="5.5"/><feColorMatrix values="0 0 0 0 0.152941 0 0 0 0 0.180392 0 0 0 0 0.25098 0 0 0 0.2 0"/><feBlend in2="BackgroundImageFix" result="effect1_dropShadow_1_199"/><feBlend in="SourceGraphic" in2="effect1_dropShadow_1_199" result="shape"/></filter><filter id="n" width="59.74" height="53.71" x="52.571" y="142.663" color-interpolation-filters="sRGB" filterUnits="userSpaceOnUse"><feFlood flood-opacity="0" result="BackgroundImageFix"/><feColorMatrix in="SourceAlpha" result="hardAlpha" values="0 0 0 0 0 0 0 0 0 0 0 0 0 0 0 0 0 0 127 0"/><feOffset dy="5"/><feGaussianBlur stdDeviation="5.5"/><feColorMatrix values="0 0 0 0 0.152941 0 0 0 0 0.180392 0 0 0 0 0.25098 0 0 0 0.2 0"/><feBlend in2="BackgroundImageFix" result="effect1_dropShadow_1_199"/><feBlend in="SourceGraphic" in2="effect1_dropShadow_1_199" result="shape"/></filter><filter id="p" width="81" height="70" x="90" y="49" color-interpolation-filters="sRGB" filterUnits="userSpaceOnUse"><feFlood flood-opacity="0" result="BackgroundImageFix"/><feColorMatrix in="SourceAlpha" result="hardAlpha" values="0 0 0 0 0 0 0 0 0 0 0 0 0 0 0 0 0 0 127 0"/><feOffset dy="5"/><feGaussianBlur stdDeviation="5.5"/><feColorMatrix values="0 0 0 0 0.152941 0 0 0 0 0.180392 0 0 0 0 0.25098 0 0 0 0.2 0"/><feBlend in2="BackgroundImageFix" result="effect1_dropShadow_1_199"/><feBlend in="SourceGraphic" in2="effect1_dropShadow_1_199" result="shape"/></filter><filter id="r" width="68" height="63" x="163" y=".652" color-interpolation-filters="sRGB" filterUnits="userSpaceOnUse"><feFlood flood-opacity="0" result="BackgroundImageFix"/><feColorMatrix in="SourceAlpha" result="hardAlpha" values="0 0 0 0 0 0 0 0 0 0 0 0 0 0 0 0 0 0 127 0"/><feOffset dy="5"/><feGaussianBlur stdDeviation="5.5"/><feColorMatrix values="0 0 0 0 0.152941 0 0 0 0 0.180392 0 0 0 0 0.25098 0 0 0 0.2 0"/><feBlend in2="BackgroundImageFix" result="effect1_dropShadow_1_199"/><feBlend in="SourceGraphic" in2="effect1_dropShadow_1_199" result="shape"/></filter><filter id="t" width="82.346" height="64.016" x="181" y="75" color-interpolation-filters="sRGB" filterUnits="userSpaceOnUse"><feFlood flood-opacity="0" result="BackgroundImageFix"/><feColorMatrix in="SourceAlpha" result="hardAlpha" values="0 0 0 0 0 0 0 0 0 0 0 0 0 0 0 0 0 0 127 0"/><feOffset dy="5"/><feGaussianBlur stdDeviation="5.5"/><feColorMatrix values="0 0 0 0 0.152941 0 0 0 0 0.180392 0 0 0 0 0.25098 0 0 0 0.2 0"/><feBlend in2="BackgroundImageFix" result="effect1_dropShadow_1_199"/><feBlend in="SourceGraphic" in2="effect1_dropShadow_1_199" result="shape"/></filter><filter id="v" width="80.346" height="72.591" x="133" y="135" color-interpolation-filters="sRGB" filterUnits="userSpaceOnUse"><feFlood flood-opacity="0" result="BackgroundImageFix"/><feColorMatrix in="SourceAlpha" result="hardAlpha" values="0 0 0 0 0 0 0 0 0 0 0 0 0 0 0 0 0 0 127 0"/><feOffset dy="6"/><feGaussianBlur stdDeviation="5"/><feColorMatrix values="0 0 0 0 0.152941 0 0 0 0 0.180392 0 0 0 0 0.25098 0 0 0 0.2 0"/><feBlend in2="BackgroundImageFix" result="effect1_dropShadow_1_199"/><feBlend in="SourceGraphic" in2="effect1_dropShadow_1_199" result="shape"/></filter><filter id="x" width="44.459" height="40.182" x="56.849" y="105.23" color-interpolation-filters="sRGB" filterUnits="userSpaceOnUse"><feFlood flood-opacity="0" result="BackgroundImageFix"/><feColorMatrix in="SourceAlpha" result="hardAlpha" values="0 0 0 0 0 0 0 0 0 0 0 0 0 0 0 0 0 0 127 0"/><feOffset dy="5"/><feGaussianBlur stdDeviation="5.5"/><feColorMatrix values="0 0 0 0 0.152941 0 0 0 0 0.180392 0 0 0 0 0.25098 0 0 0 0.2 0"/><feBlend in2="BackgroundImageFix" result="effect1_dropShadow_1_199"/><feBlend in="SourceGraphic" in2="effect1_dropShadow_1_199" result="shape"/></filter><filter id="z" width="44.459" height="40.182" x="258.985" y="99.882" color-interpolation-filters="sRGB" filterUnits="userSpaceOnUse"><feFlood flood-opacity="0" result="BackgroundImageFix"/><feColorMatrix in="SourceAlpha" result="hardAlpha" values="0 0 0 0 0 0 0 0 0 0 0 0 0 0 0 0 0 0 127 0"/><feOffset dy="5"/><feGaussianBlur stdDeviation="5.5"/><feColorMatrix values="0 0 0 0 0.152941 0 0 0 0 0.180392 0 0 0 0 0.25098 0 0 0 0.2 0"/><feBlend in2="BackgroundImageFix" result="effect1_dropShadow_1_199"/><feBlend in="SourceGraphic" in2="effect1_dropShadow_1_199" result="shape"/></filter><filter id="B" width="35.903" height="35.904" x="220.483" y="14.321" color-interpolation-filters="sRGB" filterUnits="userSpaceOnUse"><feFlood flood-opacity="0" result="BackgroundImageFix"/><feColorMatrix in="SourceAlpha" result="hardAlpha" values="0 0 0 0 0 0 0 0 0 0 0 0 0 0 0 0 0 0 127 0"/><feOffset dy="5"/><feGaussianBlur stdDeviation="5.5"/><feColorMatrix values="0 0 0 0 0.152941 0 0 0 0 0.180392 0 0 0 0 0.25098 0 0 0 0.2 0"/><feBlend in2="BackgroundImageFix" result="effect1_dropShadow_1_199"/><feBlend in="SourceGraphic" in2="effect1_dropShadow_1_199" result="shape"/></filter></defs></svg>