<svg width="1440" height="405" viewBox="0 0 1440 405" fill="none" xmlns="http://www.w3.org/2000/svg"><mask id="a" maskUnits="userSpaceOnUse" x="0" y="-1" width="1440" height="406"><path transform="rotate(-180 1440 404.565)" fill="#C4C4C4" d="M1440 404.565h1440V809.13H1440z"/></mask><g mask="url(#a)" fill="#fff" fill-opacity=".08"><path d="M0 143.606v-.607C692.83 519.394 1385.66 5.141 2078.49 242.594v5.081C1385.66 8.706 692.83 521.487 0 143.606z"/><path d="M0 136.374v-.635c692.83 358.987 1385.66-172.947 2078.49 46.593v5.211C1385.66-33.542 692.83 496.848 0 136.374z"/><path d="M0 128.955v-.635c692.83 341.147 1385.66-208.902 2078.49-7.707v5.311C1385.66-76.844 692.83 471.646 0 128.955z"/><path d="M0 121.406v-.649c692.83 322.96 1385.66-245.507 2078.49-63.019v5.413C1385.66-120.94 692.83 445.94 0 121.406z"/><path d="M0 113.742v-.65C692.83 417.62 1385.66-169.539 2078.49-6.031v5.47C1385.66-165.698 692.83 419.873 0 113.743z"/><path d="M0 105.962v-.664C692.83 391.264 1385.66-214.818 2078.49-70.464v5.5C1385.66-210.937 692.83 393.514 0 105.961z"/><path d="M0 98.182v-.65c692.83 267.144 1385.66-357.961 2078.49-232.949v5.557C1385.66-256.532 692.83 366.957 0 98.182z"/><path d="M0 90.344v-.663c692.83 248.293 1385.66-395.953 2078.49-290.339v5.571C1385.66-302.346 692.83 340.254 0 90.344z"/><path d="M0 82.478V81.8c692.83 229.412 1385.66-434.016 2078.49-347.86v5.586C1385.66-348.289 692.83 313.494 0 82.477z"/><path d="M0 74.597v-.678c692.83 210.519 1385.66-472.077 2078.49-405.306v5.572C1385.66-394.232 692.83 286.733 0 74.597z"/><path d="M0 66.76v-.679C692.83 257.75 1385.66-443.972 2078.49-396.686v5.571C1385.66-440.075 692.83 260.016 0 66.759z"/><path d="M0 58.95v-.62c692.83 172.86 1385.66-547.913 2078.49-519.911v5.514C1385.66-485.686 692.83 233.443 0 58.951z"/><path d="M0 51.214v-.678c692.83 154.299 1385.66-585.341 2078.49-576.521v5.513C1385.66-530.965 692.83 207 0 51.214z"/><path d="M0 43.535v-.664c692.83 135.896 1385.66-622.435 2078.49-632.626v5.399C1385.66-575.768 692.83 181.019 0 43.535z"/><path d="M0 35.957v-.635c583.854 99.219 1167.71-436.757 1751.53-625.077h14.52C1177.36-407.107 588.689 137.313 0 35.957z"/><path d="M0 28.538v-.635c538.733 77.713 1077.47-385.589 1616.21-617.658h9.8C1083.99-360.327 542.01 107.896 0 28.538z"/><path d="M0 21.292v-.62c505.305 60.204 1010.61-355.667 1515.91-610.427h7.71C1015.75-336.453 507.874 82.868 0 21.292z"/></g></svg>