<svg width="610" height="129" viewBox="0 0 610 129" fill="none" xmlns="http://www.w3.org/2000/svg"><path d="M52.732.228h28.126v91.915c0 5.728-.864 10.889-2.593 15.482-1.675 4.485-4.134 8.322-7.376 11.51-3.188 3.134-7.052 5.538-11.591 7.214-4.593 1.621-9.754 2.431-15.482 2.431h-6.808c-5.674 0-10.808-.81-15.4-2.431-4.54-1.676-8.43-4.08-11.672-7.214-3.189-3.188-5.62-7.025-7.295-11.51C.91 103.032.047 97.871.047 92.143V.228h28.126v91.997c0 4.052.864 6.862 2.594 8.429 1.675 1.459 4.512 2.189 8.51 2.189h2.35c4 0 6.81-.73 8.43-2.189 1.784-1.567 2.675-4.377 2.675-8.429V.228zm99.769 63.384c2.377 0 4.268-.216 5.673-.648 1.459-.432 2.594-1.135 3.405-2.108.756-.972 1.297-2.242 1.621-3.81.27-1.404.405-3.295.405-5.673V38.404c0-2.377-.135-4.269-.405-5.674-.324-1.567-.865-2.836-1.621-3.81-.811-.972-1.946-1.674-3.405-2.107-1.405-.432-3.296-.648-5.673-.648h-13.374v37.447h13.374zm-41.5 63.385V.227h43.769c11.996 0 21.182 3.378 27.559 10.132 6.268 6.647 9.402 15.995 9.402 28.045v12.969c0 12.05-3.134 21.398-9.402 28.045-6.377 6.754-15.563 10.132-27.559 10.132h-15.643v37.447h-28.126zm133.082-25.938h41.743v25.938h-69.869V.227h28.126V101.06zm99.849-21.155h14.428l-7.214-38.095-7.214 38.095zm20.912 25.938h-27.396l-5.269 21.155h-28.936L337.853.227h26.667l34.53 126.77h-28.856l-5.35-21.155zm105.929-44.58V.228h28.126v126.769h-27.072l-25.613-61.034v61.034h-28.126V.227h27.072l25.613 61.035zM529.042.228h40.365c12.753 0 22.533 2.863 29.342 8.591 7.349 6.16 11.023 15.509 11.023 28.045V90.36c0 12.537-3.674 21.885-11.023 28.045-6.809 5.728-16.589 8.592-29.342 8.592h-40.365V.227zm28.126 25.937v74.894h12.239c2.27 0 4.08-.135 5.431-.405 1.621-.27 2.918-.756 3.89-1.459.973-.81 1.702-1.891 2.189-3.242.486-1.405.729-3.242.729-5.512V36.783c0-2.27-.243-4.107-.729-5.512-.487-1.35-1.216-2.431-2.189-3.242-.972-.702-2.269-1.189-3.89-1.459-1.351-.27-3.161-.405-5.431-.405h-12.239z" fill="#232323"/></svg>