<svg width="601" height="189" viewBox="0 0 601 189" fill="none" xmlns="http://www.w3.org/2000/svg"><path d="M599.464 70.156c-3.5-13.1-30.4-43-50-67.2-.4-.4-1.5-2.3-3.8-2.3-1.9 0-3.5 1.9-2.7 3.5.8 1.5 19.6 40.7 16.1 53.4-3.5 13.1-20.7 10.4-23.4 10.4-1.5 0-.4 1.2 1.2 2.7 9.6 8.5 15.8 20.4 15.8 35.7v11.5c0 .4 0 .4.4.4 21.9-2 55.3-15.4 46.4-48.1zm-84.9 75.7c0 11.1-15 17.3-24.6 17.3-10.4 0-25-6.1-25-17.3v-39.2c0-11.1 14.6-16.1 25-16.1 9.6 0 24.6 5.4 24.6 16.1v39.2zm-24.6-79.9c-23.1.4-50 13.4-50 40.3v41.1c0 27.3 26.9 40.3 50 40.3 22.7-.4 49.6-13.1 49.6-40.3v-40.7c0-26.9-26.9-40.3-49.6-40.7zm-149 79.9c0 11.1-15 17.3-24.6 17.3-10.4 0-25-6.1-25-17.3v-39.2c0-11.1 14.6-16.1 25-16.1 9.6 0 24.6 5.4 24.6 16.1v39.2zm-25-79.9c-23.1.4-50 13.4-50 40.3v41.1c0 27.3 26.9 40.3 50 40.3 22.7-.4 49.6-13.1 49.6-40.3v-40.7c-.1-26.9-27-40.3-49.6-40.7zm-250.599 4.6c1.5-1.5 2.7-2.7 1.2-2.7-2.7 0-20 2.7-23.4-10.4-3.4-13.1 15.4-51.9 16.1-53.4.4-1.5-.8-3.5-3.1-3.5-1.9 0-3.5 2.3-3.8 2.3-19.2 24.2-46.5 54.2-50 67.2-8.8 32.7 25.4 46.1 46.9 48.4.4 0 .4-.4.4-.4v-11.5c.4-15.6 6.1-27.6 15.7-36zm199.099 4.6c-18.4-5-31.9-6.9-51.9-6.9-19.6 0-33.4 1.9-51.9 6.9-.8.4-1.2 1.2-.8 1.5 6.1 5.4 8.8 12.3 10 20 10-2.3 19.2-3.8 30-4.6v94.9c0 .4.4.4.8.4h23.8c.4 0 .8 0 .8-.4v-94.9c10.4.8 18.8 1.9 28.8 4.6 1.5-7.7 4.6-15 11.1-20 .1-.7-.3-1.5-.7-1.5zm176.4-8.1c-1.9-.4-6.9-1.2-11.5-.8-22.7.8-48.4 14.2-48.4 40.3v81.1c0 .4.4.4.8.4h23.8c.4 0 .8 0 .8-.4v-81.1c0-8.8 10.8-13.8 19.6-15.8 2.7-8.5 7.7-15 15.4-21.1 1-1 .6-2.6-.5-2.6zm-306.699 46.5c0 .4 0 .4-.4.8 0 .4-.4.4-.8.4h-45.3v-8.1c0-11.1 13.4-16.5 23.8-16.5 10 0 22.7 5.4 22.7 16.5v6.9zm-22.6-48.4c-23.4.4-49.2 13.8-49.2 41.1v41.5c0 27.7 25.7 40.7 49.2 41.1 16.9 0 35.7-6.9 45-21.9.4-.4 0-1.2-.4-1.5-8.1-4.6-12.7-7.3-20.7-11.5-.4 0-.4 0-.8.4-4.2 7.3-15.4 11.1-23.1 11.1-10.4 0-23.8-6.5-23.8-17.7v-12.3h64.9c3.5 0 6.1-2.7 6.1-6.1v-22.7c0-27.7-24.2-41.1-47.2-41.5z" fill="#6AAE22"/></svg>