<svg xmlns="http://www.w3.org/2000/svg" width="922" height="368" fill="none"><path fill="#000" d="M164.425 66.113 64.245 300.662h24.793l26.473-62.995 4.325-10.25h122.027l4.325 10.25 26.473 62.995h24.794L197.275 66.113h-32.85ZM180.84 82.86l52.524 124.421H128.326l52.514-124.42ZM538.109 281.218l-55.28-139.377h-22.782l63.658 158.81h28.817l63.659-158.81h-22.782l-55.29 139.377ZM701.807 138.481c-47.585 0-79.078 35.848-79.078 82.76 0 46.911 31.835 82.759 79.078 82.759 47.244 0 79.068-35.848 79.068-82.759 0-46.912-31.492-82.76-79.068-82.76Zm0 146.086c-32.84 0-56.296-26.131-56.296-63.326 0-37.196 23.456-63.327 56.296-63.327 32.83 0 56.286 26.131 56.286 63.327 0 37.195-23.456 63.326-56.286 63.326ZM429.641 160.549c-6.065-6.92-13.368-12.331-21.907-16.224-8.55-3.892-18.336-5.844-29.37-5.844-10.823 0-20.72 2.113-29.692 6.327-8.982 4.214-16.606 10.058-22.883 17.522-6.276 7.463-11.144 16.224-14.604 26.282-3.471 10.058-5.19 20.931-5.19 32.619 0 11.687 1.73 22.56 5.19 32.619 3.46 10.058 8.489 18.829 15.087 26.292 6.598 7.463 14.554 13.307 23.858 17.522 9.304 4.224 19.805 6.326 31.482 6.326 9.526 0 17.794-1.297 24.834-3.892 7.031-2.595 13.146-5.945 18.337-10.059 5.19-4.103 9.575-8.549 13.146-13.307 3.57-4.757 6.538-9.414 8.931-13.961l-19.804-9.082c-1.73 3.249-3.843 6.648-6.327 10.219-2.484 3.571-5.512 6.819-9.083 9.736-3.57 2.927-7.795 5.361-12.663 7.303-4.868 1.941-10.662 2.927-17.371 2.927-15.791 0-28.132-5.08-36.994-15.259-8.871-10.169-13.85-23.898-14.926-41.219h118.466v-12.009c0-10.813-1.569-20.931-4.707-30.346-3.149-9.394-7.755-17.562-13.81-24.492Zm-99.305 46.741c2.162-14.926 7.463-26.775 15.902-35.536 8.438-8.761 19.151-13.146 32.126-13.146 14.282 0 25.206 4.496 32.78 13.468 7.563 8.982 11.898 20.72 12.985 35.214h-93.793ZM839.303 108.92c-.211 1.076-.543 2.042-1.005 2.897-.574 1.066-1.389 2.042-2.465 2.937-1.026.845-2.092 1.458-3.178 1.831-1.086.372-2.464.553-4.124.553-2.213 0-4.204-.453-5.975-1.358-1.77-.905-3.077-2.243-3.922-4.013a10.298 10.298 0 0 1-3.873 3.872c-1.659.956-3.721 1.438-6.196 1.438-1.619 0-3.077-.251-4.375-.744a9.38 9.38 0 0 1-3.319-2.132 8.268 8.268 0 0 1-1.74-2.575c-.423-.976-.644-2.092-.644-3.35 0-1.257.241-2.393.724-3.429a7.66 7.66 0 0 1 1.972-2.626 9.112 9.112 0 0 1 2.876-1.689 9.735 9.735 0 0 1 3.41-.614c1.509-.04 3.007-.06 4.486-.08 1.479-.02 2.977-.03 4.486-.03V96.82c0-1.88-.543-3.259-1.64-4.124-1.096-.865-2.514-1.297-4.284-1.297-1.771 0-3.239.392-4.406 1.186-1.157.795-1.79 2.073-1.911 3.853l-4.526-.815c.141-1.247.483-2.333 1.016-3.279a8.549 8.549 0 0 1 2.484-2.796 10.558 10.558 0 0 1 3.46-1.58 15.787 15.787 0 0 1 3.933-.492c.815 0 1.639.08 2.494.251.855.171 1.68.413 2.495.745a9.599 9.599 0 0 1 2.243 1.297 8.427 8.427 0 0 1 1.74 1.851 9.48 9.48 0 0 1 3.48-2.987c1.398-.704 3.148-1.056 5.261-1.056 2.403 0 4.325.432 5.783 1.297 1.458.865 2.686 2.072 3.681 3.621a11.892 11.892 0 0 1 1.72 4.234c.292 1.53.443 3.33.443 5.402v1.438l-18.93.061v.221c0 1.187.131 2.333.382 3.46.262 1.126.684 2.122 1.278 2.987a6.69 6.69 0 0 0 2.323 2.102c.966.533 2.143.805 3.551.805 1.358 0 2.655-.402 3.872-1.217 1.217-.815 2.032-2.102 2.434-3.873l4.486.805Zm-30.758-5.512c-1.438 0-2.685.413-3.731 1.247-1.056.835-1.58 2.022-1.58 3.571 0 1.549.503 2.736 1.519 3.571s2.263 1.247 3.732 1.247a10.8 10.8 0 0 0 3.148-.473 6.14 6.14 0 0 0 2.655-1.579c1.067-1.066 1.72-2.162 1.932-3.269.221-1.106.332-2.303.332-3.601v-.774l-8.007.06Zm26.574-3.49c-.04-1.287-.191-2.464-.473-3.51-.271-1.056-.724-1.962-1.357-2.736a6.108 6.108 0 0 0-1.992-1.63c-.815-.422-1.841-.633-3.098-.633-1.066 0-1.991.18-2.766.553a6.842 6.842 0 0 0-2.052 1.499 7.837 7.837 0 0 0-1.74 2.876 10.95 10.95 0 0 0-.583 3.601h14.061v-.02Z"/><path fill="#000" d="M819.177 140.604c-21.122 0-38.302-17.18-38.302-38.302 0-21.123 17.18-38.302 38.302-38.302s38.312 17.18 38.312 38.302-17.19 38.302-38.312 38.302Zm0-72.37c-18.779 0-34.067 15.279-34.067 34.068 0 18.789 15.278 34.067 34.067 34.067s34.067-15.278 34.067-34.067-15.278-34.068-34.067-34.068Z"/></svg>