<svg width="612" height="298" viewBox="0 0 612 298" fill="none" xmlns="http://www.w3.org/2000/svg"><path d="M266.532 77.327v142.891c-38.795 27.108-88.675 47.47-125.18 77.469v-24.096c33.734-22.048 69.397-42.53 104.577-64.698v-96.385c-29.036 18.313-59.156 32.891-86.746 51.325v32.53l-17.831 8.795v-55.663l125.18-72.168zm-139.998 72.048v146.264L.751 219.616V76.725l20.24 12.048V208.29l86.868 53.253v-99.999l-28.916-16.627v-22.891l47.591 27.349zm131.929-82.289l-20.121 12.048-20.722-11.446-83.494-45.18-84.337 45.3 84.337 48.193 6.265-3.735 6.506-3.494 14.337-8.192 21.084 10.723-9.156 5.301-33.253 19.277-6.265 3.614C91.957 115.399 50.512 91.303 8.946 67.206 50.873 43.833 90.873 21.664 133.283.34c36.144 16.627 69.397 36.747 104.216 55.783 7.108 3.735 13.976 7.35 20.964 10.964z" fill="#010101"/><path d="M355.207 131.182h23.373a22.78 22.78 0 01-1.928 4.578 24.083 24.083 0 01-2.53 3.614 19.258 19.258 0 01-3.132 3.133 27.585 27.585 0 01-17.831 5.903 33.97 33.97 0 01-16.265-3.493 30.246 30.246 0 01-10.844-12.049 29.03 29.03 0 01-4.096-14.698 26.27 26.27 0 014.096-13.615 26.749 26.749 0 0111.205-10.723 32.772 32.772 0 0129.036-1.084 41.437 41.437 0 0112.771 8.675l2.289 2.53 10.723-10.241-2.53-2.53a62.296 62.296 0 00-17.711-12.048 52.396 52.396 0 00-9.638-2.53 55.19 55.19 0 00-10-.964 45.662 45.662 0 00-23.012 5.783 41.685 41.685 0 00-16.386 15.301 42.778 42.778 0 00-6.024 21.807 41.933 41.933 0 0010.241 27.711 45.304 45.304 0 0015.783 12.048 50.608 50.608 0 0020.241 3.735 38.788 38.788 0 0041.325-41.205v-3.373h-39.156v13.735zm79.274-53.012l-39.036 82.53h14.94l12.048-25.06h28.554l12.048 25.06h15.422l-38.554-82.53h-5.422zm10.723 43.615h-15.662l7.831-16.627 7.831 16.627zm53.375 25.3V78.29h-14.097v82.651h43.374v-13.856h-29.277zm74.218-68.915h-5.783l-38.916 82.53h15.663l12.048-25.06h28.674l12.049 25.06h15.421l-39.156-82.53zm4.819 43.615h-15.783l7.952-16.627 7.831 16.627zM405.69 203.832v1.325a19.633 19.633 0 01-5.673 15.083 19.637 19.637 0 01-15.05 5.761 24.097 24.097 0 01-10.241-1.928 23.265 23.265 0 01-7.952-5.783 21.212 21.212 0 01-4.578-14.338 21.935 21.935 0 0111.084-18.795 22.776 22.776 0 0111.446-2.891 32.624 32.624 0 015.06 0c1.642.354 3.254.837 4.82 1.446a28.41 28.41 0 018.915 6.024l.723.602-4.458 4.217v-.603a19.87 19.87 0 00-6.988-4.698 17.593 17.593 0 00-7.228-1.687 17.221 17.221 0 00-8.434 2.169 14.577 14.577 0 00-6.145 5.903 15.062 15.062 0 00-2.289 7.711 16.031 16.031 0 002.289 8.072 16.739 16.739 0 006.265 6.024 18.314 18.314 0 008.795 2.169 14.94 14.94 0 008.675-2.41 8.064 8.064 0 001.807-1.686c.51-.636.954-1.323 1.326-2.049a9.998 9.998 0 001.325-3.494h-12.892v-5.783l19.398-.361zm23.855-20.24l19.397 41.325h-6.385l-6.265-13.012h-15.784l-6.144 13.012h-6.506l19.518-41.325h2.169zm4.216 22.65l-5.301-11.205-5.301 11.205h10.602zm59.638-22.65l5.904 41.325h-5.663l-3.614-26.024-13.012 26.024h-2.048l-13.133-26.265-3.253 26.265h-6.024l6.024-41.325h1.928l15.542 31.325 15.301-31.325h2.048zm35.543 5.903h-18.674v10.481h18.554v5.784h-18.554v13.614h18.554v5.663h-24.096v-41.326h24.096l.12 5.784zm26.022 18.072a12.053 12.053 0 012.048 6.506 10.972 10.972 0 01-3.614 8.072 12.037 12.037 0 01-8.555 3.494 12.044 12.044 0 01-6.987-2.168 18.072 18.072 0 01-5.663-6.747v-.723l4.94-3.012v.843a15.042 15.042 0 003.614 4.699 6.38 6.38 0 003.735 1.325 8.059 8.059 0 003.373-.723 7.95 7.95 0 002.29-1.927 5.785 5.785 0 00.722-2.892 5.298 5.298 0 00-1.204-3.373 27.114 27.114 0 00-6.747-5.783 38.898 38.898 0 01-6.386-5.543 11.2 11.2 0 01-2.168-6.626 9.512 9.512 0 011.325-5.181 8.442 8.442 0 011.566-2.048l2.289-1.566a9.635 9.635 0 015.301-1.325 11.324 11.324 0 015.663 1.445 18.46 18.46 0 015.422 5.301v.844l-4.579 3.494v-.723a18.055 18.055 0 00-3.494-3.735 6.504 6.504 0 00-3.012-.723 3.967 3.967 0 00-3.253 1.205 3.614 3.614 0 00-1.325 2.891 8.943 8.943 0 000 2.169 12.042 12.042 0 001.807 2.289c.372.44.821.807 1.326 1.085l3.735 2.771a30.859 30.859 0 017.831 6.385z" fill="#000"/></svg>