<svg width="670" height="149" viewBox="0 0 670 149" fill="none" xmlns="http://www.w3.org/2000/svg"><path d="M653.638 1.192c5.13-.27 10.261-.27 15.391-.135-15.391 32.133-30.243 64.536-45.229 96.804h-12.556c-6.886-16.201-14.987-31.998-22.142-48.2a277.31 277.31 0 0114.986 0c4.32 9.992 9.451 19.577 13.366 29.568 12.016-26.057 24.438-51.98 36.184-78.037z" fill="#CD040B"/><path d="M267.096 14.963c9.856.135 19.847.135 29.703 0a864.574 864.574 0 000 26.463c-9.856-.135-19.847 0-29.838-.135.27-8.776 0-17.552.135-26.328zM117.637 52.767c20.252-11.476 49.684-7.56 63.321 12.286 8.371 11.746 10.801 26.598 10.666 40.639-23.222.135-46.445 0-69.667.135 1.08 7.156 4.186 14.716 10.801 18.497 9.451 5.535 24.302 3.915 29.028-7.021 9.586-.27 19.037-.27 28.623 0-2.971 10.936-10.936 20.252-20.927 25.383-10.801 5.94-23.763 7.02-35.779 4.995-12.691-2.025-24.437-9.181-31.593-19.847-7.83-11.341-9.856-25.787-8.1-39.154 1.755-14.716 10.53-28.622 23.627-35.913zm15.796 16.877c-6.615 3.105-9.856 10.26-11.341 17.146h39.694c-.81-5.265-2.7-10.8-6.751-14.446-5.67-5.536-14.716-5.67-21.602-2.7zm295.543-22.008c15.932-2.835 33.618.54 45.905 11.612 20.927 18.631 21.872 54.68 2.43 74.662-15.392 16.066-41.179 19.037-60.891 9.991-15.256-6.886-25.652-22.412-27.407-38.884-.676-9.586-.271-19.442 3.645-28.353 5.94-15.256 20.387-26.327 36.318-29.028zm3.376 22.008c-8.371 2.97-12.287 12.016-13.502 20.251-.945 10.261-.81 21.873 5.806 30.378 7.156 9.316 22.952 9.046 30.108-.135 5.94-7.425 6.885-17.551 6.21-26.732-.405-8.1-3.24-16.742-9.991-21.737-5.4-3.646-12.556-4.186-18.631-2.025zm102.609-16.472c9.856-7.696 23.898-8.506 35.239-3.915 8.1 3.51 14.176 10.666 17.011 18.902 3.241 8.505 2.296 17.686 2.296 26.597 0 17.012-.135 34.023.135 50.9-9.856.135-19.712 0-29.703.135V87.465c0-4.995-1.89-10.396-6.076-13.501-6.345-4.32-15.526-3.51-20.927 1.89-4.32 4.32-6.21 10.531-6.075 16.472v53.465c-9.721-.135-19.577 0-29.298-.135 0-32.133.135-64.266 0-96.4 9.586.136 19.037-.134 28.623.136-.135 4.455-.135 8.91-.27 13.366 2.97-3.24 5.4-6.886 9.045-9.586zM.581 49.527h30.782c6.211 20.657 12.827 41.314 18.632 62.106 7.156-20.387 12.556-41.45 19.307-62.106 9.856-.135 19.847 0 29.703-.135-11.341 32.133-22.412 64.266-33.618 96.399-10.261 0-20.522-.135-30.783.135C22.858 113.928 12.462 81.39.58 49.526zm197.793-.135h28.353c-.135 5.4 0 10.8-.27 16.201 2.43-2.7 4.185-6.075 6.751-8.64 6.345-7.021 16.741-9.857 25.922-7.426a795.428 795.428 0 000 25.382c-7.291-.81-15.391-.54-21.602 3.915-6.616 4.59-9.586 13.097-9.451 20.927-.135 15.392 0 30.648 0 46.04-9.856 0-19.847-.135-29.703.135.135-32.268.135-64.401 0-96.534zm68.722.135c9.991-.135 19.847 0 29.838-.135-.135 32.133 0 64.266 0 96.399-9.856-.135-19.847 0-29.838 0V49.527zm37.804-.135c26.867.135 53.735 0 80.467.135-.27 7.425 0 14.716-.135 22.142-.945 1.89-2.565 3.24-3.78 4.86-13.772 15.257-27.273 30.918-41.314 46.04 15.796.27 31.593 0 47.389.135v23.222a8428.719 8428.719 0 00-82.627 0v-22.412c14.446-16.202 28.757-32.268 43.339-48.335.405-.81 2.16-1.62 1.215-2.7-14.852.405-29.703 0-44.554.27V49.392z" fill="#000"/></svg>