<svg width="596" height="210" viewBox="0 0 596 210" fill="none" xmlns="http://www.w3.org/2000/svg"><path d="M595.4 50.303h-30.931l-17.901 75.522-2.511 10.363c-1.726.471-3.453.941-5.181 1.257-3.141.627-6.437.941-9.889.941-3.927 0-7.065-.627-9.421-1.727-2.2-1.098-3.927-2.667-4.869-4.867-.943-2.042-1.257-4.553-1.1-7.379.157-2.826.785-5.967 1.57-9.105l9.421-39.255 6.122-26.063h-31.559l-14.287 60.291c-1.728 7.22-2.67 14.131-2.984 20.726-.315 6.593.785 12.246 2.984 17.428 2.199 5.024 6.122 8.949 11.461 11.931 5.339 2.984 13.033 4.394 22.769 4.394 6.752 0 12.717-.624 17.743-1.725.157 0 .47-.156.627-.156-1.412 6.279-4.239 11.302-8.637 15.23-4.553 3.925-11.148 5.966-19.941 5.966-3.769 0-7.222-.157-10.363-.625l-6.123 25.592c4.083.471 8.637.785 13.66.785 9.421 0 17.585-1.099 24.65-3.142 7.066-2.198 13.035-5.337 18.214-9.734 5.024-4.397 9.263-9.892 12.717-16.328 3.453-6.594 6.122-14.291 8.164-23.396l21.353-89.81 4.242-17.114zm-129.534 64.53c-1.885 7.851-2.513 15.858-1.728 23.709.785 8.007 3.926 20.096 6.91 26.219h-29.833c-3.61-6.12-3.452-9.104-4.237-10.988-3.927 3.141-8.164 5.809-12.874 7.851-4.711 2.042-9.893 3.141-15.859 3.141-6.909 0-12.875-1.257-17.742-3.612-4.867-2.353-8.95-5.651-12.091-9.734-3.141-4.084-5.337-8.795-6.753-14.29-1.413-5.495-2.041-11.304-2.041-17.583 0-9.581 1.728-18.528 5.027-27.006 3.452-8.479 8.163-15.86 14.131-22.14 5.967-6.28 20.569-20.253 44.434-20.253h47.889l-15.233 64.686zm-21.824-38.467c-14.444 0-17.115 0-23.079 2.985-4.239 2.197-7.695 5.495-10.678 9.262a44.496 44.496 0 00-7.222 13.19c-1.726 5.024-2.669 10.204-2.669 15.544 0 6.594 1.101 11.931 3.297 15.857 2.197 3.925 6.28 5.809 12.247 5.809 3.142 0 6.122-.627 8.637-1.884 2.51-1.257 5.336-3.295 8.164-6.279.315-3.453.785-7.066 1.412-10.831.627-3.771 1.413-7.381 2.042-10.522l7.849-33.131zm-82.901 19.312c0 10.206-1.728 19.469-5.026 27.948-3.296 8.478-8.007 15.701-13.974 21.825-5.968 6.124-13.032 10.834-21.354 14.29-8.32 3.451-17.27 5.178-27.005 5.178-4.711 0-9.421-.47-14.29-1.255l-9.418 37.839H239.14l35.956-151.045h41.294c7.853 0 14.602 1.257 20.097 3.609 5.652 2.355 10.206 5.654 13.975 9.737 3.611 4.083 6.279 8.949 8.005 14.444 1.889 5.34 2.674 11.15 2.674 17.43zm-75.838 42.864c2.353.627 5.338.785 8.793.785 5.495 0 10.364-.943 14.915-2.985 4.395-2.041 8.322-4.868 11.461-8.477 3.142-3.611 5.496-8.008 7.38-13.032 1.727-5.027 2.67-10.678 2.67-16.8 0-5.969-1.257-11.149-3.925-15.233-2.67-4.237-7.221-6.435-13.815-6.435h-12.249l-15.23 62.177zm-65.002 0c-3.927 0-7.064-.628-9.421-1.727-2.198-1.099-3.926-2.668-4.867-4.868-.943-2.041-1.257-4.553-1.099-7.379.156-2.827.784-5.968 1.569-9.107l9.419-39.252h35.171l6.438-26.064h-35.328l8.163-32.973-32.973 5.179-20.882 88.241c-1.728 7.221-2.67 14.133-2.984 20.724-.315 6.594.785 12.25 2.984 17.429 2.198 5.025 6.123 8.949 11.462 11.933 5.338 2.983 13.032 4.395 22.767 4.395 6.752 0 12.717-.627 17.743-1.727.471-.159 1.255-.315 1.725-.471l6.439-26.849c-2.199.784-4.397 1.258-6.439 1.568-3.136.633-6.435.948-9.887.948zm-78.662-88.239l-27.321 114.615h30.932l27.162-114.615h-30.773zm34.071-13.19l4.71-19.94h-30.931l-4.71 19.94h30.931zM73.182 50.458c6.594 0 12.403 1.257 17.27 3.609 4.868 2.355 8.793 5.495 12.09 9.579 3.14 4.084 5.495 8.794 7.065 14.132 1.57 5.336 2.354 11.148 2.354 17.428 0 9.578-1.726 18.528-5.338 27.163-3.611 8.479-8.322 16.015-14.444 22.294-6.123 6.28-13.346 11.307-21.667 14.917-8.322 3.61-17.272 5.494-27.006 5.494-1.257 0-3.454 0-6.594-.156-3.14 0-6.75-.315-10.676-.943-4.083-.626-8.322-1.413-12.719-2.51A64.235 64.235 0 01.8 156.911L36.754 5.868 68.942.84 56.224 54.38c2.825-1.255 5.338-2.198 8.165-2.825 2.668-.782 5.652-1.097 8.793-1.097zm-27.007 88.869c4.867 0 9.42-1.1 13.66-3.611a37.56 37.56 0 0011.148-9.421c3.14-3.926 5.652-8.48 7.38-13.348 1.727-5.025 2.669-10.204 2.669-15.542 0-6.595-1.1-11.774-3.298-15.544-2.198-3.769-6.751-5.495-12.717-5.495-1.885 0-3.926.158-7.067.943-3.14.627-5.809 2.199-8.32 4.395l-13.504 56.995c4.083.628 5.339.784 6.439.784.784-.156 2.04-.156 3.61-.156z" fill="#002855"/></svg>