<svg xmlns="http://www.w3.org/2000/svg" width="190" height="41" fill="none" viewBox="0 0 190 41"><path fill="#000" d="M20.333.185v6.92h-4.388C2.949 7.105.249 16.725.249 23.645c0 5.063 1.519 9.451 4.388 12.49 2.363 2.531 5.57 3.881 9.283 3.881 2.531 0 4.557-.506 6.413-1.35v.675h8.608V.185h-8.608zM8.35 23.476c0-3.375 1.013-8.945 7.089-9.282.843 0 3.038-.17 4.725-.338v17.046c-1.012.844-2.869 1.35-4.725 1.35-1.857 0-3.545-.506-4.726-1.687-1.52-1.35-2.363-3.713-2.363-7.089zm42.7 8.945c-4.556 0-7.088-2.531-7.763-6.92h20.76v-.337c0-2.87 0-5.4-.17-6.414-.337-3.713-1.687-6.75-3.881-8.945-2.532-2.362-5.907-3.713-10.127-3.713-4.895 0-8.945 1.857-11.814 5.232-2.532 3.038-3.882 7.426-3.882 12.152 0 7.933 4.388 16.372 17.046 16.372 4.726 0 9.452-1.52 12.152-2.87v-7.932c-1.35 1.012-6.076 3.375-12.32 3.375zM49.87 13.52c3.206 0 5.4 2.194 5.569 5.063H43.456c.843-3.038 3.037-5.064 6.413-5.064zm39.999 6.75v19.07h8.607V18.92c0-8.439-3.881-12.658-11.983-12.658-2.7 0-5.907 1.013-7.088 1.52v-.676h-8.608v32.236h8.608V15.206c1.856-1.181 4.725-1.688 7.088-1.181 2.194.506 3.376 2.025 3.376 6.245zm81.013 5.907V7.105h-8.608v20.422c0 8.439 3.882 12.658 11.983 12.658 2.701 0 5.907-1.013 7.089-1.519v.675h8.607V7.105h-8.607V31.24c-1.857 1.181-4.726 1.688-7.089 1.181-2.194-.675-3.375-2.194-3.375-6.244zM105.734.185v28.017c0 3.882.675 6.582 2.025 8.439 1.688 2.194 4.389 3.375 8.439 3.375 3.207 0 6.245-.675 8.102-1.181V31.07c-1.182.338-4.557 1.013-6.414 1.013-1.181 0-2.194-.338-2.7-.844-.844-.844-.844-2.194-.844-3.376v-13.67c3.375 0 7.595.168 9.958.506V7.105h-9.958V.185h-8.608zm49.283 23.46c-1.688-2.363-4.389-3.544-9.283-4.557-2.025-.338-4.388-.844-5.739-1.519-.675-.337-1.012-.844-1.012-1.519 0-.506.337-1.013 1.012-1.35 1.351-.675 3.545-1.013 7.089-.338 3.376.675 6.92 1.857 8.101 2.363V8.961c-4.05-2.025-7.595-2.869-11.476-2.7-3.714 0-6.92 1.013-9.283 2.7-2.532 1.857-3.882 4.557-4.051 7.764-.169 5.401 3.038 8.608 10.802 10.127 1.688.337 3.882.844 4.894 1.181 1.013.338 1.519 1.013 1.519 1.857 0 .675-.506 1.35-1.35 1.688-1.519.675-3.713.506-5.232.337-4.388-.506-8.607-2.025-10.126-2.7v7.932c2.7 1.35 6.751 2.87 11.645 2.7 5.57-.168 12.658-1.687 13.84-9.113.675-2.7.169-5.064-1.35-7.089z"/></svg>