<svg width="600" height="198" viewBox="0 0 600 198" fill="none" xmlns="http://www.w3.org/2000/svg"><path d="M228 161.958h5.7v14.4h13.5v-14.4h5.7v34.3h-5.7v-14.5h-13.5v14.5H228v-34.3zm32.9 17.5v-.4c0-10.2 6.3-17.5 15.3-17.5 8.9 0 15.1 7.3 15.1 17.5v.4c0 10.2-6.3 17.5-15.3 17.5-8.9 0-15.1-7.3-15.1-17.5zm24.4-.1v-.3c0-7.4-3.9-12.4-9.3-12.4s-9.3 4.8-9.3 12.2v.3c0 7.4 3.9 12.4 9.3 12.4 5.6 0 9.3-4.8 9.3-12.2zm14.6-17.4h6l8.9 15.7 8.7-15.7h6v34.3h-5.7v-24.3l-9.2 15.9h-.1l-9-15.7v24.1H300v-34.3h-.1zm41.6 0h21.6v5.1h-16v9.3h14.1v5.1h-14.1v9.6h16.3v5.1h-21.8v-34.2h-.1zm29.5 29.9l3.5-4.2c2.6 2.3 5.4 4.1 9 4.1 3.3 0 5.4-1.7 5.4-4.4 0-2.2-1.2-3.6-6.5-5.5-6.5-2.5-9.9-4.8-9.9-10.3v-.1c0-5.7 4.5-9.6 10.9-9.6 3.9 0 7.7 1.3 10.8 4.1l-3.2 4.4c-2.3-1.9-4.9-3.2-7.7-3.2-3.1 0-4.9 1.7-4.9 3.9 0 2.5 1.3 3.6 7.1 6 6.4 2.5 9.3 5.1 9.3 10v.1c0 6-4.7 9.9-11.1 9.9-4.7-.3-8.9-1.9-12.7-5.2zm38.3-24.6h-9v-5.3H424v5.2h-9v28.9h-5.7v-28.8zm18.3 12.2v-.4c0-10.2 6.3-17.5 15.3-17.5 8.9 0 15.1 7.3 15.1 17.5v.4c0 10.2-6.3 17.5-15.3 17.5-8.9 0-15.1-7.3-15.1-17.5zm24.6-.1v-.3c0-7.4-3.9-12.4-9.3-12.4s-9.3 4.8-9.3 12.2v.3c0 7.4 3.9 12.4 9.3 12.4 5.3 0 9.3-4.8 9.3-12.2zm12.9-17.4h12.4c3.9 0 7.1 1.2 9.2 3.2 1.7 1.7 2.9 4.4 2.9 7.6v.1c0 5.2-2.9 8.6-7.1 10l8.1 13.2h-6.5l-7.3-12.2H471v12.1h-5.7v-34h-.2zm11.9 17.2c4.4 0 6.8-2.3 6.8-6v-.1c0-3.9-2.5-5.8-6.8-5.8h-6.3v11.9h6.3zm22.7-17.2h21.5v5.1h-16v9.3h14.1v5.1h-14.1v9.6h16.3v5.1h-21.8v-34.2zm74.5-94.1v7h10.6l-15.7 40.6-16.6-40.6h8.7v-7h-35.6v7h6l27.2 66.6c-3.6 9.6-5.7 13.2-10 18.9-4.1 5.1-7 7.9-12.8 11.8l10.6 9.3c1.2-1.5 2.2-2.8 2.9-3.8 5.4-7.4 11.3-18.9 15.6-30l28.1-72.7h6.8v-7h-25.7l-.1-.1zm-84.4 78.3c-22.5 0-37.4-16-37.4-39.7 0-24.3 15.3-40.4 38.4-40.4 19.5 0 32.4 12.1 32.4 30.5v6.4h-50.1c0 20.8 9.5 33.7 24.4 33.7 6.3 0 9.7-1.5 23.3-8.6l3.1 7c-16.5 9.2-22.4 11.1-34.1 11.1zm12.6-55.7c0-10-4.8-17.2-11.8-17.2-8.9 0-16 8.4-17.5 21.1h29.2v-3.9h.1zm-253.6 46.5l-39.1-107.2h-9.6l-40.7 107.2h-6.5v7H177v-7h-7.3l10.2-27.2h38.2l9.7 27.2h-4.7v7h32.4v-7h-6.7zm-65.1-37.4l16-41.9 15 41.9h-31zm110.9-1.7c-17.7-7-20.5-9-20.5-15.3 0-5.7 4.8-9.5 12.1-9.5 8.4 0 17.6 4.8 17.7 11.1 0 .7 0 1.7-.1 2.6h8.3l1.2-18.9H305l-.1 3.6c-4.8-4.1-10.6-5.7-18.8-5.7-16.1 0-26.8 9.2-26.8 23.1 0 11.8 6.1 18.5 22.3 24.7 16.4 6.3 20.7 9.6 20.7 16.3 0 5.4-5.1 8.9-13.1 8.9-10.5 0-19.8-6.1-19.8-12.8v-3.3h-9.2v21.1h8.1v-4.5c5.1 4.5 11.9 6.7 21.7 6.7 16.9 0 26.6-8.6 26.6-23.3.1-11.9-5.5-18.3-22-24.8zm103.7-10.9c0-13.5-7.7-20.9-21.8-20.9-10.6 0-16.4 3.1-27.3 14.1v-61.8H344l-22 7.3v6.8h7.6v104.5h-7.7v7h34.9v-7h-7.6v-48c11.1-10.5 13.8-12.1 20.4-12.1 6.8 0 9.2 3.2 9.2 13.2v46.9h-7.7v7h34.8v-7h-7.6v-50zm42.1 50v-118.7h-4.7l-21.8 7.2v6.9h6.8v104.6h-7.5v7h34.7v-7h-7.5z" fill="#3E3935"/><path d="M141.5 72.158L70.8.858c-.1-.1-.1-.1-.3 0L0 72.158v71.7c0 .1.1.1.1.1h141.2c.1 0 .1-.1.1-.1l.1-71.7zm-20.1 50c0 1.3-.3 1.7-1.6 1.7H21.3c-1.5 0-1.5-1.2-1.5-1.6v-39.7c0-2 0-2.2 1.3-3.5 1.3-1.3 47.1-47.4 47.6-48 .7-.9 1.3-1.2 1.7-1.2.6 0 1 .4 1.6 1 1.3 1.3 47.7 48.1 48.1 48.6.9.9.9 1.2.9 2.2v40.4h.4v.1z" fill="#FA8D29"/><path d="M593.6 142.758c-1.3 1.3-2.9 1.9-4.7 1.9-1.9 0-3.5-.6-4.8-1.9-1.3-1.3-1.9-2.9-1.9-4.8 0-2 .7-3.6 2-4.9 1.3-1.2 2.9-1.9 4.7-1.9 1.9 0 3.5.7 4.8 2 1.3 1.3 2 2.9 2 4.8-.1 1.9-.8 3.5-2.1 4.8zm-8.8-8.7c-1 1.2-1.6 2.3-1.6 3.9s.6 2.9 1.6 3.9 2.3 1.6 3.9 1.6c1.5 0 2.8-.6 3.9-1.6 1-1.2 1.6-2.5 1.6-3.9 0-1.5-.6-2.8-1.6-3.9-1.2-1.2-2.5-1.7-3.9-1.7-1.4.1-2.7.7-3.9 1.7zm1 7.7v-7.4h3.6c.6 0 1 .1 1.5.4.7.3 1 1 1 1.7 0 .6-.1 1-.6 1.3-.3.3-.7.4-1.3.4.4.1.9.3 1 .4.4.3.7.9.7 1.6v1.4h-1.9c0-.3-.1-.6-.1-1s0-.7-.1-.9c-.1-.3-.3-.4-.6-.6-.1 0-.4-.1-.7-.1h-.8v2.6h-1.7v.2zm3.7-5.9c-.3-.1-.6-.1-1.2-.1h-.4v2.2h.7c.4 0 .9-.1 1-.3.3-.1.4-.4.4-.9.1-.5-.2-.8-.5-.9z" fill="#3E3935"/></svg>