<svg xmlns="http://www.w3.org/2000/svg" version="1.0" viewBox="326.4 221.29 2298.24 746.58"><path d="M1527 221.6c-54.4 5.1-94.9 23.3-127.2 57.2-4.7 5-10.8 12-13.4 15.6l-4.8 6.5-32.4 157.3-32.4 157.3 1.1 33.5c4 120.4 20.1 181.7 62.9 238.9 29.8 39.8 69.8 65.6 116.7 75.4 19.5 4.1 31.9 5 58.8 4.4 24.2-.5 36.2-1.8 53.7-5.7 87.7-19.7 142.4-83.8 160-187.5 5.2-30.7 5.3-32.6 5.7-125.3l.4-87.2H1578v136h60l-.5 7.7c-.2 4.3-.7 14-1 21.5-.9 23.7-4 43.6-9.1 58.6-6.5 19.4-18.4 32.2-35.9 38.4-10.9 4-20.5 5.3-37.5 5.2-17.4-.2-25.8-1.8-37.6-7.5-13.3-6.3-26.5-21.8-33.4-39.3-14.7-36.6-20-87.8-20-190.6.1-146.4 12.2-202.1 48.5-223.1 10.1-5.9 19.5-8.1 36-8.6 17.3-.6 24.6.7 36 6.2 21.3 10.2 35.7 33.4 49 78.8 2.4 8.2 4.6 15.1 4.8 15.4.4.4 132.5-46.2 133.4-47 .1-.2-1.1-5.3-2.7-11.4-16-61.1-42.5-106.8-79.3-136.7-27.7-22.5-59.6-35.9-99.7-42.1-10.2-1.6-51.7-2.8-62-1.9zm-1137.1 8.6c0 .2-14.3 164.1-31.7 364.3l-31.8 364 77.5.3c42.6.1 77.5.1 77.6 0 .1-.2 4.1-96.8 8.9-214.8 9.3-228.6 9.7-239.2 10.2-238.7.2.1 21 101.3 46.3 224.7 25.4 123.5 46.3 225.5 46.6 226.8l.5 2.2 63.8-.2 63.7-.3L768 731.7l46.5-226.8.8 7.8c.4 4.3 4.5 103.6 9.2 220.8 4.7 117.2 8.8 215.8 9.1 219.3l.6 6.2H914l.7-2.8c.4-1.5 12.7-54.1 27.3-116.9l26.6-114.2-21.5-247.6L925.6 230h-90.7c-85.6 0-90.8.1-91.3 1.7-.3 1-19.5 99.7-42.6 219.3-23.2 119.6-42.4 218.6-42.7 220-.8 3.1 4.5 29.8-45-225.3L571.5 230h-90.7c-50 0-90.8.1-90.9.2zm748.6 1c-.2.7-38.9 164-86 362.8s-85.8 362.3-86.1 363.2c-.5 1.7 3.3 1.8 71 1.8 39.4 0 71.6-.3 71.6-.7 0-.9 21-103.4 21.6-105.6.5-1.6 2.8-1.7 30.4-1.7h29.8l1.2-5.3c.6-2.8 6.7-32.7 13.6-66.2 6.8-33.6 12.7-61.8 13-62.8.5-1.6-1.4-1.7-29.5-1.7-16.6 0-30.1-.2-30.1-.4 0-1.6 54.2-264.4 54.8-265.9.4-1.1 6.1 24.8 15.1 68.5 7.9 38.7 14.6 70.8 15 71.5.3.6 14.2-65.3 30.8-146.5l30.3-147.7-7.7-32.3-7.7-32.2h-75.3c-59.4 0-75.5.3-75.8 1.2zM1840 594.5V959h144l.1-195.8c0-151.3.3-195.3 1.2-193.9.7.9 38.6 88.9 84.2 195.5l83.1 193.7 35.7.3 35.7.2.5-2.2c.3-1.3 12.9-62.7 28-136.5l27.5-134.1V230h-144l-.2 193.1-.3 193.2-81.6-192.9-81.6-192.9-66.2-.3-66.1-.2v364.5zM2452 231c-.1.3-13.6 65.6-29.9 145.2l-29.8 144.7 19.3 94.3c10.7 51.9 19.7 95.5 20 97l.6 2.8h-79.8l-13.7 67.2c-7.6 37-13.7 67.6-13.7 68 0 .5 30.4.8 67.5.8h67.5l.5 2.2c.8 3.4 21.5 104.8 21.5 105.3 0 .3 32.2.5 71.6.5 67.7 0 71.5-.1 71-1.8-.3-.9-38.6-162.4-85.1-358.7-92.7-390.9-87.3-368.2-87.5-367.5z"/></svg>