<svg xmlns="http://www.w3.org/2000/svg" id="svg" version="1.1" viewBox="7 12.98 386 90.39"><g id="svgg"><path id="path0" d="M51.333 20.685c-.596.08-1.77.264-2.609.409l-1.526.264-3.141 2.52a403.671 403.671 0 0 0-4.797 3.904c-2.171 1.815-2.559 1.846-5.546.442l-.868-.409-1.121.676-1.121.676h.992c1.018 0 1.573.214 2.494.963.689.56.389.712-1.953.988-1.13.133-2.279.275-2.554.315-.364.054-1.122.673-2.794 2.279l-2.293 2.205.002 1.279c.001.704-.074 1.829-.167 2.5-.092.671-.307 2.683-.477 4.471l-.309 3.25.371 2.25c.501 3.045.714 3.458 5.344 10.352 4.21 6.27 4.63 6.7 7.651 7.825 2.697 1.004 13.303 1.227 15.179.319 1.298-.628 3.304-3.507 3.514-5.045l.098-.713-.976-.301c-1.368-.422-4.384-2.027-6.67-3.549-2.213-1.474-2.296-1.599-2.548-3.818-.115-1.013-.261-1.562-.479-1.805-.569-.634-.557-.729.15-1.126.613-.344.795-.614 1.735-2.569.578-1.202 1.274-2.44 1.546-2.753 1.745-1.997 2.44-6.041 1.301-7.567-.205-.275-.838-1.4-1.406-2.5-.567-1.1-1.288-2.31-1.601-2.688l-.57-.688.83-.08c.898-.086 1.653-.613 1.653-1.154 0-.267-.11-.291-.959-.207-1.965.196-3.467-.935-3.073-2.313.11-.387.331-1.299.491-2.026l.291-1.323 1.333-1.136c2.025-1.724 2.657-1.969 5.095-1.969h2.002l.847 1.742c1.006 2.07.993 2.226-.272 3.258-1.107.903-1.141 1.043-.214.877.39-.07 1.163-.124 1.719-.12l1.011.007.384-1.424c.621-2.303.665-2.063-.738-4.006-1.44-1.994-1.565-2.103-2.779-2.427-.979-.26-.936-.259-2.472-.055m56.75 7.399c-12.272 2.325-18.028 16.838-10.937 27.581 5.162 7.82 17.016 9.891 25.271 4.414 2.9-1.924 2.931-2.079.883-4.462-1.786-2.078-2.381-2.205-3.633-.774-.046.053-.421.322-.834.598-8 5.362-17.858.539-18.443-9.023-.683-11.161 10.775-17.232 19.376-10.267 1.591 1.289 1.681 1.266 3.554-.904 1.964-2.274 1.962-2.335-.128-3.885-4.073-3.02-9.851-4.274-15.109-3.278M251.167 28c-10.682 1.815-17.156 12.926-13.645 23.417 5.42 16.198 29.596 15.558 34.225-.906 3.672-13.062-7.066-24.807-20.58-22.511m-113.391.638c-.449.497-.421 33.346.029 33.753.254.23.708.276 2.74.276 3.255 0 2.955.63 2.955-6.204 0-5.241.014-5.477.333-5.796.44-.44 16.667-.531 17.26-.097.308.224.326.515.372 5.869.042 4.908.083 5.671.317 5.93.312.345 4.626.448 5.229.125.506-.271.506-33.717 0-33.988-.606-.324-4.917-.22-5.23.127-.24.265-.276 1.159-.318 7.899-.044 7.204-.063 7.618-.364 7.951-.486.537-16.729.553-17.266.017-.323-.324-.333-.556-.333-7.88 0-6.56-.034-7.594-.259-7.916-.366-.522-5.002-.578-5.465-.066m44.464-.068c-.451.329-.601 33.025-.155 33.706.354.54 4.995.614 5.473.086.449-.497.421-33.346-.029-33.753-.416-.376-4.783-.409-5.289-.039m19.437.086c-.47.47-.551 32.973-.084 33.64.248.355.366.371 2.724.371 3.322 0 3.016.561 3.016-5.529 0-6.104-.445-5.47 3.847-5.477 10.202-.018 15.073-2.711 16.489-9.115 1.454-6.574-2.181-12.309-8.752-13.809-2.211-.505-16.748-.573-17.24-.081m77.099-.018c-.397.438-.408 4.539-.014 4.933.226.226.923.262 5.091.262h4.829l.409.409.409.41v13.685c0 9.115.058 13.793.173 14.007.284.532 5.191.49 5.568-.048.229-.328.259-1.949.259-14.157V34.352l.37-.259c.315-.22 1.095-.26 5.155-.26 4.127 0 4.82-.036 5.046-.262.418-.417.382-4.578-.042-4.962-.496-.448-26.846-.42-27.253.029m38.516-.125c-.427.249-.456 33.466-.03 33.892.233.233 1.528.262 11.74.262h11.479l.26-.371c.356-.509.375-4.241.023-4.722-.228-.312-.567-.327-8.826-.407-6.735-.066-8.635-.13-8.805-.3-.173-.174-.225-2.993-.259-14.167-.04-12.851-.065-13.966-.324-14.158-.347-.258-4.823-.282-5.258-.029m32.634.191c-.23.329-.259 2.199-.259 16.796s.029 16.467.259 16.796l.26.371h12.312c14.489 0 12.835.343 12.835-2.667 0-2.991 1.186-2.667-9.762-2.667-11.203 0-9.904.47-9.904-3.583 0-4.016-.906-3.583 7.511-3.583 4.399 0 6.959-.062 7.166-.173.295-.158.323-.369.323-2.494s-.028-2.336-.323-2.494c-.207-.111-2.79-.173-7.24-.173h-6.918l-.26-.37c-.448-.64-.382-10.007.074-10.463.325-.325.556-.333 9.417-.333 10.889 0 9.75.32 9.75-2.741 0-2.91 1.573-2.593-12.861-2.593h-12.12l-.26.371m-92.724 4.863c12.664 3.213 11.62 22.643-1.296 24.11-7.182.816-13.071-4.707-13.072-12.26-.001-8.048 6.904-13.743 14.368-11.85m-219.516.578c.19.942.65 1.251 1.964 1.326l1.151.065 1.124-.851c1.256-.951 1.587-1.029 1.958-.463.141.214.699.946 1.242 1.625.542.68 1.383 1.949 1.869 2.82.486.87 1.023 1.782 1.195 2.025.514.731.051 2.91-.976 4.597-.322.528-.728 1.21-.902 1.513-.83 1.447-1.954 3.164-2.151 3.285-.633.391-1.162 3.186-.662 3.495.09.056.285.529.432 1.051.147.523.42 1.38.606 1.905.319.897.324 1.002.08 1.743-.293.89-.252 1.052.269 1.053.337.001 1.204.441 1.669.847.375.328 3.365 2.513 3.654 2.671.803.439-.029 1.555-1.866 2.508l-1.075.557-2.342-.018c-4.483-.033-9.096-.738-10.26-1.567-.445-.317-.986-1.067-2.581-3.582A195.56 195.56 0 0 1 29.748 57a149.044 149.044 0 0 0-2.399-3.745l-1.432-2.161.036-3.44c.02-1.892.117-4.257.217-5.256.1-.998.24-2.415.312-3.149.127-1.297.158-1.371 1.14-2.666 1.943-2.566 1.849-2.515 5.045-2.741 1.42-.1 2.883-.207 3.25-.238 1.468-.122 1.645-.068 1.769.541m180.516.248c4.269 1.796 5.024 7.634 1.338 10.356-1.638 1.211-3.072 1.494-7.596 1.498l-3.972.003-.32-.393c-.466-.575-.496-11.218-.032-11.73.27-.299.54-.313 4.875-.26l4.588.056 1.119.47M35.114 37.17c-.259.077-1.421.273-2.584.434-3.047.424-3.141.554-4.1 5.646-.574 3.048.423 8.521 1.989 10.917.39.595.953 1.57 1.25 2.166.676 1.352.957 1.712 1.896 2.429 1.21.923 1.255.696.2-.998-2.836-4.553-3.842-7.92-3.717-12.431.14-5.013.365-5.369 3.721-5.884 4.408-.676 7.373-.234 9.106 1.359.618.568.785.051-1.709 5.275a336.289 336.289 0 0 0-1.454 3.084l-.577 1.25.109 2.166c.129 2.565.322 3.396 1.353 5.834 1.228 2.904 1.152 3.296-.439 2.274-1.262-.81-1.565-1.213-2.78-3.699-3.48-7.114-3.211-6.331-3.211-9.346 0-4.05.258-4.646 2.012-4.646.777 0 1.056.086 1.626.498 1.093.792 1.092 1.23-.01 4.127-.583 1.534-.732 1.661-.884.75-.159-.955-.22-1.071-.535-1.01-.852.164-.356 3.635.519 3.635.651 0 2.688-5.2 2.688-6.863 0-1.822-.931-2.558-3.221-2.543-2.968.018-3.401.429-3.717 3.53-.418 4.086-.428 4.049 3.026 11.126 2.511 5.144 4.843 7.25 8.025 7.25.996 0 1.018-.938.041-1.706C43.156 61.336 41 56.57 41 55.743c0-.146-.075-.405-.166-.575-.091-.171-.252-1.247-.358-2.392-.224-2.441-.382-1.992 2.139-6.082.872-1.414 1.919-3.233 2.328-4.043l.742-1.473-.698-.964c-1.726-2.381-2.706-2.995-3.506-2.195-.393.393-2.866.411-3.564.027-.522-.287-2.193-1.048-2.267-1.032-.037.008-.278.078-.536.156" stroke="none" fill="#fbfafa" fill-rule="evenodd"/><path id="path1" d="M86.833 13.284c-.596.141-1.121.311-1.166.379-.046.068-.421.285-.834.484-1.402.674-1.468.723-2.799 2.054-1.23 1.229-1.367 1.389-1.367 1.588 0 .107-.101.254-.224.328-.124.073-.359.489-.523.925-.164.435-.352.791-.417.791-.158 0-.67 2.359-.67 3.088 0 .319-.075.579-.166.579-.111 0-.167 7.556-.167 22.333 0 14.778.056 22.334.167 22.334.091 0 .166.26.166.578 0 .73.512 3.088.67 3.088.065 0 .253.357.417.792.164.435.399.852.523.925a.49.49 0 0 1 .224.374c0 .132.15.334.333.448.183.115.333.287.333.383 0 .097.319.456.709.798.389.343.861.771 1.047.952.187.18.427.328.534.328.106 0 .254.101.327.224.073.124.49.359.925.523.435.164.792.352.792.417 0 .158 2.358.67 3.088.67.318 0 .578.075.578.166 0 .209 292.94.233 293.069.025.048-.079.55-.191 1.114-.25 1.059-.111 2.337-.427 2.484-.615.046-.059.44-.241.875-.406.435-.164.792-.366.792-.447 0-.082.189-.22.421-.308.231-.088.464-.274.517-.413.054-.139.196-.252.316-.252.264 0 2.079-1.974 2.079-2.261 0-.112.094-.24.209-.284.115-.044.313-.368.44-.72s.325-.733.438-.846c.114-.114.305-.698.424-1.298.119-.6.278-1.091.353-1.091.075 0 .136-10.725.136-23.834 0-13.108-.061-23.833-.136-23.833-.075 0-.234-.491-.353-1.091-.119-.6-.31-1.184-.424-1.298-.113-.114-.311-.495-.438-.846-.127-.352-.325-.676-.44-.72a.35.35 0 0 1-.209-.301c0-.121-.187-.367-.417-.548-.229-.18-.416-.398-.416-.483 0-.086-.267-.376-.594-.643a12.387 12.387 0 0 1-.946-.862c-.195-.206-.429-.375-.521-.375-.092 0-.323-.138-.512-.306-.189-.169-.606-.408-.927-.532-.321-.124-.621-.277-.667-.339-.046-.063-.623-.236-1.283-.385-1.784-.403-296.169-.39-297.884.013m28.75 14.541c3.6.81 5.892 1.874 8.364 3.879 1.448 1.175 1.433 1.395-.229 3.362-2.196 2.6-2.232 2.615-3.656 1.504-3.02-2.358-4.792-2.987-8.412-2.987-1.787 0-2.848.066-3 .187-.128.102-.621.312-1.095.467-1.087.354-2.952 1.656-3.879 2.707-.714.81-1.843 2.412-1.843 2.617 0 .06-.148.427-.328.816-1.566 3.366-1.175 8.61.884 11.873.892 1.413 2.333 2.935 3.191 3.37.277.14.605.336.729.435 2.24 1.794 8.185 1.779 11.191-.027.938-.563 2.251-1.462 2.524-1.727 1.133-1.101 1.54-.952 3.499 1.282 1.838 2.097 1.887 2.38.602 3.461-1.947 1.637-4.505 3.023-6.384 3.459-.454.106-.974.259-1.158.341-1.7.763-7.116.6-10.333-.31-12.808-3.623-16.667-21.107-6.699-30.35 3.973-3.685 10.794-5.539 16.032-4.359m142.5-.003c4.367.998 6.676 2.232 9.504 5.079 8.631 8.69 5.899 23.753-5.234 28.868-4.412 2.027-11.138 2.167-15.103.315a55.375 55.375 0 0 0-1.083-.489c-11.265-4.931-13.203-22.035-3.391-29.928 4.191-3.371 10.473-4.949 15.307-3.845m-114.75.678c.324.324.334.556.334 7.98 0 6.909.026 7.668.275 7.875.396.328 16.763.34 17.091.012.169-.169.235-1.92.3-7.972.08-7.433.097-7.765.407-7.992.464-.339 5.056-.339 5.52 0 .316.231.324.624.367 16.922l.044 16.685-.411.412c-.4.4-.48.411-2.836.411-3.404 0-3.091.623-3.091-6.129 0-4.675-.037-5.517-.259-5.834l-.26-.37h-8.269c-7.46 0-8.299.027-8.574.276-.283.256-.304.66-.304 5.801 0 4.509-.044 5.585-.237 5.849-.362.496-5.498.496-5.86 0-.438-.599-.344-33.485.097-33.926.303-.304.555-.333 2.833-.333s2.53.029 2.833.333m44.336.002c.424.425.455 33.607.031 34.031-.488.49-5.26.384-5.772-.128-.461-.462-.391-33.442.072-33.905.509-.509 5.159-.507 5.669.002m30.108-.154c8.339 1.159 12.779 9.297 9.178 16.819-2.196 4.585-6.333 6.463-14.65 6.65-2.445.055-4.507.162-4.583.238-.076.077-.159 2.402-.185 5.167-.056 6.168.253 5.611-3.116 5.611-2.151 0-2.418-.032-2.815-.345l-.439-.346V28.846l.364-.34c.427-.397 13.607-.525 16.246-.158m88.353.078c.353.247.37.37.37 2.612 0 3.257.534 2.962-5.367 2.962h-4.815l-.409.409-.409.409v27.496l-.37.26c-.602.421-4.951.374-5.487-.059l-.393-.319-.044-13.936-.045-13.937-.425-.162c-.237-.09-2.5-.161-5.138-.161-5.828 0-5.348.265-5.348-2.949 0-2.161.015-2.26.393-2.566.553-.447 26.852-.503 27.487-.059m16.537.074c.328.328.333.557.335 13.958.002 10.647.049 13.716.214 14.042l.21.417 8.579.09c4.718.049 8.592.106 8.608.125.016.019.148.153.292.297.438.438.379 4.62-.072 5.071-.327.327-.555.333-11.841.333h-11.507l-.412-.411-.411-.412.044-16.664c.043-16.444.048-16.668.377-16.917.569-.429 5.141-.371 5.584.071m52.333 0c.557.557.499 4.349-.076 4.924l-.409.409h-8.97c-7.85 0-9.017.033-9.341.26-.369.258-.371.285-.371 5.157s.002 4.899.371 5.157c.32.225 1.29.26 7.224.26 8.176 0 7.457-.226 7.546 2.363.125 3.59.784 3.303-7.598 3.303-8.464 0-7.543-.414-7.543 3.388 0 3.903-1.305 3.446 9.834 3.446 11.114 0 9.916-.346 9.916 2.865 0 3.163 1.657 2.816-13.202 2.763-12.063-.044-12.415-.054-12.644-.369-.439-.599-.345-33.485.096-33.926.328-.327.556-.333 12.584-.333 12.027 0 12.256.006 12.583.333m-123.167 5.159c-3.662.87-7.363 4.263-8.096 7.424-.064.275-.182.584-.262.687-.529.675-.531 6.592-.003 7.298.075.1.233.519.351.932 1.239 4.339 5.823 7.512 10.825 7.494 12.862-.047 15.8-18.735 3.685-23.445-1.169-.455-5.206-.697-6.5-.39m-44 .504c-.214.136-.25.971-.25 5.837 0 4.863.036 5.703.25 5.844.657.433 8.831.087 10.08-.427 5.515-2.271 4.89-9.935-.913-11.179-1.265-.271-8.759-.333-9.167-.075M39.875 38.282c.16.041.423.041.583 0 .161-.042.029-.077-.291-.077-.321 0-.452.035-.292.077m-13.82 10.301c0 .642.031.884.067.538a6.208 6.208 0 0 0-.002-1.166c-.037-.296-.066-.013-.065.628m14.493 2.667c.001.458.033.626.072.373a2.975 2.975 0 0 0-.003-.834c-.039-.205-.071.003-.069.461m-1.509 1.083c0 .321.034.452.076.292.042-.16.042-.423 0-.583-.042-.161-.076-.03-.076.291" stroke="none" fill="#ac241c" fill-rule="evenodd"/><path id="path2" d="M15.252 13.277c-.641.137-1.204.304-1.25.371-.047.066-.348.223-.669.349-.321.125-.717.365-.881.532-.164.167-.381.304-.483.304-.101 0-.342.153-.535.339-.193.186-.632.569-.976.85-.343.282-.625.588-.625.68 0 .092-.187.314-.416.494-.229.181-.417.427-.417.548a.35.35 0 0 1-.209.301c-.115.044-.313.368-.44.72-.127.351-.325.732-.438.846-.114.114-.305.698-.424 1.298-.119.6-.278 1.091-.353 1.091C7.061 22 7 32.725 7 45.833c0 13.109.061 23.834.136 23.834.075 0 .234.491.353 1.091.119.6.31 1.184.424 1.298.113.113.311.494.438.846s.325.676.44.72c.115.044.209.172.209.284 0 .287 1.815 2.261 2.079 2.261.12 0 .262.113.316.252.053.139.286.325.517.413.232.088.421.226.421.308 0 .081.357.283.792.447.435.165.829.347.875.406.146.187 1.425.504 2.479.614.561.059 1.021.171 1.021.25 0 .079 10.066.143 22.417.143 14.833 0 22.416-.056 22.416-.167 0-.091.258-.166.573-.166.9 0 2.926-.475 3.201-.751.138-.137.341-.249.452-.249.594 0 3.774-2.492 3.774-2.957 0-.121.113-.264.251-.317.138-.053.379-.369.535-.703.157-.334.372-.696.479-.806.106-.109.294-.541.417-.958.124-.418.275-.759.336-.759.515 0 .566-2.259.566-25.334 0-23.074-.051-25.333-.566-25.333-.061 0-.212-.342-.336-.759-.123-.418-.311-.849-.417-.959-.107-.109-.326-.48-.487-.824-.161-.343-.367-.625-.457-.625-.091 0-.214-.129-.275-.288-.139-.362-1.146-1.378-1.365-1.378-.09 0-.224-.107-.297-.238-.373-.665-2.962-1.97-4.456-2.246-1.692-.313-47.522-.225-49.009.094m39.027 7.438c1 .358 1.063.417 2.261 2.118 1.657 2.352 1.644 2.248.689 5.209l-.256.791h-1.82c-2.121 0-2.13-.013-.82-1.153 1.203-1.046 1.2-.999.209-3.063l-.792-1.649-2.195.078c-2.623.093-2.658.109-5.758 2.774-.354.304-1.147 4.087-.939 4.477.453.846 1.105 1.122 2.6 1.099 1.95-.03 1.857 1.351-.111 1.666-.667.107-.703.137-.469.402.14.157.833 1.373 1.542 2.703.709 1.329 1.477 2.64 1.706 2.914.95 1.131.09 5.557-1.434 7.374-.367.437-1.117 1.751-1.668 2.919-.838 1.778-1.098 2.181-1.596 2.475-.703.415-.692.366-.222 1.002.294.398.396.823.48 2.009.077 1.094.193 1.626.426 1.948.813 1.122 7.253 4.889 8.784 5.138 2.159.35-.381 5.479-3.253 6.569-1.221.463-7.39.57-10.393.179-.825-.107-2.1-.268-2.833-.357-1.056-.129-1.688-.335-3.036-.99l-1.702-.827-1.399-1.885c-4.213-5.677-8.05-11.891-8.286-13.422-.081-.53-.262-1.581-.4-2.336-.258-1.401-.196-3.001.236-6.127.235-1.695.502-4.853.503-5.932v-.932l2.128-2.068c1.17-1.137 2.239-2.156 2.375-2.263.137-.106 1.185-.314 2.331-.462 3.318-.426 3.238-.403 2.882-.803-.514-.579-1.553-.949-2.674-.953-1.283-.005-1.293-.108-.081-.798.526-.3 1.082-.633 1.235-.741.22-.156.397-.139.834.077 3.425 1.695 3.481 1.686 6.777-1.009 1.436-1.173 3.607-2.943 4.826-3.933l2.216-1.8 1.701-.241a81.142 81.142 0 0 0 2.45-.379c1.237-.228 1.865-.185 2.946.202M34.833 33.786c-2.642.167-5.047.538-5.372.829-.413.371-2.345 2.839-2.594 3.315-.495.946-.936 12.805-.503 13.508.121.195.638.983 1.15 1.75.512.767 1.553 2.408 2.313 3.645 1.567 2.552 1.66 2.698 3.396 5.359l1.267 1.942 1.13.421c1.407.524 1.485.538 5.088.945 4.752.536 5.894.483 7.58-.352 2.437-1.208 2.526-1.633.628-3.02-3.227-2.36-3.645-2.628-4.099-2.628-.637 0-.705-.192-.417-1.163.167-.563.201-.988.104-1.296-.079-.252-.347-1.115-.595-1.919-.247-.803-.516-1.502-.596-1.551-.517-.32-.003-2.642.812-3.67.866-1.093 3.215-5.09 3.62-6.158.746-1.973.731-2.15-.353-4.097-1.254-2.25-3.684-5.646-4.04-5.646-.144 0-1.414.839-2.073 1.37-.909.732-3.332.278-3.542-.663-.259-1.168-.049-1.101-2.904-.921m2.26 3.725c.869.706 3.822.846 4.569.217l.521-.438.6.313c.822.429 2.873 3.001 2.879 3.61.008.742-1.974 4.315-4.575 8.249l-.471.713.101 2.287c.15 3.362 1.646 7.639 3.267 9.337 1.688 1.768.125 2.381-3.049 1.194-1.061-.397-3.584-2.903-4.226-4.198-4.494-9.07-4.433-8.9-4.326-11.962.143-4.076.555-4.98 2.431-5.331 2.85-.534 4.443.156 5.022 2.174.186.65-1.115 4.758-2.15 6.787-.891 1.745-2.328-.174-1.839-2.455.275-1.282 1.153-1.11 1.153.225 0 .947.21.628.903-1.374.692-2 .713-2.228.261-2.863-.61-.856-2.906-1.136-3.43-.418-.506.691-.534 6.538-.037 7.505.141.275.661 1.359 1.155 2.409 2.373 5.045 2.859 5.867 3.968 6.716 1.788 1.371 1.836 1.227.588-1.751-.799-1.907-.957-2.467-1.161-4.124-.454-3.683-.461-3.646 1.343-7.416 2.806-5.865 2.776-5.74 1.539-6.465-1.978-1.159-5.084-1.505-8.046-.896-.733.151-1.671.334-2.083.406-1.053.185-1.474 1.08-1.702 3.621-.461 5.145.515 9.01 3.51 13.903 1.291 2.108 1.137 2.54-.461 1.299-.706-.548-1.081-1.03-1.713-2.202-.445-.825-.959-1.705-1.142-1.957-2.101-2.884-2.965-8.582-1.939-12.793.234-.962.478-2.05.542-2.416.226-1.302.48-1.506 2.194-1.759.62-.091 1.878-.302 2.794-.468 1.69-.306 2.321-.238 3.01.321M265.42 90.529c-.456.087-.869.214-.917.282-.047.069-.349.229-.67.357-.973.387-2.666 2.325-2.666 3.052 0 .139-.094.283-.209.322-.271.09-.299 4.576-.03 4.756.098.065.305.44.459.832.357.906 1.499 2.053 2.642 2.653 1.383.727 6.304.749 6.304.029 0-.08.104-.145.231-.145s.622-.367 1.099-.814l.867-.815-.907-.935c-.498-.515-.977-.936-1.065-.936-.259 0-1.055.406-1.057.539-.001.164-1.126.627-1.521.627-.172 0-.313.075-.313.167 0 .202-.538.222-.759.028-.087-.076-.471-.227-.854-.336a2.333 2.333 0 0 1-1.128-.737 82.407 82.407 0 0 0-.616-.762c-.524-.633-.553-2.927-.044-3.435.129-.129.234-.298.234-.376 0-1.269 3.986-2.011 4.833-.9.51.668 1.834.7 1.834.044 0-.073.225-.385.5-.693.275-.308.497-.677.494-.821-.011-.503-1.171-1.512-1.738-1.512-.141 0-.256-.067-.256-.15 0-.41-3.158-.624-4.747-.321m54.337-.03c-.363.069-.688.211-.722.314a.305.305 0 0 1-.273.187c-.324 0-1.262.505-1.262.679 0 .085-.099.154-.22.154-.238 0-.746.531-1.222 1.279-.165.259-.355.511-.422.56-.749.547-.771 5.937-.026 6.474.079.057.291.385.471.729.181.344.368.625.417.625.049 0 .296.192.549.426.253.235.683.505.956.6.273.095.497.231.497.302 0 .989 6.493.506 7.419-.552.093-.106.393-.319.666-.474l.498-.281.046-2.844.046-2.844h-5.977V98.5H324v.717c0 .735-.474 1.116-1.387 1.116-.154 0-.28.075-.28.167 0 .092-.3.167-.666.167-.367 0-.667-.075-.667-.167 0-.092-.12-.167-.266-.167-.327 0-1.271-.511-1.446-.783a3.303 3.303 0 0 0-.34-.417c-.919-.939-.86-3.263.115-4.565 1.089-1.454 3.638-1.648 5-.379.408.381.912.403 1.049.046.056-.145.343-.502.638-.791.906-.892 1.125-1.611.49-1.611-.132 0-.24-.076-.24-.169 0-.093-.281-.299-.625-.458-.344-.159-.663-.338-.708-.398-.29-.379-3.497-.581-4.91-.309M207 96.917v6.416h3.167v-3.578c0-3.01.037-3.564.235-3.488.129.05.279.267.333.483.054.217.201.496.327.621.125.126.352.469.504.762.152.294.331.534.398.534s.226.243.354.541c.53 1.232 1.312 1.474 1.754.542.152-.321.33-.584.394-.585.065-.001.261-.301.436-.667.175-.366.372-.665.438-.665s.213-.225.327-.5c.114-.275.275-.5.357-.5.083 0 .243-.206.355-.458.17-.382.212.159.249 3.25l.045 3.708h2.994V90.5H218c-1.375 0-1.667.044-1.667.252 0 .138-.15.38-.333.537-.183.157-.333.338-.333.404 0 .175-1.062 1.881-1.213 1.947-.071.032-.237.315-.369.631-.395.945-.716 1.177-.914.657-.089-.235-.235-.428-.322-.428-.088 0-.202-.133-.254-.297-.085-.269-1.058-1.881-1.38-2.286a5.537 5.537 0 0 1-.381-.667c-.362-.724-.424-.745-2.209-.747L207 90.5v6.417m17.333 0v6.416h9.834v-3H227.5v-2h5.833v-3H227.5V93.5h6.5v-3h-9.667v6.417m13.167-6.084c0 .184.066.334.146.334.081 0 .241.226.356.504.114.277.296.558.404.625.107.066.326.402.486.746.16.343.353.625.43.625.076 0 .183.131.237.291.111.33 1.131 1.813 1.538 2.238.278.289.198 1.304-.102 1.304-.081 0-.271.263-.423.583-.152.321-.338.584-.413.584-.075 0-.179.131-.23.291-.052.161-.319.555-.594.875-.276.321-.501.674-.501.784 0 .11-.094.26-.209.333-.115.073-.354.396-.532.717-.179.32-.422.682-.542.803-.648.656-.301.863 1.441.863h1.658l.425-.557c.234-.307.425-.646.425-.755 0-.109.112-.241.25-.294.137-.053.25-.182.25-.286 0-.105.186-.406.412-.669.226-.263.507-.695.624-.959.277-.627.389-.606.742.14.162.341.428.753.591.916.164.164.298.406.298.539s.093.302.208.375c.115.074.353.396.529.717.449.817.481.828 2.388.831 1.916.003 2.09-.136 1.309-1.044a4.34 4.34 0 0 1-.603-.958c-.113-.273-.267-.496-.344-.496-.076 0-.26-.255-.408-.568-.148-.312-.414-.699-.591-.859-.177-.16-.322-.392-.322-.515s-.073-.224-.162-.224c-.089 0-.287-.244-.44-.542-.153-.298-.33-.579-.393-.625-.463-.332-.451-1.5.014-1.5.073 0 .265-.279.426-.619.162-.341.409-.748.55-.905.408-.456.595-.702.932-1.23.173-.273.361-.534.415-.579.055-.046.244-.346.421-.667.176-.321.414-.643.529-.717.789-.504.225-.783-1.587-.783h-1.796l-.329.625c-.181.344-.461.77-.621.948-.161.178-.292.424-.292.547 0 .123-.1.262-.222.309-.122.047-.323.344-.447.661-.295.751-.52.728-.875-.09-.158-.367-.364-.667-.456-.667-.091 0-.167-.098-.167-.218s-.133-.364-.297-.542c-.163-.178-.429-.604-.591-.948l-.294-.625h-1.825c-1.715 0-1.826.02-1.826.333m15.833 6.084v6.416h3.167V90.5h-3.167v6.417m27.057-6.312c-.106.044-.326.525-.489 1.07-.164.546-.353.992-.421.992s-.243.412-.389.916c-.147.504-.325.917-.396.917-.071 0-.268.487-.439 1.083-.17.596-.371 1.084-.447 1.084-.076 0-.223.337-.326.75-.104.412-.247.75-.317.75s-.256.393-.414.875c-.157.481-.335.912-.395.958-.06.046-.252.496-.427 1-.174.504-.417 1.065-.54 1.245-.602.886-.356 1.088 1.326 1.088h1.55l.43-.969c.237-.534.483-1.209.547-1.5l.117-.531h2.403c2.026 0 2.404.04 2.404.25 0 .138.071.25.158.25.087 0 .284.45.438 1 .155.55.346 1 .426 1 .079 0 .144.113.144.25 0 .206.297.25 1.667.25 1.752 0 2.101-.208 1.445-.864-.122-.122-.275-.434-.34-.692-.065-.259-.34-.94-.612-1.515-.271-.574-.493-1.163-.493-1.308a.83.83 0 0 0-.208-.484c-.115-.121-.313-.52-.44-.887-.128-.366-.279-.704-.335-.75-.057-.046-.246-.496-.421-1-.176-.504-.412-1.066-.526-1.25-.114-.183-.301-.652-.415-1.041-.114-.39-.266-.709-.336-.709-.071 0-.249-.412-.395-.916-.147-.505-.34-.917-.429-.917-.089 0-.162-.112-.162-.25 0-.245-2.408-.363-2.943-.145m11.777 6.312v6.416h3v-3.661c0-3.586.147-4.426.562-3.202.144.425.488.916.813 1.162.16.121.291.326.291.455s.15.315.334.413c.183.098.333.288.333.421 0 .134.15.337.333.451.184.115.334.285.334.378 0 .094.168.358.375.587.206.229.656.791.999 1.248 1.442 1.922 1.18 1.748 2.644 1.748h1.315V90.5h-3V94c0 2.222-.061 3.5-.167 3.5a.163.163 0 0 1-.166-.158c0-.087-.188-.36-.417-.608-.229-.247-.417-.495-.417-.55 0-.055-.225-.363-.5-.684-.274-.321-.499-.629-.499-.684 0-.055-.169-.289-.376-.52-.596-.667-.914-1.073-1.235-1.577-.164-.258-.394-.529-.511-.602a.492.492 0 0 1-.212-.366c0-.128-.136-.33-.303-.45-.166-.12-.351-.349-.411-.509-.093-.249-.333-.292-1.614-.292h-1.505v6.417m39.166-.016v6.432h3.167v-4h.787c.789 0 1.711.691 1.713 1.284 0 .11.094.26.21.333.115.073.358.415.538.758.18.344.377.625.436.625.06 0 .202.225.316.5l.207.5h3.626v-.416c0-.229-.077-.417-.17-.417-.094 0-.241-.169-.325-.375-.085-.206-.423-.75-.751-1.208a82.796 82.796 0 0 1-.879-1.25c-.156-.229-.379-.477-.496-.55-.325-.204-.254-.404.183-.513 2.649-.665 2.771-6.289.159-7.376-.351-.146-.691-.351-.756-.455-.082-.13-1.348-.208-4.042-.247l-3.923-.057v6.432m15 .016v6.429l1.542-.048 1.542-.048V90.583l-1.542-.048-1.542-.048v6.43m7.667 0v6.416h9.333v-3h-6.166V90.5H354v6.417m13.167 0v6.416h9.166v-3h-6.166V90.5h-3v6.417m-29.245-3.226c1.392.504.951 2.63-.547 2.64-.206.001-.375.077-.375.169 0 .096-.528.167-1.25.167h-1.25V93.5h1.447c.795 0 1.684.086 1.975.191m-55.669 1.934c.164.527.356.997.426 1.043.07.047.179.291.243.542l.114.457h-1.204c-1.172 0-1.201-.01-1.088-.375.064-.207.156-.544.206-.75.049-.207.154-.375.234-.375.079 0 .23-.338.333-.75.248-.983.376-.947.736.208" stroke="none" fill="#441404" fill-rule="evenodd"/><path id="path3" d="M49.557 22.961c-.106.067.843.122 2.109.122s2.267-.056 2.225-.125c-.1-.161-4.079-.159-4.334.003m-3.71 2.608c-.303.313-.511.669-.462.792.069.174.092.17.102-.02.007-.133.253-.489.546-.791.293-.303.495-.55.449-.55-.046 0-.331.256-.635.569m64.778 2.221c.665.032 1.752.032 2.417 0 .664-.031.12-.057-1.209-.057-1.329 0-1.873.026-1.208.057m142.743 0a28.79 28.79 0 0 0 2.333.001c.669-.032.166-.058-1.118-.059-1.283 0-1.83.026-1.215.058m-114.076.5c.664.032 1.752.032 2.416 0 .665-.031.121-.057-1.208-.057s-1.873.026-1.208.057m23.909 0c.615.032 1.665.032 2.333.001.669-.032.166-.058-1.117-.059-1.284 0-1.831.026-1.216.058m19.003.136c-.204.143-.366.387-.36.542.008.207.05.184.159-.088.194-.482.494-.54 3.08-.595l2.167-.046-2.338-.036c-1.889-.029-2.409.013-2.708.223m19.536.003c-.178.144-.211.201-.073.125.137-.076 3.512-.176 7.5-.224l7.25-.087-7.177-.038c-6.319-.034-7.215-.007-7.5.224m47.51-.096c-.21.091-.241.144-.083.144.137 0 .4-.065.583-.144.21-.09.241-.143.083-.143-.137 0-.4.065-.583.143m36.554-.041c3.696.025 9.696.025 13.333 0 3.637-.025.613-.046-6.72-.046-7.334 0-10.309.021-6.613.046m32.897-.002c.615.032 1.665.032 2.333.001.669-.032.166-.058-1.117-.059-1.284 0-1.831.026-1.216.058m43.732.041c7.706.054 12.271.147 12.424.252.133.092.099.036-.076-.125-.298-.273-1.094-.289-12.424-.252l-12.107.04 12.183.085m-256.683.246c-.644.295-.344.299.417.006.32-.123.471-.227.333-.229-.138-.003-.475.097-.75.223m111.21-.126c.208.04.508.039.667-.003.159-.042-.01-.074-.377-.073-.367.002-.497.036-.29.076m89.076.14c.232.275.297.754.339 2.5l.053 2.159.036-2.183c.034-2.08.018-2.197-.339-2.5-.374-.316-.374-.316-.089.024m43.723.113c-.469.67-.385 33.116.088 33.653l.346.393-.263-.412c-.398-.623-.402-33.066-.004-33.634.143-.204.222-.371.176-.371-.046 0-.2.167-.343.371M55.377 28.62c.254.038.629.037.834-.003.205-.039-.003-.071-.461-.069-.458.001-.626.033-.373.072m-10.77.582c-.056.21-.096.531-.088.715.008.183.083.04.167-.317.163-.693.093-1.042-.079-.398M167.414 45.5c0 9.212.02 12.981.044 8.375.025-4.606.025-12.144 0-16.75-.024-4.606-.044-.838-.044 8.375m149.459-.052c-.022 9.185.017 16.734.085 16.776.114.07.113-11.72-.002-27.474-.024-3.3-.061 1.514-.083 10.698m6.04-2.865c0 7.609.02 10.746.045 6.971.025-3.774.025-9.999 0-13.833-.025-3.834-.045-.746-.045 6.862M30.647 29.213c.08.081.361.12.624.087.441-.055.429-.067-.146-.147-.358-.049-.562-.024-.478.06m5.478-.092c.298.037.785.037 1.083 0 .298-.037.054-.068-.541-.068-.596 0-.84.031-.542.068m67.833.141c-.646.351-.573.472.084.138.628-.32.739-.403.527-.393-.084.003-.359.118-.611.255M137.413 45.5c0 9.121.021 12.852.045 8.292.025-4.561.025-12.023 0-16.584-.024-4.56-.045-.829-.045 8.292m23.997-9.083c0 4.125.022 5.788.048 3.697a347.22 347.22 0 0 0 0-7.5c-.026-2.034-.048-.322-.048 3.803m26.503 9c0 9.075.021 12.763.045 8.195.025-4.567.025-11.992 0-16.5-.024-4.507-.045-.77-.045 8.305m-44.336-8.75c0 4.17.021 5.877.048 3.791.026-2.085.026-5.498 0-7.583-.027-2.085-.048-.379-.048 3.792m134.82-5.584c0 1.1.027 1.529.06.952.033-.576.032-1.476-.001-2-.033-.523-.059-.052-.059 1.048m-175.855-1.064c-.568.364-.752.608-.25.332.382-.21.981-.673.875-.676-.046-.002-.327.153-.625.344m-1.324.91-.468.429.542-.377c.298-.207.541-.4.541-.429 0-.132-.184-.019-.615.377m122.199-.322c.848.753 1.161.973.834.586-.182-.215-.481-.468-.666-.562-.184-.095-.26-.105-.168-.024m41.25-.046c0 .045.225.243.5.439s.5.319.5.273c0-.046-.225-.244-.5-.44-.275-.195-.5-.318-.5-.272m-234.125.721c.16.041.423.041.583 0 .16-.042.029-.077-.292-.077s-.452.035-.291.077m-2.713 1.343L26.75 33.75l1.125-1.079c.619-.593 1.125-1.099 1.125-1.125 0-.122-.17.034-1.171 1.079m19.048-1.005c.254.038.629.037.834-.003.205-.039-.003-.071-.461-.069-.458.001-.626.033-.373.072m1.809.119c-.011.178-.186.515-.39.75l-.37.428.47-.437c.3-.279.441-.55.39-.75-.077-.299-.082-.299-.1.009m176.479.425c.289.366.613.719.719.784.107.066-.095-.233-.448-.664-.354-.431-.678-.784-.72-.784-.043 0 .159.299.449.664m-100.8.078c.155.188.356.529.448.758.114.287.169.327.176.128.006-.159-.195-.5-.447-.758s-.332-.316-.177-.128m117.302.508c-.405.412-.699.75-.653.75.046 0 .414-.338.819-.75.405-.413.699-.75.653-.75-.046 0-.414.337-.819.75m-142.595-.042c-1.234 1.356-1.462 1.625-1.374 1.625.052 0 .523-.487 1.046-1.083.968-1.103 1.226-1.527.328-.542m-52.479.834c.268.298.554.616.634.708.081.092.064.017-.037-.167-.259-.468-.802-1.083-.956-1.083-.071 0 .09.244.359.542m63.335-.231c-.269.058.585.106 1.899.106 1.399 0 2.12-.048 1.739-.116-.79-.14-2.967-.134-3.638.01m142.665 0c-.27.058.551.106 1.824.106 1.273 0 2.093-.048 1.824-.106-.27-.058-1.091-.105-1.824-.105-.734 0-1.554.047-1.824.105m-215.885.304c.161.042.423.042.584 0 .16-.042.029-.076-.292-.076s-.452.034-.292.076m70.625.468c-.229.131-.341.239-.25.239.092 0 .355-.108.584-.239.229-.131.341-.238.25-.238-.092 0-.354.107-.584.238m100.274.058c-.25.276-.274.869-.232 5.875l.046 5.567.04-5.57c.034-4.914.072-5.606.315-5.875.152-.168.238-.305.192-.305-.046 0-.208.139-.361.308m74.018-.183c1.306.028 3.444.028 4.75 0s.237-.051-2.375-.051c-2.613 0-3.681.023-2.375.051m16.927 0c1.358.028 3.533.028 4.833 0 1.301-.028.19-.051-2.468-.051-2.659 0-3.723.023-2.365.051m-182.219.292c.23.131.492.238.584.238.091 0-.021-.107-.25-.238s-.492-.238-.584-.238c-.091 0 .021.107.25.238m110.45.331c.152.32.306.552.342.516.077-.077-.429-1.097-.543-1.097-.042 0 .048.262.201.581m62.591 13.752c-.019 7.563.02 13.837.087 13.943.11.173.107-14.128-.006-23.859-.025-2.109-.061 2.354-.081 9.916m-241.624-13c.142.275.296.5.342.5.046 0-.033-.225-.175-.5-.143-.275-.296-.5-.342-.5-.046 0 .033.225.175.5m75.323.209-.49.541.542-.489c.298-.269.542-.513.542-.542 0-.129-.138-.015-.594.49m97.094.208c.311.321.603.583.648.583.046 0-.171-.262-.482-.583-.311-.321-.603-.583-.648-.583-.046 0 .171.262.482.583m-101.5-.356c0 .046.225.244.5.439.275.196.5.319.5.273 0-.046-.225-.244-.5-.439-.275-.196-.5-.319-.5-.273m142.583.05c.922.91 2.087 1.878 1.5 1.246-.367-.395-.892-.874-1.167-1.064-.275-.191-.425-.273-.333-.182m-221.29.174c.208.04.508.038.667-.003.159-.042-.01-.075-.377-.073-.367.002-.497.036-.29.076m-15.556.438c-.047.122-.062.853-.035 1.625l.051 1.402.082-1.625c.081-1.614.066-1.829-.098-1.402m245.846.611c.142.275.296.5.342.5.046 0-.033-.225-.175-.5-.143-.275-.296-.5-.342-.5-.046 0 .033.225.175.5m-49.134.414c.152.32.307.552.343.516.076-.077-.43-1.097-.544-1.097-.042 0 .048.262.201.581m6.587.086a3.21 3.21 0 0 0 .13.833c.18.56.18-.045 0-.75-.114-.449-.127-.458-.13-.083m10.41.591c-.391.821-.336.961.073.185.186-.353.309-.671.273-.707-.036-.036-.192.199-.346.522m25.553.2c.218.298.423.542.455.542.126 0-.287-.625-.56-.847-.18-.146-.14-.03.105.305m-233.894.221c-.241.19-.433.471-.426.625.011.227.03.232.1.029.048-.137.286-.418.529-.624.556-.47.389-.495-.203-.03m13.728.238c.311.32.603.583.649.583.046 0-.171-.263-.482-.583-.311-.321-.603-.584-.649-.584-.046 0 .171.263.482.584m58.158 1.099c-.191.376-.319.712-.284.746.035.035.226-.272.426-.682.454-.935.331-.99-.142-.064m-64.95-.395c.344.036.907.036 1.25 0 .344-.036.063-.065-.625-.065-.687 0-.968.029-.625.065m13.244.046c.102.137.266.512.366.833l.181.583-.087-.581c-.047-.319-.212-.694-.365-.833-.243-.22-.255-.22-.095-.002m-25.743.583c.002.367.036.497.076.29a1.834 1.834 0 0 0-.004-.667c-.042-.159-.074.01-.072.377m213.053.179c-.061.244-.079.476-.04.515.039.039.121-.128.183-.373.061-.244.079-.476.04-.515-.039-.039-.122.128-.183.373m6.47.506c-.138.33-.221.631-.184.668.036.037.185-.234.329-.601.327-.831.199-.891-.145-.067m28.039-.102c.058.321.171.734.251.917.101.229.113.15.041-.25a5.288 5.288 0 0 0-.252-.917c-.1-.228-.113-.15-.04.25m-6.578.25c-.001.092.1.429.224.75.123.321.227.471.229.334.003-.138-.097-.475-.223-.75s-.23-.425-.23-.334m-216.873.875c.08.576.091.587.146.147.033-.264-.006-.545-.086-.625-.084-.084-.109.12-.06.478m-22.102.792c.001.55.032.755.069.455a4.392 4.392 0 0 0-.001-1c-.038-.25-.069-.005-.068.545m74.532-.417c-.063.288-.08.559-.038.601.043.043.125-.162.184-.455.139-.695.004-.829-.146-.146m-70.541.75c.002.367.036.497.076.29a1.835 1.835 0 0 0-.004-.667c-.042-.159-.074.011-.072.377m212.73.599a5.957 5.957 0 0 0-.085 1.131c.015.408.067.255.161-.472.147-1.14.101-1.544-.076-.659m-198.356.151c-.142.275-.221.5-.175.5.046 0 .2-.225.342-.5.142-.275.221-.5.175-.5-.046 0-.199.225-.342.5M35 43.169c-.176.115-.077.132.333.057.719-.132.855-.227.32-.223-.222.001-.516.076-.653.166m1.347-.11c.038.033.332.108.653.167.41.075.509.058.333-.057-.226-.148-1.151-.251-.986-.11m200.186.969c-.018.611-.076 1.249-.129 1.417-.089.284-.083.285.091.014.108-.168.162-.765.129-1.416l-.059-1.126-.032 1.111m35.839-.528c0 .321.034.452.076.292a1.37 1.37 0 0 0 0-.584c-.042-.16-.076-.029-.076.292m-246.319.833c0 .596.031.84.068.542a5.297 5.297 0 0 0 0-1.083c-.037-.298-.068-.055-.068.541m4.003.167c0 .688.029.969.065.625a7.247 7.247 0 0 0 0-1.25c-.036-.344-.065-.062-.065.625m-1.839-.167c0 .504.031.711.069.459a3.702 3.702 0 0 0 0-.917c-.038-.252-.069-.046-.069.458m11.488-.166c0 .32.035.452.077.291.041-.16.041-.423 0-.583-.042-.16-.077-.029-.077.292m180.368.041-.49.542.542-.49c.505-.456.618-.593.49-.593-.029 0-.273.243-.542.541m45.969.042c.002.367.036.497.076.29.04-.208.038-.508-.003-.667-.042-.159-.075.01-.073.377M161 44.417c-.259.311-16.416.382-17.053.074-.351-.17-.353-.167-.04.083.567.455 16.761.385 17.176-.074.166-.183.262-.333.213-.333-.049 0-.182.112-.296.25m65.783.668c-.153.32-.243.582-.201.582.114 0 .62-1.021.543-1.097-.036-.036-.19.196-.342.515m-194.244.248c0 .321.034.452.076.292.042-.16.042-.423 0-.583-.042-.161-.076-.03-.076.291m1.696 2.25c0 1.559.025 2.219.056 1.467.03-.752.03-2.027 0-2.833-.031-.807-.056-.192-.056 1.366m-5.838-.333c0 1.1.027 1.528.06.952.033-.577.032-1.477-.001-2-.033-.524-.059-.052-.059 1.048m342.335.25c0 1.237.026 1.744.058 1.125a26.38 26.38 0 0 0 0-2.25c-.032-.619-.058-.113-.058 1.125M23.545 46.333c0 .413.033.582.073.375a2.418 2.418 0 0 0 0-.75c-.04-.206-.073-.037-.073.375m213.01.584c0 .641.031.883.067.538a6.219 6.219 0 0 0-.002-1.167c-.037-.296-.066-.013-.065.629m-21.095-.799c.208.04.508.038.667-.003.159-.042-.01-.075-.377-.073-.367.002-.497.036-.29.076m-5.502.173c.94.03 2.477.03 3.417 0s.171-.054-1.708-.054c-1.88 0-2.648.024-1.709.054m32.892.473c.009.359.078.84.153 1.069.085.259.101.038.044-.583-.108-1.158-.221-1.438-.197-.486m23.195.069c0 .413.033.582.073.375a2.418 2.418 0 0 0 0-.75c-.04-.206-.073-.037-.073.375m-233.664.75c.001.459.034.626.072.373a3.008 3.008 0 0 0-.002-.833c-.04-.205-.071.002-.07.46m-6.492 1.084c0 .687.03.968.066.625a7.247 7.247 0 0 0 0-1.25c-.036-.344-.066-.063-.066.625m-2.372-.57c.009.268.08.674.158.903.095.281.11.145.045-.417-.108-.937-.229-1.225-.203-.486m6.5.084c.009.313.079.757.155.986.09.269.106.091.044-.5-.108-1.049-.224-1.331-.199-.486m194.003.326c-.953.861-.767.856.23-.007.424-.367.709-.664.635-.66-.074.004-.463.304-.865.667m-123.33.16c0 .137.065.4.143.583.091.21.144.241.144.083 0-.137-.065-.4-.144-.583-.09-.21-.143-.241-.143-.083m171.157 1.43c-.107.427-.164.808-.126.846.038.039.158-.28.265-.707.108-.427.164-.808.126-.846-.038-.038-.157.28-.265.707m-50.68.153c-.229.131-.342.238-.25.238.091 0 .354-.107.583-.238.229-.131.342-.238.25-.238-.092 0-.354.107-.583.238m142.083-.083-7 .088 6.948.039c4.496.026 6.985-.02 7.052-.127.057-.092.08-.149.052-.128-.029.021-3.202.079-7.052.128m-126.146.416c.059.275.174.613.254.75.094.16.108.07.038-.25-.059-.275-.174-.612-.254-.75-.094-.16-.108-.07-.038.25m6.574-.333c0 .092.108.354.239.583.131.23.238.342.238.25 0-.091-.107-.354-.238-.583-.131-.229-.239-.342-.239-.25m-207.511.187c0 .627.836.862 1.266.355.317-.375.317-.375-.029-.084-.457.385-.665.368-.978-.078-.143-.204-.259-.291-.259-.193m4.216.896c0 .504.032.711.07.459a3.702 3.702 0 0 0 0-.917c-.038-.252-.07-.046-.07.458m-7.371-.416c0 .091.107.354.238.583.131.229.238.342.238.25 0-.092-.107-.354-.238-.583-.131-.229-.238-.342-.238-.25m110.563 5.5c0 3.025.022 4.286.05 2.802.027-1.484.027-3.959 0-5.5-.028-1.541-.05-.327-.05 2.698m17.833.166c0 3.025.022 4.286.05 2.803a180.06 180.06 0 0 0 0-5.5c-.027-1.542-.05-.328-.05 2.697m103.175-4.916c-.142.275-.221.5-.175.5.046 0 .2-.225.342-.5.142-.275.221-.5.175-.5-.046 0-.199.225-.342.5m-49.291-.049c.206.039.543.039.75 0 .206-.04.037-.073-.375-.073-.413 0-.582.033-.375.073m-7.685.356c-.249.275-.274.817-.232 5.125l.047 4.818.039-4.866c.039-4.818.043-4.868.409-5.125.204-.143.291-.259.193-.259-.098 0-.303.138-.456.307m-164.398.609c.002.367.036.497.076.29a1.835 1.835 0 0 0-.004-.667c-.042-.159-.074.011-.072.377m1.382-.428c-.053.085.1.366.34.625l.435.47-.347-.478c-.191-.263-.307-.544-.257-.625.05-.081.054-.147.008-.147s-.127.07-.179.155m-4.046 1.178c0 .413.033.582.073.375a2.418 2.418 0 0 0 0-.75c-.04-.206-.073-.037-.073.375m-1.336.084c.002.366.036.497.076.289a1.83 1.83 0 0 0-.004-.666c-.042-.16-.074.01-.072.377m63.751.023c.449.635 2.103 2.167 2.599 2.406.197.095.133.006-.142-.197-.275-.202-1.024-.9-1.663-1.55-.64-.65-.997-.947-.794-.659m-7.293-.21c0 .179.496 1.103.592 1.103.045 0-.041-.243-.193-.541-.309-.609-.399-.736-.399-.562m-50.21 1.103c.049.596.115 1.115.149 1.153.123.141.033-1.58-.1-1.903-.08-.195-.1.114-.049.75m217.626-.5c-.263.275-.408.496-.323.491.147-.009 1.006-.991.867-.991-.035 0-.28.225-.544.5m-142.833.432-.5.429.542-.358c.298-.197.541-.391.541-.431 0-.124-.07-.081-.583.36m126.595.568c.724.683 1.822 1.455 1.822 1.282 0-.039-.304-.272-.675-.517-.371-.246-.96-.687-1.309-.981-.348-.293-.276-.196.162.216m-124.512-.281c0 .029.244.273.542.542l.542.489-.49-.541c-.456-.505-.594-.619-.594-.49m-4.125 1.134c-.568.364-.752.608-.25.332.383-.21.982-.673.875-.677-.046-.001-.327.154-.625.345M239.667 56c.195.275.393.5.439.5.046 0-.077-.225-.273-.5-.195-.275-.393-.5-.439-.5-.046 0 .077.225.273.5m-116.334-.281c0 .029.244.272.542.541l.542.49-.49-.542c-.456-.505-.594-.618-.594-.489m-82.071.948c.062.229.181.529.266.666.107.174.121.123.043-.166a3.04 3.04 0 0 0-.266-.667c-.107-.174-.12-.123-.043.167m199.725.958c.493.573.93 1.042.97 1.042.11 0-1.234-1.581-1.574-1.851-.161-.128.11.236.604.809m-141.904.542c.545.55 1.027 1 1.073 1 .046 0-.362-.45-.906-1s-1.027-1-1.073-1c-.046 0 .362.45.906 1m152.167-.834c.183.079.483.141.667.139.268-.004.251-.031-.084-.139-.57-.182-1.008-.182-.583 0m6.083 0c-.343.11-.358.136-.083.148.183.008.446-.059.583-.148.292-.188.09-.188-.5 0m103.542-.041c2.544.025 6.706.025 9.25 0 2.544-.026.462-.047-4.625-.047-5.088 0-7.169.021-4.625.047m-251.292.208c.275.07.725.127 1 .128.421 0 .394-.022-.166-.138-.845-.174-1.527-.166-.834.01m3.417 0c-.562.118-.565.123-.083.125.275.001.725-.055 1-.125.691-.176-.081-.176-.917 0m154.161.792-.911.958.958-.911c.891-.846 1.035-1.006.911-1.006-.026 0-.457.432-.958.959m73.663-.678c.292.605.225 4.235-.087 4.724l-.264.412.347-.393c.458-.521.526-4.236.087-4.783-.25-.313-.253-.312-.083.04m-86.699.17c.206.04.544.04.75 0 .206-.039.037-.072-.375-.072s-.581.033-.375.072M375.25 60c0 1.266.056 2.267.125 2.224.069-.042.125-1.043.125-2.224 0-1.181-.056-2.182-.125-2.224-.069-.043-.125.958-.125 2.224M37.833 57.897c0 .179.496 1.103.592 1.103.046 0-.04-.244-.192-.542-.309-.608-.4-.735-.4-.561m62.56 1.398c.132.214 1.107.935 1.107.819 0-.041-.275-.284-.612-.541-.336-.257-.559-.382-.495-.278m165.107.392c-.581.509-.581.51-.047.154.295-.196.581-.428.635-.515.161-.261.028-.179-.588.361m-226.167.374c0 .045.225.243.5.439s.5.319.5.273c0-.046-.225-.244-.5-.44-.275-.195-.5-.318-.5-.272m-.34 1.481c.691.736.84.868.84.743 0-.027-.356-.383-.791-.792l-.792-.743.743.792m66.59.714c.275.126.613.227.75.224.138-.003-.012-.106-.333-.23-.761-.293-1.06-.289-.417.006m142.084-.117c.137.085.437.204.666.265.29.078.341.065.167-.043a3.042 3.042 0 0 0-.667-.265c-.289-.078-.34-.065-.166.043m9.75.861-.667.119.583.007c.321.004.771-.053 1-.126.536-.172.042-.172-.916 0m-148.125.118c.206.039.543.039.75 0 .206-.04.037-.073-.375-.073-.413 0-.582.033-.375.073m4.333 0c.206.039.544.039.75 0 .206-.04.037-.073-.375-.073-.413 0-.581.033-.375.073m137.583-.003c.161.042.423.042.584 0 .16-.042.029-.076-.292-.076s-.452.034-.292.076m-139.75.169c.207.04.544.04.75 0 .207-.039.038-.072-.375-.072-.412 0-.581.033-.375.072m141.167.003c.298.037.785.037 1.083 0 .298-.037.054-.067-.541-.067-.596 0-.84.03-.542.067m2.5 0c.298.037.785.037 1.083 0 .298-.037.054-.067-.541-.067-.596 0-.84.03-.542.067m-216.75 2.161c.16.042.423.042.583 0 .161-.042.029-.076-.291-.076-.321 0-.452.034-.292.076m-4.875.635c.311.321.603.584.649.584.046 0-.171-.263-.482-.584-.311-.321-.603-.583-.649-.583-.046 0 .171.262.482.583m10.627-.132c.207.04.507.039.667-.003.159-.042-.011-.074-.377-.073-.367.002-.497.036-.29.076m-2.585 2.664c.16.042.423.042.583 0 .16-.042.029-.076-.292-.076s-.452.034-.291.076m2 .173c.343.036.906.036 1.25 0 .343-.036.062-.065-.625-.065-.688 0-.969.029-.625.065m3.708.045-1.833.101 1.666.017c.917.009 2.08-.041 2.584-.111 1.163-.16.421-.163-2.417-.007" stroke="none" fill="#d2948c" fill-rule="evenodd"/><path id="path4" d="M110.958 27.623c.482.034 1.269.034 1.75 0 .482-.034.088-.061-.875-.061-.962 0-1.356.027-.875.061m142.667 0c.481.034 1.269.034 1.75 0 .481-.034.088-.061-.875-.061s-1.356.027-.875.061m-139.25.159c.16.041.423.041.583 0 .161-.042.029-.077-.291-.077-.321 0-.452.035-.292.077m86.893.982c-.148.384-.124 33.369.024 33.46.068.043.125-7.528.125-16.823 0-9.296-.011-16.901-.024-16.901-.013 0-.07.119-.125.264m17.413-.204c.038.033.294.11.569.172.365.081.433.066.25-.058-.225-.152-.987-.258-.819-.114m-163.386.227c.299.038.749.037 1-.001.25-.038.005-.069-.545-.068-.55.001-.755.032-.455.069M181.747 45.5c0 9.212.02 12.981.045 8.375.024-4.606.024-12.144 0-16.75-.025-4.606-.045-.838-.045 8.375m193.484-14.583c.001 1.191.027 1.657.059 1.034.033-.622.032-1.597 0-2.166-.033-.569-.059-.06-.059 1.132M167.58 45.5c0 9.121.02 12.852.045 8.292.025-4.561.025-12.023 0-16.584-.025-4.56-.045-.829-.045 8.292m149.167 0c0 9.121.02 12.852.045 8.292.024-4.561.024-12.023 0-16.584-.025-4.56-.045-.829-.045 8.292m-95.733-16.271c.171.153 1.153.604 1.153.53 0-.096-.924-.592-1.103-.592-.066 0-.088.028-.05.062m25.111.2c-.623.338-.585.478.042.154.275-.142.5-.294.5-.337 0-.108-.018-.101-.542.183m32.105 1.846c.021 2.126.23 2.742.921 2.714.181-.007.152-.056-.092-.155-.568-.229-.636-.465-.745-2.584l-.103-2 .019 2.025m-36.739 1.517-.574.625.625-.575c.581-.534.701-.675.574-.675-.028 0-.309.281-.625.625M26.5 33.75c-.405.412-.699.75-.653.75.046 0 .415-.338.82-.75.405-.413.698-.75.652-.75-.045 0-.414.337-.819.75m20-.604c0 .081.131.249.292.375.261.205.269.2.074-.049-.184-.235-.171-.289.083-.355.237-.062.222-.082-.074-.098-.206-.01-.375.047-.375.127m259.548.471c-.203.21-.309.383-.235.383.163 0 .769-.648.672-.718-.038-.027-.234.124-.437.335m-195.001-.161a10.87 10.87 0 0 0 1.5-.001c.387-.035.028-.063-.797-.063-.825.001-1.141.03-.703.064m142.666 0a10.87 10.87 0 0 0 1.5-.001c.387-.035.029-.063-.796-.063-.825.001-1.142.03-.704.064m-145.63.467c-.418.201-.432.224-.083.14.229-.055.488-.167.575-.248.216-.202.097-.176-.492.108m248.136.035c-.175.161-.209.217-.076.125.15-.103 3.693-.199 9.341-.252l9.099-.087-9.023-.038c-8.393-.037-9.045-.019-9.341.252m-148.277 0c-.043.069 1.097.106 2.532.082 4.939-.081 5.433-.138 1.494-.172-2.172-.019-3.983.022-4.026.09m87.807.376c-.426.471-.245.515.203.049.203-.21.309-.383.235-.383-.075 0-.272.15-.438.334m-26.583.458c.218.298.423.541.455.541.126 0-.287-.625-.56-.847-.18-.146-.14-.03.105.306m20.08 13.375c0 7.562.021 10.656.046 6.875.025-3.782.025-9.969 0-13.75-.025-3.782-.046-.688-.046 6.875m66.494-8.917c0 2.567.023 3.593.051 2.282.029-1.312.028-3.412 0-4.667s-.051-.182-.051 2.385m-135.657-3.417c.358.367.689.667.735.667.045 0-.21-.3-.568-.667-.358-.366-.688-.666-.734-.666-.046 0 .209.3.567.666m-116.092.625-.574.625.625-.574c.581-.535.701-.676.574-.676-.028 0-.309.282-.625.625m158.426.209c.451.458.858.833.904.833.046 0-.286-.375-.738-.833-.451-.459-.858-.834-.904-.834-.046 0 .286.375.738.834m-34.364 3.166c0 .596.031.84.068.542a5.297 5.297 0 0 0 0-1.083c-.037-.298-.068-.055-.068.541m-6.339.084c.002.458.034.626.072.372a2.933 2.933 0 0 0-.002-.833c-.04-.205-.071.002-.07.461M35.788 41.454c.296.036.821.037 1.167.001.345-.036.103-.066-.538-.067-.642-.001-.925.029-.629.066m-9.583 2.213c0 .32.035.452.077.291.041-.16.041-.423 0-.583-.042-.16-.077-.029-.077.292m4 0c0 .32.035.452.077.291.041-.16.041-.423 0-.583-.042-.16-.077-.029-.077.292m70.334 0c0 .32.034.452.076.291.042-.16.042-.423 0-.583-.042-.16-.076-.029-.076.292m119.536.375-.658.708.708-.659c.39-.362.708-.681.708-.708 0-.126-.145 0-.758.659m52.49 1.375c0 1.191.027 1.657.059 1.034.032-.622.032-1.597-.001-2.166-.032-.569-.059-.06-.058 1.132m-36.182-.917c0 .504.032.71.07.458a3.694 3.694 0 0 0 0-.916c-.038-.252-.07-.046-.07.458m119.664-.066c.309.328 14.546.683 14.344.358-.043-.069-3.169-.125-6.947-.125-6.103 0-6.916-.031-7.282-.275-.402-.268-.405-.267-.115.042m-255.666.983c.001.458.034.626.072.372a3.008 3.008 0 0 0-.002-.833c-.04-.205-.071.002-.07.461m-6.506 0c.002.366.036.497.076.289.04-.207.039-.507-.003-.666-.042-.16-.074.01-.073.377m149.004.083c0 .413.032.581.072.375.04-.206.04-.544 0-.75-.04-.206-.072-.038-.072.375m23.166 0c0 .413.033.581.073.375a2.418 2.418 0 0 0 0-.75c-.04-.206-.073-.038-.073.375M28.217 46c0 .504.031.71.069.458a3.694 3.694 0 0 0 0-.916c-.038-.252-.069-.046-.069.458m-2.162.417c0 .641.031.883.067.538a6.219 6.219 0 0 0-.002-1.167c-.037-.296-.066-.013-.065.629m6.326-.334c.001.459.034.626.072.373a3.008 3.008 0 0 0-.002-.833c-.04-.205-.071.002-.07.46m185.036-.494c-.417.201-.431.224-.084.139.473-.115 1.003-.386.75-.382-.091.001-.391.111-.666.243M30.053 46.667c0 .595.031.839.068.541a5.297 5.297 0 0 0 0-1.083c-.037-.298-.068-.054-.068.542m206.332-.084c.001.55.032.755.069.456.037-.3.036-.75-.002-1-.038-.251-.068-.006-.067.544m134.511.917c0 1.054.027 1.485.06.958.034-.527.034-1.389 0-1.916-.033-.527-.06-.096-.06.958m-161.021-1.376c.985.03 2.598.03 3.583 0 .986-.029.179-.053-1.791-.053-1.971 0-2.777.024-1.792.053m15.712 1.001c-.358.435-.479.642-.268.458.373-.324 1.097-1.25.978-1.25-.033 0-.353.357-.71.792m-202.215.208c0 .321.034.452.076.292.042-.16.042-.423 0-.583-.042-.161-.076-.03-.076.291m77.145-.069c.009.267.08.674.158.903.095.281.11.145.045-.417-.108-.938-.229-1.225-.203-.486m135.995 1.083c.006.222.079.553.162.736.106.233.121.132.05-.333-.118-.774-.229-.985-.212-.403m-204.137.57c.002.366.036.497.076.289.04-.207.039-.507-.003-.666-.042-.16-.074.01-.073.377m-6.333 1.333c.002.367.036.497.076.29.04-.208.038-.508-.003-.667-.042-.159-.075.01-.073.377m68.315-.417c0 .138.064.4.143.584.09.21.143.241.143.083 0-.138-.064-.4-.143-.583-.09-.21-.143-.241-.143-.084m-55.309 1.25c.001.459.033.626.072.373a2.968 2.968 0 0 0-.003-.833c-.039-.205-.071.002-.069.46m109.494-.625c2.177.027 5.739.027 7.916 0 2.177-.026.396-.048-3.958-.048s-6.135.022-3.958.048m207.192 3.292c0 1.467.026 2.044.057 1.284.031-.761.031-1.961-.001-2.667-.031-.706-.056-.084-.056 1.383m-145.599-1.959c1.128.029 2.928.029 4 0 1.071-.029.148-.053-2.052-.052-2.2 0-3.077.023-1.948.052m35.032 1.042c.195.275.393.5.439.5.046 0-.077-.225-.273-.5-.195-.275-.393-.5-.439-.5-.046 0 .077.225.273.5m1.25 1.5c.358.367.688.667.734.667.046 0-.21-.3-.568-.667-.358-.366-.688-.666-.734-.666-.046 0 .21.3.568.666m81.291 2.792c2.269.026 5.982.026 8.25 0 2.269-.026.413-.048-4.125-.048-4.537 0-6.393.022-4.125.048m-216.331.495c.254.038.629.037.834-.003.205-.039-.003-.071-.461-.069-.458.001-.626.033-.373.072m142.42.003a13.62 13.62 0 0 0 1.667-.001c.432-.034.036-.062-.881-.061-.916 0-1.27.028-.786.062m13.536.627c-.405.413-.698.75-.652.75.045 0 .414-.337.819-.75.405-.413.699-.75.653-.75-.046 0-.415.337-.82.75m-142.904.401-.488.599.563-.536c.309-.295.529-.565.487-.599-.041-.035-.294.206-.562.536M375.563 60c0 1.054.027 1.485.06.958.033-.527.033-1.389 0-1.916-.033-.527-.06-.096-.06.958m-270.73 2.083c.23.131.492.239.584.239.091 0-.021-.108-.25-.239s-.492-.238-.584-.238c-.091 0 .021.107.25.238m13.917.006c-.419.202-.432.225-.083.141.229-.056.488-.167.575-.249.216-.202.097-.176-.492.108m-63.375.091c.17.099.302.392.317.703.024.519.027.52.095.065.073-.482-.184-.952-.516-.943-.103.003-.056.082.104.175m-10.856.77c-.01.202-.15.443-.311.537-.16.093-.207.172-.103.175.296.008.597-.45.511-.779-.062-.24-.081-.227-.097.067m5.543.002c.172.204.266.487.21.634-.059.153-.032.222.063.163.273-.169.188-.512-.21-.848l-.375-.318.312.369m57.271-.126c.138.093.394.17.57.171.426.004.293-.092-.32-.229-.365-.081-.432-.066-.25.058m8.75.007-.5.128.449.019c.247.011.495-.055.551-.147.057-.091.08-.157.052-.147-.028.011-.277.077-.552.147m23.209-.043c.664.032 1.752.032 2.416 0 .665-.031.121-.057-1.208-.057s-1.873.026-1.208.057m23.924.001c.715.031 1.84.031 2.5-.001.66-.031.076-.057-1.299-.057-1.375.001-1.916.026-1.201.058m20.409-.001c.665.032 1.752.032 2.417 0 .664-.031.12-.057-1.209-.057-1.329 0-1.873.026-1.208.057m19.591.001c.715.031 1.84.031 2.5-.001.66-.031.076-.057-1.299-.057-1.375.001-1.916.026-1.201.058m46.284.035c.137.093.394.17.569.171.427.004.294-.092-.319-.229-.365-.081-.433-.066-.25.058m41.716-.035c.715.031 1.84.031 2.5-.001.66-.031.076-.057-1.299-.057-1.375.001-1.916.026-1.201.058m31.992.001c3.186.025 8.398.025 11.584 0 3.185-.026.579-.046-5.792-.046-6.371 0-8.977.02-5.792.046m33.155 0c3.362.025 8.912.025 12.333 0 3.421-.026.671-.046-6.113-.046-6.783 0-9.582.02-6.22.046m-246.319.494c.253.039.628.038.833-.002.205-.04-.002-.071-.46-.07-.459.002-.626.034-.373.072m2.833 0c.254.039.629.038.834-.002.205-.04-.003-.071-.461-.07-.458.002-.626.034-.373.072m-67.5 2.667c.254.038.629.037.834-.002.205-.04-.003-.071-.461-.07-.458.001-.626.034-.373.072m-.669 2.995c.161.042.423.042.584 0 .16-.042.029-.076-.292-.076s-.452.034-.292.076" stroke="none" fill="#bf5c54" fill-rule="evenodd"/></g></svg>