<svg xmlns="http://www.w3.org/2000/svg" fill="none" viewBox="24.5 24.5 44.15 41"><path d="M65.999 25L49.163 37.504l3.113-7.377L65.999 25z" fill="#E2761B" stroke="#E2761B" stroke-linecap="round" stroke-linejoin="round"/><path d="M27.132 25l16.7 12.623-2.96-7.496L27.131 25zm32.809 28.985l-4.484 6.87 9.594 2.639 2.758-9.357-7.868-.152zm-34.586.152l2.742 9.357 9.593-2.64-4.483-6.87-7.852.153z" fill="#E4761B" stroke="#E4761B" stroke-linecap="round" stroke-linejoin="round"/><path d="M37.149 42.377l-2.673 4.044 9.526.423-.339-10.237-6.514 5.77zm18.832 0l-6.598-5.888-.22 10.355 9.509-.423-2.69-4.044zM37.69 60.855l5.72-2.792-4.941-3.858-.779 6.65zm12.03-2.792l5.737 2.791-.796-6.65-4.94 3.859z" fill="#E4761B" stroke="#E4761B" stroke-linecap="round" stroke-linejoin="round"/><path d="M55.457 60.855l-5.736-2.792.457 3.739-.051 1.574 5.33-2.521zm-17.767 0l5.33 2.52-.034-1.573.424-3.74-5.72 2.793z" fill="#D7C1B3" stroke="#D7C1B3" stroke-linecap="round" stroke-linejoin="round"/><path d="M43.105 51.734l-4.771-1.404 3.367-1.54 1.404 2.944zm6.92 0l1.405-2.944 3.384 1.54-4.789 1.404z" fill="#233447" stroke="#233447" stroke-linecap="round" stroke-linejoin="round"/><path d="M37.69 60.855l.813-6.87-5.297.152 4.484 6.718zm16.955-6.87l.812 6.87 4.484-6.718-5.297-.152zm4.027-7.564l-9.51.423.88 4.89 1.405-2.944 3.384 1.54 3.84-3.909zM38.334 50.33l3.383-1.54 1.388 2.944.897-4.89-9.526-.423 3.858 3.909z" fill="#CD6116" stroke="#CD6116" stroke-linecap="round" stroke-linejoin="round"/><path d="M34.476 46.421l3.993 7.784-.136-3.875-3.857-3.909zM54.83 50.33l-.168 3.875 4.01-7.784-3.841 3.909zm-10.828-3.486l-.897 4.89 1.117 5.77.253-7.597-.473-3.063zm5.16 0l-.456 3.046.203 7.614 1.133-5.77-.88-4.89z" fill="#E4751F" stroke="#E4751F" stroke-linecap="round" stroke-linejoin="round"/><path d="M50.042 51.734l-1.133 5.77.812.559 4.94-3.858.17-3.875-4.789 1.404zM38.334 50.33l.135 3.875 4.94 3.858.813-.559-1.117-5.77-4.771-1.404z" fill="#F6851B" stroke="#F6851B" stroke-linecap="round" stroke-linejoin="round"/><path d="M50.127 63.376l.05-1.574-.422-.372h-6.38l-.389.372.034 1.574-5.33-2.521 1.862 1.522L43.325 65h6.48l3.79-2.623 1.862-1.523-5.33 2.522z" fill="#C0AD9E" stroke="#C0AD9E" stroke-linecap="round" stroke-linejoin="round"/><path d="M49.72 58.063l-.812-.559h-4.687l-.812.559-.423 3.74.39-.373h6.379l.422.372-.456-3.74z" fill="#161616" stroke="#161616" stroke-linecap="round" stroke-linejoin="round"/><path d="M66.709 38.316l1.438-6.903L65.998 25 49.721 37.081l6.26 5.296 8.85 2.59 1.962-2.285-.846-.61 1.354-1.234-1.049-.813 1.354-1.032-.897-.677zM25 31.413l1.438 6.903-.913.677 1.353 1.032-1.032.813 1.354 1.235-.846.609 1.945 2.284 8.85-2.589 6.26-5.296L27.133 25 25 31.413z" fill="#763D16" stroke="#763D16" stroke-linecap="round" stroke-linejoin="round"/><path d="M64.83 44.966l-8.849-2.589 2.69 4.044-4.01 7.784 5.28-.068h7.868l-2.978-9.17zm-27.681-2.589l-8.85 2.59-2.944 9.17h7.852l5.262.068-3.993-7.784 2.673-4.044zm12.014 4.467l.558-9.763 2.572-6.954H40.872l2.538 6.954.592 9.763.203 3.08.017 7.58h4.687l.034-7.58.22-3.08z" fill="#F6851B" stroke="#F6851B" stroke-linecap="round" stroke-linejoin="round"/></svg>