<svg xmlns="http://www.w3.org/2000/svg" xmlns:xlink="http://www.w3.org/1999/xlink" viewBox="0 0 218 190"><defs><filter id="a" width="144.6%" height="135.8%" x="-22.3%" y="-17.9%" filterUnits="objectBoundingBox"><feOffset dy="6" in="SourceAlpha" result="shadowOffsetOuter1"/><feGaussianBlur in="shadowOffsetOuter1" result="shadowBlurOuter1" stdDeviation="5"/><feColorMatrix in="shadowBlurOuter1" result="shadowMatrixOuter1" values="0 0 0 0 0.152941 0 0 0 0 0.180392 0 0 0 0 0.25098 0 0 0 0.2 0"/><feMerge><feMergeNode in="shadowMatrixOuter1"/><feMergeNode in="SourceGraphic"/></feMerge></filter><filter id="c" width="153.7%" height="295.4%" x="-26.8%" y="-48.8%" filterUnits="objectBoundingBox"><feOffset dy="10" in="SourceAlpha" result="shadowOffsetOuter1"/><feGaussianBlur in="shadowOffsetOuter1" result="shadowBlurOuter1" stdDeviation="5"/><feColorMatrix in="shadowBlurOuter1" values="0 0 0 0 0.152941 0 0 0 0 0.180392 0 0 0 0 0.25098 0 0 0 0.2 0"/></filter><filter id="e" width="192.5%" height="150.8%" x="-46.3%" y="-25.4%" filterUnits="objectBoundingBox"><feOffset dy="6" in="SourceAlpha" result="shadowOffsetOuter1"/><feGaussianBlur in="shadowOffsetOuter1" result="shadowBlurOuter1" stdDeviation="5"/><feColorMatrix in="shadowBlurOuter1" result="shadowMatrixOuter1" values="0 0 0 0 0.152941 0 0 0 0 0.180392 0 0 0 0 0.25098 0 0 0 0.2 0"/><feMerge><feMergeNode in="shadowMatrixOuter1"/><feMergeNode in="SourceGraphic"/></feMerge></filter><filter id="h" width="324.4%" height="324.4%" x="-112.2%" y="-82.7%" filterUnits="objectBoundingBox"><feOffset dy="5" in="SourceAlpha" result="shadowOffsetOuter1"/><feGaussianBlur in="shadowOffsetOuter1" result="shadowBlurOuter1" stdDeviation="5.5"/><feColorMatrix in="shadowBlurOuter1" values="0 0 0 0 0.152941 0 0 0 0 0.180392 0 0 0 0 0.25098 0 0 0 0.2 0"/></filter><filter id="j" width="525.3%" height="525.5%" x="-212.7%" y="-156.8%" filterUnits="objectBoundingBox"><feOffset dy="5" in="SourceAlpha" result="shadowOffsetOuter1"/><feGaussianBlur in="shadowOffsetOuter1" result="shadowBlurOuter1" stdDeviation="5.5"/><feColorMatrix in="shadowBlurOuter1" values="0 0 0 0 0.152941 0 0 0 0 0.180392 0 0 0 0 0.25098 0 0 0 0.2 0"/></filter><filter id="l" width="324.4%" height="324.4%" x="-112.2%" y="-82.7%" filterUnits="objectBoundingBox"><feOffset dy="5" in="SourceAlpha" result="shadowOffsetOuter1"/><feGaussianBlur in="shadowOffsetOuter1" result="shadowBlurOuter1" stdDeviation="5.5"/><feColorMatrix in="shadowBlurOuter1" values="0 0 0 0 0.152941 0 0 0 0 0.180392 0 0 0 0 0.25098 0 0 0 0.2 0"/></filter><filter id="n" width="216.7%" height="456.6%" x="-58.4%" y="-129.4%" filterUnits="objectBoundingBox"><feOffset dy="10" in="SourceAlpha" result="shadowOffsetOuter1"/><feGaussianBlur in="shadowOffsetOuter1" result="shadowBlurOuter1" stdDeviation="10.5"/><feColorMatrix in="shadowBlurOuter1" values="0 0 0 0 0.152941 0 0 0 0 0.180392 0 0 0 0 0.25098 0 0 0 0.2 0"/></filter><filter id="p" width="231.8%" height="295.4%" x="-65.9%" y="-63.5%" filterUnits="objectBoundingBox"><feOffset dy="7" in="SourceAlpha" result="shadowOffsetOuter1"/><feGaussianBlur in="shadowOffsetOuter1" result="shadowBlurOuter1" stdDeviation="5.5"/><feColorMatrix in="shadowBlurOuter1" values="0 0 0 0 0.152941176 0 0 0 0 0.180392157 0 0 0 0 0.250980392 0 0 0 0.2 0"/></filter><ellipse id="i" cx="17.467" cy="67.466" rx="8.467" ry="8.466"/><ellipse id="k" cx="176.467" cy="71.466" rx="4.467" ry="4.466"/><ellipse id="m" cx="151.467" cy="23.466" rx="8.467" ry="8.466"/><path id="d" d="M44 50.842C44 46.512 47.52 43 51.836 43h58.866c4.327 0 7.836 3.52 7.836 7.842v4.79c0 4.33-3.52 7.842-7.836 7.842H51.836c-4.328 0-7.836-3.52-7.836-7.843v-4.789z"/><path id="g" d="M8.826 5.231a.589.589 0 01.128.83L6.3 9.622a.602.602 0 01-.869.103l-2.15-1.781a.59.59 0 01-.074-.837.605.605 0 01.846-.073l1.66 1.375 2.274-3.053a.605.605 0 01.84-.126zm2.045-3.085h-.6C7.748 2.146 6.612.671 6.567.612A.593.593 0 006.03.377a.598.598 0 00-.462.232C5.522.67 4.386 2.146 1.865 2.146h-.6c-.663 0-1.202.533-1.202 1.188v1.781c0 .328.003.866.007 1.194 0 .062.133 6.234 5.792 8.27l.012.002a.604.604 0 00.194.034c.066 0 .13-.013.192-.034.004 0 .009 0 .013-.002 5.66-2.036 5.792-8.208 5.792-8.27.004-.328.007-.866.007-1.194V3.334c0-.655-.539-1.188-1.201-1.188z"/><path id="o" d="M0 113.842A7.847 7.847 0 017.841 106h46.855c4.33 0 7.842 3.52 7.842 7.842v4.79a7.847 7.847 0 01-7.842 7.842H7.841c-4.33 0-7.841-3.52-7.841-7.843v-4.789z"/><linearGradient id="b" x1="35.192%" x2="146.327%" y1="0%" y2="222.965%"><stop offset="0%" stop-color="#0F0771"/><stop offset="100%" stop-color="#FF4343"/></linearGradient><linearGradient id="f" x1="0%" y1="50.706%" y2="50.706%"><stop offset="0%" stop-color="#F50"/><stop offset="57.237%" stop-color="#FF2000"/><stop offset="100%" stop-color="#FF2000"/></linearGradient><rect id="q" width="30.358" height="20.474" x="157" y="126" rx="7.841"/></defs><g fill="none" fill-rule="evenodd" transform="translate(20 4)"><g filter="url(#a)" transform="translate(18)"><path fill="url(#b)" d="M.265 9.363c0-4.97 4.026-9 8.991-9H129.53c4.966 0 8.991 4.03 8.991 9v154.468c0 4.97-4.025 9-8.991 9H9.256c-4.965 0-8.99-4.03-8.99-9V9.363z"/><path fill="#FFF" d="M6.28 11.826a4.909 4.909 0 014.909-4.917h116.408a4.916 4.916 0 014.91 4.917v130.633a4.909 4.909 0 01-4.91 4.917H11.189a4.916 4.916 0 01-4.91-4.917V11.826z"/><g fill="#F1F1F1" fill-rule="nonzero" opacity=".519" transform="translate(18 22)"><rect width="91.862" height="5.275" rx=".818"/><rect width="89.502" height="5.275" y="19.592" rx=".818"/><rect width="89.502" height="5.275" y="94" rx=".818"/><rect width="103.684" height="11.303" y="43.704" rx=".818"/><rect width="103.684" height="23.359" y="61.789" rx=".818"/><rect width="104" height="3" y="11" rx=".818"/><rect width="101" height="3" y="30" rx=".818"/><rect width="101" height="3" y="105" rx=".818"/></g><use fill="#000" filter="url(#c)" xlink:href="#d"/><use fill="url(#b)" xlink:href="#d"/><circle cx="69" cy="159" r="6" fill="#FFF" fill-rule="nonzero"/></g><g filter="url(#e)" transform="translate(103 51)"><path fill="url(#f)" d="M0 8.996C0 4.028 4.028 0 9.001 0H58c4.97 0 9 4.024 9 8.996v104.008c0 4.968-4.028 8.996-9.001 8.996H9c-4.97 0-9-4.024-9-8.996V8.996z"/><path fill="#FFF" d="M3 8.91A4.917 4.917 0 017.914 4h51.172A4.912 4.912 0 0164 8.91v97.18a4.917 4.917 0 01-4.914 4.91H7.914A4.912 4.912 0 013 106.09V8.91zM10 115c0-.552.45-1 1.003-1h44.994A1 1 0 0157 115c0 .552-.45 1-1.003 1H11.003A1 1 0 0110 115z"/></g><g transform="translate(115 64)"><g fill="#EBEBEB" fill-rule="nonzero" transform="translate(.191 3)"><rect width="24.775" height="3.5" x="17" rx=".818"/><rect width="37.866" height="3.5" y="18" rx=".818"/><rect width="37.866" height="3.5" y="72" rx=".818"/><rect width="43.866" height="7.5" y="34" rx=".818"/><rect width="43.866" height="15.5" y="46" rx=".818"/></g><rect width="27.964" height="1.727" x="17" y="10" fill="#EBEBEB" fill-rule="nonzero" rx=".818"/><rect width="42.739" height="1.727" y="28" fill="#EBEBEB" fill-rule="nonzero" rx=".818"/><rect width="42.739" height="1.727" y="82" fill="#EBEBEB" fill-rule="nonzero" rx=".818"/><use fill="url(#f)" xlink:href="#g"/></g><g fill-rule="nonzero"><use fill="#000" filter="url(#h)" xlink:href="#i"/><use fill="#FFF" xlink:href="#i"/></g><g fill-rule="nonzero"><use fill="#000" filter="url(#j)" xlink:href="#k"/><use fill="#FFF" xlink:href="#k"/></g><g fill-rule="nonzero"><use fill="#000" filter="url(#l)" xlink:href="#m"/><use fill="url(#f)" xlink:href="#m"/></g><use fill="#000" filter="url(#n)" xlink:href="#o"/><use fill="url(#f)" xlink:href="#o"/><use fill="#000" filter="url(#p)" xlink:href="#q"/><use fill="#FFF" xlink:href="#q"/></g></svg>