<svg xmlns="http://www.w3.org/2000/svg" x="0px" y="0px" width="100" height="100" viewBox="0,0,256,256">
<g transform="translate(-40.96,-40.96) scale(1.32,1.32)"><g fill="none" fill-rule="nonzero" stroke="none" stroke-width="1" stroke-linecap="butt" stroke-linejoin="miter" stroke-miterlimit="10" stroke-dasharray="" stroke-dashoffset="0" font-family="none" font-weight="none" font-size="none" text-anchor="none" style="mix-blend-mode: normal"><g transform="scale(5.33333,5.33333)"><path d="M6,10c0,-2.209 1.791,-4 4,-4h28c2.209,0 4,1.791 4,4v28c0,2.209 -1.791,4 -4,4h-28c-2.209,0 -4,-1.791 -4,-4z" fill="#e040fb"></path><path d="M9,9v30h30v-30zM21.016,19.174h-2.002v4.434h1.973c0.547,0 0.97,-0.179 1.27,-0.537c0.3,-0.358 0.449,-0.879 0.449,-1.563c0,-0.71 -0.153,-1.274 -0.459,-1.694c-0.306,-0.42 -0.717,-0.633 -1.231,-0.64zM24.365,24.789c-0.826,0.808 -1.972,1.211 -3.437,1.211h-1.914v5h-3.014v-14.219h4.987c1.406,0 2.528,0.437 3.364,1.309c0.836,0.872 1.255,2.005 1.255,3.398c0,1.393 -0.414,2.493 -1.241,3.301zM33.2,23.1l-0.9,-0.1c-0.8,0 -1.3,0.3 -1.5,1v7h-2.8v-10.6h2.6l0.1,1.1c0.4,-0.9 1,-1.3 1.8,-1.3c0.3,0 0.6,0 0.8,0.1z" fill="#020f16"></path></g></g></g>
</svg>