<svg xmlns="http://www.w3.org/2000/svg" xmlns:xlink="http://www.w3.org/1999/xlink" viewBox="0 0 291 199"><defs><path id="a" d="M141.296 167.196c78.035 0 141.295-37.428 141.295-83.598 0-17.757-19.12-23.784-35.077-37.323C221.982 24.612 189.318 0 141.296 0 95.382 0 64.653 22.27 38.844 42.342 20.79 56.383 0 64.593 0 83.598c0 23.636 35.498 35.822 62.15 51.027 25.411 14.496 41.06 32.57 79.146 32.57z"/></defs><defs><filter id="e" width="183.5%" height="305.9%" x="-41.7%" y="-75.9%" filterUnits="objectBoundingBox"><feOffset dy="5" in="SourceAlpha" result="shadowOffsetOuter1"/><feGaussianBlur in="shadowOffsetOuter1" result="shadowBlurOuter1" stdDeviation="5.5"/><feColorMatrix in="shadowBlurOuter1" values="0 0 0 0 0.152941 0 0 0 0 0.180392 0 0 0 0 0.25098 0 0 0 0.2 0"/></filter><filter id="h" width="101.8%" height="103%" x="-.9%" y="-1.5%" filterUnits="objectBoundingBox"><feGaussianBlur in="SourceAlpha" result="shadowBlurInner1" stdDeviation="2.5"/><feOffset in="shadowBlurInner1" result="shadowOffsetInner1"/><feComposite in="shadowOffsetInner1" in2="SourceAlpha" k2="-1" k3="1" operator="arithmetic" result="shadowInnerInner1"/><feColorMatrix in="shadowInnerInner1" values="0 0 0 0 0.86633716 0 0 0 0 0.86633716 0 0 0 0 0.86633716 0 0 0 0.5 0"/></filter><filter id="j" width="144.3%" height="212.2%" x="-22.2%" y="-41.3%" filterUnits="objectBoundingBox"><feOffset dy="5" in="SourceAlpha" result="shadowOffsetOuter1"/><feGaussianBlur in="shadowOffsetOuter1" result="shadowBlurOuter1" stdDeviation="5.5"/><feColorMatrix in="shadowBlurOuter1" values="0 0 0 0 0.152941 0 0 0 0 0.180392 0 0 0 0 0.25098 0 0 0 0.2 0"/></filter><filter id="m" width="324.4%" height="324.4%" x="-112.2%" y="-82.7%" filterUnits="objectBoundingBox"><feOffset dy="5" in="SourceAlpha" result="shadowOffsetOuter1"/><feGaussianBlur in="shadowOffsetOuter1" result="shadowBlurOuter1" stdDeviation="5.5"/><feColorMatrix in="shadowBlurOuter1" values="0 0 0 0 0.152941 0 0 0 0 0.180392 0 0 0 0 0.25098 0 0 0 0.2 0"/></filter><filter id="o" width="279.5%" height="279.6%" x="-89.8%" y="-66.2%" filterUnits="objectBoundingBox"><feOffset dy="5" in="SourceAlpha" result="shadowOffsetOuter1"/><feGaussianBlur in="shadowOffsetOuter1" result="shadowBlurOuter1" stdDeviation="5.5"/><feColorMatrix in="shadowBlurOuter1" values="0 0 0 0 0.152941 0 0 0 0 0.180392 0 0 0 0 0.25098 0 0 0 0.2 0"/></filter><filter id="q" width="279.5%" height="279.6%" x="-89.8%" y="-66.2%" filterUnits="objectBoundingBox"><feOffset dy="5" in="SourceAlpha" result="shadowOffsetOuter1"/><feGaussianBlur in="shadowOffsetOuter1" result="shadowBlurOuter1" stdDeviation="5.5"/><feColorMatrix in="shadowBlurOuter1" values="0 0 0 0 0.152941 0 0 0 0 0.180392 0 0 0 0 0.25098 0 0 0 0.2 0"/></filter><filter id="s" width="125.3%" height="128.4%" x="-12.7%" y="-10.4%" filterUnits="objectBoundingBox"><feOffset dy="5" in="SourceAlpha" result="shadowOffsetOuter1"/><feGaussianBlur in="shadowOffsetOuter1" result="shadowBlurOuter1" stdDeviation="5.5"/><feColorMatrix in="shadowBlurOuter1" values="0 0 0 0 0.152941176 0 0 0 0 0.180392157 0 0 0 0 0.250980392 0 0 0 0.2 0"/></filter><filter id="t" width="347.1%" height="347.1%" x="-123.5%" y="-108.8%" filterUnits="objectBoundingBox"><feOffset dy="5" in="SourceAlpha" result="shadowOffsetOuter1"/><feGaussianBlur in="shadowOffsetOuter1" result="shadowBlurOuter1" stdDeviation="5.5"/><feColorMatrix in="shadowBlurOuter1" result="shadowMatrixOuter1" values="0 0 0 0 0.152941 0 0 0 0 0.180392 0 0 0 0 0.25098 0 0 0 0.2 0"/><feMerge><feMergeNode in="shadowMatrixOuter1"/><feMergeNode in="SourceGraphic"/></feMerge></filter><filter id="v" width="211.8%" height="211.8%" x="-55.9%" y="-41.2%" filterUnits="objectBoundingBox"><feOffset dy="5" in="SourceAlpha" result="shadowOffsetOuter1"/><feGaussianBlur in="shadowOffsetOuter1" result="shadowBlurOuter1" stdDeviation="5.5"/><feColorMatrix in="shadowBlurOuter1" values="0 0 0 0 0.152941 0 0 0 0 0.180392 0 0 0 0 0.25098 0 0 0 0.2 0"/></filter><filter id="x" width="237.5%" height="237.5%" x="-68.8%" y="-50.7%" filterUnits="objectBoundingBox"><feOffset dy="5" in="SourceAlpha" result="shadowOffsetOuter1"/><feGaussianBlur in="shadowOffsetOuter1" result="shadowBlurOuter1" stdDeviation="5.5"/><feColorMatrix in="shadowBlurOuter1" values="0 0 0 0 0.152941 0 0 0 0 0.180392 0 0 0 0 0.25098 0 0 0 0.2 0"/></filter><filter id="z" width="146.5%" height="223.1%" x="-23.2%" y="-45.4%" filterUnits="objectBoundingBox"><feOffset dy="5" in="SourceAlpha" result="shadowOffsetOuter1"/><feGaussianBlur in="shadowOffsetOuter1" result="shadowBlurOuter1" stdDeviation="5.5"/><feColorMatrix in="shadowBlurOuter1" values="0 0 0 0 0.152941 0 0 0 0 0.180392 0 0 0 0 0.25098 0 0 0 0.2 0"/></filter><filter id="B" width="152.8%" height="194.5%" x="-26.4%" y="-34.8%" filterUnits="objectBoundingBox"><feOffset dy="5" in="SourceAlpha" result="shadowOffsetOuter1"/><feGaussianBlur in="shadowOffsetOuter1" result="shadowBlurOuter1" stdDeviation="5.5"/><feColorMatrix in="shadowBlurOuter1" values="0 0 0 0 0.152941 0 0 0 0 0.180392 0 0 0 0 0.25098 0 0 0 0.2 0"/></filter><filter id="D" width="197.4%" height="197.4%" x="-48.7%" y="-35.9%" filterUnits="objectBoundingBox"><feOffset dy="5" in="SourceAlpha" result="shadowOffsetOuter1"/><feGaussianBlur in="shadowOffsetOuter1" result="shadowBlurOuter1" stdDeviation="5.5"/><feColorMatrix in="shadowBlurOuter1" values="0 0 0 0 0.152941 0 0 0 0 0.180392 0 0 0 0 0.25098 0 0 0 0.2 0"/></filter><rect id="d" width="45.511" height="18.455" x="-5.175" y="88.598" rx="4.233"/><rect id="i" width="85.73" height="33.862" x="162.993" y="148.614" rx="4.233"/><rect id="r" width="150.168" height="134.032" rx="4.072"/><rect id="y" width="81.73" height="30.862" rx="4.233"/><rect id="A" width="71.971" height="40.212" rx="4.233"/><ellipse id="l" cx="43.394" cy="17.397" rx="8.467" ry="8.466"/><ellipse id="n" cx="259.307" cy="54.434" rx="10.584" ry="10.582"/><ellipse id="p" cx="34.927" cy="157.079" rx="10.584" ry="10.582"/><ellipse id="w" cx="112.818" cy="13.815" rx="13.818" ry="13.815"/><linearGradient id="b" x1="5.709%" x2="98.47%" y1="-3.224%" y2="108.103%"><stop offset="0%" stop-color="#F0F0F0"/><stop offset="100%" stop-color="#F2EDFD"/></linearGradient><linearGradient id="f" x1="0%" y1="50.706%" y2="50.706%"><stop offset="0%" stop-color="#FB542B"/><stop offset="100%" stop-color="#E3380E"/></linearGradient><linearGradient id="k" x1="35.192%" x2="146.327%" y1="0%" y2="222.965%"><stop offset="0%" stop-color="#392DD1"/><stop offset="100%" stop-color="#FF4343"/></linearGradient><circle id="u" cx="17" cy="17" r="17"/><circle id="C" cx="19.5" cy="19.5" r="19.5"/><use xlink:href="#a" id="g"/></defs><g fill="none" fill-rule="evenodd"><g transform="translate(.409 14.931)"><mask id="c" fill="#fff"><use xlink:href="#a"/></mask><use xlink:href="#a" fill="url(#b)" fill-rule="nonzero"/><g fill-rule="nonzero" mask="url(#c)"><use xlink:href="#d" fill="#000" filter="url(#e)"/><use xlink:href="#d" fill="url(#f)"/></g><use xlink:href="#g" fill="#000" fill-rule="nonzero" filter="url(#h)"/></g><g fill-rule="nonzero" transform="translate(-7 6)"><use xlink:href="#i" fill="#000" filter="url(#j)"/><use xlink:href="#i" fill="url(#k)"/></g><g fill-rule="nonzero" transform="translate(-7 6)"><use xlink:href="#l" fill="#000" filter="url(#m)"/><use xlink:href="#l" fill="#FFF"/></g><g fill-rule="nonzero" transform="translate(-7 6)"><use xlink:href="#n" fill="#000" filter="url(#o)"/><use xlink:href="#n" fill="#FFF"/></g><g fill-rule="nonzero" transform="translate(-7 6)"><use xlink:href="#p" fill="#000" filter="url(#q)"/><use xlink:href="#p" fill="url(#k)"/></g><g transform="translate(66.62 31.513)"><use xlink:href="#r" fill="#000" filter="url(#s)"/><use xlink:href="#r" fill="#FFF"/><path fill="#FF4724" d="M26.172 106.687l29.196-16.989 20.129-34.94V21.072c-.531 0-1.062.35-1.465 1.048L50.19 63.507l-23.84 41.387c-.402.699-.44 1.332-.177 1.793"/><path fill="#9E1F63" d="M75.497 21.071V54.76L95.624 89.7l29.197 16.988c.264-.461.226-1.094-.176-1.793l-23.842-41.387L76.961 22.12c-.403-.698-.934-1.048-1.464-1.048"/><path fill="#662D91" d="M124.821 106.687L95.625 89.698H55.369l-29.197 16.989c.263.462.83.749 1.635.749h95.379c.805 0 1.371-.287 1.635-.75"/><path fill="#FFF" d="M55.369 89.698h40.255L75.497 54.759z"/></g><g fill-rule="nonzero" filter="url(#t)" transform="translate(68 154)"><use xlink:href="#u" fill="#000" filter="url(#v)"/><use xlink:href="#u" fill="url(#f)"/></g><g fill-rule="nonzero" transform="translate(-7 6)"><use xlink:href="#w" fill="#000" filter="url(#x)"/><use xlink:href="#w" fill="url(#f)"/></g><g fill-rule="nonzero" transform="translate(18.285 49.852)"><use xlink:href="#y" fill="#000" filter="url(#z)"/><use xlink:href="#y" fill="url(#k)"/><circle cx="12.288" cy="11.111" r="2.646" stroke="#FFF" stroke-linecap="round" stroke-linejoin="round" stroke-width="2.058"/><circle cx="12.646" cy="20.646" r="2.646" stroke="#FFF" stroke-linecap="round" stroke-linejoin="round" stroke-width="2.058"/><path stroke="#FFF" stroke-linecap="square" stroke-linejoin="round" stroke-width="2.058" d="M23.962 10.582H71.03m-47.468 9.476h47.067"/></g><g fill-rule="nonzero" transform="translate(208 88)"><use xlink:href="#A" fill="#000" filter="url(#B)"/><use xlink:href="#A" fill="url(#f)"/><path stroke="#FFF" stroke-linecap="square" stroke-linejoin="round" stroke-width="2.116" d="M12.228 9.524h49.159m-49.214 9.524H42.8M12.17 29.63h38.482"/></g><g fill-rule="nonzero" transform="translate(192 9)"><use xlink:href="#C" fill="#000" filter="url(#D)"/><use xlink:href="#C" fill="url(#k)"/><path stroke="#FFF" stroke-linecap="round" stroke-linejoin="round" stroke-width="2" d="M19.83 9.592v18.496m9.66-9.262H9.858"/></g></g></svg>