<svg xmlns="http://www.w3.org/2000/svg" width="1565" height="1408" fill="none" viewBox="0 0 1565 1408"><path fill="#fff" fill-opacity=".4" fill-rule="evenodd" d="M351.599 1170.32c21.059 0 38.13-17.07 38.13-38.13 0-21.06-17.071-38.13-38.13-38.13-14.316 0-26.789 7.89-33.309 19.55a38.03 38.03 0 00-16.645-3.81c-1.507 0-2.993.09-4.454.26-4.193-9.43-13.64-16-24.623-16-14.098 0-25.666 10.83-26.838 24.62a40.867 40.867 0 00-3.336-.14c-21.059 0-38.13 17.07-38.13 38.13 0 21.06 17.071 38.13 38.13 38.13 14.146 0 26.493-7.7 33.074-19.15 6.83 6.45 16.041 10.41 26.177 10.41 14.315 0 26.788-7.89 33.308-19.56a37.905 37.905 0 0016.646 3.82zm699.331-754.545c21.06 0 38.13-17.071 38.13-38.129 0-21.059-17.07-38.13-38.13-38.13-14.31 0-26.79 7.889-33.31 19.557a37.94 37.94 0 00-16.64-3.816 38.53 38.53 0 00-4.456.258c-4.193-9.427-13.64-15.999-24.623-15.999-14.098 0-25.666 10.83-26.838 24.625a38.337 38.337 0 00-3.336-.144c-21.059 0-38.13 17.071-38.13 38.13 0 21.058 17.071 38.13 38.13 38.13 14.146 0 26.493-7.704 33.074-19.145 6.83 6.451 16.041 10.405 26.179 10.405 14.31 0 26.79-7.889 33.31-19.557a37.953 37.953 0 0016.64 3.815z" clip-rule="evenodd"/><g filter="url(#filter0_f)"><circle cx="579.536" cy="99.723" r="4" fill="#fff" fill-opacity=".24"/></g><g filter="url(#filter1_f)"><circle cx="743.529" cy="57.35" r="4" fill="#fff" fill-opacity=".8"/></g><g filter="url(#filter2_f)"><circle cx="279.554" cy="252.782" r="4" fill="#fff" fill-opacity=".8"/></g><g filter="url(#filter3_f)"><circle cx="150.79" cy="45.35" r="4" fill="#fff" fill-opacity=".8"/></g><g filter="url(#filter4_f)"><circle cx="845.698" cy="41.35" r="4" fill="#fff" fill-opacity=".24"/></g><g filter="url(#filter5_f)"><circle cx="778.035" cy="184.774" r="4" fill="#fff" fill-opacity=".24"/></g><g filter="url(#filter6_f)"><circle cx="1556.28" cy="180.774" r="4" fill="#fff" fill-opacity=".8"/></g><g filter="url(#filter7_f)"><circle cx="1119.36" cy="128.232" r="4" fill="#fff" fill-opacity=".24"/></g><g filter="url(#filter8_f)"><circle cx="1505.02" cy="49.35" r="4" fill="#fff" fill-opacity=".24"/></g><g filter="url(#filter9_f)"><circle cx="1365" cy="207.084" r="4" fill="#fff" fill-opacity=".24"/></g><g filter="url(#filter10_f)"><circle cx="1115.36" cy="8.862" r="4" fill="#fff" fill-opacity=".24"/></g><g filter="url(#filter11_f)"><circle cx="571.536" cy="205.46" r="4" fill="#fff" fill-opacity=".24"/></g><g filter="url(#filter12_f)"><circle cx="271.554" cy="70.065" r="4" fill="#fff" fill-opacity=".24"/></g><g filter="url(#filter13_f)"><circle cx="54.726" cy="327.51" r="4" fill="#fff" fill-opacity=".24"/></g><g filter="url(#filter14_f)"><circle cx="353" cy="41.35" r="4" fill="#fff" fill-opacity=".24"/></g><g filter="url(#filter15_f)"><circle cx="369.056" cy="281.958" r="4" fill="#fff" fill-opacity=".24"/></g><g filter="url(#filter16_f)"><circle cx="37.644" cy="192.907" r="4" fill="#fff" fill-opacity=".24"/></g><path fill="url(#paint0_linear)" d="M361.926 310.161v.216c5.619 2.593 11.238 5.618 16.857 9.724 1.728.864 7.131 2.593 11.237 3.889 3.242 1.081 6.484 2.161 9.942 3.241 11.886 4.106 13.615 4.106 17.289 4.106 23.773 0 42.574 7.779 54.893 13.829 11.238.216 21.179 2.161 29.608 4.322 8.644-4.754 19.45-9.724 32.417-12.965 15.776-9.94 49.42-17.184 89.038-20.96 15.611 0 16.977.438 27.446 1.804 0 0 27.663 3.814 53.813 19.804 15.776 9.724 43.006 33.061 46.464 79.95.216 1.945.216 4.106.216 6.051 5.619 3.889 11.238 8.427 16.641 14.045 16.424 7.347 47.328 22.256 63.753 57.261 7.348 15.558 11.238 30.252 14.479 42.136 1.297 4.97 2.81 10.156 3.674 12.749.649 1.729 3.458 6.699 5.187 10.372 5.835 10.804 12.967 23.985 17.937 40.624.649 2.376 3.026 7.562 4.971 11.884 4.755 10.372 10.373 23.337 14.48 38.895 4.538 17.502 5.186 33.06 5.618 44.512.217 3.026.217 7.131.433 8.86 3.674 16.854 3.674 31.764 3.458 42.136 4.754 6.698 11.021 15.99 16.424 27.874.432.648 1.081 1.08 1.513 1.729 4.538 4.97 10.806 11.668 17.289 20.744 5.619 7.778 9.725 14.693 13.183 20.311 1.513 2.593 3.674 6.05 4.754 7.563 17.506 15.774 27.231 33.493 33.93 45.377.649 1.297 1.513 2.809 2.161 3.89 16.859 16.206 25.719 34.141 31.339 45.377.21.216.21.648.43 1.08 1.73 1.297 3.46 2.809 5.4 4.322 6.7 5.402 14.91 11.668 23.13 19.663 14.04 5.618 39.33 16.206 58.78 41.056 13.61 17.718 20.31 35.868 24.85 47.968.65 1.95 1.73 4.54 2.38 6.05 13.4 21.18 16.86 42.79 17.51 58.99 6.48 5.84 13.61 13.18 20.31 22.69 15.13 9.29 40.85 26.15 54.24 58.99 5.84 14.26 9.51 27.66 12.97 39.76 1.51 5.62 3.03 11.02 4.54 15.13 9.94 30.25 3.46 56.61-5.62 76.49 6.92 11.02 13.4 24.85 16.21 41.7 3.67 22.04.65 41.27-3.24 55.75 9.72 14.26 20.74 35.22 20.96 62.67l-172.89 1.51c.22 19.88 8.43 32.41 8.86 32.84-.43-.65-1.94-2.81-3.03-4.1-9.94-13.18-28.52-38.03-31.55-73.25-1.29-15.99.87-30.26 3.89-41.71-8.64-11.23-17.5-26.14-22.26-45.38-8.43-33.92 2.6-62.01 13.4-81.46-11.45-7.78-25.28-19.23-36.09-36.3-.43-.22-.65-.65-1.08-.86-9.29-7.78-24.64-20.75-36.307-40.84-14.48-25.07-15.56-50.35-15.56-65.91-2.81-5.83-4.971-11.24-6.916-15.99-12.966-5.83-29.391-14.91-43.871-31.11-1.512-1.52-6.483-5.41-9.941-8.22-6.699-5.18-14.912-11.88-23.556-20.09-16.425-15.99-24.853-33.28-30.472-44.73a10.654 10.654 0 01-.649-1.513c-14.695-14.477-23.124-30.035-29.175-40.839a40.16 40.16 0 00-2.377-4.106c-16.209-15.558-25.718-31.115-32.417-41.92-2.377-3.673-4.322-6.914-6.051-9.291-.649-.864-2.593-3.025-4.322-4.754-7.996-8.643-20.963-22.905-30.688-44.945-.648-1.08-1.729-2.593-2.594-3.673-7.131-10.156-19.234-27.01-25.501-50.779-5.187-19.664-4.971-37.166-4.754-48.835v-5.618c-3.026-14.693-3.458-27.874-3.89-37.598 0-2.809-.217-6.266-.433-8.211-.864-2.593-3.025-7.347-4.754-11.02-3.674-8.427-8.429-19.015-12.102-30.9-.865-1.945-3.458-6.914-5.403-10.372-4.539-8.427-9.942-18.799-14.696-30.899-3.026-8.211-5.403-15.99-7.348-22.905-9.509-4.97-20.314-11.885-30.471-21.824-12.103-4.754-30.256-13.181-46.033-30.252-9.509-9.94-15.776-20.744-19.882-31.548-.864-.216-1.297-.432-2.377-.864-9.725 6.266-25.502 16.422-47.329 21.392-30.256 6.915-55.974-1.081-70.453-5.618-27.231.864-49.058-8.86-61.377-14.91-24.421-1.728-43.223-7.347-59.215-12.965-2.593-.864-4.971-1.728-7.348-2.377-10.373-3.241-23.124-7.562-37.387-14.909-23.989.864-69.156 1.08-100.925-38.03-24.421-30.252-23.989-63.745-18.802-88.594-14.263-15.558-3.049-85.399-21.332-97.878-22.218-15.165 50.207-51.659 53.4-31.343 3.192 20.315 31.087 29.197 55.431 40.34 24.886 11.391 53.623 9.363 68.319 15.63 14.695 6.266 25.285 19.879 27.014 35.869z"/><path fill="url(#paint1_linear)" fill-opacity=".4" d="M361.926 310.161v.216c5.619 2.593 11.238 5.618 16.857 9.724 1.728.864 7.131 2.593 11.237 3.889 3.242 1.081 6.484 2.161 9.942 3.241 11.886 4.106 13.615 4.106 17.289 4.106 23.773 0 42.574 7.779 54.893 13.829 11.238.216 21.179 2.161 29.608 4.322 8.644-4.754 19.45-9.724 32.417-12.965 15.776-9.94 49.42-17.184 89.038-20.96 15.611 0 16.977.438 27.446 1.804 0 0 27.663 3.814 53.813 19.804 15.776 9.724 43.006 33.061 46.464 79.95.216 1.945.216 4.106.216 6.051 5.619 3.889 11.238 8.427 16.641 14.045 16.424 7.347 47.328 22.256 63.753 57.261 7.348 15.558 11.238 30.252 14.479 42.136 1.297 4.97 2.81 10.156 3.674 12.749.649 1.729 3.458 6.699 5.187 10.372 5.835 10.804 12.967 23.985 17.937 40.624.649 2.376 3.026 7.562 4.971 11.884 4.755 10.372 10.373 23.337 14.48 38.895 4.538 17.502 5.186 33.06 5.618 44.512.217 3.026.217 7.131.433 8.86 3.674 16.854 3.674 31.764 3.458 42.136 4.754 6.698 11.021 15.99 16.424 27.874.432.648 1.081 1.08 1.513 1.729 4.538 4.97 10.806 11.668 17.289 20.744 5.619 7.778 9.725 14.693 13.183 20.311 1.513 2.593 3.674 6.05 4.754 7.563 17.506 15.774 27.231 33.493 33.93 45.377.649 1.297 1.513 2.809 2.161 3.89 16.859 16.206 25.719 34.141 31.339 45.377.21.216.21.648.43 1.08 1.73 1.297 3.46 2.809 5.4 4.322 6.7 5.402 14.91 11.668 23.13 19.663 14.04 5.618 39.33 16.206 58.78 41.056 13.61 17.718 20.31 35.868 24.85 47.968.65 1.95 1.73 4.54 2.38 6.05 13.4 21.18 16.86 42.79 17.51 58.99 6.48 5.84 13.61 13.18 20.31 22.69 15.13 9.29 40.85 26.15 54.24 58.99 5.84 14.26 9.51 27.66 12.97 39.76 1.51 5.62 3.03 11.02 4.54 15.13 9.94 30.25 3.46 56.61-5.62 76.49 6.92 11.02 13.4 24.85 16.21 41.7 3.67 22.04.65 41.27-3.24 55.75 9.72 14.26 20.74 35.22 20.96 62.67l-172.89 1.51c.22 19.88 8.43 32.41 8.86 32.84-.43-.65-1.94-2.81-3.03-4.1-9.94-13.18-28.52-38.03-31.55-73.25-1.29-15.99.87-30.26 3.89-41.71-8.64-11.23-17.5-26.14-22.26-45.38-8.43-33.92 2.6-62.01 13.4-81.46-11.45-7.78-25.28-19.23-36.09-36.3-.43-.22-.65-.65-1.08-.86-9.29-7.78-24.64-20.75-36.307-40.84-14.48-25.07-15.56-50.35-15.56-65.91-2.81-5.83-4.971-11.24-6.916-15.99-12.966-5.83-29.391-14.91-43.871-31.11-1.512-1.52-6.483-5.41-9.941-8.22-6.699-5.18-14.912-11.88-23.556-20.09-16.425-15.99-24.853-33.28-30.472-44.73a10.654 10.654 0 01-.649-1.513c-14.695-14.477-23.124-30.035-29.175-40.839a40.16 40.16 0 00-2.377-4.106c-16.209-15.558-25.718-31.115-32.417-41.92-2.377-3.673-4.322-6.914-6.051-9.291-.649-.864-2.593-3.025-4.322-4.754-7.996-8.643-20.963-22.905-30.688-44.945-.648-1.08-1.729-2.593-2.594-3.673-7.131-10.156-19.234-27.01-25.501-50.779-5.187-19.664-4.971-37.166-4.754-48.835v-5.618c-3.026-14.693-3.458-27.874-3.89-37.598 0-2.809-.217-6.266-.433-8.211-.864-2.593-3.025-7.347-4.754-11.02-3.674-8.427-8.429-19.015-12.102-30.9-.865-1.945-3.458-6.914-5.403-10.372-4.539-8.427-9.942-18.799-14.696-30.899-3.026-8.211-5.403-15.99-7.348-22.905-9.509-4.97-20.314-11.885-30.471-21.824-12.103-4.754-30.256-13.181-46.033-30.252-9.509-9.94-15.776-20.744-19.882-31.548-.864-.216-1.297-.432-2.377-.864-9.725 6.266-25.502 16.422-47.329 21.392-30.256 6.915-55.974-1.081-70.453-5.618-27.231.864-49.058-8.86-61.377-14.91-24.421-1.728-43.223-7.347-59.215-12.965-2.593-.864-4.971-1.728-7.348-2.377-10.373-3.241-23.124-7.562-37.387-14.909-23.989.864-69.156 1.08-100.925-38.03-24.421-30.252-23.989-63.745-18.802-88.594-14.263-15.558-3.049-85.399-21.332-97.878-22.218-15.165 50.207-51.659 53.4-31.343 3.192 20.315 31.087 29.197 55.431 40.34 24.886 11.391 53.623 9.363 68.319 15.63 14.695 6.266 25.285 19.879 27.014 35.869z"/><g filter="url(#filter17_d)"><path fill="#84889C" d="M93.068 213.969l12.155-28.62c-8.719-12.844-17.019-25.929-24.84-39.477-3.549-6.146-6.538-12.614-9.028-19.184-.161-.28-.102-.5-.264-.779-.102-.5-.424-1.059-.527-1.558-.161-.28-.102-.5-.263-.779-.974-2.976-1.867-5.813-2.62-8.73-.16-.28-.102-.5-.123-.86l-.55-1.918c-.02-.36-.101-.5-.123-.86-.796-3.637-1.512-7.134-1.948-10.793-.663-5.018-1.105-9.977-1.048-15.039-.09-11.121 1.261-22.33 4.154-33.125l.14-.08c.058-.221.117-.441.177-.662.059-.22.198-.3.118-.44-.022-.36-.022-.36.037-.58.06-.22.199-.301.258-.522.059-.22.199-.3.258-.521.059-.22.198-.301.257-.521l.596-.903s.14-.08.06-.22c.338-.382.596-.903.934-1.285.14-.08.199-.3.338-.381.339-.382.817-.844 1.155-1.226.478-.462.897-.704 1.375-1.166l.14-.08.978-.565.977-.565.14-.08c.28-.162.779-.264 1.058-.425l.42-.242c.139-.08.278-.161.638-.183.14-.08.36-.022.5-.102.14-.08.36-.022.5-.102.36-.022.64-.183.86-.124.22.059.5-.103.72-.044 0 0 .14-.08.36-.021 0 0 .14-.08.22.059.36-.022.72-.043.94.016 0 0 .14-.081.36-.022.22.06.36-.022.58.038.22.058.44.117.8.096.06-.22.5-.102.64-.183l.22.06 1.322.353c10.876 3.032 21.177 7.328 30.764 12.966a128.045 128.045 0 0120.654 15.451c.301.199.381.339.682.537.462.478.925.956 1.526 1.354.301.199.382.338.543.618 2.15 2.11 4.3 4.221 6.251 6.633.161.28.382.338.543.618.382.338.704.897 1.086 1.235.161.28.381.339.543.618 4.584 5.36 8.552 11.264 12.1 17.41l.161.28c7.741 13.407 14.983 26.918 21.607 40.972l31.164 3.982c15.211 1.832 29.389 14.132 35.885 30.866l12.947 45.972c1.2 4.336-3.614 5.998-5.732 2.006-7.38-8.589-16.687-14.388-26.139-16.567-.441-.118-.661-.177-1.021-.155l-.661-.177c-.441-.119-.881-.237-1.461-.274-4.965-.858-9.946-.776-14.781.526l-2.396 1.011c.769 1.977 1.398 4.034 2.027 6.092.162.279.103.5.264.779.263.779.608 1.698.871 2.477.161.279.102.499.264.779.161.279.182.639.344.918l2.291 6.872.263.779.813 2.697.263.779c-4.109 2.558-8.858 5.3-13.666 8.262-1.976 1.217-8.859 5.176-9.592 5.725-.356.266-1.064.324-2.451.879-.509.369 1.017-.139-1.018.369 0 0 2.985-1.752-9.11 6.058l-3.052 1.758c-4.969 2.682-9.915 5.312-14.186 7.591l-.543-.618-1.789-2.132-.543-.618-5.429-6.177-.543-.618-.924-.956c-.301-.198-.543-.617-.844-.816-.161-.279-.382-.338-.543-.618-1.467-1.574-2.795-3.228-4.262-4.802l-2.074 1.57c-3.405 3.456-6.106 7.809-7.845 12.537-.118.441-.237.882-.494 1.403l-.177.661-.237.881c-2.758 9.414-2.47 20.235 1.278 30.921 2.398 3.83-1.529 7.028-4.603 3.961L101.798 260.7c-11.186-14.213-14.528-32.582-8.73-46.731z"/><path fill="url(#paint2_linear)" d="M101.931 260.956l33.691 34.806c3.187 3.263 7.026-.087 4.595-3.977-3.833-10.831-4.275-21.919-1.485-31.28l.231-.89.174-.668c.115-.444.231-.889.486-1.415 1.716-4.771 4.259-9.075 7.794-12.629l2.072-1.574c-12.242-14.105-23.808-28.978-34.817-44.174a308.672 308.672 0 01-10.016-14.445l-11.933 29.008c-5.646 14.413-2.17 33.013 9.208 47.238z"/><path fill="url(#paint3_linear)" d="M249.927 175.512l13.297 46.579c1.233 4.393-3.588 6.042-5.741 1.991-7.464-8.735-16.845-14.661-26.347-16.926l-.887-.244-.664-.184c-.443-.122-.886-.244-1.469-.286-4.99-.9-9.989-.85-14.834.435l-2.399 1.007c-6.095-17.654-13.192-35.108-20.848-52.239a307.064 307.064 0 00-7.502-15.897l31.088 4.17c15.306 2.317 29.676 14.626 36.306 31.594z"/><g filter="url(#filter18_d)"><path fill="url(#paint4_linear)" d="M178.88 252.697l8.225 14.247c8.87 15.363 21.012 28.652 35.42 38.77 2.569 1.869 6.061-.147 5.866-3.387-.819-8.838-2.498-17.552-5.236-25.842-2.598-8.37-6.195-16.536-10.63-24.218l-8.306-14.386-.139.081-6.425 3.709.484.838 6.435 12.114c2.199 4.131-.251 6.663-2.904 8.195-2.514 1.451-5.99 2.527-8.549-1.582l-7.273-11.63-.484-.838c-2.154 1.429-4.249 2.639-6.484 3.929z"/></g><path fill="#C7CBE2" d="M151.04 194.396l26.42 42.105.403.698 1.837 2.85.403.698 2.805 4.526.968 1.676.403.699 1.837 2.85.403.698.484.838 7.286 11.623c2.483 3.967 6.132 2.978 8.721 1.483 2.734-1.578 5.352-4.021 3.077-8.294l-6.423-12.122-.484-.838-.403-.698-1.549-3.016-.404-.698-.967-1.676-2.518-4.693-.403-.698-1.549-3.016-.403-.698-23.255-43.933c-5.897-8.886-12.815-16.624-21.089-22.648-1.911-1.317-4.965.446-4.78 2.76 1.655 9.845 4.434 19.973 9.18 29.524z"/><path fill="url(#paint5_radial)" d="M85.356 120.012c2.226 3.855 5.359 7.187 8.78 9.445.488.323.846.419 1.334.741 8.891 5.45 20.293 5.821 29.817.322 9.525-5.499 14.773-15.786 14.63-25.983-.035-.585.061-.943.026-1.527-.377-4.318-1.564-8.47-3.79-12.325-1.047-1.814-2.322-3.498-3.465-4.954-.262-.454-.619-.55-.881-1.003-9.006-9.314-23.566-11.49-35.358-4.682-11.793 6.808-17.188 20.506-13.625 32.962.262.454.166.811.428 1.265.14 2.338 1.057 3.925 2.104 5.739z"/><path fill="url(#paint6_linear)" d="M63.73 84.462l52.46-30.288c-9.474-5.57-19.596-10.03-30.403-12.807-3.919-1.049-7.811-.458-11.125 1.455-3.313 1.913-5.77 4.988-6.822 8.907-2.78 10.805-4.197 21.743-4.11 32.733z"/><path fill="url(#paint7_linear)" fill-rule="evenodd" d="M119.214 91.602l-.292-2.132s-1.45-.442-3.165-.9c-1.715-.46-3.65 1.51-3.65 1.51l-4.34-1.458-4.607 2.66-4.608 2.66-.907 4.488s-2.672.69-3.133 2.405c-.46 1.715-.803 3.191-.803 3.191l1.7 1.32.58 3.074s8.391 8.447 9.403 9.486c1.991 2.046 2.942 2.733 5.371 2.95 2.429.217 6.783.516 7.479.54.697.024 1.651.199 2.227-.134.576-.332.901-1.246 1.229-1.861.327-.616 2.245-4.535 3.272-6.747 1.026-2.212.907-3.379.131-6.127a4640.374 4640.374 0 01-3.515-12.886l-2.372-2.04z" clip-rule="evenodd"/><path fill="#fff" fill-rule="evenodd" d="M109.542 94.8c.384-.222 2.918-2.41 2.918-2.41s5.727 2.127 6.23 2.998c.416.72.288 1.17.138 1.699-.031.11-.064.225-.092.346l-.981 4.145-.034.132c-.106.399-.262.987.358 1.456l.127.096c.676.506 1.51 1.13 1.543 2.232.036 1.172-.444 2.245-1.028 2.451-.585.206-2.199.275-2.825.242-.627-.032-2.759-.388-3.022-.844-.22-.38.455-1.612.782-2.21.065-.119.117-.213.145-.271.032-.065.088-.169.157-.298.295-.552.829-1.549.718-1.79-.137-.297-.195-.374-.969-.857-.165-.103-.349-.208-.539-.317-.705-.404-1.494-.856-1.688-1.394-.219-.608.463-1.422 1.04-2.112l.209-.252.597-.725c.573-.695 1.209-1.467 1.307-1.606.136-.192.041-.246-.55.025l-.289.129c-.737.327-2.096.93-2.619 1.464l-.34.343c-.59.593-1.314 1.32-1.319 1.501-.001.032-.004.06-.006.087-.014.157-.023.26.338.685.108.127.322.374.587.681.775.896 1.985 2.295 2.227 2.626l.099.133c.276.367.459.61.062.98-.034.03-.068.063-.104.096-.449.417-1.107 1.029-1.381 1.187-.274.158-1.133.422-1.718.602a5.605 5.605 0 00-.135.042c-.519.16-.638-.121-.817-.543a8.862 8.862 0 00-.066-.153c-.166-.376-.774-2.127-1.163-3.246l-.294-.844c-.188-.526-.281-.569-.425-.635l-.078-.039c-.159-.086-1.15.177-1.959.392l-.468.123c-.722.186-1.925 1.061-2.577 1.536-.099.072-.186.136-.256.185-.53.377-.531.486-.297.465.17-.016 1.156-.181 2.044-.329.341-.057.667-.112.927-.154l.323-.056c.886-.155 1.932-.338 2.349.156.369.437.366 1.346.363 2.158-.001.219-.002.432.005.626.031.912.069 1 .258 1.268.153.216 1.283.252 1.909.272.146.005.265.009.337.014.064.004.171.007.306.01.682.015 2.087.047 2.306.427.263.456-.495 2.48-.78 3.039-.285.559-1.151 1.922-1.622 2.326-.471.403-1.64.282-2.637-.335-.938-.58-1.061-1.614-1.162-2.452l-.019-.158c-.096-.772-.683-.931-1.082-1.039a3.949 3.949 0 01-.132-.036l-4.079-1.223a7.603 7.603 0 00-.347-.093c-.533-.135-.986-.249-1.402-.969-.502-.871.52-6.895.52-6.895s3.161-1.1 3.545-1.322c.306-.177.78-.722 1.275-1.29.125-.144.251-.29.376-.43.621-.7 1.132-.997 1.132-.997s.513-.294 1.428-.481c.185-.038.374-.075.561-.112.74-.143 1.449-.282 1.755-.459zm7.833 14.695c.781-.038 1.335-.064 1.554-.057.285.01.299.33.187.574-.113.245-1.528 3.699-1.65 4.061l-.049.148c-.115.353-.261.804-.477.929-.217.125-.681.026-1.044-.051l-.152-.032c-.374-.075-4.073-.577-4.341-.601-.268-.025-.538-.198-.404-.449.103-.194.403-.661.827-1.319l.402-.626c.633-.987 1.528-2.032 1.703-2.133.176-.101 1.528-.354 2.699-.408l.745-.036z" clip-rule="evenodd"/><path fill="url(#paint8_linear)" fill-rule="evenodd" d="M112.107 90.08l-4.34-1.459-4.607 2.66-4.608 2.66-.907 4.489s-2.672.69-3.133 2.405c0 0 2.912-2.05 4.958-.945 0 0 3.161-1.1 3.545-1.322.384-.222 1.031-1.022 1.652-1.72.62-.7 1.131-.997 1.131-.997s.513-.294 1.428-.481c.916-.188 1.932-.349 2.316-.57.384-.222 2.918-2.41 2.918-2.41.066-2.324 3.297-3.82 3.297-3.82-1.715-.46-3.65 1.51-3.65 1.51" clip-rule="evenodd"/></g><defs><filter id="filter0_f" width="16" height="16" x="571.536" y="91.723" color-interpolation-filters="sRGB" filterUnits="userSpaceOnUse"><feFlood flood-opacity="0" result="BackgroundImageFix"/><feBlend in="SourceGraphic" in2="BackgroundImageFix" result="shape"/><feGaussianBlur result="effect1_foregroundBlur" stdDeviation="2"/></filter><filter id="filter1_f" width="16" height="16" x="735.529" y="49.35" color-interpolation-filters="sRGB" filterUnits="userSpaceOnUse"><feFlood flood-opacity="0" result="BackgroundImageFix"/><feBlend in="SourceGraphic" in2="BackgroundImageFix" result="shape"/><feGaussianBlur result="effect1_foregroundBlur" stdDeviation="2"/></filter><filter id="filter2_f" width="16" height="16" x="271.554" y="244.782" color-interpolation-filters="sRGB" filterUnits="userSpaceOnUse"><feFlood flood-opacity="0" result="BackgroundImageFix"/><feBlend in="SourceGraphic" in2="BackgroundImageFix" result="shape"/><feGaussianBlur result="effect1_foregroundBlur" stdDeviation="2"/></filter><filter id="filter3_f" width="16" height="16" x="142.79" y="37.35" color-interpolation-filters="sRGB" filterUnits="userSpaceOnUse"><feFlood flood-opacity="0" result="BackgroundImageFix"/><feBlend in="SourceGraphic" in2="BackgroundImageFix" result="shape"/><feGaussianBlur result="effect1_foregroundBlur" stdDeviation="2"/></filter><filter id="filter4_f" width="16" height="16" x="837.698" y="33.35" color-interpolation-filters="sRGB" filterUnits="userSpaceOnUse"><feFlood flood-opacity="0" result="BackgroundImageFix"/><feBlend in="SourceGraphic" in2="BackgroundImageFix" result="shape"/><feGaussianBlur result="effect1_foregroundBlur" stdDeviation="2"/></filter><filter id="filter5_f" width="16" height="16" x="770.035" y="176.774" color-interpolation-filters="sRGB" filterUnits="userSpaceOnUse"><feFlood flood-opacity="0" result="BackgroundImageFix"/><feBlend in="SourceGraphic" in2="BackgroundImageFix" result="shape"/><feGaussianBlur result="effect1_foregroundBlur" stdDeviation="2"/></filter><filter id="filter6_f" width="16" height="16" x="1548.28" y="172.774" color-interpolation-filters="sRGB" filterUnits="userSpaceOnUse"><feFlood flood-opacity="0" result="BackgroundImageFix"/><feBlend in="SourceGraphic" in2="BackgroundImageFix" result="shape"/><feGaussianBlur result="effect1_foregroundBlur" stdDeviation="2"/></filter><filter id="filter7_f" width="16" height="16" x="1111.36" y="120.232" color-interpolation-filters="sRGB" filterUnits="userSpaceOnUse"><feFlood flood-opacity="0" result="BackgroundImageFix"/><feBlend in="SourceGraphic" in2="BackgroundImageFix" result="shape"/><feGaussianBlur result="effect1_foregroundBlur" stdDeviation="2"/></filter><filter id="filter8_f" width="16" height="16" x="1497.02" y="41.35" color-interpolation-filters="sRGB" filterUnits="userSpaceOnUse"><feFlood flood-opacity="0" result="BackgroundImageFix"/><feBlend in="SourceGraphic" in2="BackgroundImageFix" result="shape"/><feGaussianBlur result="effect1_foregroundBlur" stdDeviation="2"/></filter><filter id="filter9_f" width="16" height="16" x="1357" y="199.084" color-interpolation-filters="sRGB" filterUnits="userSpaceOnUse"><feFlood flood-opacity="0" result="BackgroundImageFix"/><feBlend in="SourceGraphic" in2="BackgroundImageFix" result="shape"/><feGaussianBlur result="effect1_foregroundBlur" stdDeviation="2"/></filter><filter id="filter10_f" width="16" height="16" x="1107.36" y=".862" color-interpolation-filters="sRGB" filterUnits="userSpaceOnUse"><feFlood flood-opacity="0" result="BackgroundImageFix"/><feBlend in="SourceGraphic" in2="BackgroundImageFix" result="shape"/><feGaussianBlur result="effect1_foregroundBlur" stdDeviation="2"/></filter><filter id="filter11_f" width="16" height="16" x="563.536" y="197.46" color-interpolation-filters="sRGB" filterUnits="userSpaceOnUse"><feFlood flood-opacity="0" result="BackgroundImageFix"/><feBlend in="SourceGraphic" in2="BackgroundImageFix" result="shape"/><feGaussianBlur result="effect1_foregroundBlur" stdDeviation="2"/></filter><filter id="filter12_f" width="16" height="16" x="263.554" y="62.065" color-interpolation-filters="sRGB" filterUnits="userSpaceOnUse"><feFlood flood-opacity="0" result="BackgroundImageFix"/><feBlend in="SourceGraphic" in2="BackgroundImageFix" result="shape"/><feGaussianBlur result="effect1_foregroundBlur" stdDeviation="2"/></filter><filter id="filter13_f" width="16" height="16" x="46.726" y="319.51" color-interpolation-filters="sRGB" filterUnits="userSpaceOnUse"><feFlood flood-opacity="0" result="BackgroundImageFix"/><feBlend in="SourceGraphic" in2="BackgroundImageFix" result="shape"/><feGaussianBlur result="effect1_foregroundBlur" stdDeviation="2"/></filter><filter id="filter14_f" width="16" height="16" x="345" y="33.35" color-interpolation-filters="sRGB" filterUnits="userSpaceOnUse"><feFlood flood-opacity="0" result="BackgroundImageFix"/><feBlend in="SourceGraphic" in2="BackgroundImageFix" result="shape"/><feGaussianBlur result="effect1_foregroundBlur" stdDeviation="2"/></filter><filter id="filter15_f" width="16" height="16" x="361.056" y="273.958" color-interpolation-filters="sRGB" filterUnits="userSpaceOnUse"><feFlood flood-opacity="0" result="BackgroundImageFix"/><feBlend in="SourceGraphic" in2="BackgroundImageFix" result="shape"/><feGaussianBlur result="effect1_foregroundBlur" stdDeviation="2"/></filter><filter id="filter16_f" width="16" height="16" x="29.644" y="184.907" color-interpolation-filters="sRGB" filterUnits="userSpaceOnUse"><feFlood flood-opacity="0" result="BackgroundImageFix"/><feBlend in="SourceGraphic" in2="BackgroundImageFix" result="shape"/><feGaussianBlur result="effect1_foregroundBlur" stdDeviation="2"/></filter><filter id="filter17_d" width="332.818" height="380.871" x="-15.723" y="-11.924" color-interpolation-filters="sRGB" filterUnits="userSpaceOnUse"><feFlood flood-opacity="0" result="BackgroundImageFix"/><feColorMatrix in="SourceAlpha" values="0 0 0 0 0 0 0 0 0 0 0 0 0 0 0 0 0 0 127 0"/><feOffset dy="4"/><feGaussianBlur stdDeviation="8"/><feColorMatrix values="0 0 0 0 0.300972 0 0 0 0 0.338512 0 0 0 0 0.366667 0 0 0 0.4 0"/><feBlend in2="BackgroundImageFix" result="effect1_dropShadow"/><feBlend in="SourceGraphic" in2="effect1_dropShadow" result="shape"/></filter><filter id="filter18_d" width="81.519" height="100.55" x="162.88" y="221.881" color-interpolation-filters="sRGB" filterUnits="userSpaceOnUse"><feFlood flood-opacity="0" result="BackgroundImageFix"/><feColorMatrix in="SourceAlpha" values="0 0 0 0 0 0 0 0 0 0 0 0 0 0 0 0 0 0 127 0"/><feOffset/><feGaussianBlur stdDeviation="8"/><feColorMatrix values="0 0 0 0 0.966667 0 0 0 0 0.308516 0 0 0 0 0.18125 0 0 0 1 0"/><feBlend in2="BackgroundImageFix" result="effect1_dropShadow"/><feBlend in="SourceGraphic" in2="effect1_dropShadow" result="shape"/></filter><linearGradient id="paint0_linear" x1="186.386" x2="620.289" y1="252.41" y2="756.083" gradientUnits="userSpaceOnUse"><stop stop-color="#fff"/><stop offset=".63" stop-color="#fff" stop-opacity=".25"/><stop offset="1" stop-color="#fff" stop-opacity="0"/></linearGradient><linearGradient id="paint1_linear" x1="203.268" x2="280.313" y1="223.973" y2="344.971" gradientUnits="userSpaceOnUse"><stop stop-color="#AB2D1A"/><stop offset="1" stop-color="#EC381E" stop-opacity="0"/></linearGradient><linearGradient id="paint2_linear" x1="170.207" x2="126.888" y1="279.215" y2="304.225" gradientUnits="userSpaceOnUse"><stop stop-color="#84889C"/><stop offset="1" stop-color="#C7CBE2"/></linearGradient><linearGradient id="paint3_linear" x1="231.602" x2="274.92" y1="243.769" y2="218.759" gradientUnits="userSpaceOnUse"><stop stop-color="#84889C"/><stop offset="1" stop-color="#C7CBE2"/></linearGradient><linearGradient id="paint4_linear" x1="226.486" x2="171.036" y1="306.451" y2="237.881" gradientUnits="userSpaceOnUse"><stop stop-color="#F50"/><stop offset=".766" stop-color="#FF2000" stop-opacity=".64"/></linearGradient><linearGradient id="paint6_linear" x1="76.295" x2="93.962" y1="36.7" y2="66.881" gradientUnits="userSpaceOnUse"><stop stop-color="#C7CBE2"/><stop offset="1" stop-color="#75798C"/></linearGradient><linearGradient id="paint7_linear" x1="107.793" x2="133.389" y1="128.863" y2="114.085" gradientUnits="userSpaceOnUse"><stop stop-color="#F50"/><stop offset=".41" stop-color="#F50"/><stop offset=".582" stop-color="#FF2000"/><stop offset="1" stop-color="#FF2000"/></linearGradient><linearGradient id="paint8_linear" x1="96.101" x2="116.89" y1="102.533" y2="90.531" gradientUnits="userSpaceOnUse"><stop stop-color="#FF452A"/><stop offset="1" stop-color="#FF2000"/></linearGradient><radialGradient id="paint5_radial" cx="0" cy="0" r="1" gradientTransform="rotate(60 -35.857 148.591) scale(29.0657 29.3275)" gradientUnits="userSpaceOnUse"><stop offset=".495" stop-color="#DEE3FC"/><stop offset=".891" stop-color="#A6ABC4"/><stop offset="1" stop-color="#7B7F93"/></radialGradient></defs></svg>