<svg xmlns="http://www.w3.org/2000/svg" x="0px" y="0px" width="100" height="100" viewBox="0,0,256,256">
<defs><linearGradient x1="16.5" y1="13" x2="16.5" y2="51" gradientUnits="userSpaceOnUse" id="color-1_Tlm1GNk2trua_gr1"><stop offset="0" stop-color="#115c77"></stop><stop offset="0.492" stop-color="#115c77"></stop><stop offset="1" stop-color="#115c77"></stop></linearGradient><linearGradient x1="38.5" y1="13" x2="38.5" y2="51" gradientUnits="userSpaceOnUse" id="color-2_Tlm1GNk2trua_gr2"><stop offset="0" stop-color="#115c77"></stop><stop offset="0.492" stop-color="#115c77"></stop><stop offset="1" stop-color="#115c77"></stop></linearGradient><linearGradient x1="32" y1="9" x2="32" y2="55" gradientUnits="userSpaceOnUse" id="color-3_Tlm1GNk2trua_gr3"><stop offset="0" stop-color="#000000"></stop><stop offset="1" stop-color="#000000"></stop></linearGradient></defs><g transform="translate(-46.08,-46.08) scale(1.36,1.36)"><g fill="none" fill-rule="nonzero" stroke="none" stroke-width="1" stroke-linecap="butt" stroke-linejoin="miter" stroke-miterlimit="10" stroke-dasharray="" stroke-dashoffset="0" font-family="none" font-weight="none" font-size="none" text-anchor="none" style="mix-blend-mode: normal"><g transform="scale(4,4)"><path d="M14,13h6v38h-6c-0.54,0 -1,-0.46 -1,-1v-36c0,-0.54 0.46,-1 1,-1z" fill="url(#color-1_Tlm1GNk2trua_gr1)"></path><path d="M51,14v36c0,0.54 -0.46,1 -1,1h-24v-38h24c0.54,0 1,0.46 1,1z" fill="url(#color-2_Tlm1GNk2trua_gr2)"></path><path d="M50,9h-36c-2.76,0 -5,2.24 -5,5v36c0,2.76 2.24,5 5,5h36c2.76,0 5,-2.24 5,-5v-36c0,-2.76 -2.24,-5 -5,-5zM14,53c-1.65,0 -3,-1.35 -3,-3v-36c0,-1.65 1.35,-3 3,-3h8v42zM53,50c0,1.65 -1.35,3 -3,3h-26v-42h26c1.65,0 3,1.35 3,3z" fill="url(#color-3_Tlm1GNk2trua_gr3)"></path></g></g></g>
</svg>