<svg xmlns="http://www.w3.org/2000/svg" fill="none" viewBox="845.08 -7.16 1714.92 554.63"><path d="M845.081-7.163c30.94 31.961 62.71 61.892 98.27 82.535 49.166 28.142 105.729 38.217 162.299 48.293 48.53 8.645 97.07 17.29 140.93 37.345 81.4 37.219 146.69 113.767 211.98 190.32 10.9 12.775 21.79 25.55 32.77 38.142 76.95 87.414 156.85 167.64 273.97 157.051 68.43-5.611 149.65-42.46 230.87-79.309 57.29-25.992 114.58-51.984 167.39-67.014 128.07-37.349 229.91-10.632 321.44 41.155a689.244 689.244 0 0175 49.78V-7.163H845.081z" fill="#3E0829"/></svg>