<svg xmlns="http://www.w3.org/2000/svg" width="136.75" height="42.47" viewBox="0 0 136.75 42.47"><path data-name="H1 H2 H3" d="M26.931.02v18.3H5.451V.02h-5.46v42.3h5.46V22.76h21.48v19.56h5.52V.02h-5.52zm20.04 5.1v37.2h5.76V.02h-12.12v5.1h6.36zm33.491 16.05v9.15h-10.74v-9.15h-2.73v21.15h2.73v-9.78h10.74v9.78h2.76V21.17h-2.76zm7.71 19.05v1.98h14.55v-2.25h-10.74a30.031 30.031 0 004.785-3.59 21.852 21.852 0 003.87-4.59 9.159 9.159 0 001.545-4.87 5.788 5.788 0 00-1.74-4.5 6.715 6.715 0 00-4.71-1.59 7.048 7.048 0 00-5.1 1.9 7.9 7.9 0 00-2.19 5.45h2.7a6.23 6.23 0 011.2-3.68 3.846 3.846 0 013.18-1.33 3.642 3.642 0 012.955 1.09 4.381 4.381 0 01.915 2.9q0 2.91-3.06 6.28a44.281 44.281 0 01-8.16 6.8zm32.963-12.71v6.41h-7.518v-6.41h-1.911v14.81h1.911v-6.85h7.518v6.85h1.932V27.51h-1.932zm10.794-.4a5.146 5.146 0 00-3.58 1.19 4.655 4.655 0 00-1.46 3.28h1.869a3.1 3.1 0 011.008-2.13 3.2 3.2 0 012.121-.72 2.756 2.756 0 011.974.67 2.368 2.368 0 01.714 1.81q0 2.58-3.864 2.58h-.5v1.6h.5a5.536 5.536 0 013.077.72 2.381 2.381 0 011.081 2.11 2.483 2.483 0 01-.756 1.88 3.015 3.015 0 01-2.163.72 3.332 3.332 0 01-2.362-.81 3.614 3.614 0 01-1.061-2.21h-1.89a5.059 5.059 0 001.67 3.48 5.583 5.583 0 003.706 1.18 4.9 4.9 0 003.507-1.15 3.933 3.933 0 001.218-2.98 3.234 3.234 0 00-.913-2.44 5.571 5.571 0 00-2.531-1.3v-.13a3.5 3.5 0 002.363-1.13 3.465 3.465 0 00.808-2.33 3.828 3.828 0 00-.525-2 3.524 3.524 0 00-1.554-1.38 5.479 5.479 0 00-2.457-.51z" fill="#212121" fill-rule="evenodd"/></svg>